<?xml version="1.0" encoding="utf-8"?>
<!-- Generator: Adobe Illustrator 21.1.0, SVG Export Plug-In . SVG Version: 6.00 Build 0)  -->
<svg version="1.1" id="Layer_1" xmlns="http://www.w3.org/2000/svg" xmlns:xlink="http://www.w3.org/1999/xlink" x="0px" y="0px"
	 viewBox="0 0 30.3 17.3" style="enable-background:new 0 0 30.3 17.3;" xml:space="preserve">
<style type="text/css">
	.st0{fill:#F39200;}
</style>
<title>knop-submit-hover</title>
<path class="st0" d="M26.9,7.3c-0.9-0.5-1.9-1-2.8-1.6l-0.7-0.3l-0.3-0.2l-1-0.3c-0.5-0.4-6-4.4-7.6-3.5l0.1,5.4L12.9,7l-4,0.2
	c-1.5,0-4-0.5-5.5-0.4C2.1,6.6,1,7.6,0.9,8.9c0,0.1,0,0.2,0,0.3c0.1,1.3,0.5,2.1,2.7,2.1h2.2l1.4,0.2l2.8-0.2l4.8-0.2l0.1,2.6v2.8
	c0.7-0.3,1.3-0.6,1.9-1l1.8-1.1l3.6-1.4l1.8-1.2l1.3-0.4c1.5-0.9,2.9-1.9,4.2-3l0,0C28.7,8,27.8,7.6,26.9,7.3z"/>
</svg>
