<?xml version="1.0" encoding="utf-8"?>
<!-- Generator: Adobe Illustrator 21.1.0, SVG Export Plug-In . SVG Version: 6.00 Build 0)  -->
<svg version="1.1" id="Layer_1" xmlns="http://www.w3.org/2000/svg" xmlns:xlink="http://www.w3.org/1999/xlink" x="0px" y="0px"
	 viewBox="0 0 260.3 198.6" style="enable-background:new 0 0 260.3 198.6;" xml:space="preserve">
<style type="text/css">
	.st0{fill:#312783;}
	.st1{fill:#008D33;}
	.st2{fill:#F39200;}
	.st3{enable-background:new    ;}
	.st4{fill:#FFFFFF;}
	.st5{fill:#E84E0F;}
	.st6{fill:#95C11F;}
</style>
<title>bits</title>
<rect y="0" class="st0" width="260.3" height="198.6"/>
<path class="st1" d="M124.2,89.5h-0.3c-1.3-2.3-1.8-4.8-3.1-6.9c-0.7-1-7.6-11.4-11.6-14.4c-1.6-1.2-7.3-4.2-7.3-4.2
	c-1.8-0.7-3.7-1.6-5.6-2.3c-2.3-1.2-11.7-4.2-13.9-4.8c-2-0.8-4.1-1.3-6.2-1.6c-3.2-0.1-17.4,2.6-17.4,2.6C57,58.8,48.5,62,46.6,63
	l-4.1,2.8c-1.5,1.5-3.2,3.1-4.8,4.5c-3.1,2.9-6.2,5.6-8.9,8.6c-1.9,1.9-3.1,4.8-4.2,7.2c-3.2,6.4-5.6,13.1-7.2,20.1
	c-0.6,2.9-0.4,5.9-0.4,9.1c0,0.7,1.3,5.1,1.3,5.1c0.3,1,3.4,8.6,5.1,11c4.3,5.5,9.2,10.5,14.6,14.8c1.9,1.6,4.2,3.7,6.7,4.7
	c3.7,1.5,7.6,2.5,11.4,3.8c2.1,0.6,4.2,1.2,6.2,1.9l2.6,0.9c0,0,6.4-0.7,8.8-0.7c2.1,0,4.2-0.3,6.3-0.3c0,0,5.7-0.4,7-1
	c3.2-1.3,6.4-2.7,9.4-4.4c1.8-1,3.2-2.9,4.7-4.2c1.8-1.6,8.8-8.5,10.4-10.5c1.3-1.5,2.6-3.1,4-4.5c0,0,3.8-5.4,4.7-7.2
	c2.2-4.4,3.2-9.5,4-14.6c0.3-1.2,0-2.2,0.3-3.4c0.4-2.6,0.3-5.4,0.6-8.3C125.2,97.3,124.7,90.8,124.2,89.5z"/>
<path class="st2" d="M91,140.5c-0.1,0-0.4,0.1-0.6,0.1s-0.6,0.1-0.7,0.1s-0.4,0.1-0.6,0.1c-0.3,0.1-0.6,0.2-0.9,0.3l-0.4,0.1
	c-0.1,0-0.3,0.1-0.4,0.1s-0.4,0.1-0.6,0.1l-0.4,0.1c-0.1,0-0.3,0.1-0.4,0.1s-0.3,0.1-0.4,0.1s-0.4,0.1-0.6,0.1s-0.3,0.1-0.4,0.1
	c-0.7,0.1-1.3,0.3-1.9,0.6c-0.3,0.1-0.7,0.2-1,0.3l-0.3,0.1c-0.3,0.1-0.6,0.2-0.9,0.3l-0.3,0.1c-0.1,0-0.4,0.1-0.6,0.1l-0.3,0.1
	c-0.1,0-0.4,0.1-0.6,0.1c-0.4,0.1-1,0.3-1.5,0.4v0.2c0.1,0.1,0.1,0.3,0.1,0.4c0.1,0.3,0.3,0.4,0.6,0.7c0.6,0.5,1.2,0.9,1.9,1.2
	c0.3,0.1,0.6,0.2,0.9,0.3c0.5,0.1,1,0.1,1.5,0.1c0.3,0,0.6,0,0.7,0.1h0.6c0.3,0,0.6-0.1,0.9-0.1s0.6-0.1,0.9-0.1h0.3
	c0.2,0,0.4,0,0.6-0.1c0.4-0.1,0.9-0.3,1.2-0.6c0.3-0.1,0.4-0.3,0.6-0.4s0.4-0.3,0.7-0.4l0.6-0.6l0.4-0.4l0.3-0.1
	c0.2-0.2,0.3-0.4,0.4-0.6c0.3-0.4,0.4-1,0.4-1.5v-1.3C91.1,140.9,91,140.6,91,140.5"/>
<g class="st3">
	<path class="st4" d="M58,137.9c0.1,0.5-0.1,1.1-0.7,1.3c-0.5,0.1-1-0.4-1.1-0.5l-0.1-0.5l-0.3-0.5l-0.7-2.9l0-0.5l-0.5-1.3
		c0,0,0-0.1,0-0.1c-0.1-0.4,0.1-0.9,0.6-1c0.7-0.2,1.2,0.6,1.2,0.6l0.2,0.3l0,0.6l0.2,1.1l0.4,1.5l0.6,1.2L58,137.9
		C57.9,137.9,57.9,137.9,58,137.9z"/>
</g>
<g class="st3">
	<path class="st4" d="M104.2,125.5c0.1,0.5-0.1,1.1-0.7,1.3c-0.5,0.1-1-0.4-1.1-0.5l-0.1-0.5l-0.3-0.5l-0.7-2.9l0-0.5l-0.5-1.3
		c0,0,0-0.1,0-0.1c-0.1-0.4,0.1-0.9,0.6-1c0.7-0.2,1.2,0.6,1.2,0.6l0.2,0.3l0,0.6l0.2,1.1l0.4,1.5l0.6,1.2L104.2,125.5
		C104.2,125.5,104.2,125.5,104.2,125.5z"/>
</g>
<path class="st5" d="M228.9,72.1c-0.1,0-0.1,0-0.1-0.1c0,0,0,0,0,0c0.1-2.6,1-5,1-7.5c-0.1-1.2-0.3-13.6-2.1-18.3
	c-0.7-1.8-4-7.6-4-7.6c-1.2-1.6-2.3-3.2-3.4-5c-1.5-2.2-7.6-9.8-9.2-11.6c-1.3-1.7-2.7-3.3-4.2-4.7c-2.6-1.9-16.1-7-16.1-7
	c-2.1-0.3-10.8-2.1-13-2.2L173,8.2c-2.1,0.4-4.4,0.7-6.4,1.2c-4.1,0.7-8.2,1.5-12.2,2.5c-2.6,0.6-5.3,2.5-7.5,3.8
	c-6.1,3.7-11.7,8-16.8,13c-2.1,2.2-3.5,4.8-5.3,7.5c-0.4,0.7-1.6,5.1-1.6,5.1c-0.3,1-1.8,9.1-1.6,12c0.6,7,2.1,13.8,4.5,20.4
	c0.9,2.3,1.6,5.4,3.2,7.5c2.3,3.2,5,6.2,7.6,9.4c1.3,1.6,2.9,3.2,4.2,4.8l1.8,2.2c0,0,5.9,2.9,7.8,4.1l5.6,3.1c0,0,5.1,2.8,6.4,2.9
	c3.4,0.7,6.8,1.2,10.3,1.3c2.1,0,4.2-0.7,6.3-1c4.9-0.9,9.7-2,14.4-3.4l5.7-1.8c0,0,6.2-2.5,7.8-3.5c4.2-2.8,8-6.3,11.1-10.3
	c0.9-0.9,1.2-1.9,2.1-2.8c1.8-2.1,3.2-4.5,5-6.7C226.7,77.1,227.9,74.6,228.9,72.1z"/>
<path class="st6" d="M167,100.2L167,100.2v-0.4c0-0.3,0-0.7-0.1-1c0-0.1-0.1-0.3-0.1-0.4c0-0.1-0.1-0.1-0.1-0.3
	c-0.1-0.2-0.3-0.4-0.4-0.6l-0.3-0.3c-0.3-0.2-0.6-0.3-0.9-0.4c-0.1,0-0.6-0.1-0.7-0.1h-0.6c-0.3,0-0.4,0.1-0.7,0.1
	c-0.1,0-0.3,0.1-0.4,0.1c-0.3,0.2-0.7,0.4-0.9,0.7c-0.1,0.1-0.1,0.3-0.3,0.4l-0.1,0.3c-0.1,0.2-0.1,0.5-0.1,0.7
	c0,0.4,0.1,0.8,0.3,1.2c0,0.1,0.1,0.3,0.1,0.4c0.2,0.2,0.3,0.4,0.4,0.6l0.3,0.3l0.1,0.1c0.2,0.1,0.3,0.2,0.4,0.3
	c0.1,0,0.1,0.1,0.3,0.1l0.3,0.1c0.2,0,0.4,0,0.6,0.1h0.3c0.1,0,0.6-0.1,0.7-0.1s0.1,0,0.3-0.1c0.1,0,0.3-0.1,0.4-0.1
	c0.3-0.1,0.4-0.3,0.6-0.6c0-0.1,0-0.1,0.1-0.1l0,0c0.1-0.1,0.1-0.3,0.3-0.4C166.8,100.6,166.9,100.4,167,100.2z"/>
<g class="st3">
	<path class="st4" d="M136.6,80.3c-0.7-0.2-1.1-0.7-1.5-1.5c-0.6-1.4-0.8-2.4-0.5-3.5c0.2-0.5,0.4-1.3,1-1.9
		c0.3-0.2,0.8-0.5,0.8-0.5l0.7-0.5l0.6-0.2l1.3-0.2l1.5,0.6l1.2,0.6c0,0,2,1,1.2,3.5C142,79.6,139.4,81.1,136.6,80.3z M140.2,74.1
		c-0.3-0.2-0.6-0.3-0.9-0.4c-0.2-0.1-0.4-0.1-0.5-0.1l-0.3,0.1l-0.8,0.1c-0.1,0.1-0.5,0.4-0.6,0.5c-0.5,0.4-0.8,0.9-0.9,1.3
		c-0.4,1.2,0.2,2.7,1.2,3.1c0.5,0.1,1.5,0,1.7-0.1l0.6-0.3l0.4-0.1c0.2-0.2,1-1,1.2-1.7C141.6,75.4,141.3,74.8,140.2,74.1z"/>
</g>
<g class="st3">
	<path class="st4" d="M194.9,98.4c-0.7-0.2-1.1-0.7-1.5-1.5c-0.6-1.4-0.8-2.4-0.5-3.5c0.2-0.5,0.4-1.3,1-1.9
		c0.3-0.2,0.8-0.5,0.8-0.5l0.7-0.5l0.6-0.2l1.3-0.2l1.5,0.6l1.2,0.6c0,0,2,1,1.2,3.5C200.3,97.7,197.6,99.3,194.9,98.4z M198.4,92.3
		c-0.3-0.2-0.6-0.3-0.9-0.4c-0.2-0.1-0.4-0.1-0.5-0.1l-0.3,0.1l-0.8,0.1c-0.1,0.1-0.5,0.4-0.6,0.5c-0.5,0.4-0.8,0.9-0.9,1.3
		c-0.4,1.2,0.2,2.7,1.2,3.1c0.5,0.1,1.5,0,1.7-0.1l0.6-0.3l0.4-0.1c0.2-0.2,1-1,1.2-1.7C199.9,93.6,199.5,93,198.4,92.3z"/>
</g>
</svg>
