<svg xmlns="http://www.w3.org/2000/svg" viewBox="0 0 212.83 149.4"><title>bits-part</title><path d="M110.2,84.22h-.3c-1.3-2.3-1.8-4.8-3.1-6.9-.7-1-7.6-11.4-11.6-14.4-1.6-1.2-7.3-4.2-7.3-4.2-1.8-.7-3.7-1.6-5.6-2.3-2.3-1.2-11.7-4.2-13.9-4.8A24.54,24.54,0,0,0,62.2,50c-3.2-.1-17.4,2.6-17.4,2.6-1.8.9-10.3,4.1-12.2,5.1l-4.1,2.8C27,62,25.3,63.62,23.7,65c-3.1,2.9-6.2,5.6-8.9,8.6-1.9,1.9-3.1,4.8-4.2,7.2a85.88,85.88,0,0,0-7.2,20.1c-.6,2.9-.4,5.9-.4,9.1,0,.7,1.3,5.1,1.3,5.1.3,1,3.4,8.6,5.1,11A89,89,0,0,0,24,140.92c1.9,1.6,4.2,3.7,6.7,4.7,3.7,1.5,7.6,2.5,11.4,3.8,2.1.6,4.2,1.2,6.2,1.9l2.6.9s6.4-.7,8.8-.7c2.1,0,4.2-.3,6.3-.3,0,0,5.7-.4,7-1a81.43,81.43,0,0,0,9.4-4.4c1.8-1,3.2-2.9,4.7-4.2,1.8-1.6,8.8-8.5,10.4-10.5,1.3-1.5,2.6-3.1,4-4.5,0,0,3.8-5.4,4.7-7.2,2.2-4.4,3.2-9.5,4-14.6.3-1.2,0-2.2.3-3.4.4-2.6.3-5.4.6-8.3C111.2,92,110.7,85.52,110.2,84.22Z" transform="translate(-2.97 -2.82)" fill="#008d33"/><path d="M77,135.22c-.1,0-.4.1-.6.1s-.6.1-.7.1-.4.1-.6.1a3.18,3.18,0,0,0-.9.3l-.4.1c-.1,0-.3.1-.4.1s-.4.1-.6.1l-.4.1c-.1,0-.3.1-.4.1s-.3.1-.4.1-.4.1-.6.1-.3.1-.4.1a7,7,0,0,0-1.9.6,3.81,3.81,0,0,0-1,.3l-.3.1a3.18,3.18,0,0,0-.9.3l-.3.1c-.1,0-.4.1-.6.1l-.3.1c-.1,0-.4.1-.6.1-.4.1-1,.3-1.5.4v.2a.6.6,0,0,1,.1.4c.1.3.3.4.6.7a12.23,12.23,0,0,0,1.9,1.2,3.18,3.18,0,0,0,.9.3,7.08,7.08,0,0,0,1.5.1c.3,0,.6,0,.7.1h.6c.3,0,.6-.1.9-.1s.6-.1.9-.1h.3a1.49,1.49,0,0,0,.6-.1,2.73,2.73,0,0,0,1.2-.6c.3-.1.4-.3.6-.4a4.35,4.35,0,0,1,.7-.4l.6-.6.4-.4.3-.1a1.54,1.54,0,0,0,.4-.6,2.41,2.41,0,0,0,.4-1.5v-1.3c.3.1.2-.2.2-.3" transform="translate(-2.97 -2.82)" fill="#f39200"/><text transform="matrix(1.2, -0.32, 0.26, 0.97, 36.8, 132.01)" font-size="13.55" fill="#fff" font-family="ProvidenceSansPro-Bold, Providence Sans Pro" font-weight="700" style="isolation:isolate">1</text><text transform="matrix(1.2, -0.32, 0.26, 0.97, 83.04, 119.64)" font-size="13.55" fill="#fff" font-family="ProvidenceSansPro-Bold, Providence Sans Pro" font-weight="700" style="isolation:isolate">1</text><path d="M214.9,66.82a.1.1,0,0,1-.1-.1h0c.1-2.6,1-5,1-7.5-.1-1.2-.3-13.6-2.1-18.3-.7-1.8-4-7.6-4-7.6-1.2-1.6-2.3-3.2-3.4-5-1.5-2.2-7.6-9.8-9.2-11.6a37.16,37.16,0,0,0-4.2-4.7c-2.6-1.9-16.1-7-16.1-7-2.1-.3-10.8-2.1-13-2.2l-4.8.1c-2.1.4-4.4.7-6.4,1.2-4.1.7-8.2,1.5-12.2,2.5-2.6.6-5.3,2.5-7.5,3.8a93,93,0,0,0-16.8,13c-2.1,2.2-3.5,4.8-5.3,7.5-.4.7-1.6,5.1-1.6,5.1-.3,1-1.8,9.1-1.6,12a82.62,82.62,0,0,0,4.5,20.4c.9,2.3,1.6,5.4,3.2,7.5,2.3,3.2,5,6.2,7.6,9.4,1.3,1.6,2.9,3.2,4.2,4.8l1.8,2.2s5.9,2.9,7.8,4.1l5.6,3.1s5.1,2.8,6.4,2.9a61.75,61.75,0,0,0,10.3,1.3c2.1,0,4.2-.7,6.3-1a135.7,135.7,0,0,0,14.4-3.4l5.7-1.8s6.2-2.5,7.8-3.5a47,47,0,0,0,11.1-10.3c.9-.9,1.2-1.9,2.1-2.8,1.8-2.1,3.2-4.5,5-6.7A58.34,58.34,0,0,0,214.9,66.82Z" transform="translate(-2.97 -2.82)" fill="#e84e0f"/><path d="M153,94.92h0v-.4a4.59,4.59,0,0,0-.1-1,2.27,2.27,0,0,0-.1-.4c0-.1-.1-.1-.1-.3a6.12,6.12,0,0,1-.4-.6l-.3-.3a6.31,6.31,0,0,0-.9-.4c-.1,0-.6-.1-.7-.1h-.6c-.3,0-.4.1-.7.1-.1,0-.3.1-.4.1a2.76,2.76,0,0,0-.9.7c-.1.1-.1.3-.3.4l-.1.3a3.55,3.55,0,0,0-.1.7,3,3,0,0,0,.3,1.2c0,.1.1.3.1.4a1.54,1.54,0,0,1,.4.6l.3.3.1.1a.78.78,0,0,1,.4.3c.1,0,.1.1.3.1l.3.1a1.49,1.49,0,0,1,.6.1h.3c.1,0,.6-.1.7-.1s.1,0,.3-.1a2.27,2.27,0,0,1,.4-.1c.3-.1.4-.3.6-.6a.1.1,0,0,1,.1-.1h0c.1-.1.1-.3.3-.4A1.27,1.27,0,0,1,153,94.92Z" transform="translate(-2.97 -2.82)" fill="#95c11f"/><text transform="translate(115.46 71.28) rotate(17.28)" font-size="15.37" fill="#fff" font-family="ProvidenceSansPro-Bold, Providence Sans Pro" font-weight="700" style="isolation:isolate">0</text><text transform="translate(173.72 89.41) rotate(17.28)" font-size="15.37" fill="#fff" font-family="ProvidenceSansPro-Bold, Providence Sans Pro" font-weight="700" style="isolation:isolate">0</text></svg>