<svg xmlns="http://www.w3.org/2000/svg" viewBox="0 0 128.65 119.6"><title>cpu-part</title><path d="M128.41,3.72a36.07,36.07,0,0,1,1.5,8.6q.6,7.65.6,15.3c.2,16.2-.2,32.5-.7,48.7-.3,8.6.2,17.4.2,26.1,0,4.8.1,9.8-.2,14.6-.1.9.1,2.9-.4,3.8-.4.7-.7.5-1.8.4-2.3-.2-4.6-.2-6.9-.2-11.1,0-22.1-.4-33.2-.4-10.9,0-22,.4-32.9.3s-21.8-.3-32.7-.4c-5.5,0-10.9.2-16.3.2-.6,0-2.9.1-3.5-.3-.2-.2-.1-1.1-.1-1.4-.1-1.6-.1-3.3-.1-4.8,0-20.2,0-40.5.8-60.7.1-3.3-.3-6.6-.1-9.9a110.87,110.87,0,0,0,.1-12.9c-.2-4,.2-8,.1-12,0-4.7-.2-9.4-.3-14.1-.1-2.2-.7-2.7,1.6-2.8,1.8-.1,3.6-.1,5.4-.1h13.3c10.9.1,21.9.4,32.9.5,19.5.2,38.8.2,58.3.7,2.4.1,4.8.3,7.3.2,2.3.3,4.8,0,7.1.6" transform="translate(-1.91 -1.72)" fill="#008d36"/><path d="M99.11,103.22c-3.9,1.6-17.5,1.8-41.1.8-1.7-.2-24.2.6-25.7-.3-.2-.3,0-1.1,0-1.5,0-1.2.1-2.4.1-3.7-.1-4.9.1-9.9.2-14.8.1-8.2,0-16.3-.2-24.3-.1-6.2.3-12.4.2-18.6V28a30.21,30.21,0,0,1,.1-6h.1c.3-.2.9,0,1.4-.1a34.15,34.15,0,0,1,5.6,0h14.3l16.1.3a6.92,6.92,0,0,0,2.5-.1c.5-.1,1.5.2,2.1.1a13.28,13.28,0,0,1,2,0c.7.2,1.7-.2,2.3-.1,2.5.5,5.4-.2,7.4.2a7.6,7.6,0,0,0,1.4-.1,19.17,19.17,0,0,0,4.2-.1l.9.1c2.3-.1,4.6-.1,6.9-.2l.1.1c.1,1.4.1,5.2,0,6.5-.1,2.6.1,5.1,0,7.7-.1,2.4-.2,5.2-.2,7.6,0,9.1-.1,18.1-.1,27.2,0,7.1,0,8.5-.3,15.3-.1,2.2,0,4.3-.1,6.5,0,1.6-.1,3.4-.2,4.9a16.27,16.27,0,0,1,0,5.4" transform="translate(-1.91 -1.72)" fill="#9abd36"/><path d="M21.91,14.82a3.17,3.17,0,0,1,.6,2c.3,3.4-2.8,5.8-6.1,5.4-2.9-.4-6.2-2.8-6.1-6.1.1-2.3,2.6-4.6,4.8-4.8C18,10.82,20.21,13.22,21.91,14.82Z" transform="translate(-1.91 -1.72)" fill="#fff"/><path d="M14.21,40a2.9,2.9,0,0,1-1.8-.8c-2.6-2.1-2.3-5.8.1-8a7,7,0,0,1,8-.9c2.3,1.5,2.6,5.2,1.1,7.3C19.91,39.92,16.61,39.92,14.21,40Z" transform="translate(-1.91 -1.72)" fill="#9abd36"/><path d="M11.81,55.72c-.6-.4-.7-.9-1.1-1.8-1.2-3.3,1.4-6.3,4.7-6.6,2.9-.3,6.7,1.3,7.4,4.5.4,2.2-1.5,5.1-3.6,5.9C16.51,58.72,13.81,56.92,11.81,55.72Z" transform="translate(-1.91 -1.72)" fill="#fff"/><path d="M13.81,66a2.61,2.61,0,0,1,1.8-.9c3.4-.8,6.2,1.9,6.2,5.3,0,3.1-1.8,6.6-5.1,6.9-2.3.2-4.9-1.9-5.6-4.1C10.51,70.62,12.61,67.82,13.81,66Z" transform="translate(-1.91 -1.72)" fill="#9abd36"/><path d="M15.91,97.12a3.28,3.28,0,0,1-1.9-.4c-3.2-1.5-3.6-5.4-1.5-8,1.9-2.3,5.7-3.8,8.4-2.1,2,1.3,2.6,4.6,1.6,6.7C21.31,95.92,18,96.42,15.91,97.12Z" transform="translate(-1.91 -1.72)" fill="#fff"/><path d="M11.91,112.12c-.6-.4-.7-.9-1.1-1.8-1.2-3.3,1.4-6.3,4.7-6.6,2.9-.3,6.7,1.3,7.4,4.5.4,2.2-1.5,5.1-3.6,5.9C16.61,115.12,13.91,113.22,11.91,112.12Z" transform="translate(-1.91 -1.72)" fill="#9abd36"/><path d="M40.61,108.22c.7.3.9.7,1.5,1.5,1.8,2.9.1,6.4-3.1,7.5-2.8.9-6.4.3-8-2.3-1.2-2-.2-5.1,1.5-6.4C34.91,106.42,38.21,107.52,40.61,108.22Z" transform="translate(-1.91 -1.72)" fill="#fff"/><path d="M53.41,115.92c-.7-.3-.8-.8-1.3-1.6-1.5-3.1.7-6.4,4-7.1,2.9-.6,6.4.5,7.7,3.4a5.41,5.41,0,0,1-2.3,6.2C58.71,118.32,55.71,116.92,53.41,115.92Z" transform="translate(-1.91 -1.72)" fill="#9abd36"/><path d="M82,108.12c.7.3.9.7,1.5,1.5,1.8,2.9.1,6.4-3.1,7.5-2.8.9-6.4.3-8-2.3-1.2-2-.2-5.1,1.5-6.4C76.31,106.32,79.61,107.52,82,108.12Z" transform="translate(-1.91 -1.72)" fill="#fff"/><path d="M92.61,115.82c-.7-.3-.8-.8-1.3-1.6-1.5-3.1.7-6.4,4-7.1,2.9-.6,6.4.5,7.7,3.4a5.41,5.41,0,0,1-2.3,6.2C98,118.32,95,116.82,92.61,115.82Z" transform="translate(-1.91 -1.72)" fill="#9abd36"/><path d="M121.31,27.52c.5.5.5,1.1.6,2,.3,3.4-2.8,5.8-6.1,5.4-2.9-.4-6.2-2.8-6.1-6.1.1-2.3,2.6-4.6,4.8-4.8C117.41,23.52,119.61,26,121.31,27.52Z" transform="translate(-1.91 -1.72)" fill="#fff"/><path d="M113.11,54.62a2.9,2.9,0,0,1-1.8-.8,5.14,5.14,0,0,1,.1-8,7,7,0,0,1,8-.9c2.3,1.5,2.6,5.2,1.1,7.3C118.81,54.42,115.41,54.32,113.11,54.62Z" transform="translate(-1.91 -1.72)" fill="#9abd36"/><path d="M110.11,71.52c-.6-.4-.7-.9-1.1-1.8-1.2-3.3,1.4-6.3,4.7-6.6,2.9-.3,6.7,1.3,7.4,4.5.4,2.2-1.5,5.1-3.6,5.9C115,74.42,112.11,72.62,110.11,71.52Z" transform="translate(-1.91 -1.72)" fill="#fff"/><path d="M112.21,82.42a2.61,2.61,0,0,1,1.8-.9c3.3-.8,6.1,1.8,6.3,5.1.1,3.1-1.7,6.6-4.9,7.1a5.83,5.83,0,0,1-5.7-3.9C109,87.12,111,84.42,112.21,82.42Z" transform="translate(-1.91 -1.72)" fill="#9abd36"/><path d="M114.21,113.62a3,3,0,0,1-2-.5c-3.1-1.5-3.5-5.3-1.4-7.9,1.9-2.4,5.7-3.9,8.4-2.2,2,1.3,2.7,4.6,1.7,6.8C119.71,112.32,116.31,113,114.21,113.62Z" transform="translate(-1.91 -1.72)" fill="#fff"/><path d="M30.71,12.42c-.6-.4-.7-.9-1.1-1.8-1.2-3.3,1.4-6.3,4.7-6.6,2.9-.3,6.7,1.3,7.4,4.5.4,2.2-1.5,5.1-3.6,5.9C35.51,15.42,32.61,13.62,30.71,12.42Z" transform="translate(-1.91 -1.72)" fill="#9abd36"/><path d="M59.41,8.52c.7.3.9.7,1.5,1.5,1.9,2.8.1,6.4-3.1,7.5-2.8.9-6.4.3-8-2.3-1.2-2-.2-5.1,1.5-6.4C53.71,6.82,57.11,7.92,59.41,8.52Z" transform="translate(-1.91 -1.72)" fill="#fff"/><path d="M72.21,16.22c-.7-.4-.8-.8-1.3-1.6-1.5-3.2.7-6.4,4-7.1,2.9-.6,6.4.5,7.7,3.4a5.41,5.41,0,0,1-2.3,6.2C77.61,18.82,74.51,17.22,72.21,16.22Z" transform="translate(-1.91 -1.72)" fill="#9abd36"/><path d="M100.91,8.52c.7.3.9.7,1.5,1.5,1.8,2.9.1,6.4-3.1,7.5-2.8.9-6.4.3-8-2.3-1.2-2-.2-5.1,1.5-6.4C95.21,6.72,98.41,7.82,100.91,8.52Z" transform="translate(-1.91 -1.72)" fill="#fff"/><path d="M111.51,16.12c-.7-.4-.8-.8-1.3-1.6-1.5-3.2.7-6.4,4-7.1,2.9-.6,6.4.5,7.7,3.4a5.41,5.41,0,0,1-2.3,6.2C116.91,18.72,113.71,17.22,111.51,16.12Z" transform="translate(-1.91 -1.72)" fill="#9abd36"/><path d="M47.21,49.42c-.1-9.7,11.8-6.6,10.7,1.9-.4,2.8-2.7,6-6.1,5.4-4.4-.7-4.7-3.9-4.6-7.3" transform="translate(-1.91 -1.72)" fill="#e84e0f"/><path d="M78.61,49.12c-.1-9.7,11.8-6.6,10.7,1.9-.4,2.8-2.7,6-6.1,5.4-4.3-.7-4.7-4-4.6-7.3" transform="translate(-1.91 -1.72)" fill="#e84e0f"/><path d="M55.91,73.42l13.8-.2,4.2.4L77,74s-.7,7.2-10.1,7.1C55.41,81.12,55.91,73.42,55.91,73.42Z" transform="translate(-1.91 -1.72)" fill="#951b81"/></svg>