<svg xmlns="http://www.w3.org/2000/svg" viewBox="0 0 260.3 198.6"><title>cpu</title><rect width="260.3" height="198.6" fill="#312783"/><path d="M186.7,5.9a36.07,36.07,0,0,1,1.5,8.6q.6,7.65.6,15.3c.2,16.2-.2,32.5-.7,48.7-.3,8.6.2,17.4.2,26.1,0,4.8.1,9.8-.2,14.6-.1.9.1,2.9-.4,3.8-.4.7-.7.5-1.8.4-2.3-.2-4.6-.2-6.9-.2-11.1,0-22.1-.4-33.2-.4-10.9,0-22,.4-32.9.3s-21.8-.3-32.7-.4c-5.5,0-10.9.2-16.3.2-.6,0-2.9.1-3.5-.3-.2-.2-.1-1.1-.1-1.4-.1-1.6-.1-3.3-.1-4.8,0-20.2,0-40.5.8-60.7.1-3.3-.3-6.6-.1-9.9A110.87,110.87,0,0,0,61,32.9c-.2-4,.2-8,.1-12,0-4.7-.2-9.4-.3-14.1-.1-2.2-.7-2.7,1.6-2.8,1.8-.1,3.6-.1,5.4-.1H81.1C92,4,103,4.3,114,4.4c19.5.2,38.8.2,58.3.7,2.4.1,4.8.3,7.3.2,2.3.3,4.8,0,7.1.6" transform="translate(1.2 5.6)" fill="#008d36"/><path d="M157.4,105.4c-3.9,1.6-17.5,1.8-41.1.8-1.7-.2-24.2.6-25.7-.3-.2-.3,0-1.1,0-1.5,0-1.2.1-2.4.1-3.7-.1-4.9.1-9.9.2-14.8.1-8.2,0-16.3-.2-24.3-.1-6.2.3-12.4.2-18.6V30.2a30.21,30.21,0,0,1,.1-6h.1c.3-.2.9,0,1.4-.1a34.15,34.15,0,0,1,5.6,0h14.3l16.1.3a6.92,6.92,0,0,0,2.5-.1c.5-.1,1.5.2,2.1.1a13.28,13.28,0,0,1,2,0c.7.2,1.7-.2,2.3-.1,2.5.5,5.4-.2,7.4.2a7.6,7.6,0,0,0,1.4-.1,19.17,19.17,0,0,0,4.2-.1l.9.1c2.3-.1,4.6-.1,6.9-.2l.1.1c.1,1.4.1,5.2,0,6.5-.1,2.6.1,5.1,0,7.7-.1,2.4-.2,5.2-.2,7.6,0,9.1-.1,18.1-.1,27.2,0,7.1,0,8.5-.3,15.3-.1,2.2,0,4.3-.1,6.5,0,1.6-.1,3.4-.2,4.9a16.27,16.27,0,0,1,0,5.4" transform="translate(1.2 5.6)" fill="#9abd36"/><path d="M80.2,17a3.17,3.17,0,0,1,.6,2c.3,3.4-2.8,5.8-6.1,5.4-2.9-.4-6.2-2.8-6.1-6.1.1-2.3,2.6-4.6,4.8-4.8C76.3,13,78.5,15.4,80.2,17Z" transform="translate(1.2 5.6)" fill="#fff"/><path d="M72.5,42.2a2.9,2.9,0,0,1-1.8-.8c-2.6-2.1-2.3-5.8.1-8a7,7,0,0,1,8-.9c2.3,1.5,2.6,5.2,1.1,7.3C78.2,42.1,74.9,42.1,72.5,42.2Z" transform="translate(1.2 5.6)" fill="#9abd36"/><path d="M70.1,57.9c-.6-.4-.7-.9-1.1-1.8-1.2-3.3,1.4-6.3,4.7-6.6,2.9-.3,6.7,1.3,7.4,4.5.4,2.2-1.5,5.1-3.6,5.9C74.8,60.9,72.1,59.1,70.1,57.9Z" transform="translate(1.2 5.6)" fill="#fff"/><path d="M72.1,68.2a2.61,2.61,0,0,1,1.8-.9c3.4-.8,6.2,1.9,6.2,5.3,0,3.1-1.8,6.6-5.1,6.9-2.3.2-4.9-1.9-5.6-4.1C68.8,72.8,70.9,70,72.1,68.2Z" transform="translate(1.2 5.6)" fill="#9abd36"/><path d="M74.2,99.3a3.28,3.28,0,0,1-1.9-.4c-3.2-1.5-3.6-5.4-1.5-8,1.9-2.3,5.7-3.8,8.4-2.1,2,1.3,2.6,4.6,1.6,6.7C79.6,98.1,76.3,98.6,74.2,99.3Z" transform="translate(1.2 5.6)" fill="#fff"/><path d="M70.2,114.3c-.6-.4-.7-.9-1.1-1.8-1.2-3.3,1.4-6.3,4.7-6.6,2.9-.3,6.7,1.3,7.4,4.5.4,2.2-1.5,5.1-3.6,5.9C74.9,117.3,72.2,115.4,70.2,114.3Z" transform="translate(1.2 5.6)" fill="#9abd36"/><path d="M98.9,110.4c.7.3.9.7,1.5,1.5,1.8,2.9.1,6.4-3.1,7.5-2.8.9-6.4.3-8-2.3-1.2-2-.2-5.1,1.5-6.4C93.2,108.6,96.5,109.7,98.9,110.4Z" transform="translate(1.2 5.6)" fill="#fff"/><path d="M111.7,118.1c-.7-.3-.8-.8-1.3-1.6-1.5-3.1.7-6.4,4-7.1,2.9-.6,6.4.5,7.7,3.4a5.41,5.41,0,0,1-2.3,6.2C117,120.5,114,119.1,111.7,118.1Z" transform="translate(1.2 5.6)" fill="#9abd36"/><path d="M140.3,110.3c.7.3.9.7,1.5,1.5,1.8,2.9.1,6.4-3.1,7.5-2.8.9-6.4.3-8-2.3-1.2-2-.2-5.1,1.5-6.4C134.6,108.5,137.9,109.7,140.3,110.3Z" transform="translate(1.2 5.6)" fill="#fff"/><path d="M150.9,118c-.7-.3-.8-.8-1.3-1.6-1.5-3.1.7-6.4,4-7.1,2.9-.6,6.4.5,7.7,3.4a5.41,5.41,0,0,1-2.3,6.2C156.3,120.5,153.3,119,150.9,118Z" transform="translate(1.2 5.6)" fill="#9abd36"/><path d="M179.6,29.7c.5.5.5,1.1.6,2,.3,3.4-2.8,5.8-6.1,5.4-2.9-.4-6.2-2.8-6.1-6.1.1-2.3,2.6-4.6,4.8-4.8C175.7,25.7,177.9,28.2,179.6,29.7Z" transform="translate(1.2 5.6)" fill="#fff"/><path d="M171.4,56.8a2.9,2.9,0,0,1-1.8-.8,5.14,5.14,0,0,1,.1-8,7,7,0,0,1,8-.9c2.3,1.5,2.6,5.2,1.1,7.3C177.1,56.6,173.7,56.5,171.4,56.8Z" transform="translate(1.2 5.6)" fill="#9abd36"/><path d="M168.4,73.7c-.6-.4-.7-.9-1.1-1.8-1.2-3.3,1.4-6.3,4.7-6.6,2.9-.3,6.7,1.3,7.4,4.5.4,2.2-1.5,5.1-3.6,5.9C173.3,76.6,170.4,74.8,168.4,73.7Z" transform="translate(1.2 5.6)" fill="#fff"/><path d="M170.5,84.6a2.61,2.61,0,0,1,1.8-.9c3.3-.8,6.1,1.8,6.3,5.1.1,3.1-1.7,6.6-4.9,7.1A5.83,5.83,0,0,1,168,92C167.3,89.3,169.3,86.6,170.5,84.6Z" transform="translate(1.2 5.6)" fill="#9abd36"/><path d="M172.5,115.8a3,3,0,0,1-2-.5c-3.1-1.5-3.5-5.3-1.4-7.9,1.9-2.4,5.7-3.9,8.4-2.2,2,1.3,2.7,4.6,1.7,6.8C178,114.5,174.6,115.2,172.5,115.8Z" transform="translate(1.2 5.6)" fill="#fff"/><path d="M89,14.6c-.6-.4-.7-.9-1.1-1.8-1.2-3.3,1.4-6.3,4.7-6.6,2.9-.3,6.7,1.3,7.4,4.5.4,2.2-1.5,5.1-3.6,5.9C93.8,17.6,90.9,15.8,89,14.6Z" transform="translate(1.2 5.6)" fill="#9abd36"/><path d="M117.7,10.7c.7.3.9.7,1.5,1.5,1.9,2.8.1,6.4-3.1,7.5-2.8.9-6.4.3-8-2.3-1.2-2-.2-5.1,1.5-6.4C112,9,115.4,10.1,117.7,10.7Z" transform="translate(1.2 5.6)" fill="#fff"/><path d="M130.5,18.4c-.7-.4-.8-.8-1.3-1.6-1.5-3.2.7-6.4,4-7.1,2.9-.6,6.4.5,7.7,3.4a5.41,5.41,0,0,1-2.3,6.2C135.9,21,132.8,19.4,130.5,18.4Z" transform="translate(1.2 5.6)" fill="#9abd36"/><path d="M159.2,10.7c.7.3.9.7,1.5,1.5,1.8,2.9.1,6.4-3.1,7.5-2.8.9-6.4.3-8-2.3-1.2-2-.2-5.1,1.5-6.4C153.5,8.9,156.7,10,159.2,10.7Z" transform="translate(1.2 5.6)" fill="#fff"/><path d="M169.8,18.3c-.7-.4-.8-.8-1.3-1.6-1.5-3.2.7-6.4,4-7.1,2.9-.6,6.4.5,7.7,3.4a5.41,5.41,0,0,1-2.3,6.2C175.2,20.9,172,19.4,169.8,18.3Z" transform="translate(1.2 5.6)" fill="#9abd36"/><path d="M105.5,51.6c-.1-9.7,11.8-6.6,10.7,1.9-.4,2.8-2.7,6-6.1,5.4-4.4-.7-4.7-3.9-4.6-7.3" transform="translate(1.2 5.6)" fill="#e84e0f"/><path d="M136.9,51.3c-.1-9.7,11.8-6.6,10.7,1.9-.4,2.8-2.7,6-6.1,5.4-4.3-.7-4.7-4-4.6-7.3" transform="translate(1.2 5.6)" fill="#e84e0f"/><path d="M114.2,75.6l13.8-.2,4.2.4,3.1.4s-.7,7.2-10.1,7.1C113.7,83.3,114.2,75.6,114.2,75.6Z" transform="translate(1.2 5.6)" fill="#951b81"/></svg>