<?xml version="1.0" encoding="utf-8"?>
<!-- Generator: Adobe Illustrator 21.1.0, SVG Export Plug-In . SVG Version: 6.00 Build 0)  -->
<svg version="1.1" id="Layer_1" xmlns="http://www.w3.org/2000/svg" xmlns:xlink="http://www.w3.org/1999/xlink" x="0px" y="0px"
	 viewBox="0 0 48.8 26.5" style="enable-background:new 0 0 48.8 26.5;" xml:space="preserve">
<style type="text/css">
	.st0{fill:#007BC4;}
	.st1{fill:#FFFFFF;}
</style>
<path class="st0" d="M1.7,2.1c11.3-1.9,28.5-2.2,39.8-0.3c8.5,1.5,6.4,1.3,6.3,10.6c0,4,1.3,10.9-1.6,12.8c-3.1,2.1-14.5,0-18.3-0.1
	c-6.7,0-14.8,1.3-21.3,0c-3.7-0.8-4.1,1-5.7-1.4C-0.1,22.3,0.2,4.5,1.7,2.1"/>
<path class="st1" d="M13.9,14.9c-0.5,0-1.2-0.2-1.6-0.2c-0.3,0-0.4,0.1-0.4,0.2c0,0,0,0.1,0,0.1c0.3,0.3,0.6,0.6,1,0.7l0.3,0.1h0.3
	l0.2,0.2l0.2,0.2v0.5l-0.2,0.1l-0.1,0.2c-0.1,0-0.2,0.1-0.3,0.1c-0.4-0.1-0.8-0.2-1.2-0.4l-0.4-0.2l-0.1-0.2l-0.6-0.6
	c-0.1-0.2-0.1-0.3-0.2-0.5c0-0.2,0-0.3,0.1-0.5V14c0-0.2,0.1-0.5,0.1-0.7c0.3-0.3,0.5-0.6,0.8-0.8c0.2-0.1,0.4-0.2,0.5-0.2l0.2-0.1
	l0.5,0c0.9,0,1.5,0.7,1.5,1.9C14.6,14.4,14.3,14.8,13.9,14.9z M13.3,13c-0.1,0-0.2,0-0.3,0.1l-0.2,0.1h-0.4c-0.2,0-0.3,0.2-0.3,0.4
	c0,0.1,0,0.2,0.1,0.2c0.1,0,0.2,0,0.2,0h0.3H13h0.3c0.3,0,0.4-0.1,0.4-0.3C13.7,13.3,13.5,13.1,13.3,13L13.3,13z"/>
<path class="st1" d="M20.7,15v0.4c0,0.1,0,0.6,0,0.6l-0.3,0.2l-0.2,0.2c0,0-0.7-0.1-0.7-0.4l0,0v-0.3v-0.3l0.1-0.5v-0.8
	c0-0.1-0.1-0.6-0.5-0.6c-0.2,0-0.5,0.1-0.7,0.3L18.2,14l-0.3,0.2c-0.1,0.1-0.1,0.3-0.2,0.4c-0.1,0.2-0.1,0.4-0.1,0.6
	c0,0.5,0.1,0.4,0.1,0.8c0,0.4-0.2,0.8-0.6,0.8c-0.2,0-0.5-0.4-0.5-0.4v-0.5v-0.3l0.1-0.5l0-1.6l0.1-0.4v-0.3l0.1-0.1l0.2-0.3
	c0,0,0.7,0.2,0.7,0.4v0.2l0,0c0,0.1,0.1,0.1,0.1,0.1l0,0c0.1-0.1,0.2-0.1,0.2-0.2l0.2-0.1c0.3-0.2,0.6-0.3,0.9-0.3
	c0.5,0,0.9,0.3,1.2,0.7c0.2,0.2,0.3,0.4,0.4,0.7V14l0.1,0.4L20.7,15z"/>
<path class="st1" d="M25.5,12.6c-0.1,0.1-0.2,0.2-0.3,0.2l0,0H25h-0.3h-0.2v0.8l-0.1,0.5v0.6v0.5l0.1,0.6l-0.1,0.3v0.2l-0.1,0.2
	L24,17h-0.2h-0.3c-0.1-0.2-0.2-0.4-0.2-0.6c0-0.2,0-0.3,0.1-0.5L23.3,15l0.1-0.3v-0.2V14v-0.6l0.1-0.4l-0.1-0.1l-0.8-0.1
	c-0.2,0-0.4-0.2-0.3-0.4c0,0,0,0,0,0c0.1-0.2,0.1-0.5,0.2-0.7c0.2,0.1,0.4,0.1,0.5,0.1c0.2,0,0.4,0,0.4-0.2l0,0v-0.5l0.1-0.3v-0.2
	l0.1-0.2c0,0,0,0,0-0.1c0-0.3,0.2-0.6,0.5-0.6c0,0,0.1,0,0.1,0c0.2,0,0.4,0.2,0.4,0.4c0,0,0,0,0,0.1c0,0-0.1,0.4-0.1,0.5v0.4v0.3
	c0,0.1,0,0.2,0.1,0.2h0.4c0.3,0.1,0.5,0.3,0.6,0.6C25.7,12.4,25.6,12.5,25.5,12.6z"/>
<path class="st1" d="M29.9,14.9c-0.5,0-1.2-0.2-1.6-0.2c-0.3,0-0.4,0.1-0.4,0.2c0,0,0,0.1,0,0.1c0.3,0.3,0.6,0.6,1,0.7l0.3,0.1h0.3
	l0.2,0.2l0.2,0.2v0.5l-0.2,0.1l-0.1,0.2c-0.1,0-0.2,0.1-0.3,0.1c-0.4-0.1-0.8-0.2-1.2-0.4l-0.4-0.2l-0.1-0.2L27,15.5
	c-0.1-0.2-0.1-0.3-0.2-0.5c0-0.2,0-0.3,0.1-0.5V14c0-0.2,0.1-0.5,0.1-0.7c0.3-0.3,0.5-0.6,0.8-0.8c0.2-0.1,0.4-0.2,0.5-0.2l0.2-0.1
	l0.5,0c0.9,0,1.5,0.7,1.5,1.9C30.7,14.4,30.4,14.8,29.9,14.9z M29.4,13c-0.1,0-0.2,0-0.3,0.1l-0.2,0.1h-0.4c-0.2,0-0.3,0.2-0.3,0.4
	c0,0.1,0,0.2,0.1,0.2c0.1,0,0.2,0,0.2,0h0.3h0.3h0.3c0.3,0,0.4-0.1,0.4-0.3C29.8,13.2,29.6,13.1,29.4,13L29.4,13z"/>
<path class="st1" d="M35.2,13.1c-0.5,0-1,0.2-1,0.5v0.2L34,14.4c0,0.1,0,0.2,0,0.3c0,0.4,0.1,0.7,0.2,1.1c0,0.3-0.2,0.8-0.6,0.8
	c-0.2,0-0.3-0.2-0.4-0.4L33,15.9l-0.1-0.2v-0.6v-0.2v-0.3v-0.3l0.1-0.5l0-0.7l-0.1-0.5V12l0,0c0-0.3,0.2-0.5,0.5-0.5c0,0,0,0,0,0
	c0.2,0,0.5,0.2,0.5,0.4v0l0.1,0.2v0.1v0.1c0,0.1,0.1,0.2,0.1,0.2c0.4,0,0.7-0.6,1.2-0.6s0.9,0.2,0.9,0.5S35.6,13.1,35.2,13.1z"/>
</svg>
