<svg xmlns="http://www.w3.org/2000/svg" viewBox="0 0 260.3 198.6"><title>gpu</title><rect width="260.3" height="198.6" fill="#312783"/><path d="M183.9,142.6c-3.1,1.2-6.8,1.4-10.1,1.8-6,.5-12,.6-18,.6-15.7.1-31.3-1.1-46.9-1-11.2,0-22.2.5-33.3.2a41.23,41.23,0,0,1-6-.4c-2.3-.4-1.8-.8-1.7-3,.6-10.6.4-21.3.5-31.9.2-21.6-.4-43.2,0-64.8.2-10.8.5-21.6.1-32.4a38.6,38.6,0,0,1,0-7.6c.2-2,1.2-1.6,3.2-1.7,4.2-.2,8.3,0,12.5,0,20.7,0,41.5.6,62.1.8,8.8.1,17.6-.2,26.5-.1,2.5,0,5.2,0,7.8-.1,1.4,0,4.6-.7,5.2.4s.1,3.5.1,4.6v5.3c-.5,20.7-.5,41.4-.6,62.1-.1,17.9,0,35.9-.8,53.7-.4,4.6.5,9.4-.6,13.5" transform="translate(1.2 5.6)" fill="#e84e0f"/><path d="M164.6,121.5c-2,.8-4.3-.1-6.5.1-3.8.4-7.8.4-11.6.5-10.2.1-20.3-.7-30.5-.6-7.2,0-14.4.4-21.6.1a23.58,23.58,0,0,1-3.8-.2c-1.4-.2-1.2-.6-1.1-1.9.4-7,.2-14.2.4-21.1.1-14.3-.2-28.5,0-42.8.1-7.1.4-14.3,0-21.3a41.69,41.69,0,0,1,0-5c.1-1.3.7-1,2-1.1,2.6-.1,5.4,0,8,0,13.4,0,26.9.4,40.3.6,5.6.1,11.5-.1,17.1-.1h5c1,0,3-.5,3.4.2s.1,2.3.1,3v3.5c-.2,13.7-.4,27.3-.4,41.1-.1,11.9,0,23.7-.5,35.5Z" transform="translate(1.2 5.6)" fill="#f39200"/><path d="M153.2,54.4c9.2,1,10.6,15,2.4,18.7C143.9,78.4,138.8,55.5,153.2,54.4Z" transform="translate(1.2 5.6)" fill="#951b81"/><path d="M106.3,71.3a5.1,5.1,0,0,1-3,1.8c-6.6,1.7-11-4.4-9.8-10.7,1.4-7.7,10.8-12.2,15.3-3.8C111.2,63.1,108.3,67.7,106.3,71.3Z" transform="translate(1.2 5.6)" fill="#951b81"/><path d="M116,81c2.2-.1,3.6-1.9,4.6-.4.8,1.4,2.4,3.6,3.7,4.2,4.9,2.3,8.4-1.4,11.4-4.7,1.6,1.8,3.5,3.1,3,5.3-.6,2.5-4.6,4.2-6.6,4.8C124.8,92.4,116.8,89,116,81Z" transform="translate(1.2 5.6)" fill="#e6007e"/></svg>