<svg xmlns="http://www.w3.org/2000/svg" viewBox="0 0 200.79 122.57"><title>hardeschijf-part</title><path d="M4.85,3.53c11.4-2.3,51.7-2.6,121.6-1.3,4.8.3,71.6-.9,75.9.5.5.4-.4,5.8-.4,7.7.2,7.3-.4,14.6-.6,22-.3,12.1-.3,54.3-.1,63.6.1,6.2.8,24.9-.3,27.8,0,0-15.3.2-20.8.2-14.1,0-108.2-.5-109.4-.7-2.2-.3-22.7.5-28.7-.1-1-.1-33,.3-39.9.4l-.2-.1a62.7,62.7,0,0,1-.1-9.7c.3-3.8.9-75.4,2-85.5.2-3.2-.2-22.5,1-24.8" transform="translate(-1.71 -1.46)" fill="#e84e0f"/><path d="M9,59.53a41.84,41.84,0,0,1,12.1-30.7c6.9-6.8,17.1-15.2,27.1-16.1,8.7-.8,18,.9,26.5,2.8,12.1,2.6,19.7,8.8,28.1,17.6,6.7,7,10.1,19.3,10.6,28.8.2,3.8.5,7.7.4,11.5-.2,5.9-3.7,11-6.5,16a48.09,48.09,0,0,1-10,12.8c-4,3.5-9,4.9-14.1,6.3-9.7,2.7-19.4,5-29.5,4-11.3-1.2-25.9-6.2-32.8-15.6-3.5-4.8-5.9-11.4-7.9-17A77,77,0,0,1,10,68.53c-.2-2.3.1-7-.9-9" transform="translate(-1.71 -1.46)" fill="#951b81"/><path d="M142.85,110.73c2.8-12.8,8.3-25.6,12.5-38.1,2.3-6.8,4.5-13.7,7-20.5.4-1.2,1.4-5.4,2.3-6.1,1.2-.8,1.2-.3,2.7.1,3.6,1,7.5,4.4,10,6.9,11.3,11.5,19.9,32.4,9.3,47.1-9.2,12.8-29.9,17.7-43.8,10.6" transform="translate(-1.71 -1.46)" fill="#951b81"/><polygon points="162.34 12.57 162.34 35.97 193.74 36.17 192.54 12.07 162.34 12.57" fill="#951b81"/><path d="M8.35,14.63c-.1-8.7,10.2-6,9.3,1.7-.3,2.6-2.3,5.4-5.3,4.9-3.8-.7-4.1-3.6-4-6.6" transform="translate(-1.71 -1.46)" fill="#f39200"/><path d="M8.35,108.73c-.1-8.7,10.2-6,9.3,1.7-.3,2.6-2.3,5.4-5.3,4.9-3.8-.6-4.1-3.3-4-6.6" transform="translate(-1.71 -1.46)" fill="#f39200"/><path d="M171.65,77.13c-1.3-7.3-.8-15.6-6.7-21.1-4.1-3.8-7-4.8-12.3-5.3-8.5-.7-16.8-2.2-25.3-3-10.1-.9-20.2-1.2-30.3-2-2.3-.2-7.3-1.4-9.4,0-.8.5-1.8,3.1-1.8,4.4.1,2.4,1.6,3.2,3.5,4.9,7.3,6.6,15,12.8,22.6,19.1s15.1,12.7,22.6,19.2c2,1.8,3.9,3.1,5.7,4.5a17.48,17.48,0,0,0,3.9,2.8c14.4,6.3,30.3-8.6,27.5-23.5" transform="translate(-1.71 -1.46)" fill="#f39200"/></svg>