<svg xmlns="http://www.w3.org/2000/svg" viewBox="0 0 62.77 31.17"><defs><style>.a{fill:#9abd36;}.b{fill:#008d33;}</style></defs><title>hekel-lgroen</title><path class="a" d="M63.28,12.22h0l-.07-.62v-.15a31.63,31.63,0,0,0,0-3.56c0-.15.07-.31,0-.46s0-.15,0-.15a1.12,1.12,0,0,0-.07-.46V6c0-.31.07-.46,0-.62s-.07-.77-.2-1.24a5.29,5.29,0,0,0-1.2-1.55c-.13-.15-.27-.15-.4-.31s-.53-.46-.8-.62a1.38,1.38,0,0,1-.73-.15,2,2,0,0,0-.87-.31.65.65,0,0,1-.47-.15C57.94.93,57.34.93,56.81.77H55.6a21.25,21.25,0,0,0-3.14,0H45.32A64.38,64.38,0,0,0,35.84.62H6.06C5.66.77,5.32.77,5,.93s-.73.15-1.07.31-.53.15-.8.31a5,5,0,0,0-.6.31c-.07,0-.07,0-.13.15L2,2.32a2.44,2.44,0,0,0-.67.62A2.81,2.81,0,0,0,1,3.56a4.38,4.38,0,0,0-.4,2.63s0,.15.07.15H.52l.07.93V8.2a5.26,5.26,0,0,1,0,1.08c0,.15.07.15,0,.31V9.9c0,.15-.07.15,0,.31H.52A9.72,9.72,0,0,0,.58,11.6v.31H.52l.07.62h0a28.94,28.94,0,0,0,0,3.4v1.24a2.93,2.93,0,0,0,0,.77c0,.31-.07.31,0,.46s0,.15,0,.15c0,.15,0,.31.07.31v.62c.07.15-.07.31,0,.46a6.55,6.55,0,0,0,.13.93A2.63,2.63,0,0,0,1.65,22c.07,0,.2.15.33.15l.6.46a1.07,1.07,0,0,0,.67.15,1.31,1.31,0,0,1,.67.31h.33l1.27.31H17.41c3.87,0,7.61.15,11.49,0,4.94-.15,9.95-.15,15-.15,3.07,0,6.14.15,9.21,0H55.4a2.57,2.57,0,0,0,1.07-.15h1.2a2.88,2.88,0,0,0,1.14-.15c.4-.15.73-.15,1.07-.31a8.53,8.53,0,0,0,.8-.46,1,1,0,0,1,.6-.15c.07,0,.07,0,.13-.15l.4-.31a2.44,2.44,0,0,0,.67-.62,3.81,3.81,0,0,0,.33-.77,4.38,4.38,0,0,0,.33-2.48h.07l-.07-.93V15.32c.07-.93.07-2,.07-3.09Z" transform="translate(-0.51 -0.52)"/><path class="b" d="M14.71,11.05v.15l0,.28-.06.64,0,.12,0,.25,0,.48v.49l0,.13v.27l0,.44a1.93,1.93,0,0,1-.19.51,1,1,0,0,1-.27.16c-.34,0-.39,0-.39-.32v-.48l.08-.57s0-.06,0-.09,0-.34-.11-.34a1.17,1.17,0,0,0-.21,0l-.55-.1-.48,0h-.57c-.06,0-.14,0-.14.08s.06.27.06.38c0,.75-.25,1.15-.53,1.15S11,14.5,11,14.5l0-.24,0-.46,0-.22,0-.22,0-.45,0-.75.08-.23V11l.15-.45a.93.93,0,0,1,.25-.08,1,1,0,0,1,.27.12v.18l0,.08a.31.31,0,0,1,0,.08c0,.1,0,.2,0,.3s0,.27,0,.31v.33l0,.12v.24l.08.08h.17l.27,0,.17,0h1.25a.11.11,0,0,0,.12-.12v-.16l.06-.36,0-.78c0-.28.21-.56.41-.56s.38.14.38.3v0Z" transform="translate(-0.51 -0.52)"/><path class="b" d="M19.11,11.35c-.08,0-.31-.06-.41-.06h-.54l-.12,0h-.59c-.09,0-.1,0-.11.06v.27l-.08.19,0,.39c0,.07,0,.13,0,.17s0,.08.06.08l.34,0h.15l.24-.1.37,0a.48.48,0,0,1,.45.45c0,.2-.28.38-.41.38h0l-.34,0-.75,0-.07,0,0,.07-.08.07,0,.9a2,2,0,0,0-.06.37c0,.06,0,.11,0,.13s.32,0,.46,0l.56,0,.31-.11h.47a.6.6,0,0,1,.5.37c0,.15-.34.36-.41.36h-.08l-.15.08-1,0s-.9.21-1.09.21a.41.41,0,0,1-.41-.43v0l0-.8.08-.21,0-.64.06-.12,0-.6.14-.88,0-.83a.49.49,0,0,1,.47-.5h.21l.15,0,.31.06.21,0h.61l.4,0h.36c.1,0,.27.2.27.38a.25.25,0,0,1,0,.14A.53.53,0,0,1,19.11,11.35Z" transform="translate(-0.51 -0.52)"/><path class="b" d="M24.3,11.76l-.13.08-.22,0c-.24,0-.54.17-.54.3a1.88,1.88,0,0,0,.2.58,2.36,2.36,0,0,1,.17.69l.31.85v.23l.07.22a.34.34,0,0,1,0,.08.44.44,0,0,1-.43.38c-.09,0-.32-.21-.39-.35l-.09-.22-.08-.43L23.14,14l-.06-.5L23,13.15l-.3-.5-.08-.25-.06,0-.79.28-.09.09v.32l0,.35v.41l0,.22,0,.15-.06.32v.57c0,.21-.15.48-.33.48s-.48-.18-.48-.41v0l0-.62.12-.62V13l.09-.43L21,12l.07-.22,0-.8,0-.25v0c0-.35.44-.36.5-.36h0l.08.14.2.07,0,.9,0,.22s0,.09,0,.13a.09.09,0,0,0,0,.06h0a.3.3,0,0,0,.14-.06l.25-.07.14-.07.41-.09L24.06,11a.37.37,0,0,1,.15,0,.5.5,0,0,1,.48.45C24.69,11.51,24.3,11.76,24.3,11.76Z" transform="translate(-0.51 -0.52)"/><path class="b" d="M28.55,11.35c-.08,0-.31-.06-.41-.06h-.54l-.12,0H26.9c-.09,0-.1,0-.11.06v.27l-.08.19,0,.39c0,.07,0,.13,0,.17s0,.08.06.08l.34,0h.15l.24-.1.37,0a.48.48,0,0,1,.45.45c0,.2-.28.38-.41.38h0l-.34,0-.75,0-.07,0,0,.07-.08.07,0,.9a2,2,0,0,0-.06.37c0,.06,0,.11,0,.13s.32,0,.46,0l.56,0,.31-.11h.47a.6.6,0,0,1,.5.37c0,.15-.34.36-.41.36h-.08l-.15.08-1,0s-.9.21-1.09.21a.41.41,0,0,1-.41-.43v0l0-.8.08-.21,0-.64.06-.12,0-.6.14-.88,0-.83a.49.49,0,0,1,.47-.5h.21l.15,0,.31.06.21,0H28l.4,0h.36c.1,0,.27.2.27.38A.25.25,0,0,1,29,11,.53.53,0,0,1,28.55,11.35Z" transform="translate(-0.51 -0.52)"/><path class="b" d="M32.83,14.89a2.26,2.26,0,0,0-.58-.07h-.71l-.17,0-.44-.08-.25,0h0c-.25,0-.29-.57-.29-.57l-.06-.36.07-1,.08-.2a5.44,5.44,0,0,0,0-.69,3.46,3.46,0,0,0-.1-.85l0-.22v-.1c0-.21.47-.34.47-.34l.1.16.16.08v.24a1.5,1.5,0,0,1,0,.22c0,.1,0,.27,0,.51s0,.35,0,.55a2.29,2.29,0,0,1,0,.29c0,.22-.08.56-.09.6v.41l0,.31,0,.15s0,.12.09.12l.69,0h0c.13,0,.29.08.46.08s.25-.08.41-.08.41.34.41.5A.35.35,0,0,1,32.83,14.89Z" transform="translate(-0.51 -0.52)"/><path class="b" d="M40.29,15c-.11,0-.32-.2-.32-.2l-.08-.22,0-.27-.07-.16a2.08,2.08,0,0,1-.16-.46c-.08-.36-.15-.6-.27-.6s-.58.13-.92.13-.28,0-.31.09l-.1.21,0,.18-.09.17-.06.17-.19.25-.16.42a.56.56,0,0,1-.38.28.51.51,0,0,1-.4-.43,1.74,1.74,0,0,1,.28-.65,2.88,2.88,0,0,1,.13-.43c.09-.2.26-.48.26-.48l.33-.63.2-.57.11-.19.25-.55c.13-.29.25-.62.57-.62s.38.12.57.53l.5,1.18,0,.23.34.74a.81.81,0,0,1,.13.23c.08.22.07.41.15.57a2,2,0,0,1,.18.5A.83.83,0,0,1,40.29,15ZM39.18,12.1l0-.13L39,11.69s0-.16-.1-.16-.36.43-.41.67a1,1,0,0,0,0,.18s0,.06,0,.06l.62,0c.09,0,.18,0,.18-.07A.8.8,0,0,0,39.18,12.1Z" transform="translate(-0.51 -0.52)"/><path class="b" d="M45.21,15c-.11,0-.32-.2-.32-.2l-.08-.22,0-.27-.07-.16a2.08,2.08,0,0,1-.16-.46c-.08-.36-.15-.6-.27-.6s-.58.13-.92.13-.28,0-.31.09l-.1.21,0,.18-.09.17-.06.17-.19.25-.16.42a.56.56,0,0,1-.38.28.51.51,0,0,1-.4-.43,1.74,1.74,0,0,1,.28-.65,2.88,2.88,0,0,1,.13-.43c.09-.2.26-.48.26-.48l.33-.63.2-.57.11-.19.25-.55c.13-.29.25-.62.57-.62s.38.12.57.53l.5,1.18,0,.23.34.74a.81.81,0,0,1,.13.23c.08.22.07.41.15.57a2,2,0,0,1,.18.5A.83.83,0,0,1,45.21,15ZM44.1,12.1l0-.13-.16-.29s0-.16-.1-.16-.36.43-.41.67a1,1,0,0,0,0,.18s0,.06,0,.06l.62,0c.09,0,.18,0,.18-.07A.8.8,0,0,0,44.1,12.1Z" transform="translate(-0.51 -0.52)"/><path class="b" d="M51,12.34v.17l-.18.45-.09.44-.29.54-.07.29-.1.15-.15.3c-.1.19-.3.41-.41.41s-.29-.18-.41-.33l-.65-.8-.29-.26-.22-.36L48,13.09l0-.15-.07-.09-.07,0h0a.12.12,0,0,0-.11.13v.29l0,.47-.16.71-.2.46a1,1,0,0,1-.28.08c-.13,0-.27-.26-.27-.26v-.24l.09-.23V14.1s.19-1,.21-1.34v-.41c0-.18.12-.29.13-.39s0-.5,0-.5.2-.32.38-.32a1,1,0,0,1,.32.12l.13.48.64,1a6.63,6.63,0,0,0,.65.77c.13.15.17.45.38.45,0,0,.08-.08.08-.15s.08-.18.15-.33a9.87,9.87,0,0,0,.4-1.11l.06-.31.07-.15,0-.24.11-.34a.42.42,0,0,1,.44-.41c.2,0,.32.25.32.5a.65.65,0,0,1,0,.24Z" transform="translate(-0.51 -0.52)"/><path class="b" d="M53.06,12.37l0,.15-.15.08a.54.54,0,0,1-.33.16c-.13,0-.33-.29-.33-.29v-.08a.46.46,0,0,1-.13-.25.61.61,0,0,1,.59-.57.53.53,0,0,1,.48.54A.66.66,0,0,1,53.06,12.37Zm-.41,2.25a.84.84,0,0,1-.24-.09l-.18-.07a1.55,1.55,0,0,1-.13-.38.48.48,0,0,1,0-.17l0-.15.13-.11.16-.15.32.06.11.13a.57.57,0,0,1,.24.5C53.15,14.5,52.92,14.62,52.65,14.62Z" transform="translate(-0.51 -0.52)"/><path class="a" d="M31.26,27.18l-.1-.75.05-.3,0-.52v-.34a9,9,0,0,0,0-1.44,1.46,1.46,0,0,1,0-.69,2,2,0,0,1,.1-.3l0-.24c0-.23,1-.64,1-.64l.31.23.24.08.08.63,0,.76.08.33-.08.2-.11.59,0,.29-.07.67.17,1.07a.67.67,0,0,1-.1.55c-.18.29-.31.64-.82.76s-.77,0-.83-.27A1.4,1.4,0,0,1,31.26,27.18Z" transform="translate(-0.51 -0.52)"/><path class="a" d="M34.35,26.69l.33.22.46.15-.25.86L34,29.16l-.32.55-.21.2-1,1.46a.67.67,0,0,1-.49.32c-.44,0-.93-.57-1-.65l-.19-.15-.31-.57L30.24,30l-.67-1.16L28.91,28a1.32,1.32,0,0,1-.25-.58.79.79,0,0,1,.06-.41c.09-.28.26-.34.36-.35h.05l.11-.05.08,0,.07,0Z" transform="translate(-0.51 -0.52)"/></svg>