<?xml version="1.0" encoding="utf-8"?>
<!-- Generator: Adobe Illustrator 21.1.0, SVG Export Plug-In . SVG Version: 6.00 Build 0)  -->
<svg version="1.1" id="Layer_1" xmlns="http://www.w3.org/2000/svg" xmlns:xlink="http://www.w3.org/1999/xlink" x="0px" y="0px"
	 viewBox="0 0 94.7 15.4" style="enable-background:new 0 0 94.7 15.4;" xml:space="preserve">
<style type="text/css">
	.st0{fill:#E84E0F;}
	.st1{fill:#FFFFFF;}
</style>
<title>knop-rom-hvr</title>
<path class="st0" d="M94.3,7.8L94.3,7.8l-0.1-0.4V7.3c0.1-0.8,0.1-1.5,0-2.3c0-0.1,0.1-0.2,0-0.3s0-0.1,0-0.1c0-0.1,0-0.2-0.1-0.3
	c0-0.2,0-0.3,0-0.5s0.1-0.3,0-0.4s-0.1-0.5-0.3-0.8c-0.5-0.4-1.2-0.8-1.8-1c-0.2-0.1-0.4-0.1-0.6-0.2c-0.4-0.1-0.8-0.3-1.2-0.4
	C89.9,1,89.5,1,89.1,0.9s-0.9-0.2-1.3-0.2c-0.2,0-0.4,0-0.7-0.1c-0.8-0.1-1.7-0.1-2.5-0.2c-0.6,0-1.2,0-1.8,0c-1.4-0.1-3.2,0-4.7,0
	s-3.1,0-4.6,0c-2.1,0-4,0-6.1,0c-6.3-0.2-7.7-0.2-14.2-0.1c-8.3,0-16.8,0-25.1,0c-2.3,0-4.8,0-7.1,0s-4.7,0-7.1,0h-1.1
	c-0.6,0-1.1,0-1.7,0l-2.4,0H8.7l0,0H8.6C8,0.4,7.5,0.4,7,0.5S5.9,0.6,5.4,0.7S4.6,0.8,4.2,0.9S3.6,1,3.3,1.1c-0.1,0-0.1,0-0.2,0.1
	L2.5,1.4c-0.3,0.1-0.7,0.2-1,0.4C1.3,1.9,1.1,2.1,1,2.2C0.5,2.6,0.1,3.4,0.4,3.9c0,0,0,0.1,0.1,0.1H0.3l0.1,0.6c0,0,0,0,0,0.1
	s0,0.2,0,0.4s0,0.1,0,0.1s0.1,0.4,0,0.7c0,0.1,0.1,0.1,0,0.2c0,0.1,0,0.1,0,0.2c0,0.1-0.1,0.1,0,0.2l0,0H0.3c0,0.3,0,0.6,0.1,0.9
	v0.2H0.3L0.4,8l0,0c-0.1,0.7-0.1,1.5,0,2.2c0,0.1,0,0.2,0,0.4V11c-0.1,0.1,0,0.3,0,0.5s-0.1,0.2,0,0.3s0,0.1,0,0.1
	c0,0.1,0,0.2,0.1,0.2v0.4c0.1,0.1-0.1,0.2,0,0.3s0,0.4,0.2,0.6C1.1,13.7,1.5,14,2,14.1c0.1,0,0.3,0.1,0.5,0.1
	c0.3,0.1,0.6,0.2,0.9,0.3c0.3,0.1,0.7,0.1,1,0.1s0.7,0.1,1,0.2c0.2,0,0.3,0,0.5,0L7.8,15c0.5,0,1,0,1.5,0c1.5,0,3.1,0,4.5,0
	c4,0,7.9,0,11.8,0c5.8,0,11.4,0.1,17.2,0c7.4-0.1,14.9-0.1,22.5-0.1c4.6,0,9.2,0.1,13.8,0c1.2,0,2.3,0,3.4,0c0.3,0,1.3,0,1.6-0.1
	l1.8,0c0.6,0,1.1,0,1.7-0.1s1.1-0.1,1.6-0.2s0.8-0.2,1.2-0.3s0.6-0.1,0.9-0.1c0.1,0,0.1,0,0.2-0.1l0.6-0.2c0.3-0.1,0.7-0.2,1-0.4
	c0.2-0.1,0.3-0.3,0.5-0.5c0.4-0.4,0.8-1.1,0.5-1.6l0,0h0.1l-0.1-0.6c0,0,0,0,0-0.1c0,0,0,0,0-0.1c0-0.2,0-0.4,0-0.7
	c0.1-0.6,0.1-1.3,0.1-2L94.3,7.8L94.3,7.8z"/>
<path class="st1" d="M42.3,7.6l-0.5,0.5l0,0l0.5,1l0.3,0.3c0,0.1,0.1,0.1,0.1,0.2c0,0.3-0.2,0.8-0.4,0.8s-0.3-0.2-0.3-0.3l-0.3-0.4
	l-0.1-0.3l-0.2-0.2L41.1,9l-0.2-0.5V8.5c-0.1,0-0.2,0.1-0.3,0.1h-0.2c-0.1,0-0.2,0.2-0.2,0.4v0l0.1,1.2v0.3c0,0.1-0.3,0.6-0.5,0.6
	s-0.3-0.3-0.3-0.4V9.1l-0.1-0.4V8.4V7.9V7.7l-0.1-0.5l-0.1-0.4V6.6V5.9l0,0c0-0.3,0.2-0.6,0.6-0.7l0.9-0.1h0.5l0.2,0.1l0.5,0.2
	L42,5.6C42.4,6,42.7,6.4,42.7,7C42.7,7.2,42.5,7.5,42.3,7.6z M41.6,6.5l-0.3-0.3C41.2,6.1,41.2,6,41.1,6l0,0l-0.3,0.1h-0.3h-0.1
	c-0.2,0-0.3,0-0.3,0.2v0.2l0.2,0.9v0.3c0,0.1,0,0.2,0.1,0.2s0.5-0.3,0.5-0.3H41l0.5-0.2c0,0,0.3-0.2,0.3-0.3
	C41.8,6.8,41.8,6.6,41.6,6.5z"/>
<path class="st1" d="M48,8.9l-0.1,0.2l-0.4,0.5c-0.4,0.4-1,0.7-1.6,0.6c-0.4,0-0.8-0.1-1.1-0.4l-0.2-0.2h-0.1
	c-0.4-0.4-0.6-1-0.5-1.6c0-0.7,0.2-1.3,0.7-1.8l0.1-0.1L45,6l0.2-0.2l0.2-0.1l0.1-0.1c0.4-0.2,0.9-0.3,1.3-0.3
	c0.8,0.2,1.4,0.9,1.5,1.7C48.4,7.7,48.3,8.3,48,8.9z M47.2,6.5H47l-0.3-0.1h-0.4l0,0c-0.4,0-0.7,0.3-1,0.7C45.1,7.3,45,7.6,45,7.9
	c0,1,0.2,1.4,1,1.4c0.3,0,0.5-0.1,0.8-0.2l0.1-0.2L47,8.7l0.1-0.2l0.1-0.1c0.1-0.4,0.2-0.8,0.3-1.2C47.5,6.6,47.2,6.5,47.2,6.5
	L47.2,6.5z"/>
<path class="st1" d="M55.3,10.9c-0.2,0-0.4-0.1-0.4-0.4l-0.1-0.7l-0.1-0.3V9V8.8V8.4L54.6,7c0-0.1,0-0.2-0.1-0.2s-0.1,0-0.1,0.1
	L54,7.5l-0.4,0.9l-0.4,0.4l-0.3,0.4c-0.1,0.2-0.2,0.3-0.4,0.3s-0.3-0.2-0.4-0.4l-0.2-0.5l-0.1-0.1l-0.1-0.3l-0.2-0.2
	c0,0-0.4-1-0.7-1c-0.1,0-0.1,0.1-0.1,0.2s0.1,0.2,0.1,0.4c0,0.2-0.1,0.4-0.1,0.6v0.2l-0.1,0.3v0.6l-0.1,0.3v0.6
	c0,0.2-0.2,0.4-0.4,0.4c-0.2,0-0.5-0.2-0.5-0.4c0-0.2,0-0.3,0.1-0.5V9.6L50,9.1V8.4l0-0.3c0,0,0-0.3,0-0.8c0-0.9,0.3-1.7,0.7-1.7
	c0.2,0,0.3,0.1,0.4,0.3c0.2,0.2,0.5,0.7,0.5,0.8l0.2,0.1l0.2,0.4c0,0,0.3,0.4,0.5,0.6s0,0.4,0.2,0.4s0.2-0.2,0.5-0.8s1-1.9,1.1-2
	c0.1-0.2,0.3-0.3,0.6-0.3c0.2,0,0.3,0.2,0.4,0.7c0,0.1,0.2,0.6,0.2,1c0,0.1,0,0.1,0,0.2c0,0.1,0,0.2,0,0.3c0,0,0,0.1,0,0.2
	c0,0.1,0.1,0.2,0.1,0.3v1l0.3,1.3c0,0.1,0,0.3,0,0.4C55.7,10.6,55.6,10.8,55.3,10.9z"/>
</svg>
