<?xml version="1.0" encoding="utf-8"?>
<!-- Generator: Adobe Illustrator 21.1.0, SVG Export Plug-In . SVG Version: 6.00 Build 0)  -->
<svg version="1.1" id="Layer_1" xmlns="http://www.w3.org/2000/svg" xmlns:xlink="http://www.w3.org/1999/xlink" x="0px" y="0px"
	 viewBox="0 0 94.7 15.4" style="enable-background:new 0 0 94.7 15.4;" xml:space="preserve">
<style type="text/css">
	.st0{fill:#007BC4;}
	.st1{fill:#312783;}
</style>
<title>knop-ram-lnk</title>
<path class="st0" d="M94.3,7.8L94.3,7.8l-0.1-0.4V7.3c0.1-0.8,0.1-1.5,0-2.3c0-0.1,0.1-0.2,0-0.3s0-0.1,0-0.1c0-0.1,0-0.2-0.1-0.3
	c0-0.2,0-0.3,0-0.5s0.1-0.3,0-0.4S94,2.9,93.8,2.6c-0.5-0.4-1.2-0.8-1.8-1c-0.2-0.1-0.4-0.1-0.6-0.2C91,1.3,90.6,1.1,90.2,1
	c-0.3,0-0.7,0-1.1-0.1s-0.9-0.2-1.3-0.2c-0.2,0-0.4,0-0.7-0.1c-0.8-0.1-1.7-0.1-2.5-0.2c-0.6,0-1.2,0-1.8,0c-1.4-0.1-3.2,0-4.7,0
	s-3.1,0-4.6,0c-2.1,0-4,0-6.1,0c-6.3-0.2-7.7-0.2-14.2-0.1c-8.3,0-16.8,0-25.1,0c-2.3,0-4.8,0-7.1,0s-4.7,0-7.1,0h-1.1
	c-0.6,0-1.1,0-1.7,0H8.7l0,0l0,0H8.6C8,0.4,7.5,0.4,7,0.5S5.9,0.6,5.4,0.7S4.6,0.8,4.2,0.9S3.6,1,3.3,1.1c-0.1,0-0.1,0-0.2,0.1
	L2.5,1.4c-0.3,0.1-0.7,0.2-1,0.4C1.3,1.9,1.1,2.1,1,2.2C0.5,2.6,0.1,3.4,0.4,3.9c0,0,0,0.1,0.1,0.1H0.3l0.1,0.6c0,0,0,0,0,0.1
	s0,0.2,0,0.4s0,0.1,0,0.1s0.1,0.4,0,0.7c0,0.1,0.1,0.1,0,0.2c0,0.1,0,0.1,0,0.2s-0.1,0.1,0,0.2l0,0H0.3c0,0.3,0,0.6,0.1,0.9v0.2H0.3
	L0.4,8l0,0c-0.1,0.7-0.1,1.5,0,2.2c0,0.1,0,0.2,0,0.4V11c-0.1,0.1,0,0.3,0,0.5s-0.1,0.2,0,0.3s0,0.1,0,0.1c0,0.1,0,0.2,0.1,0.2v0.4
	c0.1,0.1-0.1,0.2,0,0.3s0,0.4,0.2,0.6C1.1,13.7,1.5,14,2,14.1c0.1,0,0.3,0.1,0.5,0.1c0.3,0.1,0.6,0.2,0.9,0.3s0.7,0.1,1,0.1
	s0.7,0.1,1,0.2c0.2,0,0.3,0,0.5,0L7.8,15c0.5,0,1,0,1.5,0c1.5,0,3.1,0,4.5,0c4,0,7.9,0,11.8,0c5.8,0,11.4,0.1,17.2,0
	c7.4-0.1,14.9-0.1,22.5-0.1c4.6,0,9.2,0.1,13.8,0c1.2,0,2.3,0,3.4,0c0.3,0,1.3,0,1.6-0.1h1.8c0.6,0,1.1,0,1.7-0.1s1.1-0.1,1.6-0.2
	s0.8-0.2,1.2-0.3s0.6-0.1,0.9-0.1c0.1,0,0.1,0,0.2-0.1l0.6-0.2c0.3-0.1,0.7-0.2,1-0.4c0.2-0.1,0.3-0.3,0.5-0.5
	c0.4-0.4,0.8-1.1,0.5-1.6l0,0h0.1l-0.1-0.6c0,0,0,0,0-0.1c0,0,0,0,0-0.1c0-0.2,0-0.4,0-0.7c0.1-0.6,0.1-1.3,0.1-2L94.3,7.8L94.3,7.8
	z"/>
<g>
	<path class="st1" d="M8.6,10.6c-0.2,0-0.1-0.1-0.7-0.1c-0.3,0-0.8,0-0.8,0l-0.2,0l-0.5-0.1l-0.3,0c0,0,0,0,0,0
		c-0.3,0-0.3-0.7-0.3-0.7L5.6,9.3l0.1-1.2l0.1-0.2c0,0,0-0.4,0-0.8c0-0.6-0.1-1-0.1-1l0-0.3l0-0.1c0-0.2,0.6-0.4,0.6-0.4l0.1,0.2
		l0.2,0.1l0,0.3c0,0,0,0.2,0,0.3c0,0.1,0,0.3,0,0.6c0,0.2,0,0.4,0,0.6c0,0.1,0,0.2,0,0.3c0,0.3-0.1,0.7-0.1,0.7l0,0.5l0,0.4l0,0.2
		c0,0,0,0.1,0.1,0.1l0.8,0c0,0,0,0,0,0c0.2,0,0.3,0.1,0.5,0.1c0.2,0,0.3-0.1,0.5-0.1C8.8,9.5,9,9.9,9,10.1C9,10.4,8.9,10.6,8.6,10.6
		z"/>
	<path class="st1" d="M14.4,9l-0.1,0.2l-0.5,0.6c0,0-0.6,0.7-1.6,0.7c-0.4,0-1-0.2-1.2-0.4l-0.2-0.3l-0.1-0.1
		c-0.2-0.1-0.5-0.9-0.5-1.6c0-1.2,0.7-1.9,0.7-1.9l0.1-0.1l0.2-0.1l0.2-0.2l0.2-0.1l0.1-0.1c0,0,0.7-0.3,1.4-0.3
		c0.6,0,1.6,0.9,1.6,1.8C14.8,8.2,14.4,8.9,14.4,9z M13.6,6.5l-0.2,0L13,6.3l-0.4,0c0,0,0,0-0.1,0c-0.5,0-0.7,0.3-1,0.7
		c-0.2,0.3-0.3,0.6-0.3,0.9c0,1.1,0.2,1.5,1,1.5c0.4,0,0.7-0.2,0.8-0.2l0.1-0.2l0.2-0.2l0.1-0.2l0.1-0.1c0.1-0.1,0.3-0.8,0.3-1.2
		C13.9,6.6,13.6,6.5,13.6,6.5z"/>
	<path class="st1" d="M18.5,10.4c-0.1,0-0.2,0-0.2,0l-0.3-0.1l-0.3,0l-0.3-0.2l-0.2-0.1c0,0-0.2-0.1-0.3-0.3c0,0-0.1-0.2-0.1-0.2
		l-0.2-0.1c0,0-0.3-0.4-0.3-1.2c0-0.8,0.2-1.3,0.6-1.6l0.8-0.5l0.3-0.2l0.2-0.2l0.7-0.2l0.6,0l0.3,0c0.1,0,0.1,0,0.2,0
		c0.5,0,0.8,0.3,0.8,0.7c0,0.2-0.1,0.5-0.3,0.5c-0.1,0-0.4-0.3-0.8-0.3c-0.5,0-1.2,0.2-1.3,0.3l-0.1,0.1L17.5,7l-0.4,0.4
		C17,7.5,17,7.7,17,8c0,0,0,0.1,0,0.1c0,0.8,0.4,1.1,0.5,1.1l0.3,0.1L18,9.5c0,0,0.2,0.1,0.3,0.1c1.1,0,1.2-1,1.2-1s0,0,0-0.1
		c0,0,0-0.1,0-0.1s0,0-0.1,0c-0.1,0-0.2,0-0.2,0l-0.4,0c0,0,0,0,0,0c-0.2,0-0.4-0.2-0.4-0.4c0-0.3,0.2-0.5,0.4-0.5l0.3,0l0.2-0.1
		c0,0,0.2,0.1,0.4,0.1c0.1,0,0.4,0,0.4,0l0.2,0.1l0.2,0.1c0,0,0.1,0.2,0.1,0.4c0,0,0,0,0,0.1C20.3,9.3,19.9,10.2,18.5,10.4z"/>
	<path class="st1" d="M23.5,6.7l0,0.7l-0.1,0.2l0,0.5l0,0.3c0,0-0.2,1-0.2,1.3c0,0.3,0,0.5-0.1,0.6C23,10.5,23,10.6,23,10.6l0,0.2
		c0,0.2-0.6,0.4-0.6,0.4l-0.1-0.3l-0.1-0.1l0-0.6l0.1-0.7V9.2L22.3,9l0.1-0.5l0-0.3l0.1-0.6l0-1c0-0.2,0-0.3,0.1-0.5
		C22.9,6,23,5.8,23.3,5.8c0.2,0,0.4,0.2,0.4,0.4C23.7,6.4,23.6,6.6,23.5,6.7z"/>
	<path class="st1" d="M28.6,6.4c0,0-0.2,0.3-0.2,0.3s-0.5-0.6-0.9-0.6c-0.3,0-0.6,0.2-0.6,0.3l0,0.2L27,6.9l0.5,0.3l0.2,0.2L28,7.6
		l0.1,0.1l0.2,0.2l0.1,0.4l0.1,0.3c0,0.1,0.1,0.2,0.1,0.3c0,0.7-0.8,1.3-1.4,1.3c-0.4,0-0.8-0.1-0.8-0.1L26,10.1L25.9,10
		c-0.1-0.1-0.4-0.3-0.4-0.5c0-0.4,0.2-0.5,0.4-0.5c0.1,0,0.3,0.4,1.2,0.4c0.3,0,0.6-0.2,0.6-0.5c0-0.1,0-0.1,0-0.2l-0.1-0.1
		l-0.2-0.3L27,8.1c-0.5-0.2-1.1-0.9-1.1-1.5c0-0.6,0.4-0.9,0.4-0.9l0.4-0.2l0.2-0.1c0,0,0.3-0.1,0.4-0.1c0.9,0,1.5,0.4,1.5,0.9
		C28.9,6.3,28.7,6.4,28.6,6.4z"/>
	<path class="st1" d="M33.8,6.3c-0.1,0-0.1,0-0.2,0c-0.2-0.1-0.2-0.2-0.5-0.2c-0.5,0-0.8,0.2-0.9,0.3l-0.1,0.1l-0.5,0.4
		c0,0-0.2,0.3-0.4,0.5c-0.2,0.3-0.3,0.7-0.3,1c0,0.1,0.1,0.3,0.1,0.4L31.3,9l0.1,0.2l0.1,0.1c0.1,0.1,0.6,0.2,0.8,0.2
		c0.1,0,0.2,0,0.2,0l0.3-0.1l0.2,0l0.3-0.1l0.3,0.1l0,0.1l0.2,0.2c0,0-0.2,0.6-0.4,0.6l-0.1,0c0,0-0.2,0-0.3,0.1
		c-0.2,0.1-0.4,0.1-0.7,0.1c-0.3,0-0.9-0.2-0.9-0.2l-0.3,0l-0.4-0.3c0,0-0.6-0.5-0.6-1.4c0-0.7,0.6-1.7,0.6-1.7l0.4-0.6L31.3,6
		c0,0,0.2-0.2,0.3-0.3c0.4-0.3,1-0.5,1.5-0.5c0.6,0,0.9,0.2,1.1,0.5c0,0.1,0.1,0.1,0.1,0.2c0,0,0,0.1,0,0.1
		C34.1,6.2,34,6.3,33.8,6.3z"/>
	<path class="st1" d="M39.9,6l0,0.2l0,0.3l-0.1,0.8l0,0.1l0,0.3l0,0.6l0,0.6l0,0.2v0.3l0,0.5c0,0.2-0.2,0.6-0.2,0.6
		s-0.2,0.2-0.3,0.2c-0.4,0-0.5-0.1-0.5-0.4V9.7L38.9,9c0,0,0-0.1,0-0.1c0-0.2,0-0.4-0.1-0.4c-0.1,0-0.2,0.1-0.2,0.1l-0.7-0.1l-0.6,0
		l-0.7,0c-0.1,0-0.2,0-0.2,0.1c0,0.1,0.1,0.3,0.1,0.4c0,0.9-0.3,1.4-0.6,1.4c-0.2,0-0.4-0.3-0.4-0.3l0-0.3l0-0.5L35.6,9l0-0.3l0-0.5
		l0-0.9L35.7,7l0-1l0.2-0.5c0,0,0.2-0.1,0.3-0.1c0.1,0,0.3,0.1,0.3,0.1v0.2l0,0.1c0,0,0,0.1,0,0.1c0,0.1-0.1,0.2-0.1,0.4
		c0,0.1,0,0.3,0,0.4l0,0.4l0,0.1l0,0.3l0.1,0.1l0.2,0l0.3,0l0.2,0l1.1,0l0.4,0c0.1,0,0.1-0.1,0.1-0.1l0-0.2L39,6.8l0-0.9
		c0-0.3,0.2-0.7,0.5-0.7c0.3,0,0.4,0.2,0.4,0.4c0,0,0,0,0,0L39.9,6z"/>
	<path class="st1" d="M45.2,6.4c-0.1,0-0.4-0.1-0.5-0.1l-0.6,0l-0.1-0.1l-0.3,0l-0.2,0c-0.1,0-0.1,0-0.2,0c-0.1,0-0.1,0-0.1,0.1
		l0,0.3l-0.1,0.2l0,0.5c0,0.1,0,0.1,0,0.2c0,0.1,0,0.1,0.1,0.1l0.4-0.1l0.2,0l0.3-0.1l0.4,0c0.3,0,0.5,0.2,0.5,0.5
		c0,0.2-0.3,0.4-0.5,0.4c0,0,0,0,0,0l-0.4,0l-0.9,0l-0.1,0l-0.1,0.1l-0.1,0.1l-0.1,1.1c0,0.1-0.1,0.2-0.1,0.4c0,0.1,0,0.1,0,0.2
		c0.1,0,0.4,0,0.5,0c0.3,0,0.6,0,0.7,0l0.4-0.1l0.2,0l0.3,0c0,0,0,0,0,0c0.3,0,0.6,0.3,0.6,0.4c0,0.2-0.4,0.4-0.5,0.4h0l-0.1,0
		L44.6,11l-1.2,0c0,0-1.1,0.2-1.3,0.2c-0.3,0-0.5-0.3-0.5-0.5c0,0,0,0,0,0l0-0.9l0.1-0.2l0.1-0.8L42,8.7L42,8l0.2-1l0-1
		c0-0.3,0.2-0.6,0.6-0.6c0,0,0,0,0,0l0.2,0l0.2,0l0.4,0.1l0.2,0h0.7L45,5.4l0.4,0c0.1,0,0.3,0.2,0.3,0.5c0,0.1,0,0.1,0,0.2
		C45.5,6.2,45.4,6.4,45.2,6.4z"/>
	<path class="st1" d="M52.5,8.2l-0.3,0.2l-0.5,0.1l-0.2,0.1l-0.1,0.2l0,0.4l0,0.2l0,0.4v0.4l0,0.5c0,0.2-0.2,0.4-0.3,0.4
		c-0.1,0.1-0.2,0.2-0.3,0.2c-0.2,0-0.3-0.3-0.4-0.4l-0.1-0.2l0.1-0.2l0-0.3l0.1-0.3V8.9l0.1-0.3l0-0.4l0.1-0.5l0-0.5
		c0,0,0-0.2,0-0.3c0-0.1,0-0.3,0-0.5c0-0.1,0-0.3,0-0.5c0-0.7,0.3-1,1.1-1c0.2,0,0.5,0,0.5,0L53,5.3c0.2,0,1,0.5,1,1
		C54,7.5,52.7,8.1,52.5,8.2z M52.7,6.1L52.2,6L52.1,6h-0.1c-0.3,0-0.3,0.1-0.4,0.3l-0.1,0.5l0,0.2l-0.1,0.3c0,0,0,0,0,0.1
		c0,0.1,0.1,0.2,0.1,0.2C52,7.5,53,7,53,6.5C53,6.3,52.9,6.1,52.7,6.1z"/>
	<path class="st1" d="M59.4,9l-0.1,0.2l-0.5,0.6c0,0-0.6,0.7-1.6,0.7c-0.4,0-1-0.2-1.2-0.4l-0.2-0.3l-0.1-0.1
		c-0.2-0.1-0.5-0.9-0.5-1.6c0-1.2,0.7-1.9,0.7-1.9l0.1-0.1l0.2-0.1l0.2-0.2l0.2-0.1l0.1-0.1c0,0,0.7-0.3,1.4-0.3
		c0.6,0,1.6,0.9,1.6,1.8C59.8,8.2,59.4,8.9,59.4,9z M58.6,6.5l-0.2,0L58,6.3l-0.4,0c0,0,0,0,0,0c-0.5,0-0.7,0.3-1,0.7
		c-0.2,0.3-0.3,0.6-0.3,0.9c0,1.1,0.2,1.5,1,1.5c0.4,0,0.7-0.2,0.8-0.2l0.1-0.2l0.2-0.2l0.1-0.2l0.1-0.1c0-0.1,0.3-0.8,0.3-1.2
		C58.9,6.6,58.6,6.5,58.6,6.5z"/>
	<path class="st1" d="M65.3,9l-0.1,0.2l-0.5,0.6c0,0-0.6,0.7-1.6,0.7c-0.4,0-1-0.2-1.2-0.4l-0.2-0.3l-0.1-0.1
		c-0.2-0.1-0.5-0.9-0.5-1.6c0-1.2,0.7-1.9,0.7-1.9l0.1-0.1l0.2-0.1l0.2-0.2l0.2-0.1l0.1-0.1c0,0,0.7-0.3,1.4-0.3
		c0.6,0,1.6,0.9,1.6,1.8C65.8,8.2,65.4,8.9,65.3,9z M64.5,6.5l-0.2,0L64,6.3l-0.4,0c0,0,0,0,0,0c-0.5,0-0.7,0.3-1,0.7
		c-0.2,0.3-0.3,0.6-0.3,0.9c0,1.1,0.2,1.5,1,1.5c0.4,0,0.7-0.2,0.8-0.2l0.1-0.2l0.2-0.2l0.1-0.2l0.1-0.1c0-0.1,0.3-0.8,0.3-1.2
		C64.8,6.6,64.5,6.5,64.5,6.5z"/>
	<path class="st1" d="M70.7,7.7l-0.6,0.5c0,0,0,0,0,0l0.5,1l0.3,0.3c0,0,0.1,0.1,0.1,0.2c0,0.3-0.2,0.8-0.4,0.8
		c-0.1,0-0.3-0.2-0.4-0.3l-0.3-0.5l-0.1-0.3l-0.2-0.2L69.5,9l-0.3-0.5c0,0,0-0.1,0-0.1c-0.1,0-0.3,0.1-0.3,0.1l-0.2,0
		c-0.1,0-0.2,0.2-0.2,0.4c0,0,0,0,0,0l0.1,1.2l0,0.3c0,0.1-0.3,0.6-0.6,0.6c-0.2,0-0.3-0.3-0.3-0.4l0-1.7l-0.1-0.4V8.4l0-0.5l0-0.2
		l-0.1-0.6l-0.1-0.4l0-0.2l0-0.7c0,0,0,0,0,0c0-0.4,0.4-0.7,0.6-0.7L69,5.1l0.5,0l0.2,0.1l0.5,0.2l0.2,0.2c0.1,0.1,0.8,0.7,0.8,1.4
		C71.1,7.2,71,7.4,70.7,7.7z M70.1,6.5l-0.3-0.3C69.7,6.1,69.6,6,69.5,6c0,0,0,0,0,0L69.1,6l-0.4,0c0,0-0.1,0-0.1,0
		c-0.2,0-0.3,0-0.3,0.2l0,0.2l0.2,1l0,0.3c0,0.1,0,0.2,0.1,0.2c0.1,0,0.6-0.3,0.6-0.3l0.2,0l0.5-0.2c0,0,0.3-0.2,0.3-0.3
		C70.2,6.8,70.2,6.6,70.1,6.5z"/>
	<path class="st1" d="M76.7,6.3l-0.3,0l-0.4,0l-0.3,0c0,0-0.1,0-0.1,0c-0.5,0-0.5,0.4-0.5,0.5l0,0.2l0,0.4l0.1,0.5l0.1,0.3
		c0,0,0,0.5,0,0.7c0,0.2,0,0.6,0,0.6l0,0.4c0,0.7-0.4,1.3-0.5,1.3c-0.2,0-0.4-0.3-0.5-0.6c0-0.1,0-0.1,0-0.2c0-0.1,0-0.3,0.1-0.5
		c0-0.1,0-0.3,0.1-0.4l-0.1-0.2l0-0.7V8.3c0-0.2-0.1-0.3-0.1-0.6c0-0.3,0.1-0.5,0.1-0.7c0-0.2-0.1-0.3-0.2-0.3c0,0,0,0,0,0L73,6.7
		c0,0-0.1,0-0.1,0c-0.3,0-0.4-0.2-0.4-0.5c0-0.2,0.2-0.4,0.4-0.4l0.1,0l0.4,0l0.2-0.1l0.6,0l0.5-0.2l0.3,0l0.8-0.1L76,5.4l0.6,0
		l0.4,0c0,0,0,0.3,0,0.4C77,5.9,76.7,6.3,76.7,6.3z"/>
	<path class="st1" d="M81.8,6.4c-0.1,0-0.4-0.1-0.5-0.1l-0.6,0l-0.1-0.1l-0.3,0l-0.2,0c-0.1,0-0.1,0-0.2,0c-0.1,0-0.1,0-0.1,0.1
		l0,0.3l-0.1,0.2l0,0.5c0,0.1,0,0.1,0,0.2c0,0.1,0,0.1,0.1,0.1L80,7.5l0.2,0l0.3-0.1l0.4,0c0.3,0,0.5,0.2,0.5,0.5
		c0,0.2-0.3,0.4-0.5,0.4c0,0,0,0,0,0l-0.4,0l-0.9,0l-0.1,0l-0.1,0.1l-0.1,0.1l-0.1,1.1c0,0.1-0.1,0.2-0.1,0.4c0,0.1,0,0.1,0,0.2
		c0.1,0,0.4,0,0.5,0c0.3,0,0.6,0,0.7,0l0.4-0.1l0.2,0l0.3,0c0,0,0,0,0,0c0.3,0,0.6,0.3,0.6,0.4c0,0.2-0.4,0.4-0.5,0.4h0l-0.1,0
		L81.3,11l-1.2,0c0,0-1.1,0.2-1.3,0.2c-0.3,0-0.5-0.3-0.5-0.5c0,0,0,0,0,0l0-0.9l0.1-0.2l0.1-0.8l0.1-0.1l0-0.7l0.2-1l0-1
		c0-0.3,0.2-0.6,0.6-0.6c0,0,0,0,0,0l0.2,0l0.2,0l0.4,0.1l0.2,0h0.7l0.5,0.1l0.4,0c0.1,0,0.3,0.2,0.3,0.5c0,0.1,0,0.1,0,0.2
		C82.2,6.2,82,6.4,81.8,6.4z"/>
	<path class="st1" d="M88.8,7.5l0,0.2l-0.2,0.5l-0.1,0.5l-0.3,0.6L88,9.8l-0.1,0.2l-0.2,0.4c-0.1,0.2-0.4,0.5-0.5,0.5
		c-0.2,0-0.3-0.2-0.5-0.4l-0.8-1l-0.3-0.3l-0.3-0.4l-0.2-0.3l-0.1-0.2L85,8.1l-0.1,0c0,0,0,0,0,0c-0.1,0-0.1,0.1-0.1,0.1l0,0.3
		l0,0.6L84.5,10l-0.2,0.5c0,0-0.2,0.1-0.3,0.1c-0.1,0-0.3-0.3-0.3-0.3V10l0.1-0.3l0-0.1c0,0,0.2-1.2,0.2-1.6l0-0.5
		c0-0.2,0.1-0.3,0.1-0.5c0-0.2,0-0.6,0-0.6s0.2-0.4,0.5-0.4c0.1,0,0.4,0.1,0.4,0.1l0.1,0.6L85.9,8c0.3,0.4,0.5,0.6,0.8,0.9
		c0.2,0.2,0.2,0.5,0.5,0.5c0,0,0.1-0.1,0.1-0.2c0-0.2,0.1-0.2,0.2-0.4c0.2-0.4,0.5-1.3,0.5-1.3L88,7.2L88.1,7c0-0.1,0-0.2,0-0.3
		c0-0.1,0.1-0.3,0.1-0.4c0-0.1,0.1-0.5,0.5-0.5c0.2,0,0.4,0.3,0.4,0.6c0,0.1,0,0.2,0,0.3L88.8,7.5z"/>
</g>
</svg>
