<?xml version="1.0" encoding="utf-8"?>
<!-- Generator: Adobe Illustrator 21.1.0, SVG Export Plug-In . SVG Version: 6.00 Build 0)  -->
<svg version="1.1" id="Layer_1" xmlns="http://www.w3.org/2000/svg" xmlns:xlink="http://www.w3.org/1999/xlink" x="0px" y="0px"
	 viewBox="0 0 94.7 15.4" style="enable-background:new 0 0 94.7 15.4;" xml:space="preserve">
<style type="text/css">
	.st0{fill:#E84E0F;}
	.st1{fill:#312783;}
</style>
<title>knop-ram-lnk</title>
<path class="st0" d="M94.3,7.8L94.3,7.8l-0.1-0.4V7.3c0.1-0.8,0.1-1.5,0-2.3c0-0.1,0.1-0.2,0-0.3s0-0.1,0-0.1c0-0.1,0-0.2-0.1-0.3
	c0-0.2,0-0.3,0-0.5s0.1-0.3,0-0.4S94,2.9,93.8,2.6c-0.5-0.4-1.2-0.8-1.8-1c-0.2-0.1-0.4-0.1-0.6-0.2C91,1.3,90.6,1.1,90.2,1
	c-0.3,0-0.7,0-1.1-0.1s-0.9-0.2-1.3-0.2c-0.2,0-0.4,0-0.7-0.1c-0.8-0.1-1.7-0.1-2.5-0.2c-0.6,0-1.2,0-1.8,0c-1.4-0.1-3.2,0-4.7,0
	s-3.1,0-4.6,0c-2.1,0-4,0-6.1,0c-6.3-0.2-7.7-0.2-14.2-0.1c-8.3,0-16.8,0-25.1,0c-2.3,0-4.8,0-7.1,0s-4.7,0-7.1,0h-1.1
	c-0.6,0-1.1,0-1.7,0H8.7l0,0l0,0H8.6C8,0.4,7.5,0.4,7,0.5S5.9,0.6,5.4,0.7S4.6,0.8,4.2,0.9S3.6,1,3.3,1.1c-0.1,0-0.1,0-0.2,0.1
	L2.5,1.4c-0.3,0.1-0.7,0.2-1,0.4C1.3,1.9,1.1,2.1,1,2.2C0.5,2.6,0.1,3.4,0.4,3.9c0,0,0,0.1,0.1,0.1H0.3l0.1,0.6c0,0,0,0,0,0.1
	s0,0.2,0,0.4s0,0.1,0,0.1s0.1,0.4,0,0.7c0,0.1,0.1,0.1,0,0.2c0,0.1,0,0.1,0,0.2s-0.1,0.1,0,0.2l0,0H0.3c0,0.3,0,0.6,0.1,0.9v0.2H0.3
	L0.4,8l0,0c-0.1,0.7-0.1,1.5,0,2.2c0,0.1,0,0.2,0,0.4V11c-0.1,0.1,0,0.3,0,0.5s-0.1,0.2,0,0.3s0,0.1,0,0.1c0,0.1,0,0.2,0.1,0.2v0.4
	c0.1,0.1-0.1,0.2,0,0.3s0,0.4,0.2,0.6C1.1,13.7,1.5,14,2,14.1c0.1,0,0.3,0.1,0.5,0.1c0.3,0.1,0.6,0.2,0.9,0.3s0.7,0.1,1,0.1
	s0.7,0.1,1,0.2c0.2,0,0.3,0,0.5,0L7.8,15c0.5,0,1,0,1.5,0c1.5,0,3.1,0,4.5,0c4,0,7.9,0,11.8,0c5.8,0,11.4,0.1,17.2,0
	c7.4-0.1,14.9-0.1,22.5-0.1c4.6,0,9.2,0.1,13.8,0c1.2,0,2.3,0,3.4,0c0.3,0,1.3,0,1.6-0.1h1.8c0.6,0,1.1,0,1.7-0.1s1.1-0.1,1.6-0.2
	s0.8-0.2,1.2-0.3s0.6-0.1,0.9-0.1c0.1,0,0.1,0,0.2-0.1l0.6-0.2c0.3-0.1,0.7-0.2,1-0.4c0.2-0.1,0.3-0.3,0.5-0.5
	c0.4-0.4,0.8-1.1,0.5-1.6l0,0h0.1l-0.1-0.6c0,0,0,0,0-0.1c0,0,0,0,0-0.1c0-0.2,0-0.4,0-0.7c0.1-0.6,0.1-1.3,0.1-2L94.3,7.8L94.3,7.8
	z"/>
<g>
	<path class="st1" d="M8.5,10.7c-0.2,0-0.1-0.1-0.7-0.1c-0.3,0-0.8,0-0.8,0H6.8l-0.5-0.1H6l0,0c-0.3,0-0.3-0.7-0.3-0.7L5.5,9.5
		l0.1-1.2L5.7,8c0,0,0-0.4,0-0.8c0-0.6-0.1-1-0.1-1V5.9V5.8c0-0.2,0.6-0.4,0.6-0.4l0.1,0.2l0.2,0.1V6c0,0,0,0.2,0,0.3
		c0,0.1,0,0.3,0,0.6c0,0.2,0,0.4,0,0.6c0,0.1,0,0.2,0,0.3c0,0.3-0.1,0.7-0.1,0.7V9v0.4v0.2c0,0,0,0.1,0.1,0.1h0.8l0,0
		c0.2,0,0.3,0.1,0.5,0.1s0.3-0.1,0.5-0.1c0.3,0,0.5,0.4,0.5,0.6C9,10.5,8.8,10.7,8.5,10.7z"/>
	<path class="st1" d="M14.3,9.1l-0.1,0.2l-0.5,0.6c0,0-0.6,0.7-1.6,0.7c-0.4,0-1-0.2-1.2-0.4l-0.2-0.3l-0.1-0.1
		c-0.2-0.1-0.5-0.9-0.5-1.6C10.2,7,11,6.3,11,6.3l0.1-0.1l0.2-0.1l0.2-0.2l0.2-0.1l0.1-0.1c0,0,0.7-0.3,1.4-0.3
		c0.6,0,1.6,0.9,1.6,1.8C14.8,8.3,14.3,9,14.3,9.1z M13.5,6.6h-0.2L13,6.4h-0.4c0,0,0,0-0.1,0c-0.5,0-0.7,0.3-1,0.7
		c-0.2,0.3-0.3,0.6-0.3,0.9c0,1.1,0.2,1.5,1,1.5c0.4,0,0.7-0.2,0.8-0.2l0.1-0.2l0.2-0.2l0.1-0.2l0.1-0.1c0.1-0.1,0.3-0.8,0.3-1.2
		C13.8,6.7,13.5,6.6,13.5,6.6z"/>
	<path class="st1" d="M18.4,10.6c-0.1,0-0.2,0-0.2,0l-0.3-0.1h-0.3l-0.3-0.2L17,10.2c0,0-0.2-0.1-0.3-0.3l-0.1-0.2l-0.2-0.1
		c0,0-0.3-0.4-0.3-1.2s0.2-1.3,0.6-1.6l0.8-0.5L17.7,6l0.2-0.2l0.7-0.2h0.6h0.3c0.1,0,0.1,0,0.2,0c0.5,0,0.8,0.3,0.8,0.7
		c0,0.2-0.1,0.5-0.3,0.5c-0.1,0-0.4-0.3-0.8-0.3c-0.5,0-1.2,0.2-1.3,0.3L18,6.9l-0.4,0.2L17,7.5c-0.1,0.1-0.1,0.3-0.1,0.6v0.1
		c0,0.8,0.4,1.1,0.5,1.1l0.3,0.1L18,9.6c0,0,0.2,0.1,0.3,0.1c1.1,0,1.2-1,1.2-1s0,0,0-0.1V8.5c0,0,0,0-0.1,0s-0.2,0-0.2,0h-0.4l0,0
		c-0.2,0-0.4-0.2-0.4-0.4c0-0.3,0.2-0.5,0.4-0.5h0.3l0.2-0.1c0,0,0.2,0.1,0.4,0.1c0.1,0,0.4,0,0.4,0l0.2,0.1l0.2,0.1
		c0,0,0.1,0.2,0.1,0.4c0,0,0,0,0,0.1C20.2,9.4,19.8,10.3,18.4,10.6z"/>
	<path class="st1" d="M23.5,6.9v0.7l-0.1,0.2v0.5v0.3c0,0-0.2,1-0.2,1.3s0,0.5-0.1,0.6C23,10.7,23,10.7,23,10.7v0.2
		c0,0.2-0.6,0.4-0.6,0.4L22.2,11l-0.1-0.1v-0.6l0.1-0.7V9.3l0.1-0.2l0.1-0.5V8.3l0.1-0.6v-1c0-0.2,0-0.3,0.1-0.5s0.2-0.5,0.5-0.5
		c0.2,0,0.4,0.2,0.4,0.4C23.7,6.5,23.5,6.8,23.5,6.9z"/>
	<path class="st1" d="M28.6,6.6l-0.2,0.3c0,0-0.5-0.6-0.9-0.6c-0.3,0-0.6,0.2-0.6,0.3v0.2V7l0.5,0.3l0.2,0.2l0.3,0.2L28,7.8L28.2,8
		l0.1,0.4l0.1,0.3c0,0.1,0.1,0.2,0.1,0.3c0,0.7-0.8,1.3-1.4,1.3c-0.4,0-0.8-0.1-0.8-0.1H26l-0.1-0.1c-0.1-0.1-0.4-0.3-0.4-0.5
		c0-0.4,0.2-0.5,0.4-0.5c0.1,0,0.3,0.4,1.2,0.4c0.3,0,0.6-0.2,0.6-0.5c0-0.1,0-0.1,0-0.2l-0.1-0.1l-0.2-0.3L27,8.2
		c-0.5-0.2-1.1-0.9-1.1-1.5s0.4-0.9,0.4-0.9l0.4-0.2l0.2-0.1c0,0,0.3-0.1,0.4-0.1c0.9,0,1.5,0.4,1.5,0.9C28.8,6.4,28.7,6.5,28.6,6.6
		z"/>
	<path class="st1" d="M33.7,6.4c-0.1,0-0.1,0-0.2,0c-0.2-0.1-0.2-0.2-0.5-0.2c-0.5,0-0.8,0.2-0.9,0.3L32,6.6L31.7,7
		c0,0-0.2,0.3-0.4,0.5c-0.2,0.3-0.3,0.7-0.3,1c0,0.1,0.1,0.3,0.1,0.4l0.2,0.2l0.1,0.2l0.1,0.1c0.1,0.1,0.6,0.2,0.8,0.2
		c0.1,0,0.2,0,0.2,0l0.3-0.1H33l0.3-0.1l0.3,0.1v0.1l0.2,0.2c0,0-0.2,0.6-0.4,0.6h-0.1c0,0-0.2,0-0.3,0.1c-0.2,0.1-0.4,0.1-0.7,0.1
		s-0.9-0.2-0.9-0.2h-0.3l-0.4-0.3c0,0-0.6-0.5-0.6-1.4C30.1,8,30.7,7,30.7,7l0.4-0.6l0.2-0.1c0,0,0.2-0.2,0.3-0.3
		c0.4-0.3,1-0.5,1.5-0.5c0.6,0,0.9,0.2,1.1,0.5c0,0.1,0.1,0.1,0.1,0.2v0.1C34.1,6.3,33.9,6.4,33.7,6.4z"/>
	<path class="st1" d="M39.9,6.1v0.2v0.3l-0.1,0.8v0.1v0.3v0.6V9v0.2v0.3V10c0,0.2-0.2,0.6-0.2,0.6s-0.2,0.2-0.3,0.2
		c-0.4,0-0.5-0.1-0.5-0.4V9.8l0.1-0.7V9c0-0.2,0-0.4-0.1-0.4s-0.2,0.1-0.2,0.1l-0.7-0.1h-0.6h-0.7c-0.1,0-0.2,0-0.2,0.1
		s0.1,0.3,0.1,0.4c0,0.9-0.3,1.4-0.6,1.4c-0.2,0-0.4-0.3-0.4-0.3V9.9V9.4l0.1-0.3V8.8V8.3V7.4l0.1-0.3v-1l0.2-0.5
		c0,0,0.2-0.1,0.3-0.1s0.3,0.1,0.3,0.1v0.2v0.1V6c0,0.1-0.1,0.2-0.1,0.4c0,0.1,0,0.3,0,0.4v0.4v0.1v0.3l0.1,0.1h0.2H37h0.2h1.1h0.4
		c0.1,0,0.1-0.1,0.1-0.1V7.4L39,6.9V6c0-0.3,0.2-0.7,0.5-0.7s0.4,0.2,0.4,0.4l0,0V6.1z"/>
	<path class="st1" d="M45.1,6.5c-0.1,0-0.4-0.1-0.5-0.1H44l-0.1-0.1h-0.3h-0.2c-0.1,0-0.1,0-0.2,0c-0.1,0-0.1,0-0.1,0.1v0.3L43,6.9
		v0.5c0,0.1,0,0.1,0,0.2s0,0.1,0.1,0.1l0.4-0.1h0.2L44,7.5h0.4c0.3,0,0.5,0.2,0.5,0.5c0,0.2-0.3,0.4-0.5,0.4l0,0H44h-0.9H43
		l-0.1,0.1l-0.1,0.1l-0.1,1.1c0,0.1-0.1,0.2-0.1,0.4c0,0.1,0,0.1,0,0.2c0.1,0,0.4,0,0.5,0c0.3,0,0.6,0,0.7,0l0.4-0.1h0.2h0.3l0,0
		c0.3,0,0.6,0.3,0.6,0.4c0,0.2-0.4,0.4-0.5,0.4l0,0h-0.1l-0.2,0.1h-1.2c0,0-1.1,0.2-1.3,0.2c-0.3,0-0.5-0.3-0.5-0.5l0,0V9.9l0.1-0.2
		l0.1-0.8l0.1-0.1V8.1l0.2-1v-1c0-0.3,0.2-0.6,0.6-0.6l0,0h0.2H43l0.4,0.1h0.2h0.7l0.5,0.1h0.4c0.1,0,0.3,0.2,0.3,0.5
		c0,0.1,0,0.1,0,0.2C45.5,6.3,45.3,6.5,45.1,6.5z"/>
	<path class="st1" d="M52.4,8.4l-0.3,0.2l-0.5,0.1l-0.2,0.1L51.3,9v0.4v0.2V10v0.4v0.5c0,0.2-0.2,0.4-0.3,0.4
		c-0.1,0.1-0.2,0.2-0.3,0.2c-0.2,0-0.3-0.3-0.4-0.4l-0.1-0.2l0.1-0.2v-0.3l0.1-0.3V9l0.1-0.3V8.3l0.1-0.5V7.3c0,0,0-0.2,0-0.3
		c0-0.1,0-0.3,0-0.5c0-0.1,0-0.3,0-0.5c0-0.7,0.3-1,1.1-1c0.2,0,0.5,0,0.5,0L53,5.5c0.2,0,1,0.5,1,1C53.9,7.6,52.6,8.3,52.4,8.4z
		 M52.6,6.2l-0.5-0.1H52h-0.1c-0.3,0-0.3,0.1-0.4,0.3l-0.1,0.5v0.2l-0.1,0.3c0,0,0,0,0,0.1s0.1,0.2,0.1,0.2c0.5,0,1.5-0.6,1.5-1
		C53,6.5,52.8,6.2,52.6,6.2z"/>
	<path class="st1" d="M59.3,9.1l-0.1,0.2l-0.5,0.6c0,0-0.6,0.7-1.6,0.7c-0.4,0-1-0.2-1.2-0.4l-0.2-0.3l-0.1-0.1
		c-0.2-0.1-0.5-0.9-0.5-1.6C55.2,7,56,6.3,56,6.3l0.1-0.1l0.2-0.1l0.2-0.2l0.2-0.1l0.1-0.1c0,0,0.7-0.3,1.4-0.3
		c0.6,0,1.6,0.9,1.6,1.8C59.8,8.3,59.3,9,59.3,9.1z M58.5,6.6h-0.2L58,6.4h-0.4l0,0c-0.5,0-0.7,0.3-1,0.7c-0.2,0.3-0.3,0.6-0.3,0.9
		c0,1.1,0.2,1.5,1,1.5c0.4,0,0.7-0.2,0.8-0.2l0.1-0.2l0.2-0.2l0.1-0.2l0.1-0.1c0-0.1,0.3-0.8,0.3-1.2C58.8,6.7,58.5,6.6,58.5,6.6z"
		/>
	<path class="st1" d="M65.3,9.1l-0.1,0.2l-0.5,0.6c0,0-0.6,0.7-1.6,0.7c-0.4,0-1-0.2-1.2-0.4l-0.2-0.3l-0.1-0.1
		c-0.2-0.1-0.5-0.9-0.5-1.6c0-1.2,0.7-1.9,0.7-1.9L62,6.2l0.2-0.1l0.2-0.2l0.2-0.1l0.1-0.1c0,0,0.7-0.3,1.4-0.3
		c0.6,0,1.6,0.9,1.6,1.8C65.7,8.3,65.3,9,65.3,9.1z M64.5,6.6h-0.2L64,6.5h-0.4l0,0c-0.5,0-0.7,0.3-1,0.7c-0.2,0.3-0.3,0.6-0.3,0.9
		c0,1.1,0.2,1.5,1,1.5c0.4,0,0.7-0.2,0.8-0.2l0.1-0.2L64.4,9l0.1-0.2l0.1-0.1c0-0.1,0.3-0.8,0.3-1.2C64.8,6.7,64.5,6.6,64.5,6.6z"/>
	<path class="st1" d="M70.7,7.8l-0.6,0.5l0,0l0.5,1l0.3,0.3c0,0,0.1,0.1,0.1,0.2c0,0.3-0.2,0.8-0.4,0.8c-0.1,0-0.3-0.2-0.4-0.3
		l-0.3-0.5l-0.1-0.3l-0.2-0.2l-0.1-0.2l-0.3-0.5V8.5c-0.1,0-0.3,0.1-0.3,0.1h-0.2c-0.1,0-0.2,0.2-0.2,0.4l0,0l0.1,1.2v0.3
		c0,0.1-0.3,0.6-0.6,0.6c-0.2,0-0.3-0.3-0.3-0.4V9l-0.1-0.4V8.5V8V7.8l-0.1-0.6l-0.1-0.4V6.6V5.9l0,0c0-0.4,0.4-0.7,0.6-0.7l0.9-0.1
		h0.5l0.2,0.1l0.5,0.2l0.2,0.2c0.1,0.1,0.8,0.7,0.8,1.4C71.1,7.3,70.9,7.5,70.7,7.8z M70,6.6l-0.3-0.3c-0.1-0.1-0.2-0.2-0.3-0.2l0,0
		l-0.3,0.1h-0.4h-0.1c-0.2,0-0.3,0-0.3,0.2v0.2l0.2,1v0.3c0,0.1,0,0.2,0.1,0.2s0.6-0.3,0.6-0.3h0.2l0.5-0.2c0,0,0.3-0.2,0.3-0.3
		C70.2,6.9,70.1,6.8,70,6.6z"/>
	<path class="st1" d="M76.7,6.4h-0.3H76h-0.3h-0.1c-0.5,0-0.5,0.4-0.5,0.5v0.2v0.4l0,0.5l0.1,0.3c0,0,0,0.5,0,0.7s0,0.6,0,0.6V10
		c0,0.7-0.4,1.3-0.5,1.3c-0.2,0-0.4-0.3-0.5-0.6c0-0.1,0-0.1,0-0.2c0-0.1,0-0.3,0.1-0.5c0-0.1,0-0.3,0.1-0.4l-0.1-0.2V8.7V8.4
		c0-0.2-0.1-0.3-0.1-0.6c0-0.3,0.1-0.5,0.1-0.7s-0.1-0.3-0.2-0.3l0,0L73,6.9h-0.1c-0.3,0-0.4-0.2-0.4-0.5c0-0.2,0.2-0.4,0.4-0.4H73
		h0.4l0.2-0.1h0.6l0.5-0.2H75l0.8-0.1L76,5.5h0.6H77c0,0,0,0.3,0,0.4C77,6.1,76.7,6.4,76.7,6.4z"/>
	<path class="st1" d="M81.8,6.5c-0.1,0-0.4-0.1-0.5-0.1h-0.6l-0.1-0.1h-0.3h-0.2c-0.1,0-0.1,0-0.2,0s-0.1,0-0.1,0.1v0.3l-0.1,0.2
		v0.5c0,0.1,0,0.1,0,0.2s0,0.1,0.1,0.1L80,7.6h0.2l0.3-0.1h0.4c0.3,0,0.5,0.2,0.5,0.5c0,0.2-0.3,0.4-0.5,0.4l0,0h-0.4h-0.9h-0.1
		l-0.1,0.1l-0.1,0.1l-0.1,1.1c0,0.1-0.1,0.2-0.1,0.4c0,0.1,0,0.1,0,0.2c0.1,0,0.4,0,0.5,0c0.3,0,0.6,0,0.7,0l0.4-0.1h0.2h0.3l0,0
		c0.3,0,0.6,0.3,0.6,0.4c0,0.2-0.4,0.4-0.5,0.4l0,0h-0.1L81,11.1h-1.2c0,0-1.1,0.2-1.3,0.2c-0.3,0-0.5-0.3-0.5-0.5l0,0V9.9l0.1-0.2
		l0.1-0.8l0.1-0.1V8.1l0.2-1v-1c0-0.3,0.2-0.6,0.6-0.6l0,0h0.2h0.2l0.4,0.1h0.2h0.7l0.5,0.1h0.4c0.1,0,0.3,0.2,0.3,0.5
		c0,0.1,0,0.1,0,0.2C82.2,6.3,82,6.5,81.8,6.5z"/>
	<path class="st1" d="M88.7,7.7v0.2l-0.2,0.5l-0.1,0.5l-0.3,0.6L88,9.9l-0.1,0.2l-0.2,0.4c-0.1,0.2-0.4,0.5-0.5,0.5
		c-0.2,0-0.3-0.2-0.5-0.4l-0.8-1l-0.3-0.3l-0.3-0.4l-0.2-0.3L85,8.4l-0.1-0.1h-0.1l0,0c-0.1,0-0.1,0.1-0.1,0.1v0.3v0.6l-0.2,0.8
		l-0.2,0.5c0,0-0.2,0.1-0.3,0.1c-0.1,0-0.3-0.3-0.3-0.3v-0.3l0.1-0.3V9.7c0,0,0.2-1.2,0.2-1.6V7.6c0-0.2,0.1-0.3,0.1-0.5
		s0-0.6,0-0.6s0.2-0.4,0.5-0.4c0.1,0,0.4,0.1,0.4,0.1l0.1,0.6l0.8,1.1c0.3,0.4,0.5,0.6,0.8,0.9c0.2,0.2,0.2,0.5,0.5,0.5
		c0,0,0.1-0.1,0.1-0.2c0-0.2,0.1-0.2,0.2-0.4C87.7,8.3,88,7.4,88,7.4L88.1,7L88,7.1c0-0.1,0-0.2,0-0.3c0-0.1,0.1-0.3,0.1-0.4
		s0.1-0.5,0.5-0.5c0.2,0,0.4,0.3,0.4,0.6c0,0.1,0,0.2,0,0.3L88.7,7.7z"/>
</g>
</svg>
