<?xml version="1.0" encoding="utf-8"?>
<!-- Generator: Adobe Illustrator 21.1.0, SVG Export Plug-In . SVG Version: 6.00 Build 0)  -->
<svg version="1.1" id="Layer_1" xmlns="http://www.w3.org/2000/svg" xmlns:xlink="http://www.w3.org/1999/xlink" x="0px" y="0px"
	 viewBox="0 0 94.7 15.4" style="enable-background:new 0 0 94.7 15.4;" xml:space="preserve">
<style type="text/css">
	.st0{fill:#E84E0F;}
	.st1{fill:#FFFFFF;}
</style>
<title>knop-ram-lnk</title>
<path class="st0" d="M94.5,7.8L94.5,7.8l-0.1-0.4V7.3c0.1-0.8,0.1-1.5,0-2.3c0-0.1,0.1-0.2,0-0.3s0-0.1,0-0.1c0-0.1,0-0.2-0.1-0.3
	c0-0.2,0-0.3,0-0.5s0.1-0.3,0-0.4S94.2,2.9,94,2.6c-0.5-0.4-1.2-0.8-1.8-1c-0.2-0.1-0.4-0.1-0.6-0.2c-0.4-0.1-0.8-0.3-1.2-0.4
	c-0.3,0-0.7,0-1.1-0.1S88.4,0.7,88,0.7c-0.2,0-0.4,0-0.7-0.1c-0.8-0.1-1.7-0.1-2.5-0.2c-0.6,0-1.2,0-1.8,0c-1.4-0.1-3.2,0-4.7,0
	s-3.1,0-4.6,0c-2.1,0-4,0-6.1,0c-6.3-0.2-7.7-0.2-14.2-0.1c-8.3,0-16.8,0-25.1,0c-2.3,0-4.8,0-7.1,0s-4.7,0-7.1,0H13
	c-0.6,0-1.1,0-1.7,0H8.9l0,0l0,0H8.8C8.2,0.4,7.7,0.4,7.2,0.5S6.1,0.6,5.6,0.7S4.8,0.8,4.4,0.9S3.8,1,3.5,1.1c-0.1,0-0.1,0-0.2,0.1
	L2.7,1.4C2.4,1.5,2,1.6,1.7,1.8C1.5,1.9,1.3,2.1,1.2,2.2C0.7,2.6,0.3,3.4,0.6,3.9c0,0,0,0.1,0.1,0.1H0.5l0.1,0.6c0,0,0,0,0,0.1
	s0,0.2,0,0.4s0,0.1,0,0.1s0.1,0.4,0,0.7c0,0.1,0.1,0.1,0,0.2c0,0.1,0,0.1,0,0.2s-0.1,0.1,0,0.2l0,0H0.5c0,0.3,0,0.6,0.1,0.9v0.2H0.5
	L0.6,8l0,0c-0.1,0.7-0.1,1.5,0,2.2c0,0.1,0,0.2,0,0.4V11c-0.1,0.1,0,0.3,0,0.5s-0.1,0.2,0,0.3s0,0.1,0,0.1c0,0.1,0,0.2,0.1,0.2v0.4
	c0.1,0.1-0.1,0.2,0,0.3s0,0.4,0.2,0.6c0.4,0.3,0.8,0.6,1.3,0.7c0.1,0,0.3,0.1,0.5,0.1c0.3,0.1,0.6,0.2,0.9,0.3s0.7,0.1,1,0.1
	s0.7,0.1,1,0.2c0.2,0,0.3,0,0.5,0L8,15c0.5,0,1,0,1.5,0c1.5,0,3.1,0,4.5,0c4,0,7.9,0,11.8,0c5.8,0,11.4,0.1,17.2,0
	c7.4-0.1,14.9-0.1,22.5-0.1c4.6,0,9.2,0.1,13.8,0c1.2,0,2.3,0,3.4,0c0.3,0,1.3,0,1.6-0.1h1.8c0.6,0,1.1,0,1.7-0.1s1.1-0.1,1.6-0.2
	s0.8-0.2,1.2-0.3s0.6-0.1,0.9-0.1c0.1,0,0.1,0,0.2-0.1l0.6-0.2c0.3-0.1,0.7-0.2,1-0.4c0.2-0.1,0.3-0.3,0.5-0.5
	c0.4-0.4,0.8-1.1,0.5-1.6l0,0h0.1l-0.1-0.6c0,0,0,0,0-0.1c0,0,0,0,0-0.1c0-0.2,0-0.4,0-0.7c0.1-0.6,0.1-1.3,0.1-2L94.5,7.8L94.5,7.8
	z"/>
<g>
	<path class="st1" d="M40.6,10.4c-0.5,0.3-1,0.5-1.7,0.5c-0.2,0-0.4,0-0.5-0.2c-0.1-0.1-0.1-0.3-0.1-0.4c0-0.1,0-0.2,0-0.2l0-0.7
		l0.1-0.4l0-0.2l0.1-1.3l0-0.9l0.1-0.2l0-0.5l-0.1-0.4l0.1-0.3l0.3-0.2h0.3l0.2-0.1l0.3,0c1,0.1,2,0.7,2,1.5c0,0.1-0.1,0.3-0.2,0.4
		l-0.2,0.2l-0.1,0.1L41,7.5c-0.1,0.1-0.1,0.2-0.1,0.2c0,0,0,0,0,0.1C41,8,41.7,8.2,41.7,9C41.7,9.5,41.3,10.1,40.6,10.4z M40.2,8.4
		c-0.3,0-0.9,0.1-0.9,0.2l0,0.3c0,0,0,0,0,0c0,0.2-0.1,0.3-0.1,0.4c0,0,0,0,0,0c0,0,0,0,0,0c0,0.1,0,0.1,0,0.1c0,0,0,0.1,0,0.1
		l0.1,0.2l0.2,0c0,0,0.1,0,0.2,0c0.1,0,0.2,0,0.2,0c0.3-0.1,0.6-0.3,0.7-0.4l0.1-0.1l0.2-0.2c0,0,0-0.1,0-0.1
		C40.8,8.7,40.5,8.4,40.2,8.4z M40.6,6.5L40.6,6.5l-0.4-0.4C40.2,6.1,40,6,39.8,6c-0.2,0-0.4,0.1-0.4,0.3l0,0.6l-0.1,0.5
		c0,0,0,0.1,0,0.1c0,0.1,0,0.1,0.1,0.1c0.1,0,0.2-0.1,0.3-0.2L40,7.2l0.3-0.3l0.3-0.2L40.6,6.5L40.6,6.5z"/>
	<path class="st1" d="M45.2,6.5l0,0.7L45,7.5L45,8l0,0.3c0,0-0.2,1-0.2,1.3c0,0.3,0,0.5-0.1,0.7c-0.1,0.2-0.1,0.3-0.1,0.3l0,0.2
		c0,0.2-0.6,0.4-0.6,0.4l-0.1-0.3l-0.1-0.1l0-0.6l0.1-0.7V9.1l0.1-0.2L44,8.4l0-0.3l0.1-0.6l0.1-1c0-0.2,0-0.3,0.1-0.5
		c0.1-0.2,0.3-0.5,0.6-0.5c0.2,0,0.4,0.2,0.4,0.4C45.4,6.1,45.2,6.4,45.2,6.5z"/>
	<path class="st1" d="M51.6,6.1l-0.3,0l-0.5,0.1l-0.3,0c0,0-0.1,0-0.1,0c-0.5,0-0.5,0.4-0.5,0.5l0.1,0.2l0,0.4L50,7.7L50,8
		c0,0,0.1,0.5,0.1,0.8c0,0.3,0,0.6,0,0.6l0,0.4c0,0.7-0.4,1.4-0.6,1.4c-0.2,0-0.4-0.4-0.5-0.6c0-0.1,0-0.1,0-0.2
		c0-0.1,0-0.3,0.1-0.6c0-0.1,0.1-0.3,0.1-0.4L49,9.2l0.1-0.8V8.1c0-0.2-0.1-0.3-0.1-0.6c0-0.3,0.1-0.6,0.1-0.7
		c0-0.2-0.1-0.3-0.2-0.3c0,0,0,0,0,0l-1.1,0.1c0,0-0.1,0-0.1,0c-0.3,0-0.4-0.2-0.4-0.5c0-0.3,0.2-0.4,0.5-0.5l0.2-0.1l0.4,0l0.2-0.1
		l0.6,0l0.5-0.2l0.3,0l0.9-0.1l0.3-0.1l0.6,0l0.4,0c0,0,0,0.3,0,0.4C51.9,5.7,51.6,6.1,51.6,6.1z"/>
	<path class="st1" d="M56.4,6.2c0,0-0.3,0.3-0.3,0.3s-0.6-0.6-1-0.6c-0.4,0-0.6,0.3-0.7,0.4l0,0.2l0.1,0.1L55.2,7l0.2,0.2l0.3,0.2
		l0.1,0.2L56,7.8l0.2,0.4l0.1,0.4c0,0.1,0.1,0.2,0.1,0.3c0,0.7-0.8,1.3-1.5,1.3c-0.4,0-0.8-0.1-0.8-0.1L53.6,10l-0.1-0.1
		C53.4,9.8,53,9.6,53,9.3c0-0.4,0.2-0.6,0.4-0.6c0.2,0,0.3,0.4,1.3,0.4c0.4,0,0.7-0.2,0.7-0.5c0-0.1,0-0.2-0.1-0.2l-0.1-0.1L54.9,8
		l-0.3-0.1c-0.5-0.2-1.2-0.9-1.2-1.5c0-0.6,0.5-1,0.5-1l0.4-0.2l0.2-0.1c0,0,0.3-0.1,0.5-0.1c1,0,1.6,0.4,1.6,0.9
		C56.6,6,56.5,6.1,56.4,6.2z"/>
</g>
</svg>
