<?xml version="1.0" encoding="utf-8"?>
<!-- Generator: Adobe Illustrator 21.1.0, SVG Export Plug-In . SVG Version: 6.00 Build 0)  -->
<svg version="1.1" id="Layer_1" xmlns="http://www.w3.org/2000/svg" xmlns:xlink="http://www.w3.org/1999/xlink" x="0px" y="0px"
	 viewBox="0 0 94.7 15.4" style="enable-background:new 0 0 94.7 15.4;" xml:space="preserve">
<style type="text/css">
	.st0{fill:#E84E0F;}
	.st1{fill:#FFFFFF;}
</style>
<title>knop-ram-lnk</title>
<path class="st0" d="M94.3,7.8L94.3,7.8l-0.1-0.4V7.3c0.1-0.8,0.1-1.5,0-2.3c0-0.1,0.1-0.2,0-0.3s0-0.1,0-0.1c0-0.1,0-0.2-0.1-0.3
	c0-0.2,0-0.3,0-0.5s0.1-0.3,0-0.4S94,2.9,93.8,2.6c-0.5-0.4-1.2-0.8-1.8-1c-0.2-0.1-0.4-0.1-0.6-0.2C91,1.3,90.6,1.1,90.2,1
	c-0.3,0-0.7,0-1.1-0.1s-0.9-0.2-1.3-0.2c-0.2,0-0.4,0-0.7-0.1c-0.8-0.1-1.7-0.1-2.5-0.2c-0.6,0-1.2,0-1.8,0c-1.4-0.1-3.2,0-4.7,0
	s-3.1,0-4.6,0c-2.1,0-4,0-6.1,0c-6.3-0.2-7.7-0.2-14.2-0.1c-8.3,0-16.8,0-25.1,0c-2.3,0-4.8,0-7.1,0s-4.7,0-7.1,0h-1.1
	c-0.6,0-1.1,0-1.7,0H8.7l0,0l0,0H8.6C8,0.4,7.5,0.4,7,0.5S5.9,0.6,5.4,0.7S4.6,0.8,4.2,0.9S3.6,1,3.3,1.1c-0.1,0-0.1,0-0.2,0.1
	L2.5,1.4c-0.3,0.1-0.7,0.2-1,0.4C1.3,1.9,1.1,2.1,1,2.2C0.5,2.6,0.1,3.4,0.4,3.9c0,0,0,0.1,0.1,0.1H0.3l0.1,0.6c0,0,0,0,0,0.1
	s0,0.2,0,0.4s0,0.1,0,0.1s0.1,0.4,0,0.7c0,0.1,0.1,0.1,0,0.2c0,0.1,0,0.1,0,0.2s-0.1,0.1,0,0.2l0,0H0.3c0,0.3,0,0.6,0.1,0.9v0.2H0.3
	L0.4,8l0,0c-0.1,0.7-0.1,1.5,0,2.2c0,0.1,0,0.2,0,0.4V11c-0.1,0.1,0,0.3,0,0.5s-0.1,0.2,0,0.3s0,0.1,0,0.1c0,0.1,0,0.2,0.1,0.2v0.4
	c0.1,0.1-0.1,0.2,0,0.3s0,0.4,0.2,0.6C1.1,13.7,1.5,14,2,14.1c0.1,0,0.3,0.1,0.5,0.1c0.3,0.1,0.6,0.2,0.9,0.3s0.7,0.1,1,0.1
	s0.7,0.1,1,0.2c0.2,0,0.3,0,0.5,0L7.8,15c0.5,0,1,0,1.5,0c1.5,0,3.1,0,4.5,0c4,0,7.9,0,11.8,0c5.8,0,11.4,0.1,17.2,0
	c7.4-0.1,14.9-0.1,22.5-0.1c4.6,0,9.2,0.1,13.8,0c1.2,0,2.3,0,3.4,0c0.3,0,1.3,0,1.6-0.1h1.8c0.6,0,1.1,0,1.7-0.1s1.1-0.1,1.6-0.2
	s0.8-0.2,1.2-0.3s0.6-0.1,0.9-0.1c0.1,0,0.1,0,0.2-0.1l0.6-0.2c0.3-0.1,0.7-0.2,1-0.4c0.2-0.1,0.3-0.3,0.5-0.5
	c0.4-0.4,0.8-1.1,0.5-1.6l0,0h0.1l-0.1-0.6c0,0,0,0,0-0.1c0,0,0,0,0-0.1c0-0.2,0-0.4,0-0.7c0.1-0.6,0.1-1.3,0.1-2L94.3,7.8L94.3,7.8
	z"/>
<g>
	<path class="st1" d="M8.5,10.7c-0.2,0-0.1-0.1-0.7-0.1c-0.3,0-0.8,0-0.8,0l-0.2,0l-0.5-0.1l-0.3,0c0,0,0,0,0,0
		c-0.3,0-0.3-0.7-0.3-0.7L5.5,9.5l0.1-1.2L5.7,8c0,0,0-0.4,0-0.8c0-0.6-0.1-1-0.1-1l0-0.3l0-0.1c0-0.2,0.6-0.4,0.6-0.4l0.1,0.2
		l0.2,0.1l0,0.3c0,0,0,0.2,0,0.3c0,0.1,0,0.3,0,0.6c0,0.2,0,0.4,0,0.6c0,0.1,0,0.2,0,0.3c0,0.3-0.1,0.7-0.1,0.7l0,0.5l0,0.4l0,0.2
		c0,0,0,0.1,0.1,0.1l0.8,0c0,0,0,0,0,0c0.2,0,0.3,0.1,0.5,0.1c0.2,0,0.3-0.1,0.5-0.1c0.3,0,0.5,0.4,0.5,0.6
		C9,10.5,8.8,10.7,8.5,10.7z"/>
	<path class="st1" d="M14.3,9.1l-0.1,0.2l-0.5,0.6c0,0-0.6,0.7-1.6,0.7c-0.4,0-1-0.2-1.2-0.4l-0.2-0.3l-0.1-0.1
		c-0.2-0.1-0.5-0.9-0.5-1.6C10.2,7,11,6.3,11,6.3l0.1-0.1l0.2-0.1l0.2-0.2l0.2-0.1l0.1-0.1c0,0,0.7-0.3,1.4-0.3
		c0.6,0,1.6,0.9,1.6,1.8C14.8,8.3,14.3,9,14.3,9.1z M13.5,6.6l-0.2,0L13,6.4l-0.4,0c0,0,0,0-0.1,0c-0.5,0-0.7,0.3-1,0.7
		c-0.2,0.3-0.3,0.6-0.3,0.9c0,1.1,0.2,1.5,1,1.5c0.4,0,0.7-0.2,0.8-0.2l0.1-0.2l0.2-0.2l0.1-0.2l0.1-0.1c0.1-0.1,0.3-0.8,0.3-1.2
		C13.8,6.7,13.5,6.6,13.5,6.6z"/>
	<path class="st1" d="M18.4,10.6c-0.1,0-0.2,0-0.2,0l-0.3-0.1l-0.3,0l-0.3-0.2L17,10.2c0,0-0.2-0.1-0.3-0.3c0,0-0.1-0.2-0.1-0.2
		l-0.2-0.1c0,0-0.3-0.4-0.3-1.2c0-0.8,0.2-1.3,0.6-1.6l0.8-0.5L17.7,6l0.2-0.2l0.7-0.2l0.6,0l0.3,0c0.1,0,0.1,0,0.2,0
		c0.5,0,0.8,0.3,0.8,0.7c0,0.2-0.1,0.5-0.3,0.5c-0.1,0-0.4-0.3-0.8-0.3c-0.5,0-1.2,0.2-1.3,0.3l-0.1,0.1l-0.4,0.2L17,7.5
		c-0.1,0.1-0.1,0.3-0.1,0.6c0,0,0,0.1,0,0.1c0,0.8,0.4,1.1,0.5,1.1l0.3,0.1L18,9.6c0,0,0.2,0.1,0.3,0.1c1.1,0,1.2-1,1.2-1s0,0,0-0.1
		c0,0,0-0.1,0-0.1s0,0-0.1,0c-0.1,0-0.2,0-0.2,0l-0.4,0c0,0,0,0,0,0c-0.2,0-0.4-0.2-0.4-0.4c0-0.3,0.2-0.5,0.4-0.5l0.3,0l0.2-0.1
		c0,0,0.2,0.1,0.4,0.1c0.1,0,0.4,0,0.4,0l0.2,0.1l0.2,0.1c0,0,0.1,0.2,0.1,0.4c0,0,0,0,0,0.1C20.2,9.4,19.8,10.3,18.4,10.6z"/>
	<path class="st1" d="M23.5,6.9l0,0.7l-0.1,0.2l0,0.5l0,0.3c0,0-0.2,1-0.2,1.3c0,0.3,0,0.5-0.1,0.6c-0.1,0.2-0.1,0.2-0.1,0.2l0,0.2
		c0,0.2-0.6,0.4-0.6,0.4L22.2,11l-0.1-0.1l0-0.6l0.1-0.7V9.3l0.1-0.2l0.1-0.5l0-0.3l0.1-0.6l0-1c0-0.2,0-0.3,0.1-0.5
		c0.1-0.2,0.2-0.5,0.5-0.5c0.2,0,0.4,0.2,0.4,0.4C23.7,6.5,23.5,6.8,23.5,6.9z"/>
	<path class="st1" d="M28.6,6.6c0,0-0.2,0.3-0.2,0.3s-0.5-0.6-0.9-0.6c-0.3,0-0.6,0.2-0.6,0.3l0,0.2L26.9,7l0.5,0.3l0.2,0.2l0.3,0.2
		l0.1,0.1l0.2,0.2l0.1,0.4l0.1,0.3c0,0.1,0.1,0.2,0.1,0.3c0,0.7-0.8,1.3-1.4,1.3c-0.4,0-0.8-0.1-0.8-0.1L26,10.2l-0.1-0.1
		c-0.1-0.1-0.4-0.3-0.4-0.5c0-0.4,0.2-0.5,0.4-0.5c0.1,0,0.3,0.4,1.2,0.4c0.3,0,0.6-0.2,0.6-0.5c0-0.1,0-0.1,0-0.2l-0.1-0.1
		l-0.2-0.3L27,8.2c-0.5-0.2-1.1-0.9-1.1-1.5c0-0.6,0.4-0.9,0.4-0.9l0.4-0.2l0.2-0.1c0,0,0.3-0.1,0.4-0.1c0.9,0,1.5,0.4,1.5,0.9
		C28.8,6.4,28.7,6.5,28.6,6.6z"/>
	<path class="st1" d="M33.7,6.4c-0.1,0-0.1,0-0.2,0c-0.2-0.1-0.2-0.2-0.5-0.2c-0.5,0-0.8,0.2-0.9,0.3l-0.1,0.1L31.7,7
		c0,0-0.2,0.3-0.4,0.5c-0.2,0.3-0.3,0.7-0.3,1c0,0.1,0.1,0.3,0.1,0.4l0.2,0.2l0.1,0.2l0.1,0.1c0.1,0.1,0.6,0.2,0.8,0.2
		c0.1,0,0.2,0,0.2,0l0.3-0.1l0.2,0l0.3-0.1l0.3,0.1l0,0.1l0.2,0.2c0,0-0.2,0.6-0.4,0.6l-0.1,0c0,0-0.2,0-0.3,0.1
		c-0.2,0.1-0.4,0.1-0.7,0.1c-0.3,0-0.9-0.2-0.9-0.2l-0.3,0l-0.4-0.3c0,0-0.6-0.5-0.6-1.4c0-0.7,0.6-1.7,0.6-1.7l0.4-0.6l0.2-0.1
		c0,0,0.2-0.2,0.3-0.3c0.4-0.3,1-0.5,1.5-0.5c0.6,0,0.9,0.2,1.1,0.5c0,0.1,0.1,0.1,0.1,0.2c0,0,0,0.1,0,0.1
		C34.1,6.3,33.9,6.4,33.7,6.4z"/>
	<path class="st1" d="M39.9,6.1l0,0.2l0,0.3l-0.1,0.8l0,0.1l0,0.3l0,0.6l0,0.6l0,0.2v0.3l0,0.5c0,0.2-0.2,0.6-0.2,0.6
		s-0.2,0.2-0.3,0.2c-0.4,0-0.5-0.1-0.5-0.4V9.8l0.1-0.7c0,0,0-0.1,0-0.1c0-0.2,0-0.4-0.1-0.4c-0.1,0-0.2,0.1-0.2,0.1l-0.7-0.1
		l-0.6,0l-0.7,0c-0.1,0-0.2,0-0.2,0.1c0,0.1,0.1,0.3,0.1,0.4c0,0.9-0.3,1.4-0.6,1.4c-0.2,0-0.4-0.3-0.4-0.3l0-0.3l0-0.5l0.1-0.3
		l0-0.3l0-0.5l0-0.9l0.1-0.3l0-1l0.2-0.5c0,0,0.2-0.1,0.3-0.1c0.1,0,0.3,0.1,0.3,0.1v0.2l0,0.1c0,0,0,0.1,0,0.1
		c0,0.1-0.1,0.2-0.1,0.4c0,0.1,0,0.3,0,0.4l0,0.4l0,0.1l0,0.3l0.1,0.1l0.2,0l0.3,0l0.2,0l1.1,0l0.4,0c0.1,0,0.1-0.1,0.1-0.1l0-0.2
		L39,6.9L39,6c0-0.3,0.2-0.7,0.5-0.7c0.3,0,0.4,0.2,0.4,0.4c0,0,0,0,0,0L39.9,6.1z"/>
	<path class="st1" d="M45.1,6.5c-0.1,0-0.4-0.1-0.5-0.1l-0.6,0l-0.1-0.1l-0.3,0l-0.2,0c-0.1,0-0.1,0-0.2,0c-0.1,0-0.1,0-0.1,0.1
		l0,0.3l-0.1,0.2l0,0.5c0,0.1,0,0.1,0,0.2c0,0.1,0,0.1,0.1,0.1l0.4-0.1l0.2,0l0.3-0.1l0.4,0c0.3,0,0.5,0.2,0.5,0.5
		c0,0.2-0.3,0.4-0.5,0.4c0,0,0,0,0,0l-0.4,0l-0.9,0l-0.1,0l-0.1,0.1l-0.1,0.1l-0.1,1.1c0,0.1-0.1,0.2-0.1,0.4c0,0.1,0,0.1,0,0.2
		c0.1,0,0.4,0,0.5,0c0.3,0,0.6,0,0.7,0l0.4-0.1l0.2,0l0.3,0c0,0,0,0,0,0c0.3,0,0.6,0.3,0.6,0.4c0,0.2-0.4,0.4-0.5,0.4h0l-0.1,0
		l-0.2,0.1l-1.2,0c0,0-1.1,0.2-1.3,0.2c-0.3,0-0.5-0.3-0.5-0.5c0,0,0,0,0,0l0-0.9l0.1-0.2l0.1-0.8l0.1-0.1l0-0.7l0.2-1l0-1
		c0-0.3,0.2-0.6,0.6-0.6c0,0,0,0,0,0l0.2,0l0.2,0l0.4,0.1l0.2,0h0.7l0.5,0.1l0.4,0c0.1,0,0.3,0.2,0.3,0.5c0,0.1,0,0.1,0,0.2
		C45.5,6.3,45.3,6.5,45.1,6.5z"/>
	<path class="st1" d="M52.4,8.4l-0.3,0.2l-0.5,0.1l-0.2,0.1l-0.1,0.2l0,0.4l0,0.2l0,0.4v0.4l0,0.5c0,0.2-0.2,0.4-0.3,0.4
		c-0.1,0.1-0.2,0.2-0.3,0.2c-0.2,0-0.3-0.3-0.4-0.4l-0.1-0.2l0.1-0.2l0-0.3l0.1-0.3V9l0.1-0.3l0-0.4l0.1-0.5l0-0.5c0,0,0-0.2,0-0.3
		c0-0.1,0-0.3,0-0.5c0-0.1,0-0.3,0-0.5c0-0.7,0.3-1,1.1-1c0.2,0,0.5,0,0.5,0L53,5.5c0.2,0,1,0.5,1,1C53.9,7.6,52.6,8.3,52.4,8.4z
		 M52.6,6.2l-0.5-0.1L52,6.1h-0.1c-0.3,0-0.3,0.1-0.4,0.3l-0.1,0.5l0,0.2l-0.1,0.3c0,0,0,0,0,0.1c0,0.1,0.1,0.2,0.1,0.2
		c0.5,0,1.5-0.6,1.5-1C53,6.5,52.8,6.2,52.6,6.2z"/>
	<path class="st1" d="M59.3,9.1l-0.1,0.2l-0.5,0.6c0,0-0.6,0.7-1.6,0.7c-0.4,0-1-0.2-1.2-0.4l-0.2-0.3l-0.1-0.1
		c-0.2-0.1-0.5-0.9-0.5-1.6C55.2,7,56,6.3,56,6.3l0.1-0.1l0.2-0.1l0.2-0.2l0.2-0.1l0.1-0.1c0,0,0.7-0.3,1.4-0.3
		c0.6,0,1.6,0.9,1.6,1.8C59.8,8.3,59.3,9,59.3,9.1z M58.5,6.6l-0.2,0L58,6.4l-0.4,0c0,0,0,0,0,0c-0.5,0-0.7,0.3-1,0.7
		c-0.2,0.3-0.3,0.6-0.3,0.9c0,1.1,0.2,1.5,1,1.5c0.4,0,0.7-0.2,0.8-0.2l0.1-0.2l0.2-0.2l0.1-0.2l0.1-0.1c0-0.1,0.3-0.8,0.3-1.2
		C58.8,6.7,58.5,6.6,58.5,6.6z"/>
	<path class="st1" d="M65.3,9.1l-0.1,0.2l-0.5,0.6c0,0-0.6,0.7-1.6,0.7c-0.4,0-1-0.2-1.2-0.4l-0.2-0.3l-0.1-0.1
		c-0.2-0.1-0.5-0.9-0.5-1.6c0-1.2,0.7-1.9,0.7-1.9L62,6.2l0.2-0.1l0.2-0.2l0.2-0.1l0.1-0.1c0,0,0.7-0.3,1.4-0.3
		c0.6,0,1.6,0.9,1.6,1.8C65.7,8.3,65.3,9,65.3,9.1z M64.5,6.6l-0.2,0l-0.3-0.1l-0.4,0c0,0,0,0,0,0c-0.5,0-0.7,0.3-1,0.7
		c-0.2,0.3-0.3,0.6-0.3,0.9c0,1.1,0.2,1.5,1,1.5c0.4,0,0.7-0.2,0.8-0.2l0.1-0.2l0.2-0.2l0.1-0.2l0.1-0.1c0-0.1,0.3-0.8,0.3-1.2
		C64.8,6.7,64.5,6.6,64.5,6.6z"/>
	<path class="st1" d="M70.7,7.8l-0.6,0.5c0,0,0,0,0,0l0.5,1l0.3,0.3c0,0,0.1,0.1,0.1,0.2c0,0.3-0.2,0.8-0.4,0.8
		c-0.1,0-0.3-0.2-0.4-0.3l-0.3-0.5l-0.1-0.3l-0.2-0.2l-0.1-0.2l-0.3-0.5c0,0,0-0.1,0-0.1c-0.1,0-0.3,0.1-0.3,0.1l-0.2,0
		c-0.1,0-0.2,0.2-0.2,0.4c0,0,0,0,0,0l0.1,1.2l0,0.3c0,0.1-0.3,0.6-0.6,0.6c-0.2,0-0.3-0.3-0.3-0.4l0-1.7l-0.1-0.4V8.5l0-0.5l0-0.2
		l-0.1-0.6l-0.1-0.4l0-0.2l0-0.7c0,0,0,0,0,0c0-0.4,0.4-0.7,0.6-0.7l0.9-0.1l0.5,0l0.2,0.1l0.5,0.2l0.2,0.2c0.1,0.1,0.8,0.7,0.8,1.4
		C71.1,7.3,70.9,7.5,70.7,7.8z M70,6.6l-0.3-0.3c-0.1-0.1-0.2-0.2-0.3-0.2c0,0,0,0,0,0l-0.3,0.1l-0.4,0c0,0-0.1,0-0.1,0
		c-0.2,0-0.3,0-0.3,0.2l0,0.2l0.2,1l0,0.3c0,0.1,0,0.2,0.1,0.2c0.1,0,0.6-0.3,0.6-0.3l0.2,0l0.5-0.2c0,0,0.3-0.2,0.3-0.3
		C70.2,6.9,70.1,6.8,70,6.6z"/>
	<path class="st1" d="M76.7,6.4l-0.3,0l-0.4,0l-0.3,0c0,0-0.1,0-0.1,0c-0.5,0-0.5,0.4-0.5,0.5l0,0.2l0,0.4L75.1,8l0.1,0.3
		c0,0,0,0.5,0,0.7c0,0.2,0,0.6,0,0.6l0,0.4c0,0.7-0.4,1.3-0.5,1.3c-0.2,0-0.4-0.3-0.5-0.6c0-0.1,0-0.1,0-0.2c0-0.1,0-0.3,0.1-0.5
		c0-0.1,0-0.3,0.1-0.4l-0.1-0.2l0-0.7V8.4c0-0.2-0.1-0.3-0.1-0.6c0-0.3,0.1-0.5,0.1-0.7c0-0.2-0.1-0.3-0.2-0.3c0,0,0,0,0,0l-1.1,0.1
		c0,0-0.1,0-0.1,0c-0.3,0-0.4-0.2-0.4-0.5c0-0.2,0.2-0.4,0.4-0.4l0.1,0l0.4,0l0.2-0.1l0.6,0l0.5-0.2l0.3,0l0.8-0.1L76,5.5l0.6,0
		l0.4,0c0,0,0,0.3,0,0.4C77,6.1,76.7,6.4,76.7,6.4z"/>
	<path class="st1" d="M81.8,6.5c-0.1,0-0.4-0.1-0.5-0.1l-0.6,0l-0.1-0.1l-0.3,0l-0.2,0c-0.1,0-0.1,0-0.2,0c-0.1,0-0.1,0-0.1,0.1
		l0,0.3l-0.1,0.2l0,0.5c0,0.1,0,0.1,0,0.2c0,0.1,0,0.1,0.1,0.1L80,7.6l0.2,0l0.3-0.1l0.4,0c0.3,0,0.5,0.2,0.5,0.5
		c0,0.2-0.3,0.4-0.5,0.4c0,0,0,0,0,0l-0.4,0l-0.9,0l-0.1,0l-0.1,0.1l-0.1,0.1l-0.1,1.1c0,0.1-0.1,0.2-0.1,0.4c0,0.1,0,0.1,0,0.2
		c0.1,0,0.4,0,0.5,0c0.3,0,0.6,0,0.7,0l0.4-0.1l0.2,0l0.3,0c0,0,0,0,0,0c0.3,0,0.6,0.3,0.6,0.4c0,0.2-0.4,0.4-0.5,0.4h0l-0.1,0
		l-0.2,0.1l-1.2,0c0,0-1.1,0.2-1.3,0.2c-0.3,0-0.5-0.3-0.5-0.5c0,0,0,0,0,0l0-0.9l0.1-0.2l0.1-0.8l0.1-0.1l0-0.7l0.2-1l0-1
		c0-0.3,0.2-0.6,0.6-0.6c0,0,0,0,0,0l0.2,0l0.2,0l0.4,0.1l0.2,0h0.7l0.5,0.1l0.4,0c0.1,0,0.3,0.2,0.3,0.5c0,0.1,0,0.1,0,0.2
		C82.2,6.3,82,6.5,81.8,6.5z"/>
	<path class="st1" d="M88.7,7.7l0,0.2l-0.2,0.5l-0.1,0.5l-0.3,0.6L88,9.9l-0.1,0.2l-0.2,0.4c-0.1,0.2-0.4,0.5-0.5,0.5
		c-0.2,0-0.3-0.2-0.5-0.4l-0.8-1l-0.3-0.3l-0.3-0.4l-0.2-0.3L85,8.4l-0.1-0.1l-0.1,0c0,0,0,0,0,0c-0.1,0-0.1,0.1-0.1,0.1l0,0.3
		l0,0.6l-0.2,0.8l-0.2,0.5c0,0-0.2,0.1-0.3,0.1c-0.1,0-0.3-0.3-0.3-0.3v-0.3l0.1-0.3l0-0.1c0,0,0.2-1.2,0.2-1.6l0-0.5
		c0-0.2,0.1-0.3,0.1-0.5c0-0.2,0-0.6,0-0.6s0.2-0.4,0.5-0.4c0.1,0,0.4,0.1,0.4,0.1l0.1,0.6l0.8,1.1c0.3,0.4,0.5,0.6,0.8,0.9
		c0.2,0.2,0.2,0.5,0.5,0.5c0,0,0.1-0.1,0.1-0.2c0-0.2,0.1-0.2,0.2-0.4c0.2-0.4,0.5-1.3,0.5-1.3l0.1-0.4L88,7.1c0-0.1,0-0.2,0-0.3
		c0-0.1,0.1-0.3,0.1-0.4c0-0.1,0.1-0.5,0.5-0.5c0.2,0,0.4,0.3,0.4,0.6c0,0.1,0,0.2,0,0.3L88.7,7.7z"/>
</g>
</svg>
