<?xml version="1.0" encoding="utf-8"?>
<!-- Generator: Adobe Illustrator 21.1.0, SVG Export Plug-In . SVG Version: 6.00 Build 0)  -->
<svg version="1.1" id="Layer_1" xmlns="http://www.w3.org/2000/svg" xmlns:xlink="http://www.w3.org/1999/xlink" x="0px" y="0px"
	 viewBox="0 0 166.8 39.5" style="enable-background:new 0 0 166.8 39.5;" xml:space="preserve">
<style type="text/css">
	.st0{fill:#312783;}
	.st1{fill:#FFFFFF;}
</style>
<title>knop-submit</title>
<path class="st0" d="M164.7,20.6L164.7,20.6l-0.1-1.1c0-0.1,0-0.1,0-0.2c0.1-1.9,0.1-3.8,0-5.7c0.1-0.3,0.1-0.6,0-0.9
	c0-0.1,0.1-0.2,0.1-0.2c0-0.2,0-0.5-0.1-0.7c0-0.4,0-0.9-0.1-1.3c-0.2-0.3,0.1-0.8-0.1-1.1c-0.4-0.6-0.1-1.3-0.5-1.9
	c-0.9-1-2-1.8-3.1-2.4c-0.3-0.2-0.7-0.3-1-0.4c-0.6-0.3-1.3-0.6-2-0.9c-0.7-0.2-1.5-0.3-2.2-0.5S154,3,153.2,2.8
	c-0.4-0.1-0.8-0.1-1.2-0.1c-1.3-0.2-2.9-0.3-4.3-0.5c-1-0.1-2.1-0.1-3.1,0c-2.7-0.2-5.5-0.2-8.2-0.1c-2.6,0-5.4-0.1-8-0.1
	c-3.6,0-7,0.1-10.6,0c-10.9-0.2-13.3-0.2-24.6-0.1C78.7,2,64,1.9,49.5,1.9c-4,0-8.3,0-12.3-0.1c-4.2-0.1-8.1,0.1-12.3,0H23
	c-1-0.1-1.9,0-2.9,0.1L16,2.1l-0.2,0.1c0,0,0,0,0,0.1h-0.1c-1,0.1-2,0.1-2.9,0.2S10.8,2.7,10,3S8.6,3.3,8,3.5
	C7.5,3.7,6.9,3.7,6.4,3.9C6.2,4,6.1,4,6,4.1C5.7,4.3,5.3,4.5,4.9,4.6c-0.6,0.3-1.2,0.6-1.8,1C2.9,6,2.6,6.4,2.4,6.8
	c-0.8,1-1.4,2.8-0.9,4.1c0,0.1,0.1,0.2,0.1,0.4H1.2l0,0l0.1,1.5c0,0-0.1,0.1,0,0.2c0.1,0.3,0.1,0.6,0,0.9c0,0.1,0.1,0.2,0,0.3
	c-0.2,0.4,0.2,1.1,0,1.6c0,0.1,0.1,0.3,0,0.5c0,0.1,0,0.3,0,0.4s-0.1,0.4,0,0.5v0.1H1.2c0,0.8,0.1,1.6,0.1,2.1c0,0.1,0,0.3,0,0.5
	H1.2l0,0L1.3,21c0,0.1,0,0.1,0,0.2c-0.1,1.8-0.1,3.6,0,5.4c0,0.3,0.1,0.6,0.1,0.9v1.1c-0.1,0.4-0.1,0.8,0,1.2c0,0.3-0.1,0.6,0,0.8
	c0,0.1,0,0.1,0,0.2c0,0.2,0,0.4,0.1,0.5c0,0.3,0,0.7,0,1s-0.1,0.6,0,0.8c0.3,0.5,0.1,1,0.4,1.5c0.7,0.8,1.5,1.4,2.4,1.8
	c0.2,0.1,0.6,0.2,0.8,0.3c0.5,0.3,1,0.5,1.6,0.7c0.5,0.1,1.1,0.2,1.7,0.4s1.2,0.3,1.8,0.4c0.3,0.1,0.6,0.1,0.9,0.1
	c1,0.1,2.2,0.2,3.3,0.4c0.9,0.1,1.8,0.1,2.6,0c2.6,0.1,5.4-0.1,7.8-0.1c6.9,0,13.8,0,20.6,0c10-0.1,19.9,0.2,30,0
	c12.9-0.2,26-0.3,39.1-0.3c8,0,16,0.1,23.9,0.1c2,0,4,0.1,6,0c0.9,0,1.9,0,2.8-0.2c1-0.1,2.2-0.1,3.2-0.2s2-0.1,2.9-0.2
	s2-0.2,2.8-0.5s1.4-0.5,2.1-0.7c0.5-0.2,1.1-0.2,1.6-0.4c0.1-0.1,0.2-0.1,0.4-0.2c0.3-0.2,0.7-0.4,1.1-0.5c0.6-0.3,1.2-0.6,1.8-1
	c0.3-0.4,0.6-0.7,0.8-1.2c0.8-1,1.4-2.8,0.9-4.1v-0.1h0.2l0,0c0-0.5-0.1-1-0.1-1.5c0,0,0.1-0.1,0-0.2c0-0.1,0-0.1,0-0.2
	c0-0.6,0-1.1,0-1.7c0.1-1.6,0.1-3.1,0-4.7v-0.2H164.7z"/>
<g>
	<path class="st1" d="M25.3,27c-0.1,0-0.6,0.1-0.6,0.1l-0.9-0.3l-1-0.1l-0.9-0.5l-0.6-0.2c0,0-0.5-0.3-0.9-0.9
		c-0.1-0.1-0.3-0.5-0.4-0.7l-0.4-0.3c0,0-0.9-1.2-0.9-3.4c0-2.2,0.5-3.7,1.7-4.5l2.1-1.4l0.8-0.5l0.5-0.4l1.8-0.4l1.6,0.1l0.9-0.1
		c0.2,0,0.4,0,0.6,0c1.4,0,2.1,0.8,2.1,1.9c0,0.7-0.3,1.3-0.9,1.3c-0.3,0-1.2-0.7-2.3-0.7c-1.5,0-3.3,0.7-3.7,0.8l-0.3,0.3l-1,0.6
		l-1.1,1.1C21,18.9,21,19.4,21,20.2c0,0.1,0,0.2,0,0.3c0,2.2,1.2,3.1,1.3,3.2l0.9,0.3l0.7,0.4c0.1,0,0.5,0.2,0.8,0.2
		c3.1,0,3.4-2.8,3.4-2.8s0-0.1,0-0.3c0-0.1,0-0.2,0-0.3c0,0-0.1,0-0.2,0c-0.2,0-0.4,0.1-0.6,0.1l-1.2,0.1c0,0,0,0-0.1,0
		c-0.6,0-1.1-0.6-1.1-1c0-0.7,0.7-1.3,1-1.3l0.8-0.1l0.5-0.2c0,0,0.6,0.1,1,0.1c0.3,0,1.1,0,1.1,0l0.5,0.4l0.5,0.3
		c0,0,0.3,0.6,0.3,1c0,0.1,0,0.1,0,0.2C30.2,23.9,29.2,26.4,25.3,27z"/>
	<path class="st1" d="M45.8,27.8c-0.4,0-1-0.6-1-0.6l-0.3-0.7l0.1-0.9L44.3,25c0,0-0.4-0.9-0.5-1.5c-0.3-1.2-0.5-2-0.9-2
		c-0.5,0-1.9,0.4-3.1,0.4c-0.6,0-0.9,0-1,0.3l-0.3,0.7l-0.2,0.6L38,24.1l-0.2,0.6l-0.6,0.8l-0.5,1.4c-0.2,0.5-1,0.9-1.3,0.9
		c-0.5,0-1.3-0.7-1.3-1.4c0-0.6,0.7-1.9,0.9-2.2c0.1-0.3,0.2-1,0.4-1.4c0.3-0.6,0.9-1.6,0.9-1.6l1.1-2.1l0.7-1.9l0.4-0.6l0.8-1.8
		c0.4-1,0.8-2,1.9-2c0.9,0,1.3,0.4,1.9,1.8l1.6,3.9l0.2,0.8l1.1,2.5c0.1,0.2,0.4,0.5,0.4,0.8c0.3,0.7,0.2,1.4,0.5,1.9
		c0.3,0.7,0.6,1.3,0.6,1.7C47.4,26.6,46.3,27.8,45.8,27.8z M42.1,18.2L42,17.7l-0.5-1c0,0-0.1-0.5-0.3-0.5c-0.3,0-1.2,1.4-1.3,2.2
		c0,0.2-0.1,0.4-0.1,0.6c0,0.1,0,0.2,0.1,0.2l2-0.1c0.3,0,0.6-0.1,0.6-0.2C42.4,18.7,42.1,18.2,42.1,18.2z"/>
	<path class="st1" d="M72.2,17.3c-0.6,0.4-1.2,1.5-1.2,1.5l-0.7,1l-1.7,1.7l-1.5,2l-0.4,1l-1.4,1.4l-0.5,0.6c-0.4,0.5-0.9,1-1.4,1
		c-1.1,0-1.8-1-1.9-1.3l-0.2-1.1L61,23.8l-0.1-1l-0.3-1.8c0,0-0.4-1.8-0.4-2.1c0-0.3-0.6-1.1-0.6-1.1c-0.1-0.1-0.1-0.4-0.1-0.6
		s0-0.5,0.1-0.7c0.4-0.7,0.6-1.1,1.2-1.1c0.5,0,1,0.2,1.1,0.6l0.5,1.6l0.7,1.7l0,0.7l0.5,2.8c0.1,0.7,0.3,1,0.5,1
		c0.3,0,0.6-0.4,0.9-0.8l0.7-1l0.5-0.4l0.9-1.2c0.6-0.9,1.2-1.3,1.7-2.2c1.6-2.8,2.7-3.9,3.4-3.9c0.8,0,1.4,0.6,1.4,1.5
		C73.4,16.2,72.9,16.8,72.2,17.3z"/>
	<path class="st1" d="M85.8,15.6c-0.3,0-1-0.2-1.3-0.2l-1.8,0l-0.4-0.2l-0.9,0l-0.5,0c-0.2,0-0.4,0-0.6,0c-0.3,0-0.3,0-0.4,0.2
		l0,0.9l-0.3,0.6l-0.1,1.3c0,0.2,0,0.4,0,0.6c0,0.2,0,0.3,0.2,0.3l1.1-0.2l0.5,0l0.8-0.3l1.2,0.1c0.8,0.1,1.5,0.7,1.5,1.5
		c0,0.6-0.9,1.3-1.4,1.3c0,0,0,0,0,0l-1.1-0.1l-2.5,0.1l-0.2,0.1l-0.2,0.2L79.1,22l-0.2,3c0,0.3-0.2,0.7-0.2,1.2
		c0,0.2,0,0.4,0.1,0.4c0.2,0,1.1-0.1,1.5-0.1c0.9,0,1.6,0,1.9-0.1l1-0.4l0.6,0l0.9,0c0,0,0,0,0.1,0c0.8,0,1.7,0.9,1.7,1.2
		c0,0.5-1.1,1.2-1.4,1.2h0l-0.3,0l-0.5,0.3l-3.2,0.1c0,0-3,0.7-3.6,0.7c-0.9,0-1.3-0.7-1.3-1.4c0,0,0-0.1,0-0.1l0.1-2.6l0.3-0.7
		l0.2-2.1l0.2-0.4l0.1-2l0.5-2.9l0.1-2.7c0-1,0.7-1.7,1.6-1.7c0,0,0,0,0.1,0l0.6,0l0.5-0.1l1,0.2l0.7-0.1h2l1.3,0.1l1.2,0
		c0.3,0,0.9,0.6,0.9,1.3c0,0.2,0,0.3-0.1,0.5C86.9,15.3,86.4,15.6,85.8,15.6z"/>
	<path class="st1" d="M100.8,19.3l-1.6,1.3c0,0-0.1,0-0.1,0l1.4,2.9l0.8,1c0.1,0.1,0.2,0.3,0.2,0.6c0,0.9-0.7,2.2-1.3,2.2
		c-0.3,0-0.8-0.5-1-0.9l-0.8-1.3l-0.2-0.8l-0.6-0.6l-0.2-0.5l-0.7-1.3c0-0.1,0-0.2-0.1-0.2c-0.2,0-0.9,0.4-0.9,0.4l-0.7,0.1
		c-0.3,0-0.5,0.6-0.5,1c0,0,0,0,0,0.1l0.3,3.4l0,0.9c0,0.4-0.8,1.7-1.6,1.7c-0.5,0-1-0.7-1-1.2l-0.1-4.6L92,22.1v-0.7L91.9,20
		l0.1-0.6l-0.2-1.6l-0.2-1.1l0.1-0.5l-0.1-1.9c0,0,0,0,0-0.1c0-1,1.1-2,1.6-2.1l2.6-0.2l1.4-0.1l0.7,0.3l1.3,0.5l0.5,0.5
		c0.2,0.2,2.1,1.9,2.1,3.8C101.9,17.9,101.5,18.6,100.8,19.3z M98.9,16.1l-0.9-1c-0.3-0.3-0.4-0.6-0.7-0.6c0,0-0.1,0-0.1,0l-0.9,0.2
		l-1-0.1c-0.1,0-0.2,0-0.3,0c-0.5,0-0.9,0.1-0.9,0.5l0,0.5l0.4,2.7l0,0.9c0,0.2,0.1,0.5,0.3,0.5c0.3,0,1.6-1,1.6-1l0.7-0.1l1.4-0.7
		c0,0,1-0.5,1-0.8C99.5,16.9,99.2,16.4,98.9,16.1z"/>
	<path class="st1" d="M112.4,26l-1.5,0.5c-0.3,0.2-2,1.3-3.1,1.3c-1.2,0-2-0.9-2-1.7c0-0.3-0.1-0.6-0.1-1c0-0.1,0-0.2,0-0.4l0.4-1.7
		l0.3-0.4l0.5-3.2L107,19v-1.3l0.2-0.4l0.1-1.6l0.3-1.3l0.1-0.3l0.1-0.9l0.3-0.4l0.3-0.6l1-0.1l0.4,0.1l0.4-0.1c0,0,2.7,0.6,3.9,1.2
		c2,1.2,3.7,3.6,3.7,5.4C118,21.5,115.6,25,112.4,26z M110.2,14.8c-0.1,0-0.3,0.3-0.3,0.5l0,0.5l-0.3,1.5l-0.1,0.8l-0.3,1.3l0.1,0.5
		l-0.5,3.3c-0.1,0.6-0.3,1.2-0.3,1.5c0,0.2,0.1,0.3,0.3,0.3c0.2,0,1.5-0.8,1.5-0.8s1.5-0.6,2.4-1.1c0.6-0.4,1.4-1,1.6-1.2l0.3-1
		l0.3-0.3l0.2-0.6c0,0,0.5-0.5,0.5-0.8C115.4,16.8,113.1,14.8,110.2,14.8z"/>
	<path class="st1" d="M131.6,15.6c-0.3,0-1-0.2-1.3-0.2l-1.8,0l-0.4-0.2l-0.9,0l-0.5,0c-0.2,0-0.4,0-0.6,0c-0.3,0-0.3,0-0.4,0.2
		l0,0.9l-0.3,0.6l-0.1,1.3c0,0.2,0,0.4,0,0.6c0,0.2,0,0.3,0.2,0.3l1.1-0.2l0.5,0l0.8-0.3l1.2,0.1c0.8,0.1,1.5,0.7,1.5,1.5
		c0,0.6-0.9,1.3-1.4,1.3c0,0,0,0,0,0l-1.1-0.1l-2.5,0.1l-0.2,0.1l-0.2,0.2l-0.3,0.2l-0.2,3c0,0.3-0.2,0.7-0.2,1.2
		c0,0.2,0,0.4,0.1,0.4c0.2,0,1.1-0.1,1.5-0.1c0.9,0,1.6,0,1.9-0.1l1-0.4l0.6,0l0.9,0c0,0,0,0,0.1,0c0.8,0,1.7,0.9,1.7,1.2
		c0,0.5-1.1,1.2-1.4,1.2h0l-0.3,0l-0.5,0.3l-3.2,0.1c0,0-3,0.7-3.6,0.7c-0.9,0-1.3-0.7-1.3-1.4c0,0,0-0.1,0-0.1l0.1-2.6l0.3-0.7
		l0.2-2.1l0.2-0.4l0.1-2l0.5-2.9l0.1-2.7c0-1,0.7-1.7,1.6-1.7c0,0,0,0,0.1,0l0.6,0l0.5-0.1l1,0.2l0.7-0.1h2l1.3,0.1l1.2,0
		c0.3,0,0.9,0.6,0.9,1.3c0,0.2,0,0.3-0.1,0.5C132.7,15.3,132.2,15.6,131.6,15.6z"/>
	<path class="st1" d="M146.5,19.3l-1.6,1.3c0,0-0.1,0-0.1,0l1.4,2.9l0.8,1c0.1,0.1,0.2,0.3,0.2,0.6c0,0.9-0.7,2.2-1.3,2.2
		c-0.3,0-0.8-0.5-1-0.9l-0.8-1.3l-0.2-0.8l-0.6-0.6l-0.2-0.5l-0.7-1.3c0-0.1,0-0.2-0.1-0.2c-0.2,0-0.9,0.4-0.9,0.4l-0.7,0.1
		c-0.3,0-0.5,0.6-0.5,1c0,0,0,0,0,0.1l0.3,3.4l0,0.9c0,0.4-0.8,1.7-1.6,1.7c-0.5,0-1-0.7-1-1.2l-0.1-4.6l-0.2-1.2v-0.7l-0.1-1.4
		l0.1-0.6l-0.2-1.6l-0.2-1.1l0.1-0.5l-0.1-1.9c0,0,0,0,0-0.1c0-1,1.1-2,1.6-2.1l2.6-0.2l1.4-0.1l0.7,0.3l1.3,0.5l0.5,0.5
		c0.2,0.2,2.1,1.9,2.1,3.8C147.7,17.9,147.3,18.6,146.5,19.3z M144.7,16.1l-0.9-1c-0.3-0.3-0.4-0.6-0.7-0.6c0,0-0.1,0-0.1,0
		l-0.9,0.2l-1-0.1c-0.1,0-0.2,0-0.3,0c-0.5,0-0.9,0.1-0.9,0.5l0,0.5l0.4,2.7l0,0.9c0,0.2,0.1,0.5,0.3,0.5c0.3,0,1.6-1,1.6-1l0.7-0.1
		l1.4-0.7c0,0,1-0.5,1-0.8C145.2,16.9,145,16.4,144.7,16.1z"/>
</g>
</svg>
