<?xml version="1.0" encoding="utf-8"?>
<!-- Generator: Adobe Illustrator 21.1.0, SVG Export Plug-In . SVG Version: 6.00 Build 0)  -->
<svg version="1.1" id="Layer_1" xmlns="http://www.w3.org/2000/svg" xmlns:xlink="http://www.w3.org/1999/xlink" x="0px" y="0px"
	 viewBox="0 0 94.7 15.4" style="enable-background:new 0 0 94.7 15.4;" xml:space="preserve">
<style type="text/css">
	.st0{fill:#007BC4;}
	.st1{fill:#312783;}
</style>
<title>knop-hardeschijf-lnk</title>
<path class="st0" d="M94.3,7.8L94.3,7.8l-0.1-0.4V7.3c0.1-0.8,0.1-1.5,0-2.3c0-0.1,0.1-0.2,0-0.3s0-0.1,0-0.1c0-0.1,0-0.2-0.1-0.3
	c0-0.2,0-0.3,0-0.5s0.1-0.3,0-0.4s-0.1-0.5-0.3-0.8c-0.5-0.4-1.2-0.8-1.8-1c-0.2-0.1-0.4-0.1-0.6-0.2c-0.4-0.1-0.8-0.3-1.2-0.4
	C89.9,1,89.5,1,89.1,0.9s-0.9-0.2-1.3-0.2c-0.2,0-0.4,0-0.7-0.1c-0.8-0.1-1.7-0.1-2.5-0.2c-0.6,0-1.2,0-1.8,0c-1.4-0.1-3.2,0-4.7,0
	s-3.1,0-4.6,0c-2.1,0-4,0-6.1,0c-6.3-0.2-7.7-0.2-14.2-0.1c-8.3,0-16.8,0-25.1,0c-2.3,0-4.8,0-7.1,0s-4.7,0-7.1,0h-1.1
	c-0.6,0-1.1,0-1.7,0l-2.4,0H8.7l0,0H8.6C8,0.4,7.5,0.4,7,0.5S5.9,0.6,5.4,0.7S4.6,0.8,4.2,0.9S3.6,1,3.3,1.1c-0.1,0-0.1,0-0.2,0.1
	L2.5,1.4c-0.3,0.1-0.7,0.2-1,0.4C1.3,1.9,1.1,2.1,1,2.2C0.5,2.6,0.1,3.4,0.4,3.9c0,0,0,0.1,0.1,0.1H0.3l0.1,0.6c0,0,0,0,0,0.1
	s0,0.2,0,0.4s0,0.1,0,0.1s0.1,0.4,0,0.7c0,0.1,0.1,0.1,0,0.2c0,0.1,0,0.1,0,0.2c0,0.1-0.1,0.1,0,0.2l0,0H0.3c0,0.3,0,0.6,0.1,0.9
	v0.2H0.3L0.4,8l0,0c-0.1,0.7-0.1,1.5,0,2.2c0,0.1,0,0.2,0,0.4V11c-0.1,0.1,0,0.3,0,0.5s-0.1,0.2,0,0.3s0,0.1,0,0.1
	c0,0.1,0,0.2,0.1,0.2v0.4c0.1,0.1-0.1,0.2,0,0.3s0,0.4,0.2,0.6C1.1,13.7,1.5,14,2,14.1c0.1,0,0.3,0.1,0.5,0.1
	c0.3,0.1,0.6,0.2,0.9,0.3c0.3,0.1,0.7,0.1,1,0.1s0.7,0.1,1,0.2c0.2,0,0.3,0,0.5,0L7.8,15c0.5,0,1,0,1.5,0c1.5,0,3.1,0,4.5,0
	c4,0,7.9,0,11.8,0c5.8,0,11.4,0.1,17.2,0c7.4-0.1,14.9-0.1,22.5-0.1c4.6,0,9.2,0.1,13.8,0c1.2,0,2.3,0,3.4,0c0.3,0,1.3,0,1.6-0.1
	l1.8,0c0.6,0,1.1,0,1.7-0.1s1.1-0.1,1.6-0.2s0.8-0.2,1.2-0.3s0.6-0.1,0.9-0.1c0.1,0,0.1,0,0.2-0.1l0.6-0.2c0.3-0.1,0.7-0.2,1-0.4
	c0.2-0.1,0.3-0.3,0.5-0.5c0.4-0.4,0.8-1.1,0.5-1.6l0,0h0.1l-0.1-0.6c0,0,0,0,0-0.1c0,0,0,0,0-0.1c0-0.2,0-0.4,0-0.7
	c0.1-0.6,0.1-1.3,0.1-2L94.3,7.8L94.3,7.8z"/>
<path class="st1" d="M22.7,6v0.2v0.3l-0.1,0.7v0.1v0.3v0.6v0.6v0.1v0.3v0.5c0,0.2-0.1,0.4-0.2,0.6c-0.1,0.1-0.2,0.1-0.3,0.2
	c-0.4,0-0.4-0.1-0.4-0.4V9.6l0.1-0.7c0,0,0-0.1,0-0.1s0-0.4-0.1-0.4c-0.1,0-0.2,0-0.2,0.1l-0.6-0.1h-0.5h-0.7c-0.1,0-0.2,0-0.2,0.1
	s0.1,0.3,0.1,0.4c0,0.9-0.3,1.3-0.6,1.3s-0.4-0.3-0.4-0.3V9.7V9.1l0.1-0.3V8.6V8.1V7.2L18.6,7V6l0.2-0.5c0.1,0,0.2-0.1,0.3-0.1
	c0.1,0,0.2,0.1,0.3,0.1v0.2v0.1c0,0,0,0.1,0,0.1c0,0.1-0.1,0.2-0.1,0.3s0,0.3,0,0.3V7v0.1v0.3l0.1,0.1h0.2h0.3h0.2h1h0.4
	c0.1,0,0.1,0,0.1-0.1c0,0,0,0,0,0V7.2l0.1-0.4V5.9c0-0.3,0.2-0.6,0.5-0.6s0.4,0.2,0.4,0.3l0,0L22.7,6z"/>
<path class="st1" d="M28.2,10.6c-0.1,0-0.4-0.2-0.4-0.2l-0.1-0.3V9.8l-0.1-0.2c-0.1-0.2-0.1-0.3-0.2-0.5c-0.1-0.4-0.2-0.7-0.3-0.7
	s-0.7,0.1-1.1,0.1c-0.2,0-0.3,0-0.4,0.1l-0.1,0.2l-0.1,0.2l-0.1,0.2l-0.1,0.2l-0.2,0.3L25,10.2c-0.1,0.2-0.3,0.3-0.4,0.3
	c-0.2,0-0.4-0.2-0.5-0.5c0.1-0.3,0.2-0.5,0.3-0.7c0-0.2,0.1-0.3,0.1-0.5c0.1-0.2,0.3-0.5,0.3-0.5l0.4-0.7l0.2-0.7l0.1-0.2l0.3-0.6
	c0.1-0.3,0.3-0.7,0.7-0.7S27,5.5,27.2,6l0.6,1.3l0.1,0.3l0.4,0.9c0.1,0.1,0.1,0.2,0.1,0.3c0.1,0.2,0.1,0.5,0.2,0.7
	c0.1,0.2,0.2,0.4,0.2,0.6C28.7,10.2,28.5,10.5,28.2,10.6z M26.9,7.2V7.1l-0.2-0.3c0,0,0-0.2-0.1-0.2s-0.4,0.5-0.5,0.8
	c0,0.1,0,0.1,0,0.2v0.1h0.7c0.1,0,0.2,0,0.2-0.1C27.1,7.4,27,7.3,26.9,7.2z"/>
<path class="st1" d="M33.3,7.6l-0.5,0.5l0,0l0.5,1l0.3,0.3c0,0.1,0.1,0.1,0.1,0.2c0,0.3-0.2,0.8-0.4,0.8s-0.3-0.2-0.3-0.3l-0.3-0.4
	l-0.1-0.3l-0.2-0.2L32.2,9l-0.2-0.5V8.5c-0.1,0-0.2,0.1-0.3,0.1h-0.2c-0.1,0-0.2,0.2-0.2,0.4v0l0.1,1.2v0.3c0,0.1-0.3,0.6-0.5,0.6
	s-0.3-0.3-0.3-0.4V9.1l-0.1-0.4V8.4V7.9V7.7l-0.1-0.5l-0.1-0.4V6.6V5.9l0,0c0-0.3,0.2-0.6,0.6-0.7l0.9-0.1h0.5l0.2,0.1l0.5,0.2
	l0.2,0.2C33.5,6,33.7,6.4,33.8,7C33.7,7.2,33.6,7.5,33.3,7.6z M32.7,6.5l-0.3-0.3C32.3,6.1,32.2,6,32.1,6l0,0l-0.3,0.1h-0.4h-0.1
	c-0.2,0-0.3,0-0.3,0.2v0.2l0.1,0.9v0.3c0,0.1,0,0.2,0.1,0.2s0.5-0.3,0.5-0.3h0.2l0.5-0.2c0,0,0.3-0.2,0.3-0.3
	C32.9,6.8,32.8,6.6,32.7,6.5z"/>
<path class="st1" d="M37.2,10l-0.5,0.2c-0.3,0.2-0.7,0.4-1.1,0.5c-0.4,0-0.6-0.3-0.7-0.6c0-0.1,0-0.2,0-0.3c0,0,0-0.1,0-0.1L35.1,9
	l0.1-0.1l0.2-1.1l0.1-0.2V7.1l0-0.1V6.4L35.6,6V5.9V5.6l0.1-0.1l0.1-0.2h0.4h0.1h0.1c0.5,0.1,0.9,0.2,1.3,0.4
	c0.7,0.4,1.2,1.1,1.3,1.9C39,8.6,38.3,9.6,37.2,10z M36.5,6.1c0,0-0.1,0.1-0.1,0.2v0.2L36.2,7v0.3l-0.1,0.4v0.2L36,9
	c0,0.2-0.1,0.4-0.1,0.5s0,0.1,0.1,0.1c0.2-0.1,0.3-0.2,0.5-0.3C36.7,9.3,37,9.1,37.3,9c0.2-0.1,0.4-0.3,0.6-0.4l0.1-0.3l0.1-0.1
	l0.1-0.2c0,0,0.2-0.2,0.2-0.3C38.2,6.7,37.4,6,36.5,6.1C36.5,6.1,36.5,6.1,36.5,6.1L36.5,6.1z"/>
<path class="st1" d="M43.9,6.4c-0.1,0-0.4-0.1-0.5-0.1h-0.6l-0.1-0.1h-0.3h-0.2H42c-0.1,0-0.1,0-0.1,0.1v0.3l-0.1,0.2v0.4
	c0,0.1,0,0.1,0,0.2s0,0.1,0.1,0.1l0.4-0.1h0.2l0.3-0.1h0.4c0.3,0,0.5,0.2,0.5,0.5c0,0.2-0.3,0.4-0.5,0.4l0,0h-0.4h-0.9h-0.1
	l-0.1,0.1l-0.1,0.1l-0.1,1c0,0.1-0.1,0.3-0.1,0.4c0,0.1,0,0.1,0,0.1s0.4,0,0.5,0s0.6,0,0.6,0L43,10h0.2h0.3l0,0
	c0.3,0,0.5,0.2,0.6,0.4c0,0.2-0.4,0.4-0.5,0.4l0,0h-0.1l-0.2,0.1h-1.1c0,0-1,0.2-1.2,0.2c-0.3,0-0.5-0.2-0.5-0.5c0,0,0,0,0,0l0,0
	V9.8l0.1-0.2l0.1-0.7l0.1-0.1V8l0.2-1L41,6c0-0.3,0.2-0.6,0.5-0.6c0,0,0,0,0,0l0,0h0.2h0.2l0.3,0.1h0.2h0.7h0.5h0.4
	c0.1,0,0.3,0.2,0.3,0.4c0,0.1,0,0.1,0,0.2C44.3,6.3,44.1,6.4,43.9,6.4z"/>
<path class="st1" d="M51.7,6.5l-0.2,0.3c0,0-0.5-0.5-0.9-0.5c-0.2,0-0.5,0.1-0.6,0.3v0.2l0.1,0.1l0.5,0.3l0.2,0.2L51,7.6l0.1,0.1
	l0.2,0.2l0.1,0.4l0.1,0.3c0,0.1,0.1,0.2,0.1,0.3c-0.1,0.7-0.7,1.2-1.4,1.2c-0.3,0-0.5,0-0.8-0.1L49.1,10L49,9.8
	c-0.1-0.1-0.4-0.3-0.4-0.5s0.2-0.5,0.4-0.5c0.3,0.3,0.7,0.4,1.2,0.4c0.3,0,0.6-0.2,0.6-0.5c0,0,0,0,0,0c0-0.1,0-0.1,0-0.2l-0.1-0.1
	l-0.2-0.3L50.1,8c-0.6-0.3-1-0.8-1.1-1.4c0-0.3,0.2-0.7,0.4-0.9l0.3-0.2L50,5.4c0.1,0,0.3,0,0.4,0c0.9,0,1.5,0.4,1.5,0.8
	C51.9,6.3,51.8,6.4,51.7,6.5z"/>
<path class="st1" d="M56.7,6.3c0,0-0.1,0-0.2,0c-0.2-0.1-0.2-0.2-0.5-0.2c-0.3,0-0.6,0.1-0.9,0.3l-0.1,0.1l-0.4,0.4
	c-0.1,0.2-0.3,0.3-0.4,0.5c-0.2,0.3-0.3,0.6-0.3,1c0,0.1,0,0.2,0.1,0.4L54.4,9l0.1,0.1l0.1,0.1c0.3,0.1,0.5,0.2,0.8,0.2
	c0.1,0,0.1,0,0.2,0l0.3-0.1H56L56.2,9l0.3,0.1v0.1l0.2,0.1c0,0-0.2,0.6-0.4,0.6h-0.1l-0.3,0.1c-0.2,0.1-0.4,0.1-0.6,0.1
	c-0.3,0-0.6-0.1-0.9-0.1h-0.3l-0.4-0.3c-0.4-0.4-0.6-0.8-0.6-1.3c0.1-0.6,0.3-1.1,0.6-1.7l0.4-0.6l0.2-0.1l0.3-0.3
	c0.4-0.3,0.9-0.5,1.5-0.5c0.4,0,0.8,0.1,1,0.5c0,0.1,0.1,0.1,0.1,0.2c0,0,0,0.1,0,0.1C57,6.3,56.9,6.3,56.7,6.3z"/>
<path class="st1" d="M62.6,6v0.2v0.3l-0.1,0.7v0.1v0.3v0.6v0.6v0.1v0.3v0.5c0,0.2-0.1,0.4-0.2,0.6c-0.1,0.1-0.2,0.1-0.3,0.2
	c-0.4,0-0.4-0.1-0.4-0.4V9.6l0.1-0.7c0,0,0-0.1,0-0.1s0-0.4-0.1-0.4c-0.1,0-0.2,0-0.2,0.1l-0.6-0.1h-0.5h-0.7c-0.1,0-0.2,0-0.2,0.1
	s0.1,0.3,0.1,0.4c0,0.9-0.3,1.3-0.6,1.3s-0.4-0.3-0.4-0.3V9.7V9.1l0.1-0.3V8.6V8.1V7.2L58.6,7V6l0.2-0.5c0.1,0,0.2-0.1,0.3-0.1
	c0.1,0,0.2,0.1,0.3,0.1v0.2v0.1c0,0,0,0.1,0,0.1c0,0.1-0.1,0.2-0.1,0.3s0,0.3,0,0.3V7v0.1v0.3l0.1,0.1h0.2h0.3h0.2h1h0.4
	c0.1,0,0.1,0,0.1-0.1c0,0,0,0,0,0V7.2l0.1-0.4V5.9c0-0.3,0.2-0.6,0.5-0.6s0.4,0.2,0.4,0.3l0,0L62.6,6z"/>
<path class="st1" d="M65.9,6.7v0.7l-0.1,0.2v0.5v0.3c0,0-0.2,1-0.2,1.2c0,0.2,0,0.4-0.1,0.6c0,0.1-0.1,0.2-0.1,0.2v0.2
	c0,0.2-0.6,0.3-0.6,0.3l-0.1-0.3l-0.1-0.1v-0.6l0.1-0.6V9.1l0-0.1l0.1-0.5V8.3L65,7.7V6.7c0-0.2,0-0.3,0.1-0.4
	c0.1-0.2,0.2-0.5,0.5-0.5C65.8,5.8,66,6,66,6.2c0,0,0,0,0,0C66,6.4,66,6.6,65.9,6.7z"/>
<path class="st1" d="M71.4,7c0,0.2,0,0.4-0.1,0.6v0.2l-0.1,0.3c0,0-0.1,0.6-0.2,0.8c-0.1,0.3-0.4,0.6-0.6,0.9L70.3,10
	c-0.2,0.1-0.3,0.1-0.5,0.1c-0.2,0-0.3,0.1-0.5,0.1c-1.1,0-1.7-0.5-1.7-1.3c0-0.3,0.1-0.4,0.3-0.4s0.4,0.2,0.6,0.5
	c0.1,0.1,0.1,0.1,0.2,0.1l0.2,0.1L69,9.3h0.2c0.5,0,0.8-0.1,0.9-0.4l0.2-0.4l0.1-0.2c0.1-0.1,0.1-0.2,0.1-0.3c0-0.1,0-0.1,0-0.1
	L70.6,7l0.1-0.2v-1c0-0.3,0.2-0.6,0.5-0.7c0,0,0,0,0,0c0.2,0,0.3,0.3,0.3,0.5C71.6,6,71.4,6.5,71.4,7z"/>
<path class="st1" d="M76.3,6.1c-0.1,0-0.3-0.1-0.5-0.1h-0.2h-0.2l-0.3,0h-0.3c-0.2,0-0.4,0.1-0.5,0.2v0.8l-0.1,0.2v0.2l-0.1,0.2l0,0
	c0,0,0,0,0.1,0h0.1h0.3H75h0.2h0.4C75.8,7.6,76,8,76,8.1c-0.1,0.3-0.4,0.6-0.7,0.6h-0.1h-0.2h-0.2h-0.4c-0.1,0-0.2,0-0.2,0.1
	c-0.1,0-0.1,0-0.1,0.1C74,8.9,74,9,74,9s0,0.4,0,0.7c0,0.1,0,0.3-0.1,0.4l-0.1,0.3h-0.4c-0.3,0-0.5-0.3-0.5-0.6
	c0-0.1,0.1-0.6,0.1-0.7V8.9l0.1-0.7V7.8l0.1-0.2V7.5c0.1-0.5,0.2-1.1,0.3-1.4c0.1-0.6,0.2-0.9,0.7-0.9c0.2,0,0.3,0,0.5,0
	c0.1,0,0.2,0.1,0.4,0.1c0.5,0,1-0.1,1.2-0.1c0.2,0,0.4,0.2,0.4,0.4c0,0,0,0,0,0C76.7,5.9,76.6,6.1,76.3,6.1z"/>
</svg>
