<svg id="toetsenbord" xmlns="http://www.w3.org/2000/svg" viewBox="0 0 500.28 691.54"><defs><style>.cls-1{fill:#312783;}.cls-2{fill:#fff;}.cls-3{fill:#007bc4;}.cls-4{fill:#e6007e;}.cls-5{fill:#951b81;}.cls-6{fill:#e84e0f;}</style></defs><title>laptop-out</title><path class="cls-1" d="M720.84,385.75c-23.3,3.25-71.89,0-90,1.1s-88.23.14-132.37-.32c-57.95-.61-115.63-.42-173.49-.52-13.83,0-27.72,1-41.53,1.22-13,.22-45.58,1.77-57.62.76-1.51-17.56-.84-23.62-.91-39.29-.1-21.31-.53-42.62-.27-63.93.38-30.9,1.59-61.75,1.9-92.66.33-32.26-4.49-70.68,7.72-101.32C256.12,36,316.83,43.6,365.39,43.65c46.19.05,92.39.85,138.55.49,34.81-.28,68.54.26,103.4,0,42.24-.3,91.8-2.62,107.61,46.78,17.28,54,4,120.82,4.62,177Z" transform="translate(-223.6 -43.27)"/><path class="cls-1" d="M721.36,633.65c-.83-81.37,1.57-162.75-.27-244.09-15.22,1.1-40.24.81-56.88.93-35.47.24-71,.69-106.44.51-37.33-.19-74.71-1.61-112-1.16-73.51.87-147.16,1.21-220.72,2.37,0,71.61-1.3,143.25-1.14,214.84.08,33.58-4.14,72.83,17.85,100.54C273,747,351.09,731.92,397.85,732.25c66.34.46,133.95,1.18,200.67.24,25.7-.36,60.14,5.3,84.47-2.63,42.6-13.88,38.86-60.65,38.37-96.2" transform="translate(-223.6 -43.27)"/><path class="cls-2" d="M701.37,217.48c-.71-36.39,10.6-95.22-10.91-126.85C663.32,50.71,592.3,65.13,550.37,63.58c-67.11-2.48-134.57.15-201.73-1.08-38.85-.71-83.94-5.18-96.52,40.21-7.46,26.93-2.6,58.66-2.66,86.69-.07,33.22-.32,68.29-.24,102.46.11,46.78,8.9,73.47,59.61,72.49,73.08-1.41,146.23-.88,219.33-1.7,38.34-.43,78.69,4.77,116.75,1,20.37-2,38.55-8.65,48.73-27.17C710.88,305.15,700,251.73,701.37,217.48Z" transform="translate(-223.6 -43.27)"/><path class="cls-3" d="M391.05,610.13c-.58,10-3.25,67-2.55,75.59,15.83,1.46,38.49.23,54,.3,23.58.09,47.17.25,70.76.33,9.6,0,45.11,0,45.11,0a125.55,125.55,0,0,0,3-22.16c.24-10.87.38-54.73.38-54.73s-41.36-.16-51.29-.15c-39.07,0-80.16-1.25-119.33.84" transform="translate(-223.6 -43.27)"/><path class="cls-2" d="M699.29,397.85a14.55,14.55,0,0,1,4,.69,6.1,6.1,0,0,1,2.12,1,15.23,15.23,0,0,1,4.42,5.62c.77,1.72.5,3.8.2,5.63a15.79,15.79,0,0,1-1,4.05A10.92,10.92,0,0,1,706.6,418a8.68,8.68,0,0,1-3.13,2.25,20.43,20.43,0,0,1-4.12,1.1c-1.09.1-2.19,0-3.27.1-1.34.07-2.58-.82-3.72-1.43a11.23,11.23,0,0,1-3-2.23,8.38,8.38,0,0,1-1.67-3.76,16.24,16.24,0,0,1-.73-6.71,11.61,11.61,0,0,1,1.7-4.45,6.63,6.63,0,0,1,1.62-2.14,14.16,14.16,0,0,1,4.31-2,19.92,19.92,0,0,1,2.51-.67c.42-.08.86-.16,1.29-.2.28,0,.7.06.94-.07" transform="translate(-223.6 -43.27)"/><path class="cls-3" d="M700,402.22c.1,1.49.05,3,.11,4.49a35.68,35.68,0,0,1,.1,3.65c0,.52.07.47-.54.47-.31,0-1.39.11-1.54,0s0-.65,0-.77c0-.56,0-1.12-.06-1.68,0-1.25-.09-2.49-.12-3.74,0-.29,0-.57,0-.86a3.58,3.58,0,0,1,0-1.12c.12-.31.2-.23.6-.26Z" transform="translate(-223.6 -43.27)"/><path class="cls-3" d="M702.06,415.69a7.49,7.49,0,0,0,2-.64,5.15,5.15,0,0,0,1.84-2.95c.21-1.54,1.05-4-2.6-5.73l-.54,1.67a2.35,2.35,0,0,1,1.1,1.33,2.91,2.91,0,0,1,0,1.91,3.49,3.49,0,0,1-2.94,2.69,6.61,6.61,0,0,1-3.8,0,3.49,3.49,0,0,1-2.94-2.69,2.91,2.91,0,0,1,0-1.91,2.35,2.35,0,0,1,1.1-1.33l-.54-1.67c-3.65,1.76-2.81,4.18-2.6,5.73A5.15,5.15,0,0,0,694,415a7.49,7.49,0,0,0,2,.64A10.2,10.2,0,0,0,702.06,415.69Z" transform="translate(-223.6 -43.27)"/><path class="cls-4" d="M264.83,436.93c4.4-1.62,10.77-.65,15.37-.4,7.43.42,5.46-1.38,7.07,4.86,1.39,5.37,1.25,17.44-2.32,19.33-.86.45-19.17,1.12-20.27.11-1.81-1.67-.6-21.38.16-23.91" transform="translate(-223.6 -43.27)"/><path class="cls-4" d="M581.8,436.42c4-1.3,21.63-1.93,23.54.59,1.1,1.45.8,16.65,0,18.26-2.41,5,2,3.49-7.55,3.51-1.76,0-14.67,1.34-16.19.05s-.83-19.4.17-22.41" transform="translate(-223.6 -43.27)"/><path class="cls-4" d="M611.47,436.42c3.95-1.3,21.63-1.92,23.54.59,1.1,1.45.8,16.65,0,18.25-2.41,5,2,3.49-7.55,3.51-1.76,0-14.67,1.35-16.19.05s-.82-19.39.16-22.41" transform="translate(-223.6 -43.27)"/><path class="cls-4" d="M594.33,467.46c4-1.3,21.63-1.93,23.54.59,1.1,1.45.8,16.65,0,18.25-2.41,5,2,3.48-7.55,3.51-1.76,0-14.67,1.35-16.19.06s-.82-19.39.16-22.41" transform="translate(-223.6 -43.27)"/><path class="cls-4" d="M623.75,467.23c3.95-1.3,21.63-1.93,23.54.59,1.1,1.45.8,16.65,0,18.26-2.41,5,2,3.48-7.55,3.51-1.76,0-14.67,1.35-16.19.05s-.83-19.41.17-22.41" transform="translate(-223.6 -43.27)"/><path class="cls-4" d="M571.42,495.36c4-1.29,21.63-1.93,23.55.59,1.1,1.45.8,16.65,0,18.25-2.41,5,2,3.48-7.55,3.51-1.76,0-14.67,1.35-16.19.05s-.82-19.39.16-22.41" transform="translate(-223.6 -43.27)"/><path class="cls-4" d="M600.43,495.36c4-1.29,21.63-1.92,23.54.59,1.1,1.45.8,16.65,0,18.25-2.41,5,2,3.48-7.55,3.51-1.76,0-14.67,1.35-16.19.05s-.81-19.39.17-22.41" transform="translate(-223.6 -43.27)"/><path class="cls-4" d="M546.54,525c1.09,4,1.22,22.41-1.41,24.2-1.5,1-16.14.2-17.72-.62-4.87-2.53-3.45,1.58-3.14-7.89.06-1.81-.87-15.15.52-16.66s18.91-.13,21.75,1" transform="translate(-223.6 -43.27)"/><path class="cls-4" d="M552.48,525.07c3.95-1.3,21.63-1.93,23.54.59,1.1,1.45.8,16.65,0,18.26-2.41,5,2,3.48-7.55,3.51-1.76,0-14.67,1.35-16.19.06s-.83-19.4.16-22.41" transform="translate(-223.6 -43.27)"/><path class="cls-4" d="M583.3,525.07c3.95-1.3,21.63-1.92,23.54.59,1.1,1.45.8,16.65,0,18.26-2.41,5,2,3.48-7.55,3.51-1.76,0-14.67,1.35-16.19.05s-.83-19.41.17-22.41" transform="translate(-223.6 -43.27)"/><path class="cls-4" d="M652.18,466.49c4-1.3,21.67-1.93,23.59.59,1.1,1.45.8,16.65,0,18.26-2.41,5,2,3.48-7.56,3.51-1.76,0-14.7,1.35-16.22.05s-.83-19.41.17-22.41" transform="translate(-223.6 -43.27)"/><path class="cls-5" d="M346.51,438.16c1.62,4.84,1,20.47-2.18,22.41-1.92,1.16-19.91.66-21.59-.6-3-2.23-1.74-4.06-1.47-10,.1-2.24-.85-11.23.47-12.75,1.63-1.88,21.2-.22,24.77.91" transform="translate(-223.6 -43.27)"/><path class="cls-5" d="M352.69,436.42c4-1.3,21.63-1.93,23.54.59,1.1,1.45.8,16.65,0,18.26-2.41,5,2,3.48-7.55,3.51-1.76,0-14.67,1.35-16.19.06s-.82-19.39.16-22.41" transform="translate(-223.6 -43.27)"/><path class="cls-5" d="M462,436.39c1.09,4,1.22,22.41-1.41,24.21-1.5,1-16.14.2-17.72-.62-4.87-2.53-3.45,1.59-3.14-7.89.06-1.81-.87-15.15.52-16.66s18.9-.13,21.75,1" transform="translate(-223.6 -43.27)"/><path class="cls-5" d="M468.14,436.42c4-1.3,21.63-1.93,23.55.59,1.1,1.45.8,16.65,0,18.26-2.41,5,2,3.49-7.55,3.51-1.76,0-14.67,1.34-16.19.05s-.82-19.39.16-22.41" transform="translate(-223.6 -43.27)"/><path class="cls-5" d="M383,436.42c3.95-1.3,21.63-1.93,23.54.59,1.1,1.45.8,16.65,0,18.26-2.41,5,2,3.49-7.55,3.51-1.76,0-14.67,1.35-16.19.05s-.83-19.4.16-22.41" transform="translate(-223.6 -43.27)"/><path class="cls-5" d="M409.72,436.86c4-1.26,21.64-1.76,23.54.77,1.09,1.46.68,16.65-.11,18.25-2.45,5,2,3.5-7.57,3.45-1.76,0-14.68,1.24-16.19-.07s-.68-19.41.33-22.41" transform="translate(-223.6 -43.27)"/><path class="cls-5" d="M575.66,436.39c1.09,4,1.23,22.41-1.41,24.21-1.5,1-16.14.2-17.72-.62-4.87-2.53-3.45,1.58-3.14-7.89.06-1.81-.87-15.15.52-16.66s18.91-.14,21.75,1" transform="translate(-223.6 -43.27)"/><path class="cls-5" d="M496.62,436.42c3.95-1.3,21.63-1.92,23.54.59,1.1,1.45.8,16.65,0,18.26-2.41,5,2,3.49-7.55,3.51-1.76,0-14.68,1.35-16.19.05s-.83-19.41.17-22.41" transform="translate(-223.6 -43.27)"/><path class="cls-5" d="M523.38,436.86c4-1.26,21.64-1.76,23.54.77,1.09,1.45.68,16.65-.11,18.25-2.45,5,2,3.5-7.57,3.45-1.76,0-14.68,1.24-16.19-.07s-.69-19.41.33-22.41" transform="translate(-223.6 -43.27)"/><path class="cls-6" d="M351.1,466.77c.88,2.54,1.57,19-.58,21.21-1.75,1.82-22-.13-24.58-.7,0-2.07-1.34-16.19.77-19,2.75-3.65,17.82-3.51,24.39-1.51" transform="translate(-223.6 -43.27)"/><path class="cls-6" d="M356,466.71c3.54-1,24.38-2.62,26.65.08,1.15,1.36.53,17.39,0,18.77-2,5.34.79,3.49-8.54,3.51-2,0-16.92,1.48-18.32.05-1.82-1.85-1-19.29.19-22.41" transform="translate(-223.6 -43.27)"/><path class="cls-6" d="M295.13,466.49c4-1.26,21.64-1.76,23.54.78,1.09,1.46.68,16.65-.11,18.25-2.45,5,2,3.5-7.57,3.45-1.76,0-14.68,1.23-16.19-.07s-.68-19.39.33-22.41" transform="translate(-223.6 -43.27)"/><path class="cls-6" d="M470.07,466.68c1.33,4.26,1.07,22.21-1.62,24.2-1.9,1.4-18.06.15-20.34-.62-5.56-1.89-3.94,1-3.6-7.89.08-2-.84-15,.6-16.66s21.64-.15,25,1" transform="translate(-223.6 -43.27)"/><path class="cls-6" d="M475,467.84c4-1.3,21.63-1.93,23.54.59,1.1,1.45.8,16.65,0,18.25-2.41,5,2,3.48-7.55,3.51-1.76,0-14.67,1.35-16.19.06s-.84-19.42.16-22.41" transform="translate(-223.6 -43.27)"/><path class="cls-6" d="M388.16,466.72c4-1.29,21.9-2,23.82.59,1.1,1.46.8,16.64,0,18.26-2.41,5,1.94,3.48-7.64,3.5-1.84,0-14.79,1.39-16.38.06s-.83-19.44.17-22.41" transform="translate(-223.6 -43.27)"/><path class="cls-6" d="M417.35,466.79c4-1.26,21.55-1.75,23.45.77,1.09,1.45.68,16.66-.1,18.25-2.45,5,2,3.5-7.55,3.45-1.76,0-14.62,1.23-16.13-.07s-.69-19.42.33-22.41" transform="translate(-223.6 -43.27)"/><path class="cls-6" d="M589.62,467.06c1.4,4.31,1,22.16-1.69,24.2-1.92,1.45-18.8.17-21.13-.62-5.7-1.95-4.1,1.16-3.74-7.89.08-2-.83-14.92.62-16.66s22.47-.16,25.93,1" transform="translate(-223.6 -43.27)"/><path class="cls-6" d="M504.08,467.09c4-1.3,21.63-1.93,23.54.59,1.1,1.45.8,16.65,0,18.26-2.41,5,2,3.48-7.55,3.5-1.76,0-14.67,1.36-16.19.06s-.82-19.39.16-22.41" transform="translate(-223.6 -43.27)"/><path class="cls-6" d="M533.28,467.16c4-1.26,21.64-1.77,23.54.77,1.09,1.45.68,16.66-.11,18.25-2.45,5,2,3.5-7.57,3.45-1.76,0-14.68,1.24-16.19-.07s-.67-19.39.33-22.41" transform="translate(-223.6 -43.27)"/><path class="cls-6" d="M361,495.33c1.09,4,1.22,22.41-1.41,24.21-1.5,1-16.14.2-17.72-.63-4.87-2.53-3.45,1.59-3.13-7.89.06-1.81-.87-15.15.52-16.66s18.91-.14,21.75,1" transform="translate(-223.6 -43.27)"/><path class="cls-6" d="M366.62,495.36c4-1.29,21.63-1.93,23.55.59,1.1,1.44.8,16.65,0,18.25-2.41,5,2,3.49-7.55,3.51-1.76,0-14.67,1.35-16.19.05s-.82-19.39.16-22.41" transform="translate(-223.6 -43.27)"/><path class="cls-6" d="M309.78,495.8c4-1.26,21.64-1.76,23.54.77,1.09,1.45.68,16.66-.11,18.26-2.45,5,2,3.5-7.57,3.45-1.76,0-14.68,1.24-16.19-.07s-.67-19.39.33-22.41" transform="translate(-223.6 -43.27)"/><path class="cls-6" d="M476,495.33c1.09,4,1.22,22.4-1.41,24.2-1.5,1-16.14.2-17.72-.62-4.87-2.53-3.45,1.59-3.13-7.89.06-1.81-.87-15.14.52-16.66s18.93-.15,21.75,1" transform="translate(-223.6 -43.27)"/><path class="cls-6" d="M481.63,495.36c4-1.3,21.63-1.92,23.54.59,1.1,1.45.8,16.65,0,18.25-2.41,5,2,3.48-7.55,3.51-1.76,0-14.67,1.35-16.19.05s-.82-19.39.16-22.41" transform="translate(-223.6 -43.27)"/><path class="cls-6" d="M395.63,495.36c4-1.29,21.63-1.92,23.54.59,1.1,1.45.8,16.65,0,18.25-2.41,5,2,3.48-7.55,3.51-1.76,0-14.67,1.35-16.19.05s-.81-19.39.17-22.41" transform="translate(-223.6 -43.27)"/><path class="cls-6" d="M424.79,495.8c4-1.26,21.64-1.76,23.54.78,1.09,1.46.68,16.65-.11,18.25-2.45,5,1.95,3.5-7.57,3.45-1.76,0-14.68,1.23-16.19-.07s-.68-19.39.33-22.41" transform="translate(-223.6 -43.27)"/><path class="cls-6" d="M510.64,495.36c4-1.3,21.63-1.92,23.54.59,1.1,1.45.8,16.65,0,18.25-2.41,5,2,3.48-7.55,3.51-1.76,0-14.67,1.35-16.19.05s-.82-19.39.16-22.41" transform="translate(-223.6 -43.27)"/><path class="cls-6" d="M539.8,495.8c4-1.26,21.64-1.76,23.54.78,1.09,1.46.68,16.65-.1,18.25-2.45,5,1.95,3.5-7.57,3.45-1.76,0-14.68,1.23-16.19-.07s-.67-19.38.33-22.41" transform="translate(-223.6 -43.27)"/><path class="cls-6" d="M319,525.06c3.95-1.3,21.63-1.92,23.54.59,1.1,1.45.8,16.65,0,18.25-2.41,5,2,3.48-7.55,3.51-1.76,0-14.67,1.35-16.19.05s-.83-19.4.16-22.41" transform="translate(-223.6 -43.27)"/><path class="cls-6" d="M429.29,525c1.09,4,1.22,22.41-1.41,24.2-1.5,1-16.14.2-17.72-.62-4.87-2.53-3.45,1.58-3.14-7.89.06-1.81-.86-15.15.52-16.66s18.91-.13,21.75,1" transform="translate(-223.6 -43.27)"/><path class="cls-6" d="M435.24,525.07c3.95-1.3,21.63-1.92,23.54.59,1.1,1.44.8,16.65,0,18.26-2.41,5,2,3.48-7.55,3.51-1.76,0-14.67,1.35-16.19.06s-.83-19.41.16-22.41" transform="translate(-223.6 -43.27)"/><path class="cls-6" d="M348.28,525.07c4-1.3,21.63-1.93,23.54.59,1.1,1.45.8,16.65,0,18.26-2.41,5,2,3.48-7.55,3.5-1.76,0-14.67,1.36-16.19.06s-.84-19.42.17-22.41" transform="translate(-223.6 -43.27)"/><path class="cls-6" d="M377.76,525.51c4-1.27,21.64-1.76,23.54.77,1.09,1.46.68,16.65-.11,18.26-2.45,5,2,3.5-7.57,3.45-1.76,0-14.68,1.23-16.19-.07s-.69-19.4.32-22.41" transform="translate(-223.6 -43.27)"/><path class="cls-6" d="M464.57,525.07c3.95-1.3,21.63-1.93,23.54.59,1.1,1.45.8,16.65,0,18.26-2.41,5,2,3.48-7.55,3.5-1.76,0-14.67,1.36-16.19.06s-.83-19.41.16-22.41" transform="translate(-223.6 -43.27)"/><path class="cls-6" d="M494.33,525.34c3.95-1.3,21.63-1.93,23.54.59,1.1,1.45.8,16.65,0,18.26-2.41,5,2,3.48-7.55,3.5-1.76,0-14.67,1.36-16.19.06s-.83-19.41.16-22.41" transform="translate(-223.6 -43.27)"/><path class="cls-3" d="M309.4,553.65c3.61-1,26.76-2.81,29.05-.13,1.14,1.33.43,15.34,0,17.21-1.66,7.19,1.61,4.08-6.18,5.26-3.18.48-16.35,1.5-20,0-4.69-1.92-3.1-3.3-3-9.72,0-3.42-1.1-9.34.21-12.61" transform="translate(-223.6 -43.27)"/><path class="cls-3" d="M383.42,554.47c28.38-1.59,57.1-.45,85.5-.39,19.24,0,39.07-1.66,58.23,0-.48-.11.48,15.73,0,18.13-1.61,7.6-.71,5.44-10.68,5.47-24.23.06-48.46-.05-72.7-.05-17.11,0-34.22,0-51.32.07-11,.05-10.53.71-10.06-10.15.09-2.08-.89-12.12,1.05-13.13" transform="translate(-223.6 -43.27)"/><path class="cls-3" d="M677.91,553c1.16,2.77,1.22,19.5-1,21.62s-25.77,0-29.81-.71c0-2.38-1.24-16.31.94-19.37,3.07-4.32,22.43-3.45,29.86-1.54" transform="translate(-223.6 -43.27)"/><path class="cls-3" d="M587.65,552.95c4.09-1.35,22.19-2,24.17.62,1.14,1.49.83,17.37,0,19-2.51,5.19,2.11,3.64-7.75,3.66-1.89,0-15,1.41-16.62.06s-.83-20.25.17-23.37" transform="translate(-223.6 -43.27)"/><path class="cls-3" d="M641.63,436.86c5-1,33.35-3,35.51,0,3,4.21.55,20.93-2.68,22.51-3,1.48-30.36,1.88-32.58-.11-1.88-1.68-2-19-.25-22.4" transform="translate(-223.6 -43.27)"/><path class="cls-3" d="M241,437.92c2.27-.91,17.44-2,19.34-.36,3,2.6,1.09,22-1.5,23.52s-16.71.58-18.1-1.36-.7-18.26.26-21.8" transform="translate(-223.6 -43.27)"/><path class="cls-3" d="M242.94,466c8.05-1.39,16.79-.42,24.93-.41,3.21,0,17.09-2.16,19.4.08,1.45,1.4.4,13.29.1,15.64-1.06,8.43,1.54,5.34-6.74,7-8.67,1.76-23.76,1.61-32.5,0-5.7-1.06-3.74,1.62-5.64-3.49-.72-1.93-1.08-16.36.44-18.83" transform="translate(-223.6 -43.27)"/><path class="cls-3" d="M249.41,495.36c14.31-2,29.77-.41,44.21-.43,3.51,0,8.84-1.05,10.42,1.19.68,1,1.36,19.79.14,21.35-3.29,4.18-36,.12-42.17.12-7.36,0-11,2.54-13.13-2.88-1.07-2.68-1.21-17.1.53-19.35" transform="translate(-223.6 -43.27)"/><path class="cls-3" d="M631.39,495.1c11.35-1.89,28.5-2.24,39.85-.29,8.51,1.46,6.37,1.31,6.31,10.65,0,4,1.32,10.86-1.6,12.82-3.1,2.08-14.47-.05-18.26-.08-6.71-.05-14.76,1.33-21.31,0-3.74-.78-4.06,1-5.72-1.38-1.07-1.55-.79-19.26.75-21.68" transform="translate(-223.6 -43.27)"/><path class="cls-3" d="M249.18,525.06c10.16-1.18,20.69-.45,30.91-.43,8.74,0,20.7-2.14,29.13,0s6.12-.1,6.18,9.54c0,2.63,1.48,11.63-.39,13.17-2.94,2.43-19.37.11-23.22.09-10.31,0-20.62,0-30.94,0s-10.88,2.93-12.16-5.8c-.46-3.13-1.62-14.29.49-16.54" transform="translate(-223.6 -43.27)"/><path class="cls-3" d="M643.89,525.51c4.15-.93,30.71-3.32,33.75-.15,1.23,1.28-.17,12.78-.16,14.41,0,5.6,1.14,6.37-2.79,8.24-3.67,1.75-26.81,1.93-29.83-.09-2.72-1.82-3-18.18-1-22.41" transform="translate(-223.6 -43.27)"/><path class="cls-3" d="M345.6,554.77c3.41-.87,27.41-3.05,30.22-.06,1.52,1.62.54,21.34-.53,22.35-1.49,1.42-28.07,1.38-29.37.13-1.89-1.83-1.71-19.09-.31-22.43" transform="translate(-223.6 -43.27)"/><path class="cls-3" d="M276.63,554.21c4.43-1.46,21.38-2.29,23.53.93,1.15,1.73,1.08,19.65.06,20.76-.53.58-22,2.29-23.77.7-2.09-1.88-.51-20.34.18-22.39" transform="translate(-223.6 -43.27)"/><path class="cls-3" d="M553.91,554.45c1,3.76,1.62,22.22-1.24,24.22-2.09,1.46-20,.18-21.3-1.67-1-1.37.44-23.23.8-23.52,2.31-1.88,19-.09,21.74,1" transform="translate(-223.6 -43.27)"/><path class="cls-3" d="M557.36,554.39c4.25-1.54,22.35-2.91,24.48,0,1.22,1.67,2.07,20.32.51,22.26-1.24,1.54-23.65,1.55-24.46.6-2.2-2.55-1.52-19.43-.52-22.87" transform="translate(-223.6 -43.27)"/><path class="cls-3" d="M612.31,525.06c3.62-1,25.19-2.53,27.46.26,1.15,1.41.39,17.36-.14,18.77-2,5.38.6,3.5-8.83,3.45-2,0-17.49,1.39-18.88-.07-1.82-1.92-.82-19.27.38-22.41" transform="translate(-223.6 -43.27)"/><path class="cls-3" d="M616,552.62c3.62-1,25.19-2.53,27.46.26,1.15,1.41.39,17.36-.14,18.77-2,5.38.6,3.5-8.83,3.45-2,0-17.49,1.39-18.88-.07-1.82-1.92-.82-19.27.38-22.41" transform="translate(-223.6 -43.27)"/><path class="cls-5" d="M292.31,436.39c-.09,3.37-2.71,21.83-.64,23.83,1.35,1.31,22.72,1.86,24,.76,1.51-1.32,2.23-21.31.58-23C313.16,434.77,297.56,436.57,292.31,436.39Z" transform="translate(-223.6 -43.27)"/><path class="cls-2" d="M246.59,449.66c-.55,0-1.22-.19-1.64-.19-.26,0-.41.08-.41.19a.22.22,0,0,0,0,.1,3.33,3.33,0,0,0,1,.73l.27.07.33,0,.17.16.25.16,0,.52-.16.15-.11.16a1.61,1.61,0,0,1-.34.1,3.08,3.08,0,0,1-1.21-.42l-.4-.24-.11-.19-.56-.64a1.68,1.68,0,0,1-.16-.53,2,2,0,0,1,.08-.46l0-.55a6,6,0,0,1,.14-.68,5.82,5.82,0,0,1,.85-.79,2.19,2.19,0,0,1,.54-.23l.24-.1.55-.05c.89,0,1.46.68,1.46,1.85A.87.87,0,0,1,246.59,449.66Zm-.55-1.82a1,1,0,0,0-.28.07l-.24.06h-.4c-.18,0-.28.22-.28.38a.25.25,0,0,0,.08.21.48.48,0,0,0,.25,0h.31l.32,0h.35c.35,0,.37-.11.37-.29A.58.58,0,0,0,246,447.84Z" transform="translate(-223.6 -43.27)"/><path class="cls-2" d="M251.86,448.51h0l-.42-.46-.14-.07a.44.44,0,0,0-.15,0,.36.36,0,0,0-.36.35c0,.07.09.15.16.18l.54.25.17.17.25.11a3.94,3.94,0,0,1,.33,1.12,1.49,1.49,0,0,1-.22.83l-.1.28-.62.31a1.45,1.45,0,0,1-.89.27,4.14,4.14,0,0,1-1.65-.43.78.78,0,0,1-.48-.69c0-.16.42-.43.42-.43l.27.06h.25l.45.22h.23a2.68,2.68,0,0,0,.56.16c.26,0,.79-.29.79-.61,0-.13-.16-.27-.38-.44-.77-.62-1.13-.64-1.13-1.17a2,2,0,0,1,.24-1l.4-.35.3,0a5.4,5.4,0,0,1,.71-.1c.54,0,1.18.56,1.18.85A.64.64,0,0,1,251.86,448.51Z" transform="translate(-223.6 -43.27)"/><path class="cls-2" d="M257.14,448.67l-.35-.37-.3-.16-.19,0h-.16l-.17.08-.22.09a2.09,2.09,0,0,0-.52,1.24.68.68,0,0,0,.43.59l1.37-.07h0a.67.67,0,0,1,.58.53c0,.18-.23.35-.62.51a1.66,1.66,0,0,1-.54.15,5.55,5.55,0,0,1-.56-.1h-.34c-.39,0-.52-.18-.87-.43l-.4-.35,0-.29-.11-.44,0-.26v-.24l.31-.95c.06-.23.78-.76.78-.76l.33-.22h.21a2.82,2.82,0,0,1,.37,0c.77,0,1.54.48,1.54.81v.47Z" transform="translate(-223.6 -43.27)"/><path class="cls-2" d="M257.2,477.32c-.1.11-.2.25-.35.25h0l-.17,0-.27,0h-.19v.83l-.12.5,0,.64,0,.47.06.64-.06.29,0,.19-.14.25-.23.32-.15,0h-.3a2.06,2.06,0,0,1-.21-.61,1.79,1.79,0,0,1,.09-.47l-.05-.92.11-.33v-.22l0-.47v-.61l.06-.36-.06-.11-.75-.07a.36.36,0,0,1-.34-.4,4.07,4.07,0,0,1,.22-.69,3.48,3.48,0,0,0,.55.11c.16,0,.41,0,.41-.17h0l0-.48.06-.26,0-.18.07-.2s0-.05,0-.09a.59.59,0,0,1,.62-.64.41.41,0,0,1,.44.45s-.1.43-.11.49l0,.41,0,.33c0,.08,0,.16.12.16l.42,0a.74.74,0,0,1,.58.6C257.44,477.12,257.29,477.23,257.2,477.32Z" transform="translate(-223.6 -43.27)"/><path class="cls-2" d="M262.05,481.19a.44.44,0,0,1-.16,0,1,1,0,0,1-.31-.06l-.34-.23-.72.15a6,6,0,0,1-.89.08c-.44,0-.68-.32-.95-.66a1.66,1.66,0,0,1-.4-.81A3,3,0,0,1,259,478l.29-.38.19-.09a1.4,1.4,0,0,1,.63-.19c.16,0,.38.19.51.19a.07.07,0,0,0,.06,0l.22-.21a1,1,0,0,1,.3-.08c.23,0,.64.58.7,1.09l.05.38.21.9v.39l.13.34S262.21,481.13,262.05,481.19Zm-1.13-2-.2-.31-.1-.25c-.05-.12-.16-.15-.3-.15h-.26a1,1,0,0,0-.86.91,1.9,1.9,0,0,0,.15.4l.22.16.1.16c.06.09.28.1.34.1.58,0,1-.32,1-.8A.69.69,0,0,0,260.92,479.14Z" transform="translate(-223.6 -43.27)"/><path class="cls-2" d="M267.33,481.49l-.22.11-.52,0a2.77,2.77,0,0,1-.31,0,1.12,1.12,0,0,1-.33,0l-.34-.11c-.06,0-.14-.12-.24-.12h0c-.08,0-.09.07-.09.15v.12a.26.26,0,0,1,0,.15c-.1.15-.19.3-.36.3-.34,0-.58-.41-.58-.41a3.7,3.7,0,0,0,0-.43s0-.1,0-.15a2.69,2.69,0,0,1-.07-.43v-.34l-.1-.29-.09-1.21-.12-.34,0-1.1-.07-.3v-.85l0-1v0c0-.28.27-.41.52-.41s.44.1.44.28l0,1.16.06.24,0,.5,0,.71,0,.16c0,.15.08.19.18.19s.21-.24.37-.36a2.93,2.93,0,0,1,.61-.28s.52-.06.73-.06a1.38,1.38,0,0,1,.91.34l.18.07.17.29.12.1.16.34a4.79,4.79,0,0,1,.2,1C268.52,481.26,267.33,481.49,267.33,481.49Zm-.49-3.09c-.85,0-1.56.44-1.56,1a1.46,1.46,0,0,0,1.37,1.24.76.76,0,0,0,.28-.12l.22-.32.18-.16a1.19,1.19,0,0,0,.15-.41C267.48,479.44,267.45,478.4,266.83,478.4Z" transform="translate(-223.6 -43.27)"/><path class="cls-2" d="M255.19,506.2l-.35-.37-.3-.16-.19,0h-.16l-.17.08-.22.09a2.09,2.09,0,0,0-.52,1.24.68.68,0,0,0,.43.59l1.37-.07h0a.67.67,0,0,1,.58.53c0,.18-.23.35-.62.51a1.66,1.66,0,0,1-.54.15,5.55,5.55,0,0,1-.56-.1h-.34c-.39,0-.52-.18-.87-.43l-.4-.35,0-.29-.11-.44,0-.26v-.24l.31-.95c.06-.23.78-.76.78-.76l.33-.22h.21a2.82,2.82,0,0,1,.37,0c.77,0,1.54.48,1.54.81V506Z" transform="translate(-223.6 -43.27)"/><path class="cls-2" d="M261,508.78a.44.44,0,0,1-.16,0,1,1,0,0,1-.31-.06l-.34-.23-.72.15a6,6,0,0,1-.89.08c-.44,0-.68-.32-.95-.66a1.66,1.66,0,0,1-.4-.81,3,3,0,0,1,.71-1.73l.29-.38.19-.09a1.4,1.4,0,0,1,.63-.19c.16,0,.38.19.51.19a.07.07,0,0,0,.06,0l.22-.21a1,1,0,0,1,.3-.08c.23,0,.64.58.7,1.09l.05.38.21.9v.39l.13.34S261.14,508.72,261,508.78Zm-1.13-2-.2-.31-.1-.25c0-.12-.16-.15-.3-.15H259a1,1,0,0,0-.86.91,1.9,1.9,0,0,0,.15.4l.22.16.1.16c.06.09.28.1.34.1.58,0,1-.32,1-.8A.69.69,0,0,0,259.86,506.74Z" transform="translate(-223.6 -43.27)"/><path class="cls-2" d="M265.78,509a3,3,0,0,1-.85-.19l-.35-.08s-.21-.22-.37-.22-.17.12-.18.2v.13l-.07.26,0,.6,0,.18.11.78-.06.37v.26c0,.25-.39.56-.73.56-.15,0-.39-.25-.39-.25v-.26l0-.34s0-.24,0-.43c0-.41.07-1.15.09-1.32l0-.5v-.58l.07-.26v-.24l.1-.37v-.75l.08-.47,0-.38.06-.17v-.26h0a.57.57,0,0,1,.47-.53c.42,0,.25.53.57.53s.3-.21.95-.21a2.21,2.21,0,0,1,.78.12l.24,0,.28.18.28.11.26.6a2,2,0,0,1,.31,1.16A1.75,1.75,0,0,1,265.78,509Zm-.31-2.8c-.53,0-1.14.29-1.14.8a.84.84,0,0,0,.48.75l.58,0,.28.1a.73.73,0,0,0,.72-.71A.89.89,0,0,0,265.47,506.22Z" transform="translate(-223.6 -43.27)"/><path class="cls-2" d="M271.89,506h0l-.42-.46-.14-.07a.44.44,0,0,0-.15,0,.36.36,0,0,0-.36.35c0,.07.09.15.16.18l.54.25.17.17.25.11a3.94,3.94,0,0,1,.33,1.12,1.49,1.49,0,0,1-.22.83l-.1.28-.62.31a1.45,1.45,0,0,1-.89.27,4.14,4.14,0,0,1-1.65-.43.78.78,0,0,1-.48-.69c0-.16.42-.43.42-.43l.27.06h.25l.45.22h.23a2.68,2.68,0,0,0,.56.16c.26,0,.79-.29.79-.61,0-.13-.16-.27-.38-.44-.77-.62-1.13-.64-1.13-1.17a2,2,0,0,1,.24-1l.4-.35.3,0a5.4,5.4,0,0,1,.71-.1c.54,0,1.18.56,1.18.85A.64.64,0,0,1,271.89,506Z" transform="translate(-223.6 -43.27)"/><path class="cls-2" d="M279.58,504.28v.21l-.06.39,0,1.32-.09.67,0,.88v.5l-.08.25,0,.39c-.05.37-.33.81-.67.81s-.48-.46-.48-.84.18-.7.2-1l0-.71,0-.3.17-.77,0-1.27.09-.44,0-.43a2.46,2.46,0,0,0,.12-.45,3.25,3.25,0,0,0,0-.34V503l.09-.32,0-.21a.49.49,0,0,1,.51-.35c.31,0,.36,1,.36,1Z" transform="translate(-223.6 -43.27)"/><path class="cls-2" d="M283.59,508.73a3.24,3.24,0,0,1-1.56-.42l-.3-.13-.29-.48a1.54,1.54,0,0,1-.27-1,2.34,2.34,0,0,1,2-2h.12l.42,0,.22.16.37.15.16.21s1,.92,1,1.5C285.53,507.64,284.14,508.73,283.59,508.73Zm.84-2.3-.08-.15-.21-.1-.29-.33-.39-.06-.33-.13s-1,.17-1,1.1c0,.51.88.91,1.36.91.32,0,1.06-.32,1.06-.78,0,0,0-.05,0-.07Z" transform="translate(-223.6 -43.27)"/><path class="cls-2" d="M290,506.2l-.35-.37-.3-.16-.19,0H289l-.17.08-.22.09a2.09,2.09,0,0,0-.52,1.24.68.68,0,0,0,.43.59l1.37-.07h0a.67.67,0,0,1,.58.53c0,.18-.23.35-.62.51a1.66,1.66,0,0,1-.54.15,5.55,5.55,0,0,1-.56-.1h-.34c-.39,0-.52-.18-.87-.43l-.4-.35,0-.29-.11-.44,0-.26v-.24l.31-.95c.06-.23.78-.76.78-.76l.33-.22h.21a2.82,2.82,0,0,1,.37,0c.77,0,1.54.48,1.54.81V506Z" transform="translate(-223.6 -43.27)"/><path class="cls-2" d="M296.73,505.72a.52.52,0,0,1-.42.25l-.82.06-.15,0h0c-.06,0-.11.08-.11.14s0,0,0,0l.34.43.36.6.11.29.52.82a1,1,0,0,1,.17.59c0,.27-.21.68-.55.68-.19,0-.37-.35-.51-.61l-.13-.28-.15-.21-.09-.3-.1-.13-.38-.67-.28-.37-.08-.29a.41.41,0,0,0-.4-.28.35.35,0,0,0-.36.29l-.07.37-.07.29,0,.55,0,.65c0,.48-.16.63-.48.63s-.25-.07-.44-.39a1,1,0,0,1-.14-.54,1.29,1.29,0,0,1,0-.21l.08-.37,0-.39.07-.71,0-.26.05-1.12.06-.33,0-2.18a.58.58,0,0,1,.59-.64.54.54,0,0,1,.49.49l0,.47-.12.51,0,.63-.06,1.08c0,.11,0,.14.11.14h.07l.31-.09.43,0,.43-.18a3.19,3.19,0,0,1,1.17-.23c.39,0,.82.13.82.3A2.12,2.12,0,0,1,296.73,505.72Z" transform="translate(-223.6 -43.27)"/><path class="cls-2" d="M267.31,536.53h0l-.42-.46-.14-.07a.44.44,0,0,0-.15,0,.36.36,0,0,0-.36.35c0,.07.09.15.16.18l.54.25.17.17.25.11a3.94,3.94,0,0,1,.33,1.12,1.49,1.49,0,0,1-.22.83l-.1.28-.62.31a1.45,1.45,0,0,1-.89.27,4.14,4.14,0,0,1-1.65-.43.78.78,0,0,1-.48-.69c0-.16.42-.43.42-.43l.27.06h.25l.45.22h.23a2.68,2.68,0,0,0,.56.16c.26,0,.79-.29.79-.61,0-.13-.16-.27-.38-.44-.77-.62-1.13-.64-1.13-1.17a2,2,0,0,1,.24-1l.4-.35.3,0a5.4,5.4,0,0,1,.71-.1c.54,0,1.18.56,1.18.85A.64.64,0,0,1,267.31,536.53Z" transform="translate(-223.6 -43.27)"/><path class="cls-2" d="M273.87,539c0,.43-.32.92-.72.92a.51.51,0,0,1-.45-.47,8.51,8.51,0,0,1,.15-1.25l-.06-.27v-.39l-.06-.21a.79.79,0,0,0-.73-.5l-.25,0a.48.48,0,0,0-.32.1,3.1,3.1,0,0,0-.42.46v.25l-.14.59-.08,1.18a.49.49,0,0,1-.47.46c-.36,0-.5-.13-.5-.63v-.4l.05-.22v-.49l.05-.44,0-.2.08-1.68c0-.27,0-.55,0-.86s-.06-.62-.06-1,.09-1.17.56-1.17c.23,0,.49.34.52.55l0,.24,0,.2,0,.24,0,.26,0,1.1,0,.48c0,.07.09.13.17.13a.09.09,0,0,0,.07,0l.14-.1.31-.07.46-.13.31.1a1.37,1.37,0,0,1,1.12,1,6.49,6.49,0,0,1,.32,1.78l0,.49Z" transform="translate(-223.6 -43.27)"/><path class="cls-2" d="M276.39,534.14h-.07a.58.58,0,0,1-.49-.21l-.15-.27.08-.39L276,533l.21-.3.34,0a.5.5,0,0,1,.46.54A.8.8,0,0,1,276.39,534.14ZM277,536l.06,1.09-.06.25a2.84,2.84,0,0,0-.08.53,4.38,4.38,0,0,0,.08.62l0,.25a.71.71,0,0,1-.58.54c-.34,0-.47-.18-.47-.61,0-.06.06-.23.06-.36l0-.62s-.06-.53-.06-1.08a3.07,3.07,0,0,1,.1-.89l.09-.24.1-.29a.61.61,0,0,1,.47-.33c.33,0,.38.41.38.41l.05.18Z" transform="translate(-223.6 -43.27)"/><path class="cls-2" d="M282.89,534.28a.64.64,0,0,1-.38-.2l-.18-.09-.17-.28-.12,0c-.49,0-.83,1.19-.83,2.44,0,.1,0,.19.12.22l.32.1.63,0a.48.48,0,0,1,.47.46.58.58,0,0,1-.43.49.83.83,0,0,1-.39.24c-.18,0-.43,0-.63,0s-.35.07-.35.5v.18l0,1.06.05.51-.24.15-.17.18-.29,0H280l-.07-.38-.08-.22.11-.54v-.35l.07-.2,0-.21,0-.53c0-.08,0-.13,0-.17s0-.07-.06-.07h-.54l-.51-.22a.55.55,0,0,1-.31-.48c0-.17.16-.45.35-.45h0l.25.05.17,0,.35,0H280a.17.17,0,0,0,.17-.16v0l0-.2s0-.05,0-.07a1.48,1.48,0,0,1,.14-.46,6.71,6.71,0,0,1,.15-1.18,3.3,3.3,0,0,1,.31-.68l.22-.45.22-.13a2.3,2.3,0,0,1,.86-.33c.61,0,1.36.47,1.36,1C283.36,534,283.19,534.28,282.89,534.28Z" transform="translate(-223.6 -43.27)"/><path class="cls-2" d="M287.61,535.41c-.1.11-.2.25-.35.25h0l-.17,0-.27,0h-.19v.83l-.12.5,0,.64,0,.47.06.64-.06.29,0,.19-.14.25-.23.32-.15,0h-.3a2.06,2.06,0,0,1-.21-.61,1.79,1.79,0,0,1,.09-.47l-.05-.92.11-.33v-.22l0-.47v-.61l.06-.36-.06-.11-.75-.07a.36.36,0,0,1-.34-.4,4.07,4.07,0,0,1,.22-.69,3.48,3.48,0,0,0,.55.11c.16,0,.41,0,.41-.17h0l0-.48.06-.26,0-.18.07-.2s0-.05,0-.09a.59.59,0,0,1,.63-.64.41.41,0,0,1,.44.45s-.1.43-.11.49l0,.41,0,.33c0,.08,0,.16.12.16l.42,0a.74.74,0,0,1,.58.6C287.85,535.2,287.7,535.32,287.61,535.41Z" transform="translate(-223.6 -43.27)"/><path class="cls-2" d="M652,537.22h0l-.42-.46-.14-.07a.44.44,0,0,0-.15,0,.36.36,0,0,0-.36.35c0,.07.09.15.16.18l.54.25.17.17.25.11a3.94,3.94,0,0,1,.33,1.12,1.49,1.49,0,0,1-.22.83l-.1.28-.62.31a1.45,1.45,0,0,1-.89.27,4.14,4.14,0,0,1-1.65-.43.78.78,0,0,1-.48-.69c0-.16.42-.43.42-.43l.27.06h.25l.45.22H650a2.68,2.68,0,0,0,.56.16c.26,0,.79-.29.79-.61,0-.13-.16-.27-.38-.44-.77-.62-1.13-.64-1.13-1.17a2,2,0,0,1,.24-1l.4-.35.3,0a5.4,5.4,0,0,1,.71-.1c.54,0,1.18.56,1.18.85A.64.64,0,0,1,652,537.22Z" transform="translate(-223.6 -43.27)"/><path class="cls-2" d="M658.56,539.7c0,.43-.32.92-.72.92a.51.51,0,0,1-.45-.47,8.51,8.51,0,0,1,.15-1.25l-.06-.27v-.39l-.06-.21a.79.79,0,0,0-.73-.5l-.25,0a.48.48,0,0,0-.32.1,3.1,3.1,0,0,0-.42.46v.25l-.14.59-.08,1.18a.49.49,0,0,1-.47.46c-.36,0-.5-.13-.5-.63v-.4l.05-.22v-.49l.05-.44,0-.2.08-1.68c0-.27,0-.55,0-.86s-.06-.62-.06-1,.09-1.17.56-1.17c.23,0,.49.34.52.55l0,.24,0,.2,0,.24,0,.26,0,1.1,0,.48c0,.07.09.13.17.13a.09.09,0,0,0,.07,0l.14-.1.31-.07.46-.13.31.1a1.37,1.37,0,0,1,1.12,1,6.49,6.49,0,0,1,.32,1.78l0,.49Z" transform="translate(-223.6 -43.27)"/><path class="cls-2" d="M661.08,534.82H661a.58.58,0,0,1-.49-.21l-.15-.27.08-.39.26-.25.21-.3.34,0a.5.5,0,0,1,.46.54A.8.8,0,0,1,661.08,534.82Zm.63,1.87.06,1.09-.06.25a2.84,2.84,0,0,0-.08.53,4.38,4.38,0,0,0,.08.62l0,.25a.71.71,0,0,1-.58.54c-.34,0-.47-.18-.47-.61,0-.06.06-.23.06-.36l0-.62s-.06-.53-.06-1.08a3.07,3.07,0,0,1,.1-.89l.09-.24.1-.29a.61.61,0,0,1,.47-.33c.33,0,.38.41.38.41l.05.18Z" transform="translate(-223.6 -43.27)"/><path class="cls-2" d="M667.57,535a.64.64,0,0,1-.38-.2l-.18-.09-.17-.28-.12,0c-.49,0-.83,1.19-.83,2.44,0,.1,0,.19.12.22l.32.1.63,0a.48.48,0,0,1,.47.46.58.58,0,0,1-.43.49.83.83,0,0,1-.39.24c-.18,0-.43,0-.63,0s-.35.07-.35.5V539l0,1.06.05.51-.24.15-.17.18-.29,0h-.33l-.07-.38-.08-.22.11-.54v-.35l.07-.2,0-.21,0-.53c0-.08,0-.13,0-.17s0-.07-.06-.07h-.54l-.51-.22a.55.55,0,0,1-.31-.48c0-.17.16-.45.35-.45h0l.25.05.17,0,.35,0h.21a.17.17,0,0,0,.17-.16v0l0-.2s0-.05,0-.07a1.48,1.48,0,0,1,.14-.46,6.71,6.71,0,0,1,.15-1.18,3.3,3.3,0,0,1,.31-.68l.22-.45.22-.13a2.3,2.3,0,0,1,.86-.33c.61,0,1.36.47,1.36,1C668,534.64,667.88,535,667.57,535Z" transform="translate(-223.6 -43.27)"/><path class="cls-2" d="M672.3,536.09c-.1.11-.2.25-.35.25h0l-.17,0-.27,0h-.19v.83l-.12.5,0,.64,0,.47.06.64-.06.29,0,.19-.14.25-.23.32-.15,0h-.3a2.06,2.06,0,0,1-.21-.61,1.79,1.79,0,0,1,.09-.47l-.05-.92.11-.33V538l0-.47v-.61l.06-.36-.06-.11-.75-.07a.36.36,0,0,1-.34-.4,4.07,4.07,0,0,1,.22-.69,3.48,3.48,0,0,0,.55.11c.16,0,.41,0,.41-.17h0l0-.48.06-.26,0-.18.07-.2s0-.05,0-.09a.59.59,0,0,1,.63-.64.41.41,0,0,1,.44.45s-.1.43-.11.49l0,.41,0,.33c0,.08,0,.16.12.16l.42,0a.74.74,0,0,1,.58.6C672.54,535.89,672.39,536,672.3,536.09Z" transform="translate(-223.6 -43.27)"/><path class="cls-2" d="M282.93,566.79l-.35-.37-.3-.16-.19,0h-.16l-.17.08-.22.09a2.09,2.09,0,0,0-.52,1.24.68.68,0,0,0,.43.59l1.37-.07h0a.67.67,0,0,1,.58.53c0,.18-.23.35-.62.51a1.66,1.66,0,0,1-.54.15,5.55,5.55,0,0,1-.56-.1h-.34c-.39,0-.52-.18-.87-.43l-.4-.35,0-.29-.11-.44,0-.26v-.24l.31-.95c.06-.23.78-.76.78-.76l.33-.22h.21a2.82,2.82,0,0,1,.37,0c.77,0,1.54.48,1.54.81v.47Z" transform="translate(-223.6 -43.27)"/><path class="cls-2" d="M288.12,565.5c-.1.11-.2.25-.35.25h0l-.17,0-.27,0h-.19v.83l-.12.5,0,.64,0,.47.06.64-.06.29,0,.19-.14.25-.23.32-.15,0h-.3a2.06,2.06,0,0,1-.21-.61,1.79,1.79,0,0,1,.09-.47l-.05-.92.11-.33v-.22l0-.47v-.61l.06-.36-.06-.11-.75-.07a.36.36,0,0,1-.34-.4,4.07,4.07,0,0,1,.22-.69,3.48,3.48,0,0,0,.55.11c.16,0,.41,0,.41-.17h0l0-.48.06-.26,0-.18.07-.2s0-.05,0-.09a.59.59,0,0,1,.63-.64.41.41,0,0,1,.44.45s-.1.43-.11.49l0,.41,0,.33c0,.08,0,.16.12.16l.42,0a.74.74,0,0,1,.58.6C288.36,565.3,288.21,565.41,288.12,565.5Z" transform="translate(-223.6 -43.27)"/><path class="cls-2" d="M292.57,566c-.47.05-1,.24-1,.53l0,.24-.21.48a1.62,1.62,0,0,0,0,.31,7.78,7.78,0,0,0,.17,1.07c0,.29-.23.81-.6.81-.17,0-.34-.21-.42-.4l-.09-.24-.11-.24V568l0-.2v-.34l0-.27.08-.45-.05-.66-.11-.55,0-.62v0a.48.48,0,0,1,.52-.47c.19,0,.5.23.5.41v.09l.06.18v.13l0,.11c0,.08.06.16.14.16.42,0,.66-.6,1.19-.6s.89.25.89.51S293,566,292.57,566Z" transform="translate(-223.6 -43.27)"/><path class="cls-2" d="M296.26,564.87v.21l-.06.39,0,1.32-.09.67,0,.88v.5l-.08.25,0,.39c-.05.37-.33.81-.67.81s-.48-.46-.48-.84.18-.7.2-1l0-.71,0-.3.17-.77,0-1.27.09-.44,0-.43a2.46,2.46,0,0,0,.12-.45,3.25,3.25,0,0,0,0-.34v-.22l.09-.32,0-.21a.49.49,0,0,1,.51-.35c.31,0,.36,1,.36,1Z" transform="translate(-223.6 -43.27)"/><path class="cls-2" d="M564.72,566.34l-.36-.36-.31-.15-.19,0h-.16l-.17.09-.22.1a2.09,2.09,0,0,0-.48,1.25.67.67,0,0,0,.45.58l1.37-.11h0a.67.67,0,0,1,.6.51c0,.18-.22.36-.6.53a1.65,1.65,0,0,1-.53.17,5.46,5.46,0,0,1-.57-.08h-.34c-.39,0-.53-.16-.88-.4l-.41-.34,0-.29-.12-.44,0-.26v-.24l.28-1c.05-.23.75-.79.75-.79l.32-.23h.21a2.92,2.92,0,0,1,.37-.05c.77,0,1.56.43,1.57.76v.47Z" transform="translate(-223.6 -43.27)"/><path class="cls-2" d="M569.86,564.88c-.1.11-.19.26-.34.26h-.2l-.27.06-.19,0,0,.83-.11.51.07.64,0,.47.08.64-.05.29,0,.19-.13.26-.22.33-.15,0-.3,0a2.07,2.07,0,0,1-.23-.61,1.86,1.86,0,0,1,.07-.48l-.08-.91.1-.34v-.22l-.06-.47v-.61l0-.36-.06-.11-.75,0a.36.36,0,0,1-.36-.39,4,4,0,0,1,.2-.7,3.48,3.48,0,0,0,.56.09c.16,0,.41,0,.41-.18h0l-.06-.48.05-.26v-.18l.06-.2s0,0,0-.09a.59.59,0,0,1,.6-.66.41.41,0,0,1,.46.44s-.09.44-.09.5l0,.41,0,.33c0,.08,0,.16.13.16l.43,0a.75.75,0,0,1,.59.58C570.09,564.67,569.94,564.78,569.86,564.88Z" transform="translate(-223.6 -43.27)"/><path class="cls-2" d="M574.32,565.27c-.47.07-.95.27-1,.57l0,.24-.2.49a1.62,1.62,0,0,0,0,.31,7.75,7.75,0,0,0,.21,1.06c0,.29-.21.81-.57.82-.17,0-.35-.2-.44-.39l-.1-.24-.12-.24v-.57l0-.2v-.34l0-.27.07-.46-.07-.66-.13-.55-.06-.62v0a.48.48,0,0,1,.51-.49c.19,0,.5.22.51.4v.09l.07.18v.13l0,.11c0,.08.07.16.15.16.42,0,.63-.62,1.17-.64s.9.22.9.48S574.71,565.22,574.32,565.27Z" transform="translate(-223.6 -43.27)"/><path class="cls-2" d="M578,564v.21l0,.39v1.32l-.07.68v.88l0,.5-.07.25,0,.39c0,.38-.31.82-.64.83s-.5-.45-.51-.82.16-.71.17-1v-.72l0-.3.15-.77v-1.27l.08-.45v-.43a2.48,2.48,0,0,0,.1-.46,3.35,3.35,0,0,0,0-.34v-.22l.08-.33,0-.21a.49.49,0,0,1,.5-.37c.31,0,.4,1,.4,1Z" transform="translate(-223.6 -43.27)"/><path class="cls-2" d="M539.41,570.56a.44.44,0,0,1-.16,0,1,1,0,0,1-.31-.06l-.34-.23-.72.15a6,6,0,0,1-.89.08c-.44,0-.68-.32-.95-.66a1.66,1.66,0,0,1-.4-.81,3,3,0,0,1,.71-1.73l.29-.38.19-.09a1.4,1.4,0,0,1,.63-.19c.16,0,.38.19.51.19a.07.07,0,0,0,.06,0l.22-.21a1,1,0,0,1,.3-.08c.23,0,.64.58.7,1.09l.05.38.21.9v.39l.13.34S539.56,570.5,539.41,570.56Zm-1.13-2-.2-.31-.1-.25c-.05-.12-.16-.15-.3-.15h-.26a1,1,0,0,0-.86.91,1.9,1.9,0,0,0,.15.4l.22.16.1.16c.06.09.28.1.34.1.58,0,1-.32,1-.8A.69.69,0,0,0,538.28,568.51Z" transform="translate(-223.6 -43.27)"/><path class="cls-2" d="M543,566.06v.21l-.06.39,0,1.32-.09.67,0,.88v.5l-.08.25,0,.39c-.05.37-.33.81-.67.81s-.48-.46-.48-.84.18-.7.2-1l0-.71,0-.3.17-.77,0-1.27.09-.44,0-.43a2.46,2.46,0,0,0,.12-.45,3.25,3.25,0,0,0,0-.34v-.22l.09-.32,0-.21a.49.49,0,0,1,.51-.35c.31,0,.36,1,.36,1Z" transform="translate(-223.6 -43.27)"/><path class="cls-2" d="M547.94,566.69c-.1.11-.2.25-.35.25h0l-.17,0-.27,0h-.19v.83l-.12.5,0,.64,0,.47.06.64-.06.29,0,.19-.14.25-.23.32-.15,0H546a2.06,2.06,0,0,1-.21-.61,1.79,1.79,0,0,1,.09-.47l-.05-.92.11-.33v-.22l0-.47v-.61l.06-.36-.06-.11-.75-.07a.36.36,0,0,1-.34-.4,4.07,4.07,0,0,1,.22-.69,3.48,3.48,0,0,0,.55.11c.16,0,.41,0,.41-.17h0l0-.48L546,565l0-.18.07-.2s0-.05,0-.09a.59.59,0,0,1,.63-.64.41.41,0,0,1,.44.45s-.1.43-.11.49l0,.41,0,.33c0,.08,0,.16.12.16l.42,0a.74.74,0,0,1,.58.6C548.18,566.49,548,566.6,547.94,566.69Z" transform="translate(-223.6 -43.27)"/><path class="cls-2" d="M357.06,569.62a.44.44,0,0,1-.16,0,1,1,0,0,1-.31-.06l-.34-.23-.72.15a6,6,0,0,1-.89.08c-.44,0-.68-.32-.95-.66a1.66,1.66,0,0,1-.4-.81,3,3,0,0,1,.71-1.73l.29-.38.19-.09a1.4,1.4,0,0,1,.63-.19c.16,0,.38.19.51.19a.07.07,0,0,0,.06,0l.22-.21a1,1,0,0,1,.3-.08c.23,0,.64.58.7,1.09l.05.38.21.9v.39l.13.34S357.21,569.56,357.06,569.62Zm-1.13-2-.2-.31-.1-.25c-.05-.12-.16-.15-.3-.15h-.26a1,1,0,0,0-.86.91,1.9,1.9,0,0,0,.15.4l.22.16.1.16c.06.09.28.1.34.1.58,0,1-.32,1-.8A.69.69,0,0,0,355.93,567.57Z" transform="translate(-223.6 -43.27)"/><path class="cls-2" d="M360.61,565.12v.21l-.06.39,0,1.32-.09.67,0,.88v.5l-.08.25,0,.39c-.05.37-.33.81-.67.81s-.48-.46-.48-.84.18-.7.2-1l0-.71,0-.3.17-.77,0-1.27.09-.44,0-.43a2.46,2.46,0,0,0,.12-.45,3.25,3.25,0,0,0,0-.34v-.22l.09-.32,0-.21a.49.49,0,0,1,.51-.35c.31,0,.36,1,.36,1Z" transform="translate(-223.6 -43.27)"/><path class="cls-2" d="M365.59,565.75c-.1.11-.2.25-.35.25h0l-.17,0-.27,0h-.19v.83l-.12.5,0,.64,0,.47.06.64-.06.29,0,.19-.14.25-.23.32-.15,0h-.3a2.06,2.06,0,0,1-.21-.61,1.79,1.79,0,0,1,.09-.47l-.05-.92.11-.33v-.22l0-.47v-.61l.06-.36-.06-.11-.75-.07a.36.36,0,0,1-.34-.4,4.07,4.07,0,0,1,.22-.69,3.48,3.48,0,0,0,.55.11c.16,0,.41,0,.41-.17h0l0-.48.06-.26,0-.18.07-.2s0-.05,0-.09a.59.59,0,0,1,.63-.64.41.41,0,0,1,.44.45s-.1.43-.11.49l0,.41,0,.33c0,.08,0,.16.12.16l.42,0a.74.74,0,0,1,.58.6C365.83,565.55,365.68,565.66,365.59,565.75Z" transform="translate(-223.6 -43.27)"/><path class="cls-2" d="M304.21,457.16c0,.43-.26.87-.67.87s-.59-.52-.59-.66l0-.45-.09-.44,0-2.46.08-.43-.12-1.13v-.09a.65.65,0,0,1,.58-.71c.47,0,.65.75.65.75l0,.31-.08.48,0,.94,0,1.29.16,1.12,0,.54Z" transform="translate(-223.6 -43.27)"/><path class="cls-2" d="M310.84,476.65v.81c0,1.25.13,3.15.13,3.15l-.3,1.07.09,1.38.16.84-.05.54s-.12,2.53-1.18,2.53c-.88,0-1-1.59-1-1.59l.2-.48.07-1.25,0-.47-.11-1,.18-1.31v-.07c0-.23-.09-.34-.29-.34a8.75,8.75,0,0,0-1.77.45,3.8,3.8,0,0,1-2.15-.91l-.16-.14-.47-.41-.14-.36-.12-.16a2.45,2.45,0,0,1-.38-1.42c0-1.67,2-3.85,3.48-3.85a3,3,0,0,1,.88.22l.38,0,.27.25s.2.23.38.23a.21.21,0,0,0,.16-.09l.13-.18c.29-.41.57-.72.84-.72.68,0,.9.38.9,1.31,0,.23,0,.61,0,.75l.05.45Zm-4.3-.86a1.37,1.37,0,0,0-.38.11l-.18.34-.5.66a4.9,4.9,0,0,0,0,.55,1.41,1.41,0,0,0,1.6,1.33,1.73,1.73,0,0,0,1.83-1.54C308.87,476.49,307.43,475.79,306.54,475.79Z" transform="translate(-223.6 -43.27)"/><path class="cls-2" d="M324.16,511a.75.75,0,0,1-.29.05,1.85,1.85,0,0,1-.56-.11l-.61-.41-1.27.27a10.69,10.69,0,0,1-1.58.14c-.79,0-1.2-.57-1.69-1.17a2.94,2.94,0,0,1-.72-1.43,5.31,5.31,0,0,1,1.25-3.08l.52-.68.34-.16a2.48,2.48,0,0,1,1.11-.34c.29,0,.68.34.91.34a.13.13,0,0,0,.11,0l.39-.38a1.72,1.72,0,0,1,.54-.14c.41,0,1.13,1,1.24,1.93l.09.68.38,1.59,0,.7s.23.61.23.61S324.43,510.85,324.16,511Zm-2-3.64-.36-.56-.18-.45c-.09-.21-.29-.27-.54-.27l-.47,0a1.73,1.73,0,0,0-1.52,1.61,3.39,3.39,0,0,0,.27.72l.39.29.18.29c.11.16.5.18.61.18,1,0,1.72-.57,1.72-1.42A1.22,1.22,0,0,0,322.15,507.32Z" transform="translate(-223.6 -43.27)"/><path class="cls-2" d="M334,533.53l-.77.9-.3.57-1.74,2.06c-.34.39-1.34.86-1.34,1.38,0,.2.31.18.52.2l.91.05,1.42-.07.43.27.63.14.2.95-.68.79-.81,0-.5.07-.77-.16H330l-.48-.11-1.24,0a1.16,1.16,0,0,1-1-.54,1.07,1.07,0,0,1-.11-.54,2.59,2.59,0,0,1,0-.41l.05-.52.57-.5.5-.59.43-.34s1-1.08,1.63-1.77c.38-.39.86-.72.86-1.08a.35.35,0,0,0-.3-.34l-1.25-.16-.43.05-.88-.07-.57.14a1.6,1.6,0,0,1-.29,0,1,1,0,0,1-1.11-.91c0-1.11,1.24-1.2,1.56-1.2l.59-.11,1,.21s2,.29,2.55.29l1.42-.09.75.47Z" transform="translate(-223.6 -43.27)"/><path class="cls-2" d="M450.52,457.46a3,3,0,0,1-1.28-.47l-.5-.46-.1-.32a4.21,4.21,0,0,1-.3-1,5.12,5.12,0,0,1,0-.59c0-.22,0-.39,0-.39l.06-.47.1-.2.07-.38.45-.9a3.42,3.42,0,0,1,2.49-2,.6.6,0,0,1,.62.55.76.76,0,0,1-.63.68l-.34.06a3.81,3.81,0,0,0-.9.74c-.11.17-.24.4-.27.47l-.08.31-.28.43a.12.12,0,0,0,0,.06.12.12,0,0,0,.12.12h0c.08,0,.44-.31.83-.31h.08l1.09.11.45,0,.35.4.25.3.3.62A2.59,2.59,0,0,1,450.52,457.46Zm.43-3.06c-.65,0-1.28.5-1.28,1s.67.76,1.32.82a1.54,1.54,0,0,0,.35-.15l.18-.27.27-.21a1.54,1.54,0,0,0,.15-.39A1,1,0,0,0,450.94,454.4Z" transform="translate(-223.6 -43.27)"/><path class="cls-2" d="M482.07,450.81l-.19.54,0,.27-.47,1.35-.26,1.13,0,.31-.34,1v.24l-.18.46c-.06.19-.11.57-.11.57l-.3.3c-.18.17-.19.27-.38.28h0c-.24,0-.53-.45-.53-.45l0-.36,0-.4.08-.16.11-.57.39-.76.15-.55,0-.6v-.08c0-.35.26-.56.39-.91a7.24,7.24,0,0,0,.44-1.6h0c0-.12-.21-.26-.31-.26a5.41,5.41,0,0,1-.84.16c-.12,0-.27,0-.43,0s-.48,0-.48,0l-.58.11h-.08a.72.72,0,0,1-.63-.66c0-.31.38-.56.61-.57l.62,0,.62-.13.28,0,.22-.08h.63a10.54,10.54,0,0,1,1.19-.17c.47,0,.73.17.73.55A8.07,8.07,0,0,1,482.07,450.81Z" transform="translate(-223.6 -43.27)"/><path class="cls-2" d="M511,451.8l-.42.77s-.43.13-.43.2c0,.3.59.38.59,1.17a2.64,2.64,0,0,1-2.88,2.55,1.54,1.54,0,0,1-1.23-.4l-.33-.2-.29-.54a1.54,1.54,0,0,1-.36-1.15,3.44,3.44,0,0,1,.85-1.81c.13-.16.4-.25.4-.35,0-.4-.17-.39-.17-.73a1.29,1.29,0,0,1,.21-.85l.38-.5.11-.46c.08-.3.66-.53,1.28-.53,1.49,0,2.48.76,2.48,1.88A1.79,1.79,0,0,1,511,451.8Zm-2.2,1.43-.55,0-.5-.22c-.08,0-.42,0-.7.58a1.28,1.28,0,0,0-.21.57,1.26,1.26,0,0,0,1.26,1.12c.73,0,1.47-.56,1.47-1.06A.94.94,0,0,0,508.76,453.24Zm.28-3-.3,0a.36.36,0,0,0-.24.07c-.48.36-.5.46-.5.81,0,0,.08.86.72.92l.35-.13.62-.21a.79.79,0,0,0,.38-.67A.94.94,0,0,0,509,450.21Z" transform="translate(-223.6 -43.27)"/><path class="cls-2" d="M536.56,453.14v.65a3.57,3.57,0,0,1-.56,2.09l-.9,1-.46.2-.49-.13,0-.28a.58.58,0,0,1-.07-.22c0-.36.11-.36.47-.76a4,4,0,0,0,.73-1.12,1.14,1.14,0,0,0,.13-.26,0,0,0,0,0,0,0,11.84,11.84,0,0,1-1.38.12,7.55,7.55,0,0,1-.8-.13l-.19-.25-.25-.17-.25-.59a1.17,1.17,0,0,1-.18-.69,2.66,2.66,0,0,1,1.28-2.08c.56-.45.84-.83,1.39-.83a.93.93,0,0,1,.7.38l.29.11a3,3,0,0,1,.88,1.83C536.85,452.1,536.56,453.14,536.56,453.14Zm-1.79-2c-.49,0-.71.38-.92.68s-.34.42-.34.62a.78.78,0,0,0,.86.82.51.51,0,0,0,.38-.21l.39-.19.22-.13a1.6,1.6,0,0,0,.19-.63A1,1,0,0,0,534.77,451.11Z" transform="translate(-223.6 -43.27)"/><path class="cls-2" d="M564.76,456.86a1.71,1.71,0,0,1-1.33-.69,3.4,3.4,0,0,1-1.1-2.3,3.16,3.16,0,0,1,.31-1.57,4.85,4.85,0,0,1,.42-.54l.38-.52.36-.26.9-.43,1.14.07.94.13a2.06,2.06,0,0,1,1.59,2.18A3.66,3.66,0,0,1,564.76,456.86Zm1.13-5a3.3,3.3,0,0,0-.68-.08c-.17,0-.3,0-.35,0l-.22.13-.56.27a4.09,4.09,0,0,0-.31.46,2.25,2.25,0,0,0-.35,1.09,1.82,1.82,0,0,0,1.51,1.86,4.06,4.06,0,0,0,1.18-.41l.38-.36.24-.15a4.21,4.21,0,0,0,.47-1.41C567.19,452.4,566.81,452.07,565.89,451.82Z" transform="translate(-223.6 -43.27)"/><path class="cls-2" d="M594.06,453.2l-.51,0-.35-.06-.43,0-.14,0-.4,0h-.14c-.5,0-.78-.25-.78-.45a.55.55,0,0,1,.56-.46l.63,0,.49,0,.66,0,.18,0h.49c.36,0,.66.21.66.46S594.62,453.14,594.06,453.2Z" transform="translate(-223.6 -43.27)"/><path class="cls-2" d="M536.05,544.38c-.07.47-.21,1.08-.62,1.08a.57.57,0,0,1-.64-.59c0-.24.39-.74.39-1.07a.29.29,0,0,0-.13-.25,1.47,1.47,0,0,0-.31-.15c-.19-.12-.21-.16-.21-.49,0-.48.28-1,.82-1s.77.72.77.72v.19l.06.13,0,.25.09.39A6.88,6.88,0,0,0,536.05,544.38Z" transform="translate(-223.6 -43.27)"/><path class="cls-2" d="M563.79,542.86a.69.69,0,0,1-.76-.65.56.56,0,0,1,.58-.59l.54,0,.15.12c.12,0,.37.16.37.42A.87.87,0,0,1,563.79,542.86Z" transform="translate(-223.6 -43.27)"/><path class="cls-2" d="M597.59,539.12a12.28,12.28,0,0,0-.78,1.23l-.23.26-.07.15-.35.36c-.11.24-1.51,3.05-2.32,3.05a.94.94,0,0,1-.33-.15l0-.23a.55.55,0,0,1-.1-.25,4.07,4.07,0,0,1,.57-.79l.58-.74.83-1.56.62-.73.27-.57s1.24-1.74,1.62-1.74a.75.75,0,0,1,.57.63A9.53,9.53,0,0,1,597.59,539.12Z" transform="translate(-223.6 -43.27)"/><path class="cls-2" d="M536.55,530.8l-.73.33-.12.12-.38.17-.4.21c-.17.09-.23.18-.23.25s.1.16.25.22l.88.3.39.24.35.06.15.09.27.07s.47.48.47.68a.73.73,0,0,1-.69.69.39.39,0,0,1-.26-.09l-.22-.16-1.35-.75-1.65-1.18-.14-.27.2-.49.39-.16a1.52,1.52,0,0,1,.29-.26,2.31,2.31,0,0,1,.53-.27l1.21-.67.24,0,.59-.23a.91.91,0,0,1,.53-.25.56.56,0,0,1,.55.63C537.7,530.44,536.55,530.8,536.55,530.8Z" transform="translate(-223.6 -43.27)"/><path class="cls-2" d="M566.78,531l-1,.87-.13.17-.38.28-.85.81-.62.26-.15-.33-.19-.23.11-.43.41-.28.16-.24.74-.66.25-.2c.19-.15.27-.26.27-.34s-.12-.17-.32-.25l-.29-.12-.71-.37-.6-.29-.54-.49L563,529v0a.32.32,0,0,1,.23-.3.6.6,0,0,1,.3-.08,1,1,0,0,1,.45.14l.69.42.93.4.22.13.45.18.13.13c.07,0,.58.36.58.69A.51.51,0,0,1,566.78,531Z" transform="translate(-223.6 -43.27)"/><path class="cls-2" d="M597.08,530.5a1.32,1.32,0,0,1-.88.7l-.5,0-.13.08,0,.81v0c0,.37-.26.58-.67.58a3.23,3.23,0,0,1-.49-.07l0-1.07-.07-.77v-.08c0-.47.48-.61.69-.65l.22-.14.68,0a.39.39,0,0,0,.12-.24,1.2,1.2,0,0,0-1.16-.94h-.18l-.1.11-.28.17,0,.36c0,.35-.17.54-.52.54a.68.68,0,0,1-.61-.71,2,2,0,0,1,.34-1.06,2.34,2.34,0,0,1,1.54-.57,2,2,0,0,1,1.34.52l.17.11.3.47.15.2a5.59,5.59,0,0,1,.22.86A1.14,1.14,0,0,1,597.08,530.5Zm-1.55,3.84a.84.84,0,0,1-.75.52c-.56,0-.54-.43-.54-.43l-.06-.39-.06-.33s.39-.39.66-.39a3,3,0,0,1,.62.13l.07.25.18.21Z" transform="translate(-223.6 -43.27)"/><path class="cls-2" d="M625.75,532a11.36,11.36,0,0,1,.66,1.48,15,15,0,0,0,.87,1.52l.15.4.12.16.19.58c.19.26,2.39,3.34,1.93,4.2l-3.25-.08-1.12-.12-2.32-.08h-1.53a4.92,4.92,0,0,1,.54-1l.58-1,.73-2,.61-1,.23-.73a25.85,25.85,0,0,1,1.61-2.34Z" transform="translate(-223.6 -43.27)"/><path class="cls-2" d="M628.31,570a11.36,11.36,0,0,1-.66-1.48,15,15,0,0,0-.87-1.52l-.15-.4-.12-.16-.19-.58c-.19-.26-2.39-3.34-1.93-4.2l3.25.08,1.12.12,2.32.08h1.53a4.92,4.92,0,0,1-.54,1l-.58,1-.73,2-.61,1-.23.73a25.85,25.85,0,0,1-1.61,2.34Z" transform="translate(-223.6 -43.27)"/><path class="cls-2" d="M659.15,559.95a5,5,0,0,1,1.35.79,15,15,0,0,0,1.44,1l.33.17.4.25.53.25c.29.15,3.91,1.39,3.87,2.36l-3.68,1.81-1,.66-2.13.93-1.38.65a4.91,4.91,0,0,1,0-1.17l.1-1.13-.21-2.12.13-1.14-.11-.76a16,16,0,0,1,.31-2.24Z" transform="translate(-223.6 -43.27)"/><path class="cls-2" d="M602.3,569.15a5,5,0,0,1-1.35-.79,15,15,0,0,0-1.44-1l-.33-.17-.4-.25-.53-.25c-.29-.15-3.91-1.39-3.87-2.36l3.68-1.81,1-.66,2.13-.93,1.38-.65a4.91,4.91,0,0,1,0,1.17l-.1,1.13.21,2.12-.13,1.14.11.76a16,16,0,0,1-.31,2.24Z" transform="translate(-223.6 -43.27)"/><path class="cls-2" d="M607.33,480.69c0,.41-.33.54-.68.55h-.18l-.3.06-.5.05s-.06,0-.06.1l-.05.68-.17.89v.21a8.29,8.29,0,0,0-.1,1v.11c0,.1,0,.28,0,.28l0,.37-.1,1.28c0,.06.05.16.12.16a8.31,8.31,0,0,0,.83-.19h.05a.59.59,0,0,1,.63.52v.06a.71.71,0,0,1-.66.67h-.07a2,2,0,0,1-.31,0l-.62.12a1.65,1.65,0,0,1-.36.08h0a.65.65,0,0,1-.62-.58c0-.1,0-.18,0-.26a2.26,2.26,0,0,1,0-.23l.13-1,.05-1.78s.06-.46.1-.67,0-.22,0-.32v-.17l0-.39,0-.35.05-.2.13-.9c.07-.42.16-.49.43-.5h.14l.27,0,.55-.06.69-.09h.06a.52.52,0,0,1,.49.47Z" transform="translate(-223.6 -43.27)"/><path class="cls-2" d="M582.48,514.55a.54.54,0,0,1-.53-.52c0-.54.18-.64.21-1v0a.2.2,0,0,0-.11-.17l-.08,0a.6.6,0,0,0-.22.06l-.5-.41a1.89,1.89,0,0,1-.11-.46.92.92,0,0,1,.18-.67l.1-.16.44-.19h.07a1.22,1.22,0,0,1,.55.1,1.54,1.54,0,0,1,.48.52l.09.7.08.15,0,.25,0,.32,0,.15,0,.15S582.87,514.55,582.48,514.55Zm-.3-4a.85.85,0,0,1-.83-.79,3.18,3.18,0,0,1,.14-.51l.25-.17.09-.19a2.49,2.49,0,0,1,.49-.11.72.72,0,0,1,.78.64A1.08,1.08,0,0,1,582.17,510.5Z" transform="translate(-223.6 -43.27)"/><path class="cls-2" d="M583,500.54l-.06.21-.22.11a.78.78,0,0,1-.47.23c-.19,0-.47-.41-.47-.41v-.11a.66.66,0,0,1-.18-.36.88.88,0,0,1,.85-.82.76.76,0,0,1,.69.78A.94.94,0,0,1,583,500.54Zm-.6,3.23a1.21,1.21,0,0,1-.34-.13l-.25-.1a2.23,2.23,0,0,1-.18-.54.7.7,0,0,1,.07-.25l0-.21.19-.15.23-.22.46.08.16.19a.81.81,0,0,1,.34.71C583.17,503.6,582.83,503.78,582.44,503.78Z" transform="translate(-223.6 -43.27)"/><path class="cls-2" d="M613.41,512.68a.67.67,0,0,1-.4.17,1.68,1.68,0,0,1-.66-.2l-.5-.39-.05-.22a1.48,1.48,0,0,1-.11-.44,4.33,4.33,0,0,1,.77-2l.13-.1.09-.11a1.09,1.09,0,0,1,.32-.12.46.46,0,0,1,.43.46c0,.37-.75,1-.75,1.4a.37.37,0,0,0,0,.1.06.06,0,0,0,.06,0c.06,0,.14,0,.19,0,.33,0,.44.12.68.72,0,0,0,0,0,.09a1.85,1.85,0,0,1,0,.24v.19Z" transform="translate(-223.6 -43.27)"/><path class="cls-2" d="M611.32,503a1.29,1.29,0,0,1-1.23-1v-.53l-.06-.25.22-.55.09-.25.1-.1.18-.35c.15-.28.33-.59.6-.59a.46.46,0,0,1,.46.43.46.46,0,0,1-.09.3l-.35.75v.12l-.08.22,0,.23.38.26c.22.17.43.32.43.57A.73.73,0,0,1,611.32,503Zm1.94-.17a1.93,1.93,0,0,1-.52-.22l-.32-.25-.13-.23a2.72,2.72,0,0,1-.1-.54,5.53,5.53,0,0,1,.31-1.68.88.88,0,0,1,.73-.62.42.42,0,0,1,.41.41,2.75,2.75,0,0,1-.28.74,4.22,4.22,0,0,0-.14.67l.09.09.32-.05.2.17.21.16a2.71,2.71,0,0,1,.08.46A.94.94,0,0,1,613.26,502.78Z" transform="translate(-223.6 -43.27)"/><path class="cls-2" d="M275.63,455.52a2.08,2.08,0,0,1-.62-.2l-.21-.09-.18-.24-.13-.12-.11-.12-.08-.13c-.07,0-.28-.2-.28-.39,0-.34.31-.45.66-.45a2.85,2.85,0,0,1,.47.26l.15.09.1.14.4.3a.86.86,0,0,1,.33.52A.45.45,0,0,1,275.63,455.52Z" transform="translate(-223.6 -43.27)"/><path class="cls-2" d="M277.19,444.55l-.12.11-.16.06-.13.09a1.88,1.88,0,0,1-1,.19,1.16,1.16,0,0,1-.74-.22l-.28-.18c-.09,0-.12-.13-.22-.13a.25.25,0,0,0-.19.07l-.09.09-.17.11a.92.92,0,0,1-.46.13c-.22,0-.41-.1-.41-.37a.59.59,0,0,1,.19-.38l.13-.18.16-.1a2.9,2.9,0,0,1,1-.33.72.72,0,0,1,.57.22l.24.24a.43.43,0,0,0,.34.18c.42,0,.78-.4,1.07-.4a.55.55,0,0,1,.58.45.35.35,0,0,1-.13.26Z" transform="translate(-223.6 -43.27)"/><path class="cls-2" d="M637.3,486.77c0,.39-.11.44-.41.51l-.33,0-.4-.06a1.92,1.92,0,0,1-.48.08h-.07c-.54,0-.73-.25-.73-.57v-.05c0-.34.2-.71.51-.71.14,0,.24.14.4.14a1.11,1.11,0,0,0,.23,0l.09-.09.09,0c0-.12,0-.28,0-.31s0-.39,0-.48l0-.27,0-1.62,0-.34-.23-1.39v-.34l-.1-.13-.53-.07a1.06,1.06,0,0,1-.85-.49s0-.24,0-.33c0-.27.32-.38.62-.38h.14l.27,0h.2l.24.09.9.25a.39.39,0,0,1,.27.37s0,.05,0,.07a1.91,1.91,0,0,0-.06.35,3.88,3.88,0,0,0,.12.85v.71l.06.38,0,1.44.1.57,0,.71.07.43Z" transform="translate(-223.6 -43.27)"/><path class="cls-2" d="M666,485.85a.68.68,0,0,1-.62-.47l-.14-.39-.58-.95-.16-.52a13.28,13.28,0,0,1-.69-1.26l-.38-.84-.62-.79-.14-.22-.18-.19-.09-.24-.28-.61v-.15L662,479s.31-.37.62-.37,1,1.09,1,1.09.45.6.72,1c.15.23.37.63.37.63l.53,1.17.15.23.25.67.81,1.34c.08.15.22.28.22.45A.62.62,0,0,1,666,485.85Z" transform="translate(-223.6 -43.27)"/><path class="cls-2" d="M607,469.81l-.45.09-.13.09-.15.08-.12.14-.19.15-.1.16v.39a4,4,0,0,0-.15.75,3.82,3.82,0,0,0,.05.56l.18.44-.1.2-.37.15a.17.17,0,0,0-.12.15.12.12,0,0,0,0,.08c.33.26.7.21.7.77,0,.34-.52,1.21-.52,1.65s.2.71.37.75l.2.05.29.21.42.09a.57.57,0,0,1,.45.57c0,.35-.4.58-.77.58-.51,0-2-.8-2-1.84v-.59l.08-.28.07-.47.14-.28a.27.27,0,0,0,0-.14c0-.16-.17-.24-.26-.26l-.64-.18a.64.64,0,0,1-.44-.64.68.68,0,0,1,.4-.63l.63-.36a.29.29,0,0,0,.18-.23.17.17,0,0,0,0-.07l-.06-.2.05-.41v-.21A4.89,4.89,0,0,1,605,470l.1-.23.17-.12.13-.23a2.91,2.91,0,0,1,1.52-.53.53.53,0,0,1,.54.46A.46.46,0,0,1,607,469.81Z" transform="translate(-223.6 -43.27)"/><path class="cls-2" d="M637.77,472.9l-.75.44c-.07,0-.15.1-.15.17a6,6,0,0,1,.26,1.22,3.33,3.33,0,0,1-.17.93l-.07.25-.07.13-.06.27-.53.47a2,2,0,0,1-1.08.39.53.53,0,0,1-.48-.55,1.48,1.48,0,0,1,.23-.67l.2-.14.2-.1.4,0c.22,0,.22-.56.22-.94v-.17a1,1,0,0,0-.12-.56l-.26-.45a.56.56,0,0,1-.08-.27.38.38,0,0,1,.22-.35l.25-.12a.32.32,0,0,0,.19-.27.17.17,0,0,0-.13-.17l-.09,0c-.38-.13-.45-.48-.51-1l-.06-.5.05-.27,0-.7-.22-.53a.11.11,0,0,0-.1-.07,2.75,2.75,0,0,0-.41,0,3.05,3.05,0,0,1-.55.15.5.5,0,0,1-.46-.52.82.82,0,0,1,.7-.73h.49l.31-.05a1.47,1.47,0,0,1,1.28,1.52v.5l.09.14v.73l.12.28.09.08.21,0,.16.09.4.13a.82.82,0,0,1,.55.67A.59.59,0,0,1,637.77,472.9Z" transform="translate(-223.6 -43.27)"/><path class="cls-2" d="M664.81,469.47l-.06.92,0,.14,0,.63-.09.41.07,1.36-.17,1.17v.78c0,.38-.23.81-.49.82H664a.61.61,0,0,1-.67-.52v-.09a5.47,5.47,0,0,1,.14-1l.08-1.15.14-1v-1.53l.11-.84-.06-.23.2-.75c.09-.27.27-.57.47-.57.39,0,.5.27.56.55v.19Z" transform="translate(-223.6 -43.27)"/><path class="cls-2" d="M317.52,563.52l0,.37a7.19,7.19,0,0,1,2.07-.09s1.37-.1,2.28-.09l.86,0c0-.42,0-.82,0-1L322.2,561l-.08-.47-.17-.45,0-.47v-.37l-.6.11h-1.47a6.88,6.88,0,0,0-1.5.08.84.84,0,0,0-.63,0c-.41.27-.39,3.21-.39,3.21Z" transform="translate(-223.6 -43.27)"/><path class="cls-2" d="M324.08,560s.33,1.33.47,2.23c.09.5.18,1.32.18,1.32V564l.77.1H326l1.3.27,2.86.07a2.75,2.75,0,0,1,.84.07l0-.22,0-.55a21.62,21.62,0,0,1-.2-2.35,16,16,0,0,0,0-2.16,1.27,1.27,0,0,0-1.09-.48,19.18,19.18,0,0,0-3.18-.06l-1,.23-1.49,0-.17,0A9.52,9.52,0,0,1,324.08,560Z" transform="translate(-223.6 -43.27)"/><path class="cls-2" d="M331.38,570.13a20,20,0,0,0-.27-3.76,1.35,1.35,0,0,1-1,.15l-.75-.16-2,0-1-.26c-.16,0-.84,0-1.56-.07l.07.39,0,1.33.41,2.83a3.31,3.31,0,0,0,.06.34h.07l.59.13a23,23,0,0,1,2.54.16c.59.09,1.39.27,1.88.34l0,0h.15a.69.69,0,0,0,.26,0l.06,0,.07,0a.58.58,0,0,0,.16-.17,1.25,1.25,0,0,0,.34-1.09A.31.31,0,0,0,331.38,570.13Z" transform="translate(-223.6 -43.27)"/><path class="cls-2" d="M323.21,570.09l-.31-2,.09-1c0-.14-.1-.69-.17-1.31l-.73-.1-1.81.17h-.48l-.47.09-.47-.1-1.23-.16-.1-.05.22,1.64-.06,1.28s0,.35,0,.7a1.14,1.14,0,0,0,0,.42.58.58,0,0,0,0,.22.84.84,0,0,0,.31.23l.22.24a1.3,1.3,0,0,0,.45-.05,19.19,19.19,0,0,0,4.49.4Z" transform="translate(-223.6 -43.27)"/><path class="cls-2" d="M624.69,452.44l-1.14.07-.62-.07-.25,0-.51,0s-.55-.05-.55-.38a3.34,3.34,0,0,1,.23-.59l.4-.11.47,0a3.12,3.12,0,0,0,.43.1,1.34,1.34,0,0,0,.2,0h.23l.32,0,.21,0,.18-.05h.21c.68,0,.78.2.78.52C625.29,452.44,625.1,452.41,624.69,452.44Zm.11,1.67h-.45l-.77-.08-.55.07-.29,0-.47,0h-.08a.53.53,0,0,1-.52-.33.21.21,0,0,1,0-.11,1,1,0,0,1,.13-.4l.32-.22.7.06a3.43,3.43,0,0,1,.37-.05l.54,0,.45,0,.26.05.17-.06.29,0c.24,0,.51.26.51.48A.59.59,0,0,1,624.8,454.11Z" transform="translate(-223.6 -43.27)"/><path class="cls-2" d="M595,444.95H594l-.38,0h-.07c-.27,0-.58-.05-.84-.05s-.58.05-1,.05h-.46c-.31,0-.63-.2-.63-.39a.12.12,0,0,1,0-.06.59.59,0,0,1,.63-.37h.21l.72,0,.78,0,.73,0H594l.65,0,.28.06,0,.12.18-.12c.35,0,.64.22.64.41S595.41,444.95,595,444.95Z" transform="translate(-223.6 -43.27)"/><path class="cls-2" d="M625.62,444.25l-.39,0h-.39l-.14,0-.56,0c-.12,0-.22.08-.22.18h0l0,.3,0,.26,0,.42a1.91,1.91,0,0,1,0,.23c0,.64-.23.87-.53.87a.66.66,0,0,1-.58-.67,1.22,1.22,0,0,1,.07-.34l-.12-.5,0-.49a.16.16,0,0,0-.14-.15,2.2,2.2,0,0,0-.5.14l-.52-.08-.46,0h0a.48.48,0,0,1-.42-.51c0-.31.49-.59.95-.59h.65l.24,0,.27,0,0-.24.08-.17,0-.89V442a.54.54,0,0,1,.5-.48c.38,0,.52.4.52.74v.73c0,.1,0,.24.14.24s.54-.15.73-.15a1.69,1.69,0,0,1,.56.17l.42.12.14.5Z" transform="translate(-223.6 -43.27)"/><path class="cls-2" d="M650.78,448l-.22.11-.52,0a2.77,2.77,0,0,1-.31,0,1.12,1.12,0,0,1-.33,0L649,448c-.06,0-.14-.12-.24-.12h0c-.08,0-.09.07-.09.15v.12a.26.26,0,0,1,0,.15c-.1.15-.19.3-.36.3-.34,0-.58-.41-.58-.41a3.7,3.7,0,0,0,0-.43s0-.1,0-.15a2.69,2.69,0,0,1-.07-.43v-.34l-.1-.29-.09-1.21-.12-.34,0-1.1-.07-.3v-.85l0-1v0c0-.28.27-.41.52-.41s.44.1.44.28l0,1.16.06.24,0,.5,0,.71,0,.16c0,.15.08.19.18.19s.21-.24.37-.36a2.93,2.93,0,0,1,.61-.28s.52-.06.73-.06a1.38,1.38,0,0,1,.91.34l.18.07.17.29.12.1.16.34a4.78,4.78,0,0,1,.2,1C652,447.78,650.78,448,650.78,448Zm-.49-3.09c-.85,0-1.56.44-1.56,1a1.45,1.45,0,0,0,1.37,1.24.76.76,0,0,0,.28-.12l.22-.32.18-.16a1.19,1.19,0,0,0,.15-.41C650.93,446,650.9,444.92,650.28,444.92Z" transform="translate(-223.6 -43.27)"/><path class="cls-2" d="M657.16,447.71a.44.44,0,0,1-.16,0,1,1,0,0,1-.31-.06l-.34-.23-.72.15a6,6,0,0,1-.89.08c-.44,0-.68-.32-.95-.66a1.66,1.66,0,0,1-.4-.81,3,3,0,0,1,.71-1.73l.29-.38.19-.09a1.4,1.4,0,0,1,.63-.19c.16,0,.38.19.51.19a.07.07,0,0,0,.06,0l.22-.21a1,1,0,0,1,.3-.08c.23,0,.64.58.7,1.09l.05.38.21.9v.39l.13.34S657.31,447.65,657.16,447.71Zm-1.13-2-.2-.31-.1-.25c-.05-.12-.16-.15-.3-.15h-.26a1,1,0,0,0-.86.91,1.9,1.9,0,0,0,.15.4l.22.16.1.16c.06.09.28.1.34.1.58,0,1-.32,1-.8A.69.69,0,0,0,656,445.67Z" transform="translate(-223.6 -43.27)"/><path class="cls-2" d="M662,445.13l-.35-.37-.3-.16-.19,0H661l-.17.08-.22.09a2.09,2.09,0,0,0-.52,1.24.68.68,0,0,0,.43.59l1.37-.07h0a.67.67,0,0,1,.58.53c0,.18-.23.35-.62.51a1.66,1.66,0,0,1-.54.15,5.55,5.55,0,0,1-.56-.1h-.34c-.39,0-.52-.18-.87-.43l-.4-.35,0-.29-.11-.44,0-.26v-.24l.31-.95c.06-.23.78-.76.78-.76l.33-.22h.21a2.82,2.82,0,0,1,.37,0c.77,0,1.54.48,1.54.81v.47Z" transform="translate(-223.6 -43.27)"/><path class="cls-2" d="M668.72,444.65a.52.52,0,0,1-.42.25l-.82.06-.15,0h0c-.06,0-.11.08-.11.14s0,0,0,0l.34.43.36.6.11.29.52.82a1,1,0,0,1,.17.59c0,.27-.21.68-.55.68-.19,0-.37-.35-.51-.61l-.13-.28-.15-.21-.09-.3-.1-.13-.38-.67-.28-.37-.08-.29a.41.41,0,0,0-.4-.28.35.35,0,0,0-.36.29l-.07.37-.07.29,0,.55,0,.65c0,.48-.16.63-.48.63s-.25-.07-.44-.39a1,1,0,0,1-.14-.54,1.29,1.29,0,0,1,0-.21l.08-.37,0-.39.07-.71,0-.26.05-1.12.06-.33,0-2.18a.58.58,0,0,1,.59-.64.54.54,0,0,1,.49.49l0,.47-.12.51,0,.63-.06,1.08c0,.11,0,.14.11.14h.07l.31-.09.43,0L667,444a3.19,3.19,0,0,1,1.17-.23c.39,0,.82.13.82.3A2.12,2.12,0,0,1,668.72,444.65Z" transform="translate(-223.6 -43.27)"/><path class="cls-2" d="M650.12,450.57h0l-.42-.46-.14-.07a.44.44,0,0,0-.15,0,.36.36,0,0,0-.36.35c0,.07.09.15.16.18l.54.25.17.17.25.11a3.94,3.94,0,0,1,.33,1.12,1.49,1.49,0,0,1-.22.83l-.1.28-.62.31a1.45,1.45,0,0,1-.89.27,4.14,4.14,0,0,1-1.65-.43.78.78,0,0,1-.48-.69c0-.16.42-.43.42-.43l.27.06h.25l.45.22h.23a2.68,2.68,0,0,0,.56.16c.26,0,.79-.29.79-.61,0-.13-.16-.27-.38-.44-.77-.62-1.13-.64-1.13-1.17a2,2,0,0,1,.24-1l.4-.35.3,0a5.4,5.4,0,0,1,.71-.1c.54,0,1.18.56,1.18.85A.64.64,0,0,1,650.12,450.57Z" transform="translate(-223.6 -43.27)"/><path class="cls-2" d="M655.36,453.55a3,3,0,0,1-.85-.19l-.35-.08s-.21-.22-.37-.22-.17.12-.18.2v.13l-.07.26,0,.6,0,.18.11.78-.06.37v.26c0,.25-.39.56-.73.56-.15,0-.39-.25-.39-.25v-.26l0-.34s0-.24,0-.43c0-.41.07-1.15.09-1.32l0-.5v-.58l.07-.26v-.24l.1-.37v-.75l.08-.47,0-.38.06-.17v-.26h0a.57.57,0,0,1,.47-.53c.42,0,.25.53.57.53s.3-.21.95-.21a2.21,2.21,0,0,1,.78.12l.24,0,.28.18.28.11.26.6a2,2,0,0,1,.31,1.16A1.75,1.75,0,0,1,655.36,453.55Zm-.31-2.8c-.53,0-1.14.29-1.14.8a.84.84,0,0,0,.48.75l.58,0,.28.1a.73.73,0,0,0,.72-.71A.89.89,0,0,0,655,450.75Z" transform="translate(-223.6 -43.27)"/><path class="cls-2" d="M662.3,453.31a.44.44,0,0,1-.16,0,1,1,0,0,1-.31-.06l-.34-.23-.72.15a6,6,0,0,1-.89.08c-.44,0-.68-.32-.95-.66a1.66,1.66,0,0,1-.4-.81,3,3,0,0,1,.71-1.73l.29-.38.19-.09a1.4,1.4,0,0,1,.63-.19c.16,0,.38.19.51.19a.07.07,0,0,0,.06,0l.22-.21a1,1,0,0,1,.3-.08c.23,0,.64.58.7,1.09l.05.38.21.9v.39l.13.34S662.45,453.25,662.3,453.31Zm-1.13-2L661,451l-.1-.25c0-.12-.16-.15-.3-.15h-.26a1,1,0,0,0-.86.91,1.9,1.9,0,0,0,.15.4l.22.16.1.16c.06.09.28.1.34.1.58,0,1-.32,1-.8A.69.69,0,0,0,661.17,451.26Z" transform="translate(-223.6 -43.27)"/><path class="cls-2" d="M667.13,450.73l-.35-.37-.3-.16-.19,0h-.16l-.17.08-.22.09a2.09,2.09,0,0,0-.52,1.24.68.68,0,0,0,.43.59l1.37-.07h0a.67.67,0,0,1,.58.53c0,.18-.23.35-.62.51a1.66,1.66,0,0,1-.54.15,5.55,5.55,0,0,1-.56-.1h-.34c-.39,0-.52-.18-.87-.43l-.4-.35,0-.29-.11-.44,0-.26v-.24l.31-.95c.06-.23.78-.76.78-.76l.33-.22h.21a2.82,2.82,0,0,1,.37,0c.77,0,1.54.48,1.54.81v.47Z" transform="translate(-223.6 -43.27)"/><path class="cls-2" d="M672.51,451.72c-.55,0-1.22-.19-1.64-.19-.26,0-.41.08-.41.19a.22.22,0,0,0,0,.1,3.33,3.33,0,0,0,1,.73l.27.07.33,0,.17.16.25.16,0,.52-.16.15-.11.16a1.61,1.61,0,0,1-.34.1,3.08,3.08,0,0,1-1.21-.42l-.4-.24-.11-.19-.56-.64a1.68,1.68,0,0,1-.16-.53,2,2,0,0,1,.08-.46l0-.55a6,6,0,0,1,.14-.68,5.82,5.82,0,0,1,.85-.79,2.19,2.19,0,0,1,.54-.23l.24-.1.55-.05c.89,0,1.46.68,1.46,1.85A.87.87,0,0,1,672.51,451.72Zm-.55-1.82a1,1,0,0,0-.28.07l-.24.06H671c-.18,0-.28.22-.28.38a.25.25,0,0,0,.08.21.48.48,0,0,0,.25,0h.31l.32,0h.35c.35,0,.37-.11.37-.29A.58.58,0,0,0,672,449.89Z" transform="translate(-223.6 -43.27)"/><path class="cls-2" d="M643.51,507.88c-.55,0-1.22-.19-1.64-.19-.26,0-.41.08-.41.19a.22.22,0,0,0,0,.1,3.33,3.33,0,0,0,1,.73l.27.07.33,0,.17.16.25.16,0,.52-.16.15-.11.16a1.61,1.61,0,0,1-.34.1,3.08,3.08,0,0,1-1.21-.42l-.4-.24-.11-.19-.56-.64a1.68,1.68,0,0,1-.16-.53,2,2,0,0,1,.08-.46l0-.55a6,6,0,0,1,.14-.68,5.82,5.82,0,0,1,.85-.79,2.19,2.19,0,0,1,.54-.23l.24-.1.55-.05c.89,0,1.46.68,1.46,1.85A.87.87,0,0,1,643.51,507.88Zm-.55-1.82a1,1,0,0,0-.28.07l-.24.06H642c-.18,0-.28.22-.28.38a.25.25,0,0,0,.08.21.48.48,0,0,0,.25,0h.31l.32,0h.35c.35,0,.37-.11.37-.29A.58.58,0,0,0,643,506.05Z" transform="translate(-223.6 -43.27)"/><path class="cls-2" d="M650.31,508l0,.44c0,.13,0,.56,0,.56l-.26.22-.18.2s-.72-.1-.72-.43h0l0-.27,0-.29.06-.51v-.77c0-.08-.11-.56-.51-.56a1.54,1.54,0,0,0-.69.26l-.16.18-.33.23a1.74,1.74,0,0,1-.23.41,1.3,1.3,0,0,0-.08.57c0,.46.12.42.12.82s-.2.76-.59.76c-.22,0-.54-.39-.54-.39l0-.48,0-.33.07-.54-.05-1.62.08-.35,0-.33.11-.14.17-.29s.68.21.67.36l0,.25v0a.14.14,0,0,0,.13.14h0a.84.84,0,0,0,.25-.22l.24-.15a1.78,1.78,0,0,1,.88-.26,1.5,1.5,0,0,1,1.18.7,1.44,1.44,0,0,1,.37.71V507l.07.35Z" transform="translate(-223.6 -43.27)"/><path class="cls-2" d="M655.13,505.6c-.1.11-.2.25-.35.25h0l-.17,0-.27,0h-.19v.83l-.12.5,0,.64,0,.47.06.64-.06.29,0,.19-.14.25-.23.32-.15,0h-.3a2.06,2.06,0,0,1-.21-.61,1.79,1.79,0,0,1,.09-.47L653,508l.11-.33v-.22l0-.47v-.61l.06-.36-.06-.11-.75-.07a.36.36,0,0,1-.34-.4,4.07,4.07,0,0,1,.22-.69,3.48,3.48,0,0,0,.55.11c.16,0,.41,0,.41-.17h0l0-.48.06-.26,0-.18.07-.2s0-.05,0-.09a.59.59,0,0,1,.63-.64.41.41,0,0,1,.44.45s-.1.43-.11.49l0,.41,0,.33c0,.08,0,.16.12.16l.42,0a.74.74,0,0,1,.58.6C655.37,505.4,655.22,505.51,655.13,505.6Z" transform="translate(-223.6 -43.27)"/><path class="cls-2" d="M659.56,507.88c-.55,0-1.22-.19-1.64-.19-.26,0-.41.08-.41.19a.22.22,0,0,0,0,.1,3.33,3.33,0,0,0,1,.73l.27.07.33,0,.17.16.25.16,0,.52-.16.15-.11.16a1.61,1.61,0,0,1-.34.1,3.08,3.08,0,0,1-1.21-.42l-.4-.24-.11-.19-.56-.64a1.68,1.68,0,0,1-.16-.53,2,2,0,0,1,.08-.46l0-.55a6,6,0,0,1,.14-.68,5.82,5.82,0,0,1,.85-.79,2.19,2.19,0,0,1,.54-.23l.24-.1.55-.05c.89,0,1.46.68,1.46,1.85A.87.87,0,0,1,659.56,507.88Zm-.55-1.82a1,1,0,0,0-.28.07l-.24.06h-.4c-.18,0-.28.22-.28.38a.25.25,0,0,0,.08.21.48.48,0,0,0,.25,0h.31l.32,0h.35c.35,0,.37-.11.37-.29A.58.58,0,0,0,659,506.05Z" transform="translate(-223.6 -43.27)"/><path class="cls-2" d="M664.85,506.13c-.47.05-1,.24-1,.53l0,.24-.21.48a1.62,1.62,0,0,0,0,.31,7.78,7.78,0,0,0,.17,1.07c0,.29-.23.81-.6.81-.17,0-.34-.21-.42-.4l-.09-.24-.11-.24v-.57l0-.2v-.34l0-.27.08-.45-.05-.66-.11-.55,0-.62v0a.48.48,0,0,1,.52-.47c.19,0,.5.23.5.41V505l.06.18v.13l0,.11c0,.08.06.16.14.16.42,0,.66-.6,1.19-.6s.89.25.89.51S665.25,506.09,664.85,506.13Z" transform="translate(-223.6 -43.27)"/><path class="cls-2" d="M334.39,457.73l-1.29.06-1.3.16h0a.51.51,0,0,1-.47-.52.32.32,0,0,1,0-.1,2.62,2.62,0,0,1,.31-1.13l.26-.44.07-.29.48-.78.19-.47a3.08,3.08,0,0,0,.34-.53c0-.43-.19-.8-.46-.8l-.55,0-.17.16-.93.55c-.11.15-.44.57-.61.57a.61.61,0,0,1-.58-.6,1.54,1.54,0,0,1,.89-1.28l.49-.18.27-.15.39-.11.39-.12.19-.07.36,0,.55,0a1.67,1.67,0,0,1,.94,1.51c0,1.41-1.17,2.64-1.17,3.06a.19.19,0,0,0,.19.18l.44-.12h.27l.24-.07.73.09c.29.06.57.34.57.53C335.39,457.36,334.93,457.69,334.39,457.73Z" transform="translate(-223.6 -43.27)"/><path class="cls-2" d="M365.79,455.7l-1,.29-.25.18-.53.21-.25.19-.44-.12c-.27-.06-.43-.29-.53-.65l-.09-.34.22-.17.24-.15.89,0,.5-.3.88-.21.41-.44V454l.07-.39a1,1,0,0,0-.74-.31,1.35,1.35,0,0,1-.74-.35l-.09-.52.47-.31.31,0,.12-.15a1.1,1.1,0,0,0,.06-.36c0-.25-.71-.5-1.27-.5l-.26,0-.16.09-.38.09-.48.3a3,3,0,0,1-1,.35.67.67,0,0,1-.67-.63c0-.2.9-1,.9-1l1.56-.48a.65.65,0,0,1,.24,0c.8,0,2.68.66,2.68,1.54v.07l-.08.91.07.1c.17.16.72.68.72,1.15A2.35,2.35,0,0,1,365.79,455.7Z" transform="translate(-223.6 -43.27)"/><path class="cls-2" d="M396.89,454.71h-.08c-.24,0-.43-.12-.66-.12s-.11.06-.11.15,0,.25,0,.37.06.65.06.78a1.06,1.06,0,0,1-.92,1.06c-.28,0-.49-.11-.49-.54a2.39,2.39,0,0,1,.07-.5,3.71,3.71,0,0,0,.12-.92v-.19a.2.2,0,0,0-.21-.2h-.49l-.26.06-.42,0c-.54-.07-1-.83-1-.83l.28-.81,0-.31.2-.57v-.21l.1-.55c.1-.57.43-1,.82-1a.52.52,0,0,1,.56.49,2.25,2.25,0,0,1-.33.58L394,452.6l-.18.34-.08.32.15.08.25-.06s.64.13.72.13.33-.07.33-.2-.08-.3-.08-.48a.52.52,0,0,1,0-.13l.25-1v-.38c0-.42,0-.78.58-.78a.47.47,0,0,1,.48.5v.38l0,.45-.08.3a3,3,0,0,0-.15.77v0l0,.36.35.15.76,0h0c.31,0,.5.34.5.62C397.88,454.42,397.54,454.71,396.89,454.71Z" transform="translate(-223.6 -43.27)"/><path class="cls-2" d="M424,452.14l-.76,0-1.66-.06a4.7,4.7,0,0,0-.64-.15h-.08c-.18,0-.38,0-.39.13l0,.5-.09.24,0,.18.84,0h0a4.06,4.06,0,0,1,1.87,2.14,1.77,1.77,0,0,1-1.59,1.76l-.83.06a3.25,3.25,0,0,1-.59.15c-.45,0-.73-.26-.73-.54a.84.84,0,0,1,.55-.76l.8-.07.2-.09.68,0c.09-.1.28-.31.28-.47s-.19-.38-.27-.49l-.18-.06-.26-.15a1.07,1.07,0,0,0-.59-.24h-.12l-1,.16h0c-.3,0-.46-.42-.46-.57s.28-1.11.28-1.11l.16-.34,0-.18.06-1a.54.54,0,0,1,.49-.53l1,0,.4.17.53,0,.2-.06.65.08,1.28,0a.64.64,0,0,1,.64.63v0A.63.63,0,0,1,424,452.14Z" transform="translate(-223.6 -43.27)"/><path class="cls-2" d="M303.58,448a1.33,1.33,0,0,1-.46-.11l-.33-.15-.09-.2a1.09,1.09,0,0,1-.16-.46.93.93,0,0,1,1-.84.88.88,0,0,1,0,1.76Zm1-5.92,0,.79,0,.2-.07.41s-.17,2.18-.65,2.18a.76.76,0,0,1-.79-.83,1.31,1.31,0,0,1,0-.21l.24-.66v-.68l.15-.73v-.36l.2-.87V441a.62.62,0,0,1,.64-.55.64.64,0,0,1,.55.59A7.53,7.53,0,0,1,304.6,442.1Z" transform="translate(-223.6 -43.27)"/><path class="cls-2" d="M452.6,443.19a.63.63,0,0,1-.53.51c-.22,0-.28,0-.66-.27l-.18-.12-.12-.17L451,443a.26.26,0,0,0-.16-.09.18.18,0,0,0-.16.13l-.09.19-.15.23a.82.82,0,0,1-.67.3.47.47,0,0,1-.46-.44.34.34,0,0,1,.08-.23l.14-.19.13-.34.4-.53a.94.94,0,0,1,.71-.42,1.52,1.52,0,0,1,.85.51l.51.56.24.14.2.22A.21.21,0,0,1,452.6,443.19Z" transform="translate(-223.6 -43.27)"/><path class="cls-2" d="M481.95,440.84c-.12,0-.38-.18-.64-.25l-.45-.12-.47.28a1.16,1.16,0,0,0-.54.33s0,0,0,0a1.29,1.29,0,0,0,.06.27l.16.09h.33l.36.51-.27.62-.58.06-.29-.06-.2.11a.94.94,0,0,0-.46.85c0,.08,0,.22,0,.31l.13.21.1.15.12.08a.76.76,0,0,0,.48.22,1.38,1.38,0,0,0,.67-.2l.31-.2.16-.23.43-.24.45-.18a2.39,2.39,0,0,1,.4.46.73.73,0,0,1,0,.22c0,.16,0,.3-.12.34l-.17.16-.07.13-.47.44-.68.35a.43.43,0,0,0-.19.27l0,.12-.12.61,0,.25c0,.29,0,.46-.57.46a.63.63,0,0,1-.57-.67c0-.16,0-.72,0-.72l-.17-.18-.29-.12a2.6,2.6,0,0,1-.91-2,1.65,1.65,0,0,1,.44-1.27l.54-.62a2.14,2.14,0,0,1-.07-.3.09.09,0,0,1,0-.06c0-.1.07-.24.07-.31a.85.85,0,0,1,.29-.76l1-.81c.1-.09.09-.18.1-.31v-.65a.55.55,0,0,1,.57-.59c.25,0,.48.31.49.62v.26c0,.12-.08.19-.08.3s0,0,0,.06l0,.13c0,.09.16.15.22.16l.34.07a.89.89,0,0,1,.89.74A.61.61,0,0,1,481.95,440.84Z" transform="translate(-223.6 -43.27)"/><path class="cls-2" d="M510.78,442.33l-.62,0a3.19,3.19,0,0,0-.65-.1c-.13,0-.25,0-.25.11a.45.45,0,0,0,.11.22l.24.26V443a3.46,3.46,0,0,1,.31.6,1,1,0,0,1,0,.25.57.57,0,0,1-.63.57.5.5,0,0,1-.53-.31c-.08-.19-.19-.9-.31-.9s0,0-.06.06l-.18.38-.1.52s-.42.53-.73.53a.57.57,0,0,1-.53-.56c0-.53.72-.82.72-1.28,0,0,0-.19-.13-.19l-.07,0-.92.43a.75.75,0,0,1-.29.07c-.28,0-.52-.2-.52-.65,0-.21.2-.36.42-.48a2.06,2.06,0,0,1,1.05-.31l.43,0c.07,0,.11,0,.11,0a.09.09,0,0,0,0,0l-.09-.16-.17-.48-.1-.13-.1-.21a.59.59,0,0,1,0-.23.51.51,0,0,1,.57-.5c.52,0,.56,1.19.83,1.19s.7-1.25,1.1-1.25a.6.6,0,0,1,.55.5,1.53,1.53,0,0,1-.13.45l-.43.35a.16.16,0,0,0-.06.09.08.08,0,0,0,.08.07l.08,0,.16-.08.2-.08a.89.89,0,0,1,.35-.09.69.69,0,0,1,.64.73A.68.68,0,0,1,510.78,442.33Z" transform="translate(-223.6 -43.27)"/><path class="cls-2" d="M536.1,439.47l-.75.37-.29.3-.16.15a14.94,14.94,0,0,0-.9,1.81,6.46,6.46,0,0,0-.38,1.7l.25,1.71a10.63,10.63,0,0,0,.47,1c.19.35.83,1,.83,1.33v0a.59.59,0,0,1-.53.62,1,1,0,0,1-.52-.21l-.55-.55-.48-.93-.06-.31-.25-.55-.09-.87a5.45,5.45,0,0,1-.21-1,2.15,2.15,0,0,1,0-.27,6.19,6.19,0,0,1,0-.67l.38-1.18.16-.72.24-.47.13-.44.13-.13a3.92,3.92,0,0,1,.48-.68,3.86,3.86,0,0,1,2-1.35.51.51,0,0,1,.52.54A.83.83,0,0,1,536.1,439.47Z" transform="translate(-223.6 -43.27)"/><path class="cls-2" d="M566.94,443.15a9.71,9.71,0,0,1-.42,2.42,5.68,5.68,0,0,1-1.29,2c-.26.29-.22.47-.4.64a4,4,0,0,1-.4.21l-.22.15-.55-.24a1.72,1.72,0,0,1-.21-.55c0-.15.18-.29.31-.38A2.45,2.45,0,0,1,564,447a2.5,2.5,0,0,1,.35-.28l1.12-1.74.11-.78.19-.46c0-.09,0-.41,0-.66a4.65,4.65,0,0,0-.66-2.5,1.77,1.77,0,0,0-.72-.71l-.24-.19-.18-.12-.2-.27-.11-.08a.44.44,0,0,1-.12-.3.58.58,0,0,1,.55-.59,3.26,3.26,0,0,1,2.25,1.8,5,5,0,0,1,.58,2.13l.1.22Z" transform="translate(-223.6 -43.27)"/><path class="cls-2" d="M335.22,445.46a3.17,3.17,0,0,1-.82-.24h-.12l-.21.15a1,1,0,0,1-.61.32c-.45,0-.71-.32-1-.68a1.33,1.33,0,0,1-.28-.9,2.46,2.46,0,0,1,2.18-1.92c.34,0,.59,0,.7.39a.41.41,0,0,1,0,.19.49.49,0,0,1,0,.19l0,.22.07.13v.3l.06.24a.8.8,0,0,0,0,.16.09.09,0,0,0,0,.06v0s0,.07,0,.09a0,0,0,0,0,0,0,1.44,1.44,0,0,0,.92-1.38,1.4,1.4,0,0,0-.46-1l-.57-.13a3,3,0,0,0-.91-.35,2,2,0,0,0-1.6.53l-.33.41-.24.19a2.64,2.64,0,0,0-.4,1.4,2.8,2.8,0,0,0,1,2.16,1.22,1.22,0,0,0,.37.22l1,.09.67.29-.18.94h-.34l-.26.09-.46-.06a5.21,5.21,0,0,1-1.46-.48c-1.29-.81-1.46-2.23-1.46-3.93a4,4,0,0,1,1.28-2.2l.13-.2.34-.23.17-.19a3.5,3.5,0,0,1,1.27-.28c1.76,0,3.62.87,3.62,2.56C337.32,444,336.4,445.46,335.22,445.46Zm-1.21-2.2-.2.07-.28.09c-.1.12-.45.48-.45.68a2.2,2.2,0,0,0,.21.35l.26.15.35-.12a1.85,1.85,0,0,0,.26-.75A1.68,1.68,0,0,0,334,443.26Z" transform="translate(-223.6 -43.27)"/><path class="cls-2" d="M367.58,442.41h-.06l-.45-.06-.08.08-.06.16.06.12h.41a.74.74,0,0,1,.61.65.82.82,0,0,1-.85.77h-.28c-.09,0-.17,0-.17.15h0v.24l-.24.76-.06.91a.76.76,0,0,1-.74.73.57.57,0,0,1-.56-.65,1,1,0,0,1,.06-.33l.13-.54v-.26l.15-.69v0c0-.08,0-.12-.1-.12h0l-.36.09-.22,0h0c-.21,0-.24.52-.24.94v.35c0,.59-.2,1.13-.75,1.13-.38,0-.48-.31-.48-.69s.16-1,.16-1.27,0-.22-.09-.22h-.16l-.38,0a2.65,2.65,0,0,1-.85.25c-.63,0-.77-.22-.77-.48a.93.93,0,0,1,.42-.68H362l.21-.12.89-.1a.83.83,0,0,0,.71-.73c0-.09-.2-.1-.34-.1a8.9,8.9,0,0,0-1.26.17l-.16-.15s-.41-.18-.41-.37a.77.77,0,0,1,.7-.81l1.2-.09c.31,0,.38-.12.43-.29l.13-.4,0-.41.13-.26.09-.34c0-.26.36-.39.55-.39s.67.68.67.68l-.22.5-.06.39-.06.15a.42.42,0,0,0,.38.21h.08c.36,0,.43-.49.43-1.17s.07-1,.71-1a.56.56,0,0,1,.54.49,4.37,4.37,0,0,0-.21,1.3s0,.13.13.13h0l.57,0a.78.78,0,0,1,.66.67A.92.92,0,0,1,367.58,442.41Zm-1.73-.25a1.24,1.24,0,0,0-.45-.08.59.59,0,0,0-.43.12,1.35,1.35,0,0,0-.12.71,1.67,1.67,0,0,1-.06.37l.58-.07.34,0,.16-.27Z" transform="translate(-223.6 -43.27)"/><path class="cls-2" d="M397.82,441c0,.26-.11.52-.4.52a.85.85,0,0,1-.33-.09,2.69,2.69,0,0,0-1.83-.72,1.49,1.49,0,0,0-.85.41l0,.13.13.22.06.19,0,.08.2.11.22.26.58.25.72.43.24.34.45.44s0,.11,0,.28a1.92,1.92,0,0,1-.17.88,2.74,2.74,0,0,1-.81.55l-1,.11a.43.43,0,0,0-.31.29c-.22.48-.35,1.32-1.07,1.32a.47.47,0,0,1-.44-.49c0-.33.26-.53.36-.92a1,1,0,0,0,0-.2.23.23,0,0,0-.1-.21l-.27-.17-.24,0-.36-.25-.31-.53,0-.35a.53.53,0,0,1,.55-.5c.26,0,.35.27.59.45a2.11,2.11,0,0,0,1,.47,1.19,1.19,0,0,0,.3,0c.26,0,.56,0,.73,0s.13-.17.13-.25a.4.4,0,0,0-.17-.29l-.28-.25c-.29-.23-.7-.15-.91-.29a2.43,2.43,0,0,1-1.14-1.8,1.8,1.8,0,0,1,.71-1.34l.13-.19.56-.18.17-.17.22-.73c.12-.47.28-.56.59-.56a.61.61,0,0,1,.59.58.36.36,0,0,1,0,.11l-.06.18v.17l-.07.16,0,.09a.1.1,0,0,0,0,.06c0,.09.1.16.22.2l.53.19.19.17a2.66,2.66,0,0,1,.76.54A.85.85,0,0,1,397.82,441Z" transform="translate(-223.6 -43.27)"/><path class="cls-2" d="M418.91,443.48c-.92,0-1.45-.44-1.45-1.05a2.1,2.1,0,0,1,1.9-2.27,1.59,1.59,0,0,1,1.54,1.63A1.79,1.79,0,0,1,418.91,443.48Zm.39-2.2a.73.73,0,0,0-.7.73c0,.18.17.44.36.44a3.07,3.07,0,0,0,.48-.06l.25-.25a1.17,1.17,0,0,0,.1-.41A.48.48,0,0,0,419.31,441.28Zm3.3,1.27-.84,1.56-.27.34-.94,2.07-.2.56a.81.81,0,0,1-.58.48c-.24,0-.71-.27-.71-.58a.31.31,0,0,1,0-.1l.22-.74.63-1.08.82-1.61.43-.73.28-.57.17-.17.08-.25s.56-1,1.18-1a.52.52,0,0,1,.47.85Zm1.4,4.59a1.69,1.69,0,0,1-1.69-1.66c0-1,.7-2,1.58-2a2.49,2.49,0,0,1,.91.29,1.53,1.53,0,0,1,1.22,1.69A1.91,1.91,0,0,1,424,447.14Zm.52-2.44-.24-.06a1.1,1.1,0,0,0-.4-.2c-.19,0-.27.49-.27.49a1.61,1.61,0,0,0-.21.55.59.59,0,0,0,.59.53,2.39,2.39,0,0,0,.61-.16l.07-.3a.67.67,0,0,0,.18-.37C424.85,445.07,424.63,444.81,424.52,444.7Z" transform="translate(-223.6 -43.27)"/><path class="cls-2" d="M344.7,477.76l-.57.93-.23.29-.25.5-.54.66a10.48,10.48,0,0,0-.81.81c-.34.38-.65.93-.92.93a1.9,1.9,0,0,1-1-.5l-.34-.27-.05-.45-.12-.65-.3-.66-.11-.41a.14.14,0,0,0-.14-.11.5.5,0,0,0-.32.16,14.61,14.61,0,0,0-1.47,1.65c-.66.77-1.22,1.86-1.85,1.86-.2,0-.45-.38-.54-.5l-.16-.25-.09-.56-.39-1.24-.47-2.71-.12-1.06a4.14,4.14,0,0,1-.25-1.08v0c0-.3,0-.66.77-.66.22,0,.93,1,.93,1l.25.5v.36l.57,2.22c.13.47,0,.93.25.93s1.31-1.65,2.15-2.76c.41-.63.68-1.11,1.2-1.15l.74-.05.18.63.3.91.3,1.38c0,.2.07.39.27.43h0c.2,0,.39-.3.39-.3l.43-.56.13-.34,1.15-1.54a1.33,1.33,0,0,1,1-.45.72.72,0,0,1,.81.75C345.53,476.78,345,477.22,344.7,477.76Z" transform="translate(-223.6 -43.27)"/><path class="cls-2" d="M370.66,479.26c-1,0-2.17-.34-2.92-.34-.47,0-.74.14-.74.34a.39.39,0,0,0,.07.18,5.93,5.93,0,0,0,1.72,1.29l.48.13.59.05.31.29.45.29.07.93-.29.27-.2.29a2.87,2.87,0,0,1-.61.18,5.46,5.46,0,0,1-2.15-.75l-.72-.43-.2-.34-1-1.15a3,3,0,0,1-.29-.95,3.44,3.44,0,0,1,.14-.82l0-1a10.76,10.76,0,0,1,.25-1.22,10.44,10.44,0,0,1,1.51-1.4,3.87,3.87,0,0,1,1-.41l.43-.18,1-.09c1.58,0,2.6,1.22,2.6,3.3A1.55,1.55,0,0,1,370.66,479.26Zm-1-3.24a1.74,1.74,0,0,0-.5.13l-.43.11-.72,0c-.32,0-.5.39-.5.68a.44.44,0,0,0,.14.38.85.85,0,0,0,.45.07h.36l.2,0,.57.07.63,0c.63,0,.66-.2.66-.52A1,1,0,0,0,369.67,476Z" transform="translate(-223.6 -43.27)"/><path class="cls-2" d="M401,476.21c-.84.09-1.7.43-1.79.95l-.07.43-.38.86a3,3,0,0,0,0,.55,13.87,13.87,0,0,0,.3,1.9c0,.52-.41,1.43-1.06,1.43-.3,0-.61-.38-.75-.72l-.16-.43-.2-.43,0-1-.07-.36,0-.61-.05-.48.14-.81-.09-1.18-.2-1-.07-1.11v-.07a.85.85,0,0,1,.93-.84c.34,0,.88.41.88.73l0,.16.11.32v.23l.05.2c0,.14.11.29.25.29.75,0,1.17-1.08,2.12-1.08s1.58.45,1.58.91S401.7,476.14,401,476.21Z" transform="translate(-223.6 -43.27)"/><path class="cls-2" d="M431.25,476.36c-.18.2-.36.45-.63.45h-.05l-.3,0-.48.09-.34,0,0,1.47-.21.9.09,1.15-.05.84.11,1.15-.11.52,0,.34-.25.45-.41.57-.27-.05-.54,0a3.66,3.66,0,0,1-.38-1.09,3.2,3.2,0,0,1,.16-.84l-.09-1.63.2-.59,0-.39-.09-.84,0-1.09.11-.64-.11-.2-1.33-.12a.65.65,0,0,1-.61-.72,7.23,7.23,0,0,1,.39-1.24,6.14,6.14,0,0,0,1,.2c.29,0,.73,0,.73-.3v0l-.07-.86.11-.47,0-.32.13-.36s0-.09,0-.16a1,1,0,0,1,1.11-1.15.72.72,0,0,1,.79.81c0,.07-.18.77-.2.88l0,.74-.05.59c0,.14,0,.29.21.29l.75.07a1.32,1.32,0,0,1,1,1.07C431.68,476,431.41,476.2,431.25,476.36Z" transform="translate(-223.6 -43.27)"/><path class="cls-2" d="M460.92,476.84l-.22.63-.79,1.31-.16.47-.45.79-.09.48-.47,1-.14.41a8.07,8.07,0,0,1-1.08,2l-.21.77-.48.68a3.66,3.66,0,0,0-.54,1.25,1.29,1.29,0,0,1-1.09.66h-.14a.73.73,0,0,1-.79-.82,9.47,9.47,0,0,1,.61-1.58l.3-.66.29-.41.63-1.27.36-.36.32-.74a2.55,2.55,0,0,0,.34-1.15,3.22,3.22,0,0,0-1.49-2c-.18-.12-.38-.29-.47-.34l-.43-.21-.34-.48a2,2,0,0,1-.27-.73c0-1,.39-1.13.73-1.13l.32,0a7.88,7.88,0,0,1,1.69,1.43c.52.43.64,1.2,1.29,1.2l.13,0,.27-.27.23-.21,0-.21.86-1.9c.32-.66.77-1,1.17-1s.77.39.77,1.18A4.58,4.58,0,0,1,460.92,476.84Z" transform="translate(-223.6 -43.27)"/><path class="cls-2" d="M489.84,479.72l0,.36v.07c0,.38-.3.57-.72,1.5a9,9,0,0,1-.9,1.47l-.54.32-.57.41h-.61c-1.42,0-3.26-2-3.26-3.92v-.09l0-.75v-.61l.16-.3a1,1,0,0,1,1-.88c.47,0,.81.23.81.66l-.05,2.31a1.17,1.17,0,0,0,.38.86l.21.18.23.34a.57.57,0,0,0,.5.23c.59,0,.72-.79.72-.79l.54-.52.22-.68,0-1.5c0-.16.43-.93,1-.93l.11,0c.34.05.39.29.61.52a4.17,4.17,0,0,1,.29.43l.07.66Z" transform="translate(-223.6 -43.27)"/><path class="cls-2" d="M517.15,475.38H517a1,1,0,0,1-.88-.38l-.27-.48.14-.7.47-.45.38-.54.61.07a.88.88,0,0,1,.82,1A1.42,1.42,0,0,1,517.15,475.38Zm1.13,3.33.11,1.93-.11.45a5,5,0,0,0-.14.95,7.72,7.72,0,0,0,.14,1.11l-.09.45a1.25,1.25,0,0,1-1,1c-.61,0-.84-.32-.84-1.09,0-.11.11-.41.11-.65l-.05-1.11s-.11-.95-.11-1.92a5.47,5.47,0,0,1,.18-1.58l.16-.43.18-.52a1.08,1.08,0,0,1,.84-.59c.59,0,.68.74.68.74l.09.32Z" transform="translate(-223.6 -43.27)"/><path class="cls-2" d="M546.59,481.6a5.75,5.75,0,0,1-2.78-.75l-.54-.23-.52-.86a2.74,2.74,0,0,1-.48-1.72,4.16,4.16,0,0,1,3.64-3.58l.21,0,.75.07.39.29.66.27.29.38s1.81,1.63,1.81,2.67C550,479.67,547.56,481.6,546.59,481.6Zm1.49-4.08-.14-.27-.38-.18-.52-.59-.7-.11-.59-.23s-1.85.3-1.85,2c0,.91,1.56,1.61,2.42,1.61.57,0,1.88-.57,1.88-1.38,0,0,0-.09,0-.12Z" transform="translate(-223.6 -43.27)"/><path class="cls-2" d="M577.9,481.45a5.27,5.27,0,0,1-1.51-.34l-.63-.14s-.38-.39-.66-.39-.3.21-.32.36l0,.23-.13.47,0,1.08-.09.32.2,1.38-.11.66,0,.43v0c0,.45-.7,1-1.29,1-.27,0-.7-.45-.7-.45l0-.47,0-.61s0-.43.05-.77c.05-.74.13-2,.16-2.35l.05-.9v-1l.13-.47v-.43l.18-.66v-1.33l.14-.84,0-.68.11-.3,0-.47v0a1,1,0,0,1,.84-1c.75,0,.45,1,1,1,.34,0,.54-.38,1.69-.38a3.9,3.9,0,0,1,1.38.22l.43.09.5.32.5.2.47,1.08a3.6,3.6,0,0,1,.56,2.06A3.11,3.11,0,0,1,577.9,481.45Zm-.56-5c-.93,0-2,.52-2,1.42a1.49,1.49,0,0,0,.86,1.33l1,0,.5.18a1.3,1.3,0,0,0,1.27-1.27A1.59,1.59,0,0,0,577.34,476.47Z" transform="translate(-223.6 -43.27)"/><path class="cls-2" d="M352,506.25H352l-.75-.82-.25-.12a.74.74,0,0,0-.27-.07.64.64,0,0,0-.65.63c0,.13.16.27.29.32l1,.45.3.3.45.2a7,7,0,0,1,.59,2,2.66,2.66,0,0,1-.39,1.47l-.18.5-1.09.56a2.58,2.58,0,0,1-1.58.48,7.32,7.32,0,0,1-2.94-.77,1.39,1.39,0,0,1-.86-1.22c0-.29.75-.77.75-.77l.48.11.45,0,.81.39.41,0a4.77,4.77,0,0,0,1,.29c.47,0,1.4-.52,1.4-1.09,0-.23-.29-.48-.68-.79-1.36-1.11-2-1.15-2-2.08a3.51,3.51,0,0,1,.43-1.79l.72-.63.54-.09a9.58,9.58,0,0,1,1.25-.18c1,0,2.1,1,2.1,1.5A1.14,1.14,0,0,1,352,506.25Z" transform="translate(-223.6 -43.27)"/><path class="cls-2" d="M382.33,505.75a14.83,14.83,0,0,1,.16,1.68,15.35,15.35,0,0,1-.23,2.1l0,1.7-.07.88-.36.39c-.11.18-.34.48-.57.48a.94.94,0,0,1-.93-.7l-.14-.77a1,1,0,0,0,0-.16s0-.05,0-.05a10,10,0,0,1-2.22.45,3.09,3.09,0,0,1-3.12-3.08c0-.34.16-1.31.16-1.31l.47-1,.45-.38a6,6,0,0,1,1.09-.91,4.07,4.07,0,0,1,2.26-.68l.79,0,.3,0h.07c.22,0,.27-.16.27-.34s0-.11,0-.16l-.11-.66,0-.91s.23-2.9,1.13-2.9c.63,0,.72.7.72,1.16,0,.18,0,.3,0,.38,0,.59.14,1.43.14,3C382.53,504.34,382.37,505.49,382.33,505.75Zm-1.76,1.54c0-.27-.38-.55-.38-.55l-.32-.34h-.77a2.47,2.47,0,0,0-2.42,2.2,1.27,1.27,0,0,0,1.34,1.31,2.19,2.19,0,0,0,1.54-.59.8.8,0,0,0,.25-.39l.29-.57.09-.34.23-.29.13-.32A.23.23,0,0,0,380.58,507.29Z" transform="translate(-223.6 -43.27)"/><path class="cls-2" d="M411.19,502.93a1.13,1.13,0,0,1-.68-.36l-.32-.16-.3-.5c-.07,0-.18-.07-.21-.07-.88,0-1.47,2.11-1.47,4.33,0,.18,0,.34.22.39l.57.18,1.11,0a.86.86,0,0,1,.84.82,1,1,0,0,1-.77.88,1.46,1.46,0,0,1-.7.43c-.32,0-.77-.09-1.13-.09-.54,0-.63.13-.63.9V510l.05,1.88.09.91-.43.27-.3.32-.52-.07-.59,0-.13-.68-.14-.39.2-1v-.63l.13-.36L406,510l.07-.95c0-.14,0-.23,0-.3s0-.12-.11-.12l-1,0-.91-.39a1,1,0,0,1-.56-.86c0-.3.29-.81.63-.81h.05l.45.09.3-.05.63.09.38,0a.3.3,0,0,0,.3-.29v-.05l-.07-.36s0-.09,0-.12a2.64,2.64,0,0,1,.25-.82,12,12,0,0,1,.27-2.1,5.89,5.89,0,0,1,.56-1.22l.39-.81.39-.23a4.08,4.08,0,0,1,1.52-.59c1.08,0,2.42.84,2.42,1.81C412,502.36,411.73,502.93,411.19,502.93Z" transform="translate(-223.6 -43.27)"/><path class="cls-2" d="M440.62,504.33l-.59.77a5,5,0,0,1-.77.39,3.27,3.27,0,0,1-1,.36h0l-1.43-.07a3.2,3.2,0,0,0-.23,1l.07,1.09a.23.23,0,0,0,.18.25l.47.2.52.52c1.88,1.54,2.31,2.08,2.31,3.53,0,2.17-1.6,3.4-4.27,3.4a5,5,0,0,1-3-1.06l-1.22-1.08-.14-.72a5.16,5.16,0,0,1-.18-1.22,3.07,3.07,0,0,1,2.26-3.26l1.13-.56,0-.36,0-.52.13-.68,0-.39.13-.81v0c0-.23-.68-.68-.77-.75l-.86-1.15-.18-1.22.25-1,.22-.2.09-.27.61-.65a2.7,2.7,0,0,1,2.24-1.06,11.86,11.86,0,0,1,1.56.54l1.08.29c.88.23,1.7,2,1.7,3.76A1.21,1.21,0,0,1,440.62,504.33Zm-2.4,7.83,0-.54a5.88,5.88,0,0,0-2.67-2.06,5.23,5.23,0,0,0-1.7.56l-.23.36-.57.57-.05.41a1,1,0,0,0,0,.23c0,1.49,2,2.51,3.25,2.51s2.17-.68,2.17-1.34a.48.48,0,0,0,0-.16ZM437.82,501l-.25,0-.41,0-.43-.16-.3-.11a.53.53,0,0,0-.16,0c-.52,0-1.2.95-1.2,1.49,0,.93,1.2,1.86,2.65,1.86.9,0,1.38-.5,1.38-1.2A1.94,1.94,0,0,0,437.82,501Z" transform="translate(-223.6 -43.27)"/><path class="cls-2" d="M468.28,511.45c0,.77-.57,1.63-1.27,1.63a.9.9,0,0,1-.81-.84,15.42,15.42,0,0,1,.27-2.22l-.11-.48v-.7l-.11-.38a1.4,1.4,0,0,0-1.29-.9c-.09,0-.27,0-.45,0a.84.84,0,0,0-.57.18,5.29,5.29,0,0,0-.75.82l0,.45-.25,1.06-.14,2.1a.86.86,0,0,1-.84.82c-.65,0-.9-.23-.9-1.13v-.72l.09-.39,0-.88.09-.79-.07-.36.14-3c0-.48.07-1,.07-1.52s-.11-1.11-.11-1.83.16-2.08,1-2.08c.41,0,.88.61.93,1l0,.43-.07.36.07.43-.07.46,0,2,0,.86c0,.13.16.23.3.23a.15.15,0,0,0,.13,0l.25-.18.56-.13.82-.23.56.18a2.43,2.43,0,0,1,2,1.74,11.51,11.51,0,0,1,.57,3.17l0,.88Z" transform="translate(-223.6 -43.27)"/><path class="cls-2" d="M495.08,506.4l0,2.06-.16.63,0,1.4-.11.54.07.52-.09,1.85-.16.57-.07,1.38a1.44,1.44,0,0,1-1.11,1c-.39,0-.88-.91-.88-1.42a9.48,9.48,0,0,1,.3-1.63l.14-1.45.18-.43-.05-1,.05-3.31v-.68a3.61,3.61,0,0,1,.07-.9c.14-.57.21-.88.25-1l-.05-.25,0-1.27a.74.74,0,0,1,.79-.7,1.12,1.12,0,0,1,.79.48.57.57,0,0,1,.11.39c0,.23-.05.54-.05,1a3,3,0,0,0,0,.38l0,.34.07.52Zm.09-6.92-.16.38-.65.29a3.67,3.67,0,0,1-.38.05c-.34,0-1.08-.79-1.08-1.54,0-.54.63-.95,1.17-.95a1.27,1.27,0,0,1,1.27,1.15A2.28,2.28,0,0,1,495.17,499.48Z" transform="translate(-223.6 -43.27)"/><path class="cls-2" d="M527.1,506.3a.93.93,0,0,1-.75.45l-1.45.11-.27-.05h0c-.11,0-.2.14-.2.25s0,.05,0,.07l.61.77.65,1.07.2.52.93,1.45a1.71,1.71,0,0,1,.3,1.06c0,.48-.38,1.22-1,1.22-.34,0-.66-.63-.92-1.09l-.23-.5-.27-.38-.16-.54-.18-.23-.68-1.2-.5-.66-.14-.52a.73.73,0,0,0-.72-.5.63.63,0,0,0-.65.52l-.12.66-.13.52,0,1-.07,1.17c0,.86-.29,1.11-.86,1.11-.34,0-.45-.12-.79-.7a1.81,1.81,0,0,1-.25-1,2.27,2.27,0,0,1,0-.38l.14-.66,0-.7.13-1.25-.05-.47.09-2,.11-.59-.05-3.89a1,1,0,0,1,1.06-1.15,1,1,0,0,1,.88.88l.05.84-.22.91,0,1.13-.11,1.92c0,.2.07.25.2.25l.13,0,.56-.16.77,0,.77-.32a5.69,5.69,0,0,1,2.08-.41c.7,0,1.45.23,1.45.54A3.76,3.76,0,0,1,527.1,506.3Z" transform="translate(-223.6 -43.27)"/><path class="cls-2" d="M552.71,503.21v.38l-.11.7-.05,2.35-.16,1.2-.07,1.56v.9l-.14.45-.07.7c-.09.66-.59,1.43-1.18,1.43-.38,0-.86-.82-.86-1.49,0-.47.32-1.25.36-1.72l.05-1.27,0-.54.3-1.36.05-2.26.16-.79,0-.77a4.42,4.42,0,0,0,.22-.81c0-.14,0-.39,0-.61v-.39l.16-.57.05-.38a.88.88,0,0,1,.92-.63c.56,0,.65,1.74.65,1.74Z" transform="translate(-223.6 -43.27)"/><path class="cls-2" d="M363.63,534.44l-.2.39-.65.59-.39.68c-.11.21-.25.32-.25.54,0,.39.65,1.06.65,1.06l.14.3.66.48.07.66s0,1.22-.86,1.22c-.5,0-1.34-.73-1.34-.73l-.14-.45-.45-.66-.29,0-1,1.67c-.27.47-.68.81-1,.81a1,1,0,0,1-.93-1.15,1.1,1.1,0,0,1,.13-.52l.41-.7.32-.59.27-.25.3-.48.11-.45.13-.23a13,13,0,0,1-1.9-2.08.62.62,0,0,1-.13-.36,1.26,1.26,0,0,1,.21-.57,1,1,0,0,1,.93-.54c.25,0,1,.73,1.4,1.34.29.39.56.79.84.79s.47-.47.7-.91c.57-.95,1.49-2,2.12-2a.86.86,0,0,1,.77.93.81.81,0,0,1-.18.54Z" transform="translate(-223.6 -43.27)"/><path class="cls-2" d="M390.82,535.92l-.63-.66-.54-.29-.34.05-.29,0-.3.14-.39.16a3.73,3.73,0,0,0-.93,2.2,1.2,1.2,0,0,0,.77,1.06l2.44-.13h0a1.18,1.18,0,0,1,1,.95c0,.32-.41.63-1.09.91a3,3,0,0,1-1,.27,9.83,9.83,0,0,1-1-.18l-.61,0c-.7,0-.93-.32-1.54-.77l-.72-.63-.07-.52-.2-.79.07-.47,0-.43.56-1.68c.11-.41,1.38-1.36,1.38-1.36l.59-.39h.38a5.12,5.12,0,0,1,.66-.07c1.36,0,2.74.86,2.74,1.43v.84Z" transform="translate(-223.6 -43.27)"/><path class="cls-2" d="M421.4,537.75l-.7.82-.23.43-.47.48-.32.45-.2.18-.47.57a1.39,1.39,0,0,1-.82.47c-.45,0-1.4-1-1.79-2a12.16,12.16,0,0,0-1.56-2.47l-.23-.36-.38-.27-.12-.63s.3-1,1-1c.48,0,1.68,1.34,2.38,2.67.22.39.27,1,.48,1s.34-.21.34-.21l.39-.13a3.67,3.67,0,0,0,1.61-1.63l.63-1.15.36-.21a1.18,1.18,0,0,1,.72-.41.87.87,0,0,1,.84.91C422.85,535.84,422.78,536.12,421.4,537.75Z" transform="translate(-223.6 -43.27)"/><path class="cls-2" d="M448.8,541.29l-.39.2-.93.07a4.73,4.73,0,0,1-.56,0,2,2,0,0,1-.59-.07l-.61-.2c-.11,0-.25-.21-.43-.21h0c-.14,0-.16.13-.16.27v.21a.45.45,0,0,1-.05.27c-.18.27-.34.54-.65.54-.61,0-1-.73-1-.73a6.58,6.58,0,0,0,.05-.77c0-.09,0-.18,0-.27a4.82,4.82,0,0,1-.13-.77v-.61l-.18-.52-.16-2.15-.21-.61-.09-2-.12-.54,0-1.5-.07-1.77v-.05c0-.5.48-.73.93-.73s.79.18.79.5l0,2.06.11.43.05.9,0,1.25.05.29c.05.27.14.34.32.34s.38-.43.66-.65a5.1,5.1,0,0,1,1.08-.5s.93-.11,1.29-.11a2.45,2.45,0,0,1,1.61.61l.32.13.3.52.21.18.29.61a8.47,8.47,0,0,1,.36,1.81C450.92,540.88,448.8,541.29,448.8,541.29Zm-.88-5.5c-1.51,0-2.78.79-2.78,1.86a2.59,2.59,0,0,0,2.44,2.2,1.36,1.36,0,0,0,.5-.21l.39-.57.32-.29a2.13,2.13,0,0,0,.27-.73C449.07,537.64,449,535.79,447.92,535.79Z" transform="translate(-223.6 -43.27)"/><path class="cls-2" d="M480.42,537.28l-.05.79c0,.23.09,1,.09,1l-.47.39-.32.36s-1.27-.18-1.27-.77v0l0-.48-.09-.52.11-.91v-1.36c0-.14-.2-1-.91-1a2.77,2.77,0,0,0-1.22.47l-.29.32-.59.41a3.12,3.12,0,0,1-.41.73,2.32,2.32,0,0,0-.14,1c0,.82.21.75.21,1.45,0,.52-.36,1.34-1.06,1.34-.39,0-1-.7-1-.7l.07-.86-.07-.59.13-1-.09-2.88.14-.63,0-.59.2-.25.3-.52s1.2.38,1.18.65l0,.45v0a.24.24,0,0,0,.23.25.06.06,0,0,0,.05,0,1.48,1.48,0,0,0,.45-.39l.43-.27a3.15,3.15,0,0,1,1.56-.47,2.66,2.66,0,0,1,2.1,1.24,2.56,2.56,0,0,1,.66,1.27l0,.32.13.63Z" transform="translate(-223.6 -43.27)"/><path class="cls-2" d="M510.35,541.22c-.32,0-.72-.72-.77-1.31l-.05-.63a8.48,8.48,0,0,0,.13-.93c0-.3.05-.61.05-.9a1,1,0,0,0-.29-.75,1.48,1.48,0,0,0-.81-.45.17.17,0,0,0-.16.07l-.23.27-.39.2-.14.2-.09.3-.29.34.05,1.86v.07a1.18,1.18,0,0,1-1,1.27.91.91,0,0,1-.9-.79l0-.56-.18-.57.07-1.5v-.12c0-.86-.18-1.58-.68-1.58-.16,0-.47.27-.47.27l-.32.14-.2.57a2.46,2.46,0,0,0-.5,1.08c0,.79.36,1.58.36,2.28s-.72,1.61-1.13,1.61a.93.93,0,0,1-.54-.3l-.38-.27-.09-.54-.07-.57.16-.95-.11-1.72.16-.7,0-1,.11-.39.13-1.34a1,1,0,0,1,1-1c.47,0,.65.79.7,1.27a2.33,2.33,0,0,0,.68-.14c.56-.23.61-.32,1-.32s1.11,1,1.45,1.27a.39.39,0,0,0,.23.11.5.5,0,0,0,.27-.12l.74-.59,1.24-.23h.09c.65,0,1.74,1.33,1.74,1.33l.32.43.07.54.2.7.05,2.6C511.53,540.06,510.87,541.22,510.35,541.22Z" transform="translate(-223.6 -43.27)"/></svg>