<svg id="moederbord" xmlns="http://www.w3.org/2000/svg" viewBox="0 0 500.28 691.54"><defs><style>.cls-1{fill:#2d2e83;}.cls-2{fill:#fff;}.cls-3{fill:#007bc4;}.cls-4{fill:#951b81;}.cls-5{fill:#f39200;}.cls-6{fill:#ffe400;}.cls-7{fill:#008d33;}.cls-8{fill:#9abd36;}.cls-9{fill:#ee7b0f;}.cls-10{fill:#e6007e;}.cls-11{opacity:0.24;}.cls-12{opacity:0.25;}.cls-13{fill:#008d36;}.cls-14{fill:#95c11f;}.cls-15{fill:#e84e0f;}</style></defs><title>laptop-in</title><path class="cls-1" d="M720.84,385.75c-23.3,3.25-71.89,0-90,1.1s-88.23.14-132.37-.32c-57.95-.61-115.63-.42-173.49-.52-13.83,0-27.72,1-41.53,1.22-13,.22-45.58,1.77-57.62.76-1.51-17.56-.84-23.62-.91-39.29-.1-21.31-.53-42.62-.27-63.93.38-30.9,1.59-61.75,1.9-92.66.33-32.26-4.49-70.68,7.72-101.32C256.12,36,316.83,43.6,365.39,43.65c46.19.05,92.39.85,138.55.49,34.81-.28,68.54.26,103.4,0,42.24-.3,91.8-2.62,107.61,46.78,17.28,54,4,120.82,4.62,177Z" transform="translate(-223.6 -43.27)"/><path class="cls-1" d="M721.36,633.65c-.83-81.37,1.57-162.75-.27-244.09-15.22,1.1-40.24.81-56.88.93-35.47.24-71,.69-106.44.51-37.33-.19-74.71-1.61-112-1.16-73.51.87-147.16,1.21-220.72,2.37,0,71.61-1.3,143.25-1.14,214.84.08,33.58-4.14,72.83,17.85,100.54C273,747,351.09,731.92,397.85,732.25c66.34.46,133.95,1.18,200.67.24,25.7-.36,60.14,5.3,84.47-2.63,42.6-13.88,38.86-60.65,38.37-96.2" transform="translate(-223.6 -43.27)"/><path class="cls-2" d="M701.37,217.48c-.71-36.39,10.6-95.22-10.91-126.85C663.32,50.71,592.3,65.13,550.37,63.58c-67.11-2.48-134.57.15-201.73-1.08-38.85-.71-83.94-5.18-96.52,40.21-7.46,26.93-2.6,58.66-2.66,86.69-.07,33.22-.32,68.29-.24,102.46.11,46.78,8.9,73.47,59.61,72.49,73.08-1.41,146.23-.88,219.33-1.7,38.34-.43,78.69,4.77,116.75,1,20.37-2,38.55-8.65,48.73-27.17C710.88,305.15,700,251.73,701.37,217.48Z" transform="translate(-223.6 -43.27)"/><path class="cls-3" d="M699.62,600.84c-.31-9.19-2.86-6.8-11.71-6.86-6.33,0-12.66-.09-19-.09-8.3,0-16.63.25-24.93.17-22.43-.22-46.36-15-57.86-34.64-15.37-26.28-8.09-52.45-10.72-81-.69-7.49.68-6.9-7.37-7.37-9.2-.54-18.53-.15-27.73,0-45.15.53-90.37.71-135.51,0-45.79-.7-92.52-1.85-138.22.5-4.71.24-16.19.87-20.65,2.09-3,6.49-1.52,28.76-1.77,36.93-.93,30-.74,60.11-.77,90.18,0,38.8-13.06,105.55,42.58,107.47,73.16,2.52,150.38.58,223.89.7,44.88.08,90.51,0,135.71,0,24.24,0,49.69.58,53.9-29.67,1.7-12.23-.25-26-.1-38.46.16-13.28.69-26.61.24-39.89" transform="translate(-223.6 -43.27)"/><path class="cls-3" d="M649.76,466.84c23.5-.32,43.61,16.59,50.74,38.51,6.57,20.18-2.22,37.32-17.67,50.39-16.93,14.32-37.62,14.31-56.38,3.78-17.62-9.89-27.56-26.77-27.8-47-.15-12.85,7.47-23.11,16.77-31.28,10.28-9,20.92-12.49,34.34-14.41" transform="translate(-223.6 -43.27)"/><path class="cls-2" d="M319.41,595.6a15.19,15.19,0,0,1,.65,3.81c.2,2.23.26,4.47.3,6.7.11,7.13-.09,14.26-.34,21.38-.13,3.81.08,7.64.1,11.45,0,2.13,0,4.28-.09,6.41a4.15,4.15,0,0,1-.18,1.66c-.2.32-.31.23-.78.19-1-.07-2-.1-3.06-.1-4.88,0-9.75-.18-14.62-.17s-9.71.2-14.56.16-9.64-.13-14.46-.17c-2.41,0-4.82.1-7.23.07-.3,0-1.28.07-1.52-.15s-.06-.47-.07-.61c-.05-.7-.07-1.42-.07-2.12,0-8.87,0-17.76.37-26.62.06-1.44-.15-2.89,0-4.34a49.93,49.93,0,0,0,0-5.67c-.08-1.75.08-3.5.07-5.25,0-2.06-.09-4.13-.15-6.2,0-1-.31-1.21.69-1.24.79,0,1.59,0,2.39,0,2,0,3.91,0,5.86,0,4.84.06,9.69.19,14.53.23,8.58.07,17.16.11,25.73.34,1.07,0,2.15.13,3.22.11a10.69,10.69,0,0,1,3.22.13" transform="translate(-223.6 -43.27)"/><path class="cls-2" d="M390.83,599.33c5-.78,10.25-.7,15.31-.79,10.2-.18,20.39-.12,30.59,0,9.17.08,18.34.31,27.51.28,7.63,0,15.26-.1,22.9-.1,3.42,0,6.84,0,10.26.08,1.05,0,2.1,0,3.15.11a3.33,3.33,0,0,1,.89.08c.06,0,.2,0,.24,0,.24.23-.1,1.59-.14,1.92-.17,1.8-.07,3.62-.15,5.43s-.21,3.78-.26,5.68c-.1,3.8,0,7.61.13,11.4s.07,7.64-.13,11.51c-.19,3.71-.14,7.47-.14,11.19,0,.94.74,3.83-.21,4.35-.45.24-1.32,0-1.81,0s-1,0-1.5.06c-2.76.08-5.52,0-8.27,0-7.67,0-15.34,0-23,0s-15.53-.13-23.29-.19c-1.76,0-3.52-.06-5.28-.09-1.37,0-2.74.15-4.11.09-2.4-.11-4.89-.2-7.29-.1-3.27.13-6.54,0-9.82,0-3.07.07-6.15,0-9.22,0-3.34-.06-6.68,0-10,0l-5.6.07c-.4,0-2.14.25-2.38,0s-.16-1.15-.17-1.53c0-1.31.1-2.6.09-3.91,0-1.81,0-3.53.16-5.34.33-3.75.21-7.56.28-11.32s.11-7.49.11-11.23c0-2.73.43-5.36.59-8.07.1-1.72,0-3.4.18-5.12.15-1.35-.44-3.33.37-4.5" transform="translate(-223.6 -43.27)"/><path class="cls-2" d="M510.85,515.31c-.72-.18-5.22-.26-6.69-.28-4.38-.05-8.75,0-13.13,0-7.95,0-15.89.14-23.84.1-13.09-.06-26.18-.34-39.28-.36-9.36,0-33.92.81-34.1.87-.55.2-.64.76-.67,1.35,0,.85-.18,4.7-.18,5.8,0,2-.83,25.13-.86,29.59,0,2.18-.42,10.18-.46,12,0,.71,0,1.42,0,2.13s-.09,1.07.82,1.06c2.24,0,26-.06,29.6-.14,2.09,0,4.16,0,6.24.07,1.61.09,3.22-.08,4.83,0,1.27.06,7.12.07,7.22-.06s0-1,0-1.18c-.11-3.73,0-7.38.06-11.11,0-.91,0-1.79,0-2.69,0-.64-.2-2.09.15-2.63s12.9-.67,14-.67c.62,0,1.9-.14,2.18.51s0,10.22-.06,12.44c0,1.09,0,2.18,0,3.27,0,.5,0,.92,0,1.42a3.48,3.48,0,0,0,0,.73c.09.11,5.35.12,7.58.14,4.57,0,30.44.09,38.8.13,1.35,0,2.71,0,4.06-.05.7,0,2.7,0,2.8-.07.3-.22.12-3.17.1-4,0-1.11,0-2.22,0-3.33,0-2.22.33-17.89.24-20.15-.17-4.4-.28-8.81-.08-13.2.1-2.18.74-11.51.52-11.64" transform="translate(-223.6 -43.27)"/><path class="cls-2" d="M314.57,559.34a13.6,13.6,0,0,1-3.9.69c-2.31.2-4.64.24-7,.25-6,0-12.08-.4-18.11-.37-4.29,0-8.57.2-12.86.08a20.88,20.88,0,0,1-2.29-.13c-.86-.12-.72-.33-.67-1.15.24-4.12.14-8.3.19-12.42.1-8.4-.14-16.79,0-25.19.07-4.18.18-8.4,0-12.58a20.5,20.5,0,0,1,0-2.94c.09-.81.45-.59,1.24-.63,1.6-.09,3.21,0,4.82,0,8,0,16,.22,24,.34,3.39.05,6.82-.08,10.22-.06,1,0,2,0,3,0,.54,0,1.77-.27,2,.15s0,1.34,0,1.76c0,.68,0,1.36,0,2-.16,8-.2,16.1-.24,24.15,0,7,0,13.94-.31,20.9-.07,1.66.26,3.53-.17,5.15" transform="translate(-223.6 -43.27)"/><path class="cls-2" d="M686,513.87c-1.23-.23-6-.35-7.11-.42-2.71-.18-12.2-.17-12.68-.38s-.8-1.14-1.12-1.63a24,24,0,0,0-6.94-6.88,36,36,0,0,0,5.23-4.29,24.87,24.87,0,0,0,2.45-3.24,21.46,21.46,0,0,0,.31-6.24,21.77,21.77,0,0,0-1.62-3.91,16.67,16.67,0,0,0-2.86-3.68,23.08,23.08,0,0,0-8.09-4.27,20.35,20.35,0,0,0-4.14-.62c-.35,0-.86.86-.87,1.08,0,.73-.59,13.23-.7,15.9-.07,1.8-.55,7.52-1,7.64a29.24,29.24,0,0,0-5.89,2.11,23.33,23.33,0,0,0-7.31,7.33,30.21,30.21,0,0,0-3.06-2.25,8.34,8.34,0,0,0-3.49-1.34c-1-.2-5.87.29-6.9,1s-5.57,3.79-6.38,4.9c-1.61,2.19-4.2,9.26-4.27,10.29,0,.68,2.21.9,3,1,1.67.2,13.65.68,17.92.68.91,0,3.34,0,3.56.1.42.16.78,1.06,1,1.46a13.08,13.08,0,0,0,2.78,3.3,29.74,29.74,0,0,0,3.23,2.32c-1.89,1.55-4.09,3.1-5,5.46-.39,1-.38,5.42.24,6.43s1.2,2.16,1.85,3.22,6.8,5.43,9.35,6c.33.07,1.89.51,2.18.27s2.41-17.26,2.46-17.69c.09-.69.13-.66.81-.72a14.18,14.18,0,0,0,3.94-1.32,19.59,19.59,0,0,0,6.58-5,19.09,19.09,0,0,0,2.51-3,15.07,15.07,0,0,0,1.51-4.11c1.62,1.49,7.62,3.1,8.45,3a21.45,21.45,0,0,0,5.91-2.91,13.37,13.37,0,0,0,2.14-2.88,12.82,12.82,0,0,0,1.62-3.45C685.82,516.2,686.29,514.69,686,513.87Z" transform="translate(-223.6 -43.27)"/><polygon class="cls-2" points="27.82 513.59 36.47 513.35 36.73 543.11 28.6 543.61 27.82 513.59"/><path class="cls-4" d="M256.76,564c-.76.39-1.31.21-2.29.11a2.27,2.27,0,0,1-1.3-.31,12.18,12.18,0,0,1-2.46-2.54,2.87,2.87,0,0,1-.36-1.68,6,6,0,0,1,.21-2.93,7.49,7.49,0,0,1,2-2.84,4.32,4.32,0,0,1,2.11-1.31,5.78,5.78,0,0,1,3.05-.06,5.57,5.57,0,0,1,3,2.83,5.11,5.11,0,0,1,.47,4.4C260.37,561.86,258.29,562.89,256.76,564Z" transform="translate(-223.6 -43.27)"/><path class="cls-4" d="M256.61,591.48c-.78.4-1.32.19-2.32.1a2,2,0,0,1-1.46-.48,16.59,16.59,0,0,1-2.26-2.36,3.62,3.62,0,0,1-.39-2,5.26,5.26,0,0,1,.29-2.73,8.22,8.22,0,0,1,2.13-2.83,4.18,4.18,0,0,1,2.31-1.28,5.74,5.74,0,0,1,2.71,0,5.64,5.64,0,0,1,3,2.91,5,5,0,0,1,.43,4.32C260.2,589.31,258.15,590.32,256.61,591.48Z" transform="translate(-223.6 -43.27)"/><polygon class="cls-2" points="110.34 536.42 119 536.17 119.26 565.93 111.13 566.43 110.34 536.42"/><polygon class="cls-2" points="62.88 508.27 71.54 507.87 71.8 555.99 63.67 556.79 62.88 508.27"/><polygon class="cls-2" points="176.63 513.54 185.29 513.13 185.55 561.25 177.42 562.05 176.63 513.54"/><polygon class="cls-2" points="263.26 513.54 271.92 513.13 272.18 561.25 264.05 562.05 263.26 513.54"/><polygon class="cls-2" points="298.83 544.33 307.1 544.72 306.68 597.18 297.79 597.92 298.83 544.33"/><polygon class="cls-2" points="62.88 467.37 71.54 467.86 71.8 410.07 63.67 409.11 62.88 467.37"/><polygon class="cls-2" points="173.8 588.22 174.52 578.57 92.38 577.95 90.97 587.01 173.8 588.22"/><path class="cls-5" d="M339.28,586.86c-.76.39-1.31.21-2.29.11a2.27,2.27,0,0,1-1.3-.31,12.18,12.18,0,0,1-2.46-2.54,2.87,2.87,0,0,1-.36-1.68,6,6,0,0,1,.21-2.93,7.49,7.49,0,0,1,2-2.84,4.32,4.32,0,0,1,2.11-1.31,5.78,5.78,0,0,1,3.05-.06,5.57,5.57,0,0,1,3,2.83,5.11,5.11,0,0,1,.47,4.4C342.89,584.68,340.82,585.72,339.28,586.86Z" transform="translate(-223.6 -43.27)"/><path class="cls-5" d="M339.14,614.3c-.78.4-1.32.19-2.32.1a2,2,0,0,1-1.46-.48,16.59,16.59,0,0,1-2.26-2.36,3.62,3.62,0,0,1-.39-2,5.26,5.26,0,0,1,.29-2.73,8.22,8.22,0,0,1,2.13-2.83,4.18,4.18,0,0,1,2.31-1.28,5.74,5.74,0,0,1,2.71,0,5.64,5.64,0,0,1,3,2.91,5,5,0,0,1,.43,4.32C342.73,612.14,340.68,613.14,339.14,614.3Z" transform="translate(-223.6 -43.27)"/><polygon class="cls-2" points="100.44 486.94 109.09 486.7 109.36 516.46 101.22 516.96 100.44 486.94"/><path class="cls-6" d="M329.38,537.39c-.76.39-1.31.21-2.29.11a2.27,2.27,0,0,1-1.3-.31,12.18,12.18,0,0,1-2.46-2.54A2.87,2.87,0,0,1,323,533a6,6,0,0,1,.21-2.93,7.49,7.49,0,0,1,2-2.84,4.32,4.32,0,0,1,2.11-1.31,5.78,5.78,0,0,1,3.05-.06,5.57,5.57,0,0,1,3,2.83,5.11,5.11,0,0,1,.47,4.4C333,535.21,330.92,536.24,329.38,537.39Z" transform="translate(-223.6 -43.27)"/><path class="cls-6" d="M329.23,564.83c-.78.4-1.32.19-2.32.1a2,2,0,0,1-1.46-.48,16.59,16.59,0,0,1-2.26-2.36,3.62,3.62,0,0,1-.39-2,5.26,5.26,0,0,1,.29-2.73,8.22,8.22,0,0,1,2.13-2.83,4.18,4.18,0,0,1,2.31-1.28,5.74,5.74,0,0,1,2.71,0,5.64,5.64,0,0,1,3,2.91,5,5,0,0,1,.43,4.32C332.82,562.67,330.77,563.67,329.23,564.83Z" transform="translate(-223.6 -43.27)"/><polygon class="cls-2" points="33.31 630.75 33.06 622.1 62.83 621.84 63.32 629.97 33.31 630.75"/><path class="cls-7" d="M264.08,668.68c.39.76.21,1.31.11,2.29a2.27,2.27,0,0,1-.31,1.3,12.18,12.18,0,0,1-2.54,2.46,2.87,2.87,0,0,1-1.68.36,6,6,0,0,1-2.93-.21,7.49,7.49,0,0,1-2.84-2,4.32,4.32,0,0,1-1.31-2.11,5.78,5.78,0,0,1-.06-3.05,5.57,5.57,0,0,1,2.83-3,5.11,5.11,0,0,1,4.4-.47C261.91,665.08,262.94,667.15,264.08,668.68Z" transform="translate(-223.6 -43.27)"/><path class="cls-7" d="M291.53,668.83c.4.78.19,1.32.1,2.32a2,2,0,0,1-.48,1.46,16.59,16.59,0,0,1-2.36,2.26,3.62,3.62,0,0,1-2,.39,5.26,5.26,0,0,1-2.73-.29,8.22,8.22,0,0,1-2.83-2.13,4.18,4.18,0,0,1-1.28-2.31,5.74,5.74,0,0,1,0-2.71,5.64,5.64,0,0,1,2.91-3,5,5,0,0,1,4.32-.43C289.36,665.24,290.36,667.29,291.53,668.83Z" transform="translate(-223.6 -43.27)"/><polygon class="cls-2" points="453.32 563 461.97 562.75 462.24 592.51 454.11 593.01 453.32 563"/><path class="cls-7" d="M682.26,613.44c-.76.39-1.31.21-2.29.11a2.27,2.27,0,0,1-1.3-.31,12.18,12.18,0,0,1-2.46-2.54,2.87,2.87,0,0,1-.36-1.68,6,6,0,0,1,.21-2.93,7.49,7.49,0,0,1,2-2.84,4.32,4.32,0,0,1,2.11-1.31,5.78,5.78,0,0,1,3.05-.06,5.57,5.57,0,0,1,3,2.83,5.11,5.11,0,0,1,.47,4.4C685.87,611.26,683.8,612.3,682.26,613.44Z" transform="translate(-223.6 -43.27)"/><path class="cls-7" d="M526.76,647.44c-.76.39-1.31.21-2.29.11a2.27,2.27,0,0,1-1.3-.31,12.18,12.18,0,0,1-2.46-2.54,2.87,2.87,0,0,1-.36-1.68,6,6,0,0,1,.21-2.93,7.49,7.49,0,0,1,2-2.84,4.32,4.32,0,0,1,2.11-1.31,5.78,5.78,0,0,1,3.05-.06,5.57,5.57,0,0,1,3,2.83,5.11,5.11,0,0,1,.47,4.4C530.37,645.26,528.3,646.3,526.76,647.44Z" transform="translate(-223.6 -43.27)"/><path class="cls-7" d="M527.26,592.44c-.76.39-1.31.21-2.29.11a2.27,2.27,0,0,1-1.3-.31,12.18,12.18,0,0,1-2.46-2.54,2.87,2.87,0,0,1-.36-1.68,6,6,0,0,1,.21-2.93,7.49,7.49,0,0,1,2-2.84,4.32,4.32,0,0,1,2.11-1.31,5.78,5.78,0,0,1,3.05-.06,5.57,5.57,0,0,1,3,2.83,5.11,5.11,0,0,1,.47,4.4C530.87,590.26,528.8,591.3,527.26,592.44Z" transform="translate(-223.6 -43.27)"/><path class="cls-7" d="M682.11,640.89c-.78.4-1.32.19-2.32.1a2,2,0,0,1-1.46-.48,16.59,16.59,0,0,1-2.26-2.36,3.62,3.62,0,0,1-.39-2,5.26,5.26,0,0,1,.29-2.73,8.22,8.22,0,0,1,2.13-2.83,4.18,4.18,0,0,1,2.31-1.28,5.74,5.74,0,0,1,2.71,0,5.64,5.64,0,0,1,3,2.91,5,5,0,0,1,.43,4.32C685.7,638.72,683.65,639.72,682.11,640.89Z" transform="translate(-223.6 -43.27)"/><polygon class="cls-2" points="432.67 568.17 432.27 560.03 408.77 560.3 408.77 560.44 408.74 560.44 408.85 563.65 408.97 568.95 409.02 568.95 409.53 584.14 417.66 583.75 417.49 568.67 432.67 568.17"/><path class="cls-8" d="M655.67,614.16c-.76.39-1.31.21-2.29.11a2.27,2.27,0,0,1-1.3-.31,12.18,12.18,0,0,1-2.46-2.54,2.87,2.87,0,0,1-.36-1.68,6,6,0,0,1,.21-2.93,7.49,7.49,0,0,1,2-2.84,4.32,4.32,0,0,1,2.11-1.31,5.78,5.78,0,0,1,3.05-.06,5.57,5.57,0,0,1,3,2.83,5.11,5.11,0,0,1,.47,4.4C659.28,612,657.21,613,655.67,614.16Z" transform="translate(-223.6 -43.27)"/><path class="cls-8" d="M637.44,632.2c-.78.4-1.32.19-2.32.1a2,2,0,0,1-1.46-.48,16.59,16.59,0,0,1-2.26-2.36,3.62,3.62,0,0,1-.39-2,5.26,5.26,0,0,1,.29-2.73,8.22,8.22,0,0,1,2.13-2.83,4.18,4.18,0,0,1,2.31-1.28,5.74,5.74,0,0,1,2.71,0,5.64,5.64,0,0,1,3,2.91,5,5,0,0,1,.43,4.32C641,630,639,631,637.44,632.2Z" transform="translate(-223.6 -43.27)"/><polygon class="cls-2" points="243.58 626.75 235.45 626.95 235.14 650.45 235.28 650.45 235.28 650.48 238.49 650.45 243.8 650.46 243.8 650.4 259 650.27 258.8 642.13 243.72 641.93 243.58 626.75"/><path class="cls-9" d="M469.43,669.63a3.52,3.52,0,0,1,.05,2.29,2.27,2.27,0,0,1-.34,1.29,12.18,12.18,0,0,1-2.59,2.4,2.87,2.87,0,0,1-1.69.32,6,6,0,0,1-2.92-.28,7.49,7.49,0,0,1-2.79-2.11,4.32,4.32,0,0,1-1.26-2.14,5.78,5.78,0,0,1,0-3.05,5.57,5.57,0,0,1,2.9-2.91,5.11,5.11,0,0,1,4.41-.36C467.34,666,468.33,668.07,469.43,669.63Z" transform="translate(-223.6 -43.27)"/><path class="cls-9" d="M490.63,688.36c.38.79.16,1.33,0,2.33a2,2,0,0,1-.51,1.45,16.59,16.59,0,0,1-2.42,2.21,3.62,3.62,0,0,1-2,.34,5.26,5.26,0,0,1-2.72-.35,8.22,8.22,0,0,1-2.78-2.2,4.18,4.18,0,0,1-1.22-2.34,5.74,5.74,0,0,1,.1-2.71,5.64,5.64,0,0,1,3-2.94,5,5,0,0,1,4.33-.33C488.55,684.72,489.51,686.79,490.63,688.36Z" transform="translate(-223.6 -43.27)"/><polygon class="cls-2" points="187.81 449.33 187.56 439.85 217.32 439.57 217.82 448.47 187.81 449.33"/><path class="cls-7" d="M418.64,487.12c.42.81.22,1.39.11,2.43a2.41,2.41,0,0,1-.32,1.37,12.92,12.92,0,0,1-2.69,2.61,3,3,0,0,1-1.79.38,6.35,6.35,0,0,1-3.11-.23,7.94,7.94,0,0,1-3-2.17,4.58,4.58,0,0,1-1.39-2.23,6.14,6.14,0,0,1-.06-3.24,5.91,5.91,0,0,1,3-3.16,5.42,5.42,0,0,1,4.67-.5C416.33,483.29,417.43,485.49,418.64,487.12Z" transform="translate(-223.6 -43.27)"/><path class="cls-7" d="M446,487.41c.4.78.19,1.32.1,2.32a2,2,0,0,1-.48,1.46,16.59,16.59,0,0,1-2.36,2.26,3.62,3.62,0,0,1-2,.39,5.26,5.26,0,0,1-2.73-.29,8.22,8.22,0,0,1-2.83-2.13,4.18,4.18,0,0,1-1.28-2.31,5.74,5.74,0,0,1,0-2.71,5.64,5.64,0,0,1,2.91-3,5,5,0,0,1,4.32-.43C443.85,483.82,444.86,485.86,446,487.41Z" transform="translate(-223.6 -43.27)"/><polygon class="cls-2" points="340.39 485.5 330.92 485.75 330.63 455.98 339.53 455.49 340.39 485.5"/><path class="cls-4" d="M558.52,521.53c.81-.42,1.39-.22,2.43-.11a2.41,2.41,0,0,1,1.37.32,12.92,12.92,0,0,1,2.61,2.69,3,3,0,0,1,.38,1.79,6.35,6.35,0,0,1-.23,3.11,7.94,7.94,0,0,1-2.17,3,4.58,4.58,0,0,1-2.23,1.39,6.14,6.14,0,0,1-3.24.06,5.91,5.91,0,0,1-3.16-3,5.42,5.42,0,0,1-.5-4.67C554.69,523.84,556.89,522.75,558.52,521.53Z" transform="translate(-223.6 -43.27)"/><path class="cls-4" d="M557.38,494.67c.78-.4,1.32-.19,2.32-.1a2,2,0,0,1,1.46.48,16.59,16.59,0,0,1,2.26,2.36,3.62,3.62,0,0,1,.39,2,5.26,5.26,0,0,1-.29,2.73A8.22,8.22,0,0,1,561.4,505a4.18,4.18,0,0,1-2.31,1.28,5.74,5.74,0,0,1-2.71,0,5.64,5.64,0,0,1-3-2.91,5,5,0,0,1-.43-4.32C553.79,496.84,555.84,495.84,557.38,494.67Z" transform="translate(-223.6 -43.27)"/><polygon class="cls-2" points="341.22 543.86 350.69 543.62 349.99 520.62 349.85 515.44 349.83 515.44 349.83 515.41 347.05 515.56 334.72 516.06 334.13 496.95 325.23 497.42 325.43 516.43 325.39 516.44 325.44 517.38 325.52 525.4 333.43 525.2 341.02 525.07 341.22 543.86"/><path class="cls-9" d="M568.56,579.24c.81-.42,1.39-.22,2.43-.11a2.41,2.41,0,0,1,1.37.32,12.92,12.92,0,0,1,2.61,2.69,3,3,0,0,1,.38,1.79,6.35,6.35,0,0,1-.23,3.11,7.94,7.94,0,0,1-2.17,3,4.58,4.58,0,0,1-2.23,1.39,6.14,6.14,0,0,1-3.24.06,5.91,5.91,0,0,1-3.16-3,5.42,5.42,0,0,1-.5-4.67C564.73,581.54,566.93,580.45,568.56,579.24Z" transform="translate(-223.6 -43.27)"/><path class="cls-9" d="M552.66,535.63c.78-.4,1.32-.19,2.32-.1a2,2,0,0,1,1.46.48,16.59,16.59,0,0,1,2.26,2.36,3.62,3.62,0,0,1,.39,2,5.26,5.26,0,0,1-.29,2.73,8.22,8.22,0,0,1-2.13,2.83,4.18,4.18,0,0,1-2.31,1.28,5.74,5.74,0,0,1-2.71,0,5.64,5.64,0,0,1-3-2.91,5,5,0,0,1-.43-4.32C549.07,537.8,551.11,536.8,552.66,535.63Z" transform="translate(-223.6 -43.27)"/><polygon class="cls-2" points="202.06 543.85 201.81 535.05 245.86 535.39 246.48 543.66 202.06 543.85"/><path class="cls-8" d="M431,581.45c.42.81.22,1.39.11,2.43a2.41,2.41,0,0,1-.32,1.37,12.92,12.92,0,0,1-2.69,2.61,3,3,0,0,1-1.79.38,6.35,6.35,0,0,1-3.11-.23,7.94,7.94,0,0,1-3-2.17,4.58,4.58,0,0,1-1.39-2.23,6.14,6.14,0,0,1-.06-3.24,5.91,5.91,0,0,1,3-3.16,5.42,5.42,0,0,1,4.67-.5C428.67,577.62,429.77,579.82,431,581.45Z" transform="translate(-223.6 -43.27)"/><path class="cls-8" d="M476.84,581.65c.4.78.19,1.32.1,2.32a2,2,0,0,1-.48,1.46,16.59,16.59,0,0,1-2.36,2.26,3.62,3.62,0,0,1-2,.39,5.26,5.26,0,0,1-2.73-.29,8.22,8.22,0,0,1-2.83-2.13,4.18,4.18,0,0,1-1.28-2.31,5.74,5.74,0,0,1,0-2.71,5.64,5.64,0,0,1,2.91-3,5,5,0,0,1,4.32-.43C474.67,578.06,475.67,580.1,476.84,581.65Z" transform="translate(-223.6 -43.27)"/><polygon class="cls-2" points="97.57 439.94 97.31 447.68 114.2 447.68 114.59 464.95 163.84 464.57 164.23 456.19 122.58 456.7 122.84 440.2 97.57 439.94"/><path class="cls-10" d="M321.75,493c-.76.39-1.31.21-2.29.11a2.27,2.27,0,0,1-1.3-.31,12.18,12.18,0,0,1-2.46-2.54,2.87,2.87,0,0,1-.36-1.68,6,6,0,0,1,.21-2.93,7.49,7.49,0,0,1,2-2.84,4.32,4.32,0,0,1,2.11-1.31,5.78,5.78,0,0,1,3.05-.06,5.57,5.57,0,0,1,3,2.83,5.11,5.11,0,0,1,.47,4.4C325.36,490.81,323.28,491.84,321.75,493Z" transform="translate(-223.6 -43.27)"/><path class="cls-10" d="M388.78,509.34c-.78.4-1.32.19-2.32.1A2,2,0,0,1,385,509a16.59,16.59,0,0,1-2.26-2.36,3.62,3.62,0,0,1-.39-2,5.26,5.26,0,0,1,.29-2.73,8.22,8.22,0,0,1,2.13-2.83,4.18,4.18,0,0,1,2.31-1.28,5.74,5.74,0,0,1,2.71,0,5.64,5.64,0,0,1,3,2.91,5,5,0,0,1,.43,4.32C392.37,507.18,390.32,508.18,388.78,509.34Z" transform="translate(-223.6 -43.27)"/><polygon class="cls-2" points="337.35 436.46 337.61 444.19 310.01 444.19 309.63 461.47 253.66 461.09 253.28 452.7 301.63 453.22 301.38 436.71 337.35 436.46"/><path class="cls-10" d="M560.63,489.5c.76.39,1.31.21,2.29.11a2.27,2.27,0,0,0,1.3-.31,12.18,12.18,0,0,0,2.46-2.54,2.87,2.87,0,0,0,.36-1.68,6,6,0,0,0-.21-2.93,7.49,7.49,0,0,0-2-2.84,4.32,4.32,0,0,0-2.11-1.31,5.78,5.78,0,0,0-3.05-.06,5.57,5.57,0,0,0-3,2.83,5.11,5.11,0,0,0-.47,4.4C557,487.33,559.09,488.36,560.63,489.5Z" transform="translate(-223.6 -43.27)"/><path class="cls-10" d="M475.67,505.86c.78.4,1.32.19,2.32.1a2,2,0,0,0,1.46-.48,16.59,16.59,0,0,0,2.26-2.36,3.62,3.62,0,0,0,.39-2,5.26,5.26,0,0,0-.29-2.73,8.22,8.22,0,0,0-2.13-2.83,4.18,4.18,0,0,0-2.31-1.28,5.74,5.74,0,0,0-2.71,0,5.64,5.64,0,0,0-3,2.91,5,5,0,0,0-.43,4.32C472.08,503.69,474.13,504.7,475.67,505.86Z" transform="translate(-223.6 -43.27)"/><polygon class="cls-2" points="402.23 600.8 402.49 608.54 374.9 608.54 374.51 625.81 318.55 625.43 318.16 617.05 366.51 617.56 366.26 601.06 402.23 600.8"/><polygon class="cls-2" points="296.64 625.45 296.38 641.95 337.1 641.69 336.71 650.07 288.38 650.21 288 625.76 296.64 625.45"/><polygon class="cls-2" points="211.3 622.83 212.7 631.48 190.82 631.74 190.48 647.81 165.05 647.94 164.66 639.55 182.48 639.56 182.22 623.06 211.3 622.83"/><polygon class="cls-2" points="79.31 622.14 78.93 631.78 94.06 631.65 94.57 647.91 142.26 648.04 142.65 639.66 102.56 639.66 102.82 622.27 79.31 622.14"/><path class="cls-5" d="M623.44,654.14c.76.39,1.31.21,2.29.11a2.27,2.27,0,0,0,1.3-.31,12.18,12.18,0,0,0,2.46-2.54,2.87,2.87,0,0,0,.36-1.68,6,6,0,0,0-.21-2.93,7.49,7.49,0,0,0-2-2.84,4.32,4.32,0,0,0-2.11-1.31,5.78,5.78,0,0,0-3.05-.06,5.57,5.57,0,0,0-3,2.83,5.11,5.11,0,0,0-.47,4.4C619.83,652,621.9,653,623.44,654.14Z" transform="translate(-223.6 -43.27)"/><path class="cls-5" d="M543.42,670.5c.78.4,1.32.19,2.32.1a2,2,0,0,0,1.46-.48,16.59,16.59,0,0,0,2.26-2.36,3.62,3.62,0,0,0,.39-2,5.26,5.26,0,0,0-.29-2.73,8.22,8.22,0,0,0-2.13-2.83,4.18,4.18,0,0,0-2.31-1.28,5.74,5.74,0,0,0-2.71,0,5.64,5.64,0,0,0-3,2.91,5,5,0,0,0-.43,4.32C539.83,668.33,541.88,669.33,543.42,670.5Z" transform="translate(-223.6 -43.27)"/><path class="cls-6" d="M514.42,675c.78.4,1.32.19,2.32.1a2,2,0,0,0,1.46-.48,16.59,16.59,0,0,0,2.26-2.36,3.62,3.62,0,0,0,.39-2,5.26,5.26,0,0,0-.29-2.73,8.22,8.22,0,0,0-2.13-2.83,4.18,4.18,0,0,0-2.31-1.28,5.74,5.74,0,0,0-2.71,0,5.64,5.64,0,0,0-3,2.91,5,5,0,0,0-.43,4.32C510.83,672.83,512.88,673.83,514.42,675Z" transform="translate(-223.6 -43.27)"/><path class="cls-6" d="M558.42,695.5c.78.4,1.32.19,2.32.1a2,2,0,0,0,1.46-.48,16.59,16.59,0,0,0,2.26-2.36,3.62,3.62,0,0,0,.39-2,5.26,5.26,0,0,0-.29-2.73,8.22,8.22,0,0,0-2.13-2.83,4.18,4.18,0,0,0-2.31-1.28,5.74,5.74,0,0,0-2.71,0,5.64,5.64,0,0,0-3,2.91,5,5,0,0,0-.43,4.32C554.83,693.33,556.88,694.33,558.42,695.5Z" transform="translate(-223.6 -43.27)"/><polygon class="cls-2" points="331.78 560.5 331.42 569.09 347.72 568.99 348.34 584.73 374.08 584.93 374.47 576.55 356.33 576.48 356.59 559.97 331.78 560.5"/><path class="cls-10" d="M304.28,675.55c-.76.39-1.31.21-2.29.11a2.27,2.27,0,0,1-1.3-.31,12.18,12.18,0,0,1-2.46-2.54,2.87,2.87,0,0,1-.36-1.68,6,6,0,0,1,.21-2.93,7.49,7.49,0,0,1,2-2.84,4.32,4.32,0,0,1,2.11-1.31,5.78,5.78,0,0,1,3.05-.06,5.57,5.57,0,0,1,3,2.83,5.11,5.11,0,0,1,.47,4.4C307.89,673.37,305.82,674.41,304.28,675.55Z" transform="translate(-223.6 -43.27)"/><path class="cls-10" d="M366.38,693.2c-.78.4-1.32.19-2.32.1a2,2,0,0,1-1.46-.48,16.59,16.59,0,0,1-2.26-2.36,3.62,3.62,0,0,1-.39-2,5.26,5.26,0,0,1,.29-2.73,8.22,8.22,0,0,1,2.13-2.83,4.18,4.18,0,0,1,2.31-1.28,5.74,5.74,0,0,1,2.71,0,5.64,5.64,0,0,1,3,2.91,5,5,0,0,1,.43,4.32C370,691,367.93,692,366.38,693.2Z" transform="translate(-223.6 -43.27)"/><path class="cls-10" d="M556.27,613.76c-.76.39-1.31.21-2.29.11a2.27,2.27,0,0,1-1.3-.31,12.18,12.18,0,0,1-2.46-2.54,2.87,2.87,0,0,1-.36-1.68,6,6,0,0,1,.21-2.93,7.49,7.49,0,0,1,2-2.84,4.32,4.32,0,0,1,2.11-1.31,5.78,5.78,0,0,1,3.05-.06,5.57,5.57,0,0,1,3,2.83,5.11,5.11,0,0,1,.47,4.4C559.88,611.59,557.81,612.62,556.27,613.76Z" transform="translate(-223.6 -43.27)"/><path class="cls-10" d="M599.39,630.21c-.78.4-1.32.19-2.32.1a2,2,0,0,1-1.46-.48,16.59,16.59,0,0,1-2.26-2.36,3.62,3.62,0,0,1-.39-2,5.26,5.26,0,0,1,.29-2.73,8.22,8.22,0,0,1,2.13-2.83,4.18,4.18,0,0,1,2.31-1.28,5.74,5.74,0,0,1,2.71,0,5.64,5.64,0,0,1,3,2.91,5,5,0,0,1,.43,4.32C603,628,600.93,629,599.39,630.21Z" transform="translate(-223.6 -43.27)"/><polygon class="cls-2" points="456.65 618.57 456.91 627.77 424.38 627.68 423.99 651.1 398.25 651.58 397.86 642.03 416 641.72 415.74 618.81 456.65 618.57"/><path class="cls-4" d="M678.55,672.12c.76.39,1.31.21,2.29.11a2.27,2.27,0,0,0,1.3-.31,12.18,12.18,0,0,0,2.46-2.54,2.87,2.87,0,0,0,.36-1.68,6,6,0,0,0-.21-2.93,7.49,7.49,0,0,0-2-2.84,4.32,4.32,0,0,0-2.11-1.31,5.78,5.78,0,0,0-3.05-.06,5.57,5.57,0,0,0-3,2.83,5.11,5.11,0,0,0-.47,4.4C674.94,669.94,677,671,678.55,672.12Z" transform="translate(-223.6 -43.27)"/><path class="cls-4" d="M621.74,696.08c.78.4,1.32.19,2.32.1a2,2,0,0,0,1.46-.48,16.59,16.59,0,0,0,2.26-2.36,3.62,3.62,0,0,0,.39-2,5.26,5.26,0,0,0-.29-2.73,8.22,8.22,0,0,0-2.13-2.83,4.18,4.18,0,0,0-2.31-1.28,5.74,5.74,0,0,0-2.71,0,5.64,5.64,0,0,0-3,2.91,5,5,0,0,0-.43,4.32C618.15,693.91,620.2,694.92,621.74,696.08Z" transform="translate(-223.6 -43.27)"/><path class="cls-8" d="M440,669.45c.42.81.22,1.39.11,2.43a2.41,2.41,0,0,1-.32,1.37,12.92,12.92,0,0,1-2.69,2.61,3,3,0,0,1-1.79.38,6.35,6.35,0,0,1-3.11-.23,7.94,7.94,0,0,1-3-2.17,4.58,4.58,0,0,1-1.39-2.23,6.14,6.14,0,0,1-.06-3.24,5.91,5.91,0,0,1,3-3.16,5.42,5.42,0,0,1,4.67-.5C437.67,665.62,438.77,667.82,440,669.45Z" transform="translate(-223.6 -43.27)"/><path class="cls-8" d="M396,686.45c.42.81.22,1.39.11,2.43a2.41,2.41,0,0,1-.32,1.37,12.92,12.92,0,0,1-2.69,2.61,3,3,0,0,1-1.79.38,6.35,6.35,0,0,1-3.11-.23,7.94,7.94,0,0,1-3-2.17,4.58,4.58,0,0,1-1.39-2.23,6.14,6.14,0,0,1-.06-3.24,5.91,5.91,0,0,1,3-3.16,5.42,5.42,0,0,1,4.67-.5C393.67,682.62,394.77,684.82,396,686.45Z" transform="translate(-223.6 -43.27)"/><path class="cls-2" d="M246.53,404.44c5.37-1.09,24.29-1.24,57.1-.62,2.27.15,33.59-.44,35.62.25.23.19-.21,2.73-.19,3.61.07,3.41-.18,6.85-.26,10.32-.12,5.67-.15,25.49-.07,29.82.06,2.92.39,11.67-.13,13.05,0,0-7.16.1-9.78.09-6.63,0-50.77-.24-51.36-.32-1-.15-10.67.23-13.47-.07-.45,0-15.51.13-18.75.18l-.1-.07a33.51,33.51,0,0,1-.06-4.53c.13-1.8.44-35.38.92-40.08.16-1.53,0-10.59.53-11.64" transform="translate(-223.6 -43.27)"/><g class="cls-11"><g class="cls-12"><path d="M273.35,417.68l0,.4-.11.76-.14,1.74-.07.32.11.66-.07,1.3,0,1.32.11.36v.72l-.07,1.19a5.37,5.37,0,0,1-.48,1.38s-.54.43-.7.43c-.86,0-1-.13-1-.87v-1.3l.2-1.55c0-.08,0-.15,0-.25,0-.4-.09-.93-.29-.93a2.9,2.9,0,0,0-.54.13l-1.42-.26-1.24.11-1.47,0c-.16,0-.36.11-.36.21,0,.32.16.72.16,1,0,2-.63,3.1-1.34,3.1-.41,0-.86-.72-.86-.72l-.07-.64.07-1.23.13-.61-.07-.6.09-1.21.11-2,.2-.62,0-2.38.39-1.21a2.29,2.29,0,0,1,.64-.23,2.57,2.57,0,0,1,.7.32V417l.07.21a.86.86,0,0,1,0,.21c0,.26-.13.55-.13.81s0,.72,0,.83l0,.89-.11.32,0,.66.2.21.43,0,.68-.11.43.06,2.33,0,.86,0a.3.3,0,0,0,.3-.32l0-.43.16-1,.07-2.1c.05-.76.54-1.51,1-1.51a.86.86,0,0,1,1,.81v.06Z" transform="translate(-223.6 -43.27)"/><path d="M285.72,428.38c-.29,0-.81-.53-.81-.53l-.21-.61.05-.72-.18-.43a5.78,5.78,0,0,1-.41-1.25c-.21-1-.39-1.61-.7-1.61a23.8,23.8,0,0,1-2.36.36c-.5,0-.72,0-.79.25l-.25.57-.13.49-.23.45-.16.45-.48.66-.41,1.13a1.43,1.43,0,0,1-1,.76,1.34,1.34,0,0,1-1-1.15,4.88,4.88,0,0,1,.72-1.76,8.52,8.52,0,0,1,.32-1.15c.23-.53.66-1.29.66-1.29l.84-1.7.52-1.53.29-.51.65-1.49c.34-.79.63-1.66,1.47-1.66.66,0,1,.32,1.45,1.44l1.27,3.18.13.62.88,2a2.3,2.3,0,0,1,.34.62c.2.59.18,1.12.38,1.55a5.7,5.7,0,0,1,.47,1.36C287,427.38,286.12,428.38,285.72,428.38Zm-2.85-7.86-.09-.34-.41-.78s-.05-.43-.25-.43-.91,1.17-1,1.82a2.78,2.78,0,0,0-.07.49c0,.11,0,.17.09.17l1.58-.11c.23,0,.47-.09.47-.19A2.23,2.23,0,0,0,282.88,420.52Z" transform="translate(-223.6 -43.27)"/><path d="M297.17,421.42,296,422.5s-.07,0-.05,0l1.06,2.38.61.78a.68.68,0,0,1,.13.45c0,.72-.54,1.83-1,1.83-.21,0-.59-.42-.79-.76l-.61-1.06-.16-.66-.47-.53-.14-.42-.55-1.1c0-.09,0-.15-.11-.15a2.64,2.64,0,0,0-.68.34l-.54.06c-.21,0-.36.53-.36.83v.06l.23,2.76,0,.76c0,.32-.59,1.4-1.2,1.4-.36,0-.75-.61-.75-1l-.07-3.78-.12-1v-.59l-.11-1.13.11-.45-.13-1.29-.14-.91.05-.4-.05-1.55v-.06a1.89,1.89,0,0,1,1.25-1.68l2-.15,1.09-.08.54.28,1,.4.39.42a5,5,0,0,1,1.63,3.12A2.32,2.32,0,0,1,297.17,421.42Zm-1.42-2.55-.66-.77c-.2-.25-.34-.49-.57-.49h-.07l-.68.15-.79-.11a1.14,1.14,0,0,0-.25,0c-.36,0-.68.11-.7.4l0,.38.34,2.23,0,.74c0,.15.07.42.27.42s1.2-.79,1.2-.79l.52-.11,1.11-.55s.73-.4.73-.64A1.47,1.47,0,0,0,295.75,418.87Z" transform="translate(-223.6 -43.27)"/><path d="M305.95,426.94l-1.18.42a5.6,5.6,0,0,1-2.37,1.1,1.52,1.52,0,0,1-1.54-1.38c0-.26-.07-.51-.07-.79a2,2,0,0,1,0-.3l.29-1.4.2-.34.38-2.57.14-.43v-1l.13-.32.11-1.3.27-1.06.09-.25.09-.72.27-.3.23-.45.81-.11.29.06.3-.08a17.11,17.11,0,0,1,3,.95,6,6,0,0,1,2.88,4.41A6.78,6.78,0,0,1,305.95,426.94Zm-1.67-9.15c-.09,0-.2.25-.27.4l0,.44-.25,1.21-.05.68-.25,1.06.05.42-.39,2.72c-.07.45-.27.95-.27,1.23s.05.25.2.26a7.08,7.08,0,0,0,1.13-.62,14.2,14.2,0,0,0,1.84-.93,14.61,14.61,0,0,0,1.27-1l.27-.78.25-.28.16-.51s.38-.43.38-.62A3.85,3.85,0,0,0,304.28,417.79Z" transform="translate(-223.6 -43.27)"/><path d="M320.8,418.47c-.2,0-.81-.15-1-.15l-1.38,0-.3-.13-.66,0-.41,0a3.93,3.93,0,0,0-.43,0c-.23,0-.27,0-.29.17l0,.72-.2.51-.11,1c0,.19,0,.34,0,.45s0,.23.14.23l.88-.13.39,0,.61-.26.95.11a1.27,1.27,0,0,1,1.15,1.21c0,.53-.72,1-1.06,1h0l-.86-.11-1.92.11-.18.06-.13.19-.21.19-.12,2.42a5.8,5.8,0,0,0-.16,1c0,.17,0,.3.07.34s.82-.09,1.16-.09c.66,0,1.25,0,1.43-.06l.81-.3.48,0,.66,0H320a1.55,1.55,0,0,1,1.29,1c0,.42-.86,1-1.06,1h0l-.2,0-.39.21-2.51.11a28.3,28.3,0,0,1-2.78.57,1.09,1.09,0,0,1-1-1.17v-.08l.09-2.16.22-.57.13-1.74.14-.32.05-1.61.36-2.38.09-2.23a1.29,1.29,0,0,1,1.2-1.36h.05l.48,0,.38-.09.79.15.54-.09h1.56l1,.11.91,0c.25,0,.68.53.68,1a.69.69,0,0,1-.09.38A1.36,1.36,0,0,1,320.8,418.47Z" transform="translate(-223.6 -43.27)"/></g><g class="cls-12"><path d="M267.46,434.63s-.52.59-.52.59-1.18-1.2-2-1.2a1.88,1.88,0,0,0-1.4.75l.07.45.25.3,1.15.72.41.43.59.39.25.32.39.45.32.9.29.73a1.82,1.82,0,0,1,.13.68,3.22,3.22,0,0,1-3.08,2.78,7.92,7.92,0,0,1-1.72-.21l-.84-.23-.3-.27c-.2-.12-.88-.57-.88-1.16,0-.81.36-1.15.81-1.15a4,4,0,0,0,2.58.84,1.21,1.21,0,0,0,1.34-1.13,1.13,1.13,0,0,0-.11-.41l-.3-.25-.41-.59-.54-.25c-1-.5-2.38-1.85-2.38-3.15a2.86,2.86,0,0,1,.95-2l.79-.38.43-.23a6.14,6.14,0,0,1,.93-.11c2,0,3.26.82,3.26,1.9C267.94,434.22,267.62,434.49,267.46,434.63Z" transform="translate(-223.6 -43.27)"/><path d="M278.7,434.29a.73.73,0,0,1-.34-.07c-.39-.12-.5-.36-1.06-.36a3.32,3.32,0,0,0-2,.64l-.16.25-1,.82a5.11,5.11,0,0,0-.86,1.15,4.57,4.57,0,0,0-.57,2.17,3,3,0,0,0,.2.81l.48.39.18.34.2.21a6,6,0,0,0,1.83.47,1.24,1.24,0,0,0,.47-.09l.59-.27.38-.07.56-.3.7.3.05.32.34.34s-.39,1.24-.9,1.24l-.3,0c-.11,0-.36.11-.61.21a5.39,5.39,0,0,1-1.42.2,12.09,12.09,0,0,1-2-.34l-.57-.11-.82-.68a4.28,4.28,0,0,1-1.31-3,9.62,9.62,0,0,1,1.34-3.69l.86-1.27.34-.23c.11-.09.38-.38.59-.57a5.8,5.8,0,0,1,3.31-1.08,2.53,2.53,0,0,1,2.28,1.06.78.78,0,0,1,.09.73A1,1,0,0,1,278.7,434.29Z" transform="translate(-223.6 -43.27)"/><path d="M291.92,433.68l0,.38-.11.72-.14,1.65-.07.3.11.63-.07,1.24,0,1.25.11.34v.68l-.07,1.13a4.92,4.92,0,0,1-.48,1.31,2.65,2.65,0,0,1-.7.41c-.86,0-1-.12-1-.82v-1.24l.2-1.47c0-.07,0-.14,0-.23,0-.38-.09-.88-.29-.88a3,3,0,0,0-.54.13l-1.42-.25-1.24.11-1.47,0c-.16,0-.36.11-.36.2,0,.3.16.68.16,1,0,1.92-.63,2.94-1.34,2.94-.41,0-.86-.68-.86-.68l-.07-.61.07-1.16.13-.57-.07-.57.09-1.15.11-1.92.2-.59,0-2.26.39-1.15a2.37,2.37,0,0,1,.64-.21,2.65,2.65,0,0,1,.7.3v.45l.07.2a.79.79,0,0,1,0,.2c0,.25-.13.52-.13.77s0,.68,0,.79l0,.84-.11.3,0,.63.2.2.43,0,.68-.11.43.05,2.33,0,.86,0a.29.29,0,0,0,.3-.3l0-.41.16-.93.07-2c.05-.72.54-1.43,1-1.43s1,.36,1,.77v.05Z" transform="translate(-223.6 -43.27)"/><path d="M299.3,435.26l-.09,1.47-.14.54-.11,1-.09.64s-.43,2.15-.43,2.72a4.53,4.53,0,0,1-.14,1.34,4.44,4.44,0,0,1-.2.52l0,.47c-.07.43-1.27.77-1.27.77l-.29-.57-.25-.27.09-1.24.25-1.43v-.66l.14-.34.29-1.08,0-.57.27-1.24.11-2.11a1.8,1.8,0,0,1,.27-1c.29-.47.54-1.08,1.15-1.08a.85.85,0,0,1,.88.9A3.47,3.47,0,0,1,299.3,435.26Z" transform="translate(-223.6 -43.27)"/><path d="M311.63,435.92a9.22,9.22,0,0,1-.13,1.36l0,.47-.13.72s-.3,1.36-.45,1.77a5.69,5.69,0,0,1-1.43,2l-.39.43a7.45,7.45,0,0,1-1.15.3,4.57,4.57,0,0,1-1,.14c-2.47,0-3.87-1.06-3.87-3,0-.61.23-.91.72-.91s.88.39,1.27,1.15a2.19,2.19,0,0,0,.38.3l.41.25.29.18a3,3,0,0,0,.56.09c1.09,0,1.77-.25,2.11-1l.36-.86.3-.47a1.26,1.26,0,0,0,.16-.66c0-.14,0-.25,0-.3l.13-2.06.14-.5,0-2.19a1.34,1.34,0,0,1,1.25-1.47c.48,0,.77.61.77,1.08C311.91,433.66,311.63,434.69,311.63,435.92Z" transform="translate(-223.6 -43.27)"/><path d="M322.57,433.86c-.25,0-.66-.14-1.09-.2l-.46-.05-.47.07-.68-.13-.77,0c-.47,0-1,.2-1,.54L318,436l-.12.43,0,.39-.12.39v0c0,.05,0,.05.13.05a1.42,1.42,0,0,0,.25,0l.61-.09h.84l.38-.11.81,0c.59,0,1,.84,1,1.08a1.61,1.61,0,0,1-1.61,1.24,2,2,0,0,1-.32,0l-.41-.09-.52.09a1.56,1.56,0,0,1-.29,0l-.54,0a.7.7,0,0,0-.5.14.43.43,0,0,0-.13.34c0,.16,0,.34,0,.52,0,.5.07,1,.07,1.47a4,4,0,0,1-.14.88l-.13.65s-.64.07-.81.07a1.25,1.25,0,0,1-1.13-1.33c0-.18.18-1.27.23-1.49l0-.41.21-1.65v-1l.14-.36,0-.27c.2-1.22.46-2.37.61-3.12.29-1.42.43-2,1.47-2a9.49,9.49,0,0,1,1.06-.09c.25,0,.54.18.84.18,1,0,2.26-.21,2.79-.21a1,1,0,0,1,1,1A1.23,1.23,0,0,1,322.57,433.86Z" transform="translate(-223.6 -43.27)"/></g><g class="cls-12"><path d="M283.63,619.13a.78.78,0,0,1-.36-.08c-.42-.13-.53-.38-1.12-.38a3.52,3.52,0,0,0-2.07.69l-.17.27-1,.88a5.41,5.41,0,0,0-.91,1.22,4.85,4.85,0,0,0-.61,2.3,3.13,3.13,0,0,0,.21.86l.51.42.19.36.21.23a6.38,6.38,0,0,0,1.94.5,1.31,1.31,0,0,0,.5-.1l.63-.29.4-.08.59-.32.74.32.06.34.36.36s-.42,1.31-1,1.31l-.32,0c-.11,0-.38.11-.65.23a5.76,5.76,0,0,1-1.5.21,12.83,12.83,0,0,1-2.15-.36l-.61-.11-.87-.72a4.55,4.55,0,0,1-1.39-3.2,10.22,10.22,0,0,1,1.43-3.92l.91-1.35.36-.25c.11-.1.4-.4.63-.61a6.16,6.16,0,0,1,3.52-1.14,2.68,2.68,0,0,1,2.42,1.12.92.92,0,0,1,.15.48.94.94,0,0,1-.06.3A1.06,1.06,0,0,1,283.63,619.13Z" transform="translate(-223.6 -43.27)"/><path d="M292.52,623.58l-.61.36-1.26.19-.55.17-.27.49,0,.82.09.42-.09.86v1l0,1.07c0,.36-.55.91-.61,1s-.4.46-.65.46c-.53,0-.78-.65-.84-.82l-.21-.48.13-.53,0-.8.23-.72v-1.94l.17-.67,0-.86.21-1.1,0-1.14s.08-.36.11-.61a4.43,4.43,0,0,0,.08-1.07v-1c0-1.66.63-2.25,2.44-2.25a8.81,8.81,0,0,1,1,.1l1.88.57c.38.1,2.23,1.26,2.23,2.25C296,621.85,293,623.38,292.52,623.58Zm.53-4.85-1.07-.15-.4-.21h-.32c-.76,0-.78.34-.86.78l-.19,1.16.06.5-.19.63a.4.4,0,0,0,0,.15c0,.23.15.38.23.38,1.07,0,3.46-1.31,3.46-2.34A1,1,0,0,0,293,618.73Z" transform="translate(-223.6 -43.27)"/><path d="M309.24,619.32l-.21,1.94a12.37,12.37,0,0,1-1.39,3.88l-.32.74L306,627s-2.06,1.39-3.06,1.39a4.57,4.57,0,0,1-3.18-1.18l-.17-.44c-.29-.3-1-1.47-1-4.72a11.36,11.36,0,0,1,.17-2.07l.25-1.66,0-.82c0-.29.65-1.1,1.08-1.1a.86.86,0,0,1,.84.57l.15.76-.1.48.17.48-.3,1.27-.21.55.1,3.52.23.67.11.49a1.88,1.88,0,0,0,1.58.88,4.44,4.44,0,0,0,2.44-1l.68-1.31.29-.29a10.13,10.13,0,0,0,.86-3.14c0-.4,0-.68,0-.93a1.42,1.42,0,0,1,.19-.82l.48-.82c.23-.44.76-.44,1.22-.44a.72.72,0,0,1,.63.76c0,.06,0,.09,0,.15Z" transform="translate(-223.6 -43.27)"/></g><g class="cls-12"><path d="M280.92,539.11l-.51.11-.74-.21-.78-.06-.74-.4-.51-.15a3,3,0,0,1-.76-.76,6.11,6.11,0,0,1-.32-.55l-.36-.27a5.11,5.11,0,0,1-.72-2.82c0-1.85.38-3,1.41-3.73l1.73-1.14.65-.44.42-.36,1.5-.36,1.29.06.7-.1a4.83,4.83,0,0,1,.5,0,1.54,1.54,0,0,1,1.75,1.56c0,.55-.25,1-.76,1-.29,0-1-.61-1.88-.61a10.3,10.3,0,0,0-3,.67l-.23.23-.86.5-.93.91c-.25.21-.27.63-.27,1.29v.29a3.16,3.16,0,0,0,1.1,2.63l.76.25.55.34a2,2,0,0,0,.65.13,2.58,2.58,0,0,0,2.76-2.28,1.73,1.73,0,0,0,0-.25.61.61,0,0,0,0-.23s-.08,0-.13,0-.36.06-.5.06l-1,.06h-.06a.94.94,0,0,1-.89-.86,1.19,1.19,0,0,1,.86-1.08l.68-.11.38-.13a5,5,0,0,0,.86.11c.29,0,.93,0,.93,0l.44.3.4.23a3,3,0,0,1,.21.86c0,.06,0,.09,0,.13C285,536.54,284.12,538.58,280.92,539.11Z" transform="translate(-223.6 -43.27)"/><path d="M294,534.07l-.61.36-1.26.19-.55.17-.27.49,0,.82.09.42-.09.86v1l0,1.07c0,.36-.55.91-.61,1s-.4.46-.65.46c-.53,0-.78-.65-.84-.82l-.21-.48.13-.53,0-.8.23-.72v-1.94l.17-.67,0-.86.21-1.1,0-1.14s.08-.36.11-.61a4.43,4.43,0,0,0,.08-1.07v-1c0-1.66.63-2.25,2.44-2.25a8.81,8.81,0,0,1,1,.1l1.88.57c.38.1,2.23,1.26,2.23,2.25C297.48,532.34,294.45,533.86,294,534.07Zm.53-4.85-1.07-.15-.4-.21h-.32c-.76,0-.78.34-.86.78l-.19,1.16.06.5-.19.63a.4.4,0,0,0,0,.15c0,.23.15.38.23.38,1.07,0,3.46-1.31,3.46-2.34A1,1,0,0,0,294.55,529.22Z" transform="translate(-223.6 -43.27)"/><path d="M310.74,529.81l-.21,1.94a12.37,12.37,0,0,1-1.39,3.88l-.32.74-1.29,1.16s-2.06,1.39-3.06,1.39a4.57,4.57,0,0,1-3.18-1.18l-.17-.44c-.29-.3-1-1.47-1-4.72a11.36,11.36,0,0,1,.17-2.07l.25-1.66,0-.82c0-.29.65-1.1,1.08-1.1a.86.86,0,0,1,.84.57l.15.76-.1.48.17.48-.3,1.27-.21.55.1,3.52.23.67.11.49a1.88,1.88,0,0,0,1.58.88,4.44,4.44,0,0,0,2.44-1l.68-1.31.29-.29a10.13,10.13,0,0,0,.86-3.14c0-.4,0-.68,0-.93a1.42,1.42,0,0,1,.19-.82l.48-.82c.23-.44.76-.44,1.22-.44a.72.72,0,0,1,.63.76c0,.06,0,.09,0,.15Z" transform="translate(-223.6 -43.27)"/></g><g class="cls-12"><path d="M438.44,533.66l-1.29,1.08s-.08,0-.06,0l1.12,2.4.65.78a.65.65,0,0,1,.13.46c0,.72-.57,1.84-1,1.84-.23,0-.63-.42-.84-.76l-.65-1.07-.17-.67-.49-.53-.15-.42-.59-1.1c0-.1,0-.15-.11-.15a2.86,2.86,0,0,0-.72.34l-.57.06c-.23,0-.38.53-.38.84v.06l.25,2.78,0,.76c0,.32-.63,1.41-1.27,1.41-.38,0-.8-.61-.8-1L431.4,537l-.13-1v-.59l-.11-1.14.11-.46-.13-1.29-.15-.91.06-.4-.06-1.56v-.06a1.93,1.93,0,0,1,1.33-1.69l2.11-.15,1.16-.08.57.29,1.07.4.42.42a5,5,0,0,1,1.73,3.14A2.29,2.29,0,0,1,438.44,533.66Zm-1.5-2.57-.7-.78c-.21-.25-.36-.49-.61-.49h-.08l-.72.15-.84-.11a1.22,1.22,0,0,0-.27,0c-.38,0-.72.11-.74.4l0,.38.36,2.25,0,.74c0,.15.08.42.29.42s1.27-.8,1.27-.8l.55-.11,1.18-.55s.78-.4.78-.65A1.45,1.45,0,0,0,436.94,531.09Z" transform="translate(-223.6 -43.27)"/><path d="M451.85,540.66c-.3,0-.86-.53-.86-.53l-.23-.61.06-.72-.19-.44a5.59,5.59,0,0,1-.44-1.26c-.23-1-.42-1.62-.74-1.62s-1.58.36-2.51.36c-.53,0-.76,0-.84.25l-.27.57-.13.5-.25.46-.17.46-.51.67-.44,1.14a1.51,1.51,0,0,1-1,.76,1.38,1.38,0,0,1-1.08-1.16,4.76,4.76,0,0,1,.76-1.77,8.3,8.3,0,0,1,.34-1.16c.25-.53.7-1.29.7-1.29l.89-1.71.55-1.54.3-.51.69-1.5c.36-.8.67-1.67,1.56-1.67.7,0,1,.32,1.54,1.45l1.35,3.2.13.63.93,2a2.24,2.24,0,0,1,.36.63c.21.59.19,1.12.4,1.56a5.57,5.57,0,0,1,.49,1.37A2.26,2.26,0,0,1,451.85,540.66Zm-3-7.92-.09-.34-.44-.78s-.06-.44-.27-.44-1,1.18-1.1,1.83a2.61,2.61,0,0,0-.08.5c0,.11,0,.17.1.17l1.67-.11c.25,0,.5-.09.5-.19A2.19,2.19,0,0,0,448.83,532.75Z" transform="translate(-223.6 -43.27)"/><path d="M469.27,541.46c-.44,0-.87-.29-1-1l-.3-1.66-.25-.63,0-1.14-.11-.53.11-.91-.27-3.33c0-.21-.06-.36-.17-.36s-.19.08-.34.3l-.87,1.29-1,2.19-.93,1-.65,1c-.23.38-.42.68-1,.68s-.84-.51-1-1l-.46-1.29-.25-.32-.13-.63-.36-.38s-1-2.46-1.58-2.46c-.13,0-.19.29-.19.51s.21.48.21.86a5.08,5.08,0,0,1-.3,1.35l0,.51-.13.76.06,1.46-.17.61-.11,1.35a1.12,1.12,0,0,1-.91,1c-.38,0-1.1-.4-1.1-.93a4.17,4.17,0,0,1,.23-1.16l-.08-.36.21-1.14v-1.6l.19-.63s.08-.78.08-2c0-2.21.82-4,1.54-4a1.52,1.52,0,0,1,1,.69c.36.46,1.26,1.77,1.27,1.79l.36.34.4,1c.06.08.7.86,1.08,1.41.25.32,0,1,.4,1s.57-.51,1.25-1.86,2.42-4.53,2.51-4.68a1.7,1.7,0,0,1,1.35-.74c.46,0,.78.57.93,1.66.06.34.4,1.45.57,2.36a2.78,2.78,0,0,1,0,.38c0,.27-.06.49-.06.74a2.54,2.54,0,0,0,0,.36,4.43,4.43,0,0,0,.25.68l.06,2.44.67,3a5.15,5.15,0,0,1,.11.91A1.22,1.22,0,0,1,469.27,541.46Z" transform="translate(-223.6 -43.27)"/></g><g class="cls-12"><path d="M434.77,622l-1.29,1.08s-.08,0-.06,0l1.12,2.4.65.78a.65.65,0,0,1,.13.46c0,.72-.57,1.84-1,1.84-.23,0-.63-.42-.84-.76l-.65-1.07-.17-.67-.49-.53-.15-.42-.59-1.1c0-.1,0-.15-.11-.15a2.86,2.86,0,0,0-.72.34l-.57.06c-.23,0-.38.53-.38.84v.06l.25,2.78,0,.76c0,.32-.63,1.41-1.27,1.41-.38,0-.8-.61-.8-1l-.08-3.81-.13-1v-.59l-.11-1.14.11-.46-.13-1.29-.15-.91.06-.4-.06-1.56v-.06a1.93,1.93,0,0,1,1.33-1.69l2.11-.15,1.16-.08.57.29,1.07.4.42.42a5,5,0,0,1,1.73,3.14A2.29,2.29,0,0,1,434.77,622Zm-1.5-2.57-.7-.78c-.21-.25-.36-.49-.61-.49h-.08l-.72.15-.84-.11a1.22,1.22,0,0,0-.27,0c-.38,0-.72.11-.74.4l0,.38.36,2.25,0,.74c0,.15.08.42.29.42s1.27-.8,1.27-.8l.55-.11,1.18-.55s.78-.4.78-.65A1.45,1.45,0,0,0,433.26,619.4Z" transform="translate(-223.6 -43.27)"/><path d="M448.3,625l-.15.42-1,1.28a5.29,5.29,0,0,1-3.75,1.54,4.38,4.38,0,0,1-2.64-.87l-.48-.59-.19-.11c-.49-.25-1.07-2-1.07-3.6a6.1,6.1,0,0,1,1.67-4.34l.23-.32.44-.32.46-.48.46-.13.21-.13a9.6,9.6,0,0,1,3.22-.7c1.37,0,3.69,2.15,3.69,4A9.27,9.27,0,0,1,448.3,625Zm-1.81-5.73-.51,0-.76-.34-1-.06h-.11c-1,0-1.64.76-2.28,1.62a3.56,3.56,0,0,0-.78,2.15c0,2.44.57,3.43,2.34,3.43a3.38,3.38,0,0,0,1.83-.55l.32-.55.55-.44.25-.42.21-.19a9.77,9.77,0,0,0,.65-2.76C447.19,619.61,446.49,619.27,446.49,619.27Z" transform="translate(-223.6 -43.27)"/><path d="M465.88,629.77c-.44,0-.87-.29-1-1l-.3-1.66-.25-.63,0-1.14-.11-.53.11-.91-.27-3.33c0-.21-.06-.36-.17-.36s-.19.08-.34.3l-.87,1.29-1,2.19-.93,1-.65,1c-.23.38-.42.68-1,.68s-.84-.51-1-1l-.46-1.29-.25-.32-.13-.63-.36-.38s-1-2.46-1.58-2.46c-.13,0-.19.29-.19.51s.21.48.21.86a5.08,5.08,0,0,1-.3,1.35l0,.51-.13.76L455,626l-.17.61-.11,1.35a1.12,1.12,0,0,1-.91,1c-.38,0-1.1-.4-1.1-.93a4.17,4.17,0,0,1,.23-1.16l-.08-.36.21-1.14v-1.6l.19-.63s.08-.78.08-2c0-2.21.82-4,1.54-4a1.52,1.52,0,0,1,1,.69c.36.46,1.26,1.77,1.27,1.79l.36.34.4,1c.06.08.7.86,1.08,1.41.25.32,0,1,.4,1s.57-.51,1.25-1.86,2.42-4.53,2.51-4.68a1.7,1.7,0,0,1,1.35-.74c.46,0,.78.57.93,1.66.06.34.4,1.45.57,2.36a2.78,2.78,0,0,1,0,.38c0,.27-.06.49-.06.74a2.54,2.54,0,0,0,0,.36,4.43,4.43,0,0,0,.25.68l.06,2.44.67,3a5.15,5.15,0,0,1,.11.91A1.22,1.22,0,0,1,465.88,629.77Z" transform="translate(-223.6 -43.27)"/></g><g class="cls-12"><path d="M273.35,417.68l0,.4-.11.76-.14,1.74-.07.32.11.66-.07,1.3,0,1.32.11.36v.72l-.07,1.19a5.37,5.37,0,0,1-.48,1.38s-.54.43-.7.43c-.86,0-1-.13-1-.87v-1.3l.2-1.55c0-.08,0-.15,0-.25,0-.4-.09-.93-.29-.93a2.9,2.9,0,0,0-.54.13l-1.42-.26-1.24.11-1.47,0c-.16,0-.36.11-.36.21,0,.32.16.72.16,1,0,2-.63,3.1-1.34,3.1-.41,0-.86-.72-.86-.72l-.07-.64.07-1.23.13-.61-.07-.6.09-1.21.11-2,.2-.62,0-2.38.39-1.21a2.29,2.29,0,0,1,.64-.23,2.57,2.57,0,0,1,.7.32V417l.07.21a.86.86,0,0,1,0,.21c0,.26-.13.55-.13.81s0,.72,0,.83l0,.89-.11.32,0,.66.2.21.43,0,.68-.11.43.06,2.33,0,.86,0a.3.3,0,0,0,.3-.32l0-.43.16-1,.07-2.1c.05-.76.54-1.51,1-1.51a.86.86,0,0,1,1,.81v.06Z" transform="translate(-223.6 -43.27)"/><path d="M285.72,428.38c-.29,0-.81-.53-.81-.53l-.21-.61.05-.72-.18-.43a5.78,5.78,0,0,1-.41-1.25c-.21-1-.39-1.61-.7-1.61a23.8,23.8,0,0,1-2.36.36c-.5,0-.72,0-.79.25l-.25.57-.13.49-.23.45-.16.45-.48.66-.41,1.13a1.43,1.43,0,0,1-1,.76,1.34,1.34,0,0,1-1-1.15,4.88,4.88,0,0,1,.72-1.76,8.52,8.52,0,0,1,.32-1.15c.23-.53.66-1.29.66-1.29l.84-1.7.52-1.53.29-.51.65-1.49c.34-.79.63-1.66,1.47-1.66.66,0,1,.32,1.45,1.44l1.27,3.18.13.62.88,2a2.3,2.3,0,0,1,.34.62c.2.59.18,1.12.38,1.55a5.7,5.7,0,0,1,.47,1.36C287,427.38,286.12,428.38,285.72,428.38Zm-2.85-7.86-.09-.34-.41-.78s-.05-.43-.25-.43-.91,1.17-1,1.82a2.78,2.78,0,0,0-.07.49c0,.11,0,.17.09.17l1.58-.11c.23,0,.47-.09.47-.19A2.23,2.23,0,0,0,282.88,420.52Z" transform="translate(-223.6 -43.27)"/><path d="M297.17,421.42,296,422.5s-.07,0-.05,0l1.06,2.38.61.78a.68.68,0,0,1,.13.45c0,.72-.54,1.83-1,1.83-.21,0-.59-.42-.79-.76l-.61-1.06-.16-.66-.47-.53-.14-.42-.55-1.1c0-.09,0-.15-.11-.15a2.64,2.64,0,0,0-.68.34l-.54.06c-.21,0-.36.53-.36.83v.06l.23,2.76,0,.76c0,.32-.59,1.4-1.2,1.4-.36,0-.75-.61-.75-1l-.07-3.78-.12-1v-.59l-.11-1.13.11-.45-.13-1.29-.14-.91.05-.4-.05-1.55v-.06a1.89,1.89,0,0,1,1.25-1.68l2-.15,1.09-.08.54.28,1,.4.39.42a5,5,0,0,1,1.63,3.12A2.32,2.32,0,0,1,297.17,421.42Zm-1.42-2.55-.66-.77c-.2-.25-.34-.49-.57-.49h-.07l-.68.15-.79-.11a1.14,1.14,0,0,0-.25,0c-.36,0-.68.11-.7.4l0,.38.34,2.23,0,.74c0,.15.07.42.27.42s1.2-.79,1.2-.79l.52-.11,1.11-.55s.73-.4.73-.64A1.47,1.47,0,0,0,295.75,418.87Z" transform="translate(-223.6 -43.27)"/><path d="M305.95,426.94l-1.18.42a5.6,5.6,0,0,1-2.37,1.1,1.52,1.52,0,0,1-1.54-1.38c0-.26-.07-.51-.07-.79a2,2,0,0,1,0-.3l.29-1.4.2-.34.38-2.57.14-.43v-1l.13-.32.11-1.3.27-1.06.09-.25.09-.72.27-.3.23-.45.81-.11.29.06.3-.08a17.11,17.11,0,0,1,3,.95,6,6,0,0,1,2.88,4.41A6.78,6.78,0,0,1,305.95,426.94Zm-1.67-9.15c-.09,0-.2.25-.27.4l0,.44-.25,1.21-.05.68-.25,1.06.05.42-.39,2.72c-.07.45-.27.95-.27,1.23s.05.25.2.26a7.08,7.08,0,0,0,1.13-.62,14.2,14.2,0,0,0,1.84-.93,14.61,14.61,0,0,0,1.27-1l.27-.78.25-.28.16-.51s.38-.43.38-.62A3.85,3.85,0,0,0,304.28,417.79Z" transform="translate(-223.6 -43.27)"/><path d="M320.8,418.47c-.2,0-.81-.15-1-.15l-1.38,0-.3-.13-.66,0-.41,0a3.93,3.93,0,0,0-.43,0c-.23,0-.27,0-.29.17l0,.72-.2.51-.11,1c0,.19,0,.34,0,.45s0,.23.14.23l.88-.13.39,0,.61-.26.95.11a1.27,1.27,0,0,1,1.15,1.21c0,.53-.72,1-1.06,1h0l-.86-.11-1.92.11-.18.06-.13.19-.21.19-.12,2.42a5.8,5.8,0,0,0-.16,1c0,.17,0,.3.07.34s.82-.09,1.16-.09c.66,0,1.25,0,1.43-.06l.81-.3.48,0,.66,0H320a1.55,1.55,0,0,1,1.29,1c0,.42-.86,1-1.06,1h0l-.2,0-.39.21-2.51.11a28.3,28.3,0,0,1-2.78.57,1.09,1.09,0,0,1-1-1.17v-.08l.09-2.16.22-.57.13-1.74.14-.32.05-1.61.36-2.38.09-2.23a1.29,1.29,0,0,1,1.2-1.36h.05l.48,0,.38-.09.79.15.54-.09h1.56l1,.11.91,0c.25,0,.68.53.68,1a.69.69,0,0,1-.09.38A1.36,1.36,0,0,1,320.8,418.47Z" transform="translate(-223.6 -43.27)"/></g><g class="cls-12"><path d="M267.46,434.63s-.52.59-.52.59-1.18-1.2-2-1.2a1.88,1.88,0,0,0-1.4.75l.07.45.25.3,1.15.72.41.43.59.39.25.32.39.45.32.9.29.73a1.82,1.82,0,0,1,.13.68,3.22,3.22,0,0,1-3.08,2.78,7.92,7.92,0,0,1-1.72-.21l-.84-.23-.3-.27c-.2-.12-.88-.57-.88-1.16,0-.81.36-1.15.81-1.15a4,4,0,0,0,2.58.84,1.21,1.21,0,0,0,1.34-1.13,1.13,1.13,0,0,0-.11-.41l-.3-.25-.41-.59-.54-.25c-1-.5-2.38-1.85-2.38-3.15a2.86,2.86,0,0,1,.95-2l.79-.38.43-.23a6.14,6.14,0,0,1,.93-.11c2,0,3.26.82,3.26,1.9C267.94,434.22,267.62,434.49,267.46,434.63Z" transform="translate(-223.6 -43.27)"/><path d="M278.7,434.29a.73.73,0,0,1-.34-.07c-.39-.12-.5-.36-1.06-.36a3.32,3.32,0,0,0-2,.64l-.16.25-1,.82a5.11,5.11,0,0,0-.86,1.15,4.57,4.57,0,0,0-.57,2.17,3,3,0,0,0,.2.81l.48.39.18.34.2.21a6,6,0,0,0,1.83.47,1.24,1.24,0,0,0,.47-.09l.59-.27.38-.07.56-.3.7.3.05.32.34.34s-.39,1.24-.9,1.24l-.3,0c-.11,0-.36.11-.61.21a5.39,5.39,0,0,1-1.42.2,12.09,12.09,0,0,1-2-.34l-.57-.11-.82-.68a4.28,4.28,0,0,1-1.31-3,9.62,9.62,0,0,1,1.34-3.69l.86-1.27.34-.23c.11-.09.38-.38.59-.57a5.8,5.8,0,0,1,3.31-1.08,2.53,2.53,0,0,1,2.28,1.06.78.78,0,0,1,.09.73A1,1,0,0,1,278.7,434.29Z" transform="translate(-223.6 -43.27)"/><path d="M291.92,433.68l0,.38-.11.72-.14,1.65-.07.3.11.63-.07,1.24,0,1.25.11.34v.68l-.07,1.13a4.92,4.92,0,0,1-.48,1.31,2.65,2.65,0,0,1-.7.41c-.86,0-1-.12-1-.82v-1.24l.2-1.47c0-.07,0-.14,0-.23,0-.38-.09-.88-.29-.88a3,3,0,0,0-.54.13l-1.42-.25-1.24.11-1.47,0c-.16,0-.36.11-.36.2,0,.3.16.68.16,1,0,1.92-.63,2.94-1.34,2.94-.41,0-.86-.68-.86-.68l-.07-.61.07-1.16.13-.57-.07-.57.09-1.15.11-1.92.2-.59,0-2.26.39-1.15a2.37,2.37,0,0,1,.64-.21,2.65,2.65,0,0,1,.7.3v.45l.07.2a.79.79,0,0,1,0,.2c0,.25-.13.52-.13.77s0,.68,0,.79l0,.84-.11.3,0,.63.2.2.43,0,.68-.11.43.05,2.33,0,.86,0a.29.29,0,0,0,.3-.3l0-.41.16-.93.07-2c.05-.72.54-1.43,1-1.43s1,.36,1,.77v.05Z" transform="translate(-223.6 -43.27)"/><path d="M299.3,435.26l-.09,1.47-.14.54-.11,1-.09.64s-.43,2.15-.43,2.72a4.53,4.53,0,0,1-.14,1.34,4.44,4.44,0,0,1-.2.52l0,.47c-.07.43-1.27.77-1.27.77l-.29-.57-.25-.27.09-1.24.25-1.43v-.66l.14-.34.29-1.08,0-.57.27-1.24.11-2.11a1.8,1.8,0,0,1,.27-1c.29-.47.54-1.08,1.15-1.08a.85.85,0,0,1,.88.9A3.47,3.47,0,0,1,299.3,435.26Z" transform="translate(-223.6 -43.27)"/><path d="M311.63,435.92a9.22,9.22,0,0,1-.13,1.36l0,.47-.13.72s-.3,1.36-.45,1.77a5.69,5.69,0,0,1-1.43,2l-.39.43a7.45,7.45,0,0,1-1.15.3,4.57,4.57,0,0,1-1,.14c-2.47,0-3.87-1.06-3.87-3,0-.61.23-.91.72-.91s.88.39,1.27,1.15a2.19,2.19,0,0,0,.38.3l.41.25.29.18a3,3,0,0,0,.56.09c1.09,0,1.77-.25,2.11-1l.36-.86.3-.47a1.26,1.26,0,0,0,.16-.66c0-.14,0-.25,0-.3l.13-2.06.14-.5,0-2.19a1.34,1.34,0,0,1,1.25-1.47c.48,0,.77.61.77,1.08C311.91,433.66,311.63,434.69,311.63,435.92Z" transform="translate(-223.6 -43.27)"/><path d="M322.57,433.86c-.25,0-.66-.14-1.09-.2l-.46-.05-.47.07-.68-.13-.77,0c-.47,0-1,.2-1,.54L318,436l-.12.43,0,.39-.12.39v0c0,.05,0,.05.13.05a1.42,1.42,0,0,0,.25,0l.61-.09h.84l.38-.11.81,0c.59,0,1,.84,1,1.08a1.61,1.61,0,0,1-1.61,1.24,2,2,0,0,1-.32,0l-.41-.09-.52.09a1.56,1.56,0,0,1-.29,0l-.54,0a.7.7,0,0,0-.5.14.43.43,0,0,0-.13.34c0,.16,0,.34,0,.52,0,.5.07,1,.07,1.47a4,4,0,0,1-.14.88l-.13.65s-.64.07-.81.07a1.25,1.25,0,0,1-1.13-1.33c0-.18.18-1.27.23-1.49l0-.41.21-1.65v-1l.14-.36,0-.27c.2-1.22.46-2.37.61-3.12.29-1.42.43-2,1.47-2a9.49,9.49,0,0,1,1.06-.09c.25,0,.54.18.84.18,1,0,2.26-.21,2.79-.21a1,1,0,0,1,1,1A1.23,1.23,0,0,1,322.57,433.86Z" transform="translate(-223.6 -43.27)"/></g><g class="cls-12"><path d="M283.63,619.13a.78.78,0,0,1-.36-.08c-.42-.13-.53-.38-1.12-.38a3.52,3.52,0,0,0-2.07.69l-.17.27-1,.88a5.41,5.41,0,0,0-.91,1.22,4.85,4.85,0,0,0-.61,2.3,3.13,3.13,0,0,0,.21.86l.51.42.19.36.21.23a6.38,6.38,0,0,0,1.94.5,1.31,1.31,0,0,0,.5-.1l.63-.29.4-.08.59-.32.74.32.06.34.36.36s-.42,1.31-1,1.31l-.32,0c-.11,0-.38.11-.65.23a5.76,5.76,0,0,1-1.5.21,12.83,12.83,0,0,1-2.15-.36l-.61-.11-.87-.72a4.55,4.55,0,0,1-1.39-3.2,10.22,10.22,0,0,1,1.43-3.92l.91-1.35.36-.25c.11-.1.4-.4.63-.61a6.16,6.16,0,0,1,3.52-1.14,2.68,2.68,0,0,1,2.42,1.12.92.92,0,0,1,.15.48.94.94,0,0,1-.06.3A1.06,1.06,0,0,1,283.63,619.13Z" transform="translate(-223.6 -43.27)"/><path d="M292.52,623.58l-.61.36-1.26.19-.55.17-.27.49,0,.82.09.42-.09.86v1l0,1.07c0,.36-.55.91-.61,1s-.4.46-.65.46c-.53,0-.78-.65-.84-.82l-.21-.48.13-.53,0-.8.23-.72v-1.94l.17-.67,0-.86.21-1.1,0-1.14s.08-.36.11-.61a4.43,4.43,0,0,0,.08-1.07v-1c0-1.66.63-2.25,2.44-2.25a8.81,8.81,0,0,1,1,.1l1.88.57c.38.1,2.23,1.26,2.23,2.25C296,621.85,293,623.38,292.52,623.58Zm.53-4.85-1.07-.15-.4-.21h-.32c-.76,0-.78.34-.86.78l-.19,1.16.06.5-.19.63a.4.4,0,0,0,0,.15c0,.23.15.38.23.38,1.07,0,3.46-1.31,3.46-2.34A1,1,0,0,0,293,618.73Z" transform="translate(-223.6 -43.27)"/><path d="M309.24,619.32l-.21,1.94a12.37,12.37,0,0,1-1.39,3.88l-.32.74L306,627s-2.06,1.39-3.06,1.39a4.57,4.57,0,0,1-3.18-1.18l-.17-.44c-.29-.3-1-1.47-1-4.72a11.36,11.36,0,0,1,.17-2.07l.25-1.66,0-.82c0-.29.65-1.1,1.08-1.1a.86.86,0,0,1,.84.57l.15.76-.1.48.17.48-.3,1.27-.21.55.1,3.52.23.67.11.49a1.88,1.88,0,0,0,1.58.88,4.44,4.44,0,0,0,2.44-1l.68-1.31.29-.29a10.13,10.13,0,0,0,.86-3.14c0-.4,0-.68,0-.93a1.42,1.42,0,0,1,.19-.82l.48-.82c.23-.44.76-.44,1.22-.44a.72.72,0,0,1,.63.76c0,.06,0,.09,0,.15Z" transform="translate(-223.6 -43.27)"/></g><g class="cls-12"><path d="M280.92,539.11l-.51.11-.74-.21-.78-.06-.74-.4-.51-.15a3,3,0,0,1-.76-.76,6.11,6.11,0,0,1-.32-.55l-.36-.27a5.11,5.11,0,0,1-.72-2.82c0-1.85.38-3,1.41-3.73l1.73-1.14.65-.44.42-.36,1.5-.36,1.29.06.7-.1a4.83,4.83,0,0,1,.5,0,1.54,1.54,0,0,1,1.75,1.56c0,.55-.25,1-.76,1-.29,0-1-.61-1.88-.61a10.3,10.3,0,0,0-3,.67l-.23.23-.86.5-.93.91c-.25.21-.27.63-.27,1.29v.29a3.16,3.16,0,0,0,1.1,2.63l.76.25.55.34a2,2,0,0,0,.65.13,2.58,2.58,0,0,0,2.76-2.28,1.73,1.73,0,0,0,0-.25.61.61,0,0,0,0-.23s-.08,0-.13,0-.36.06-.5.06l-1,.06h-.06a.94.94,0,0,1-.89-.86,1.19,1.19,0,0,1,.86-1.08l.68-.11.38-.13a5,5,0,0,0,.86.11c.29,0,.93,0,.93,0l.44.3.4.23a3,3,0,0,1,.21.86c0,.06,0,.09,0,.13C285,536.54,284.12,538.58,280.92,539.11Z" transform="translate(-223.6 -43.27)"/><path d="M294,534.07l-.61.36-1.26.19-.55.17-.27.49,0,.82.09.42-.09.86v1l0,1.07c0,.36-.55.91-.61,1s-.4.46-.65.46c-.53,0-.78-.65-.84-.82l-.21-.48.13-.53,0-.8.23-.72v-1.94l.17-.67,0-.86.21-1.1,0-1.14s.08-.36.11-.61a4.43,4.43,0,0,0,.08-1.07v-1c0-1.66.63-2.25,2.44-2.25a8.81,8.81,0,0,1,1,.1l1.88.57c.38.1,2.23,1.26,2.23,2.25C297.48,532.34,294.45,533.86,294,534.07Zm.53-4.85-1.07-.15-.4-.21h-.32c-.76,0-.78.34-.86.78l-.19,1.16.06.5-.19.63a.4.4,0,0,0,0,.15c0,.23.15.38.23.38,1.07,0,3.46-1.31,3.46-2.34A1,1,0,0,0,294.55,529.22Z" transform="translate(-223.6 -43.27)"/><path d="M310.74,529.81l-.21,1.94a12.37,12.37,0,0,1-1.39,3.88l-.32.74-1.29,1.16s-2.06,1.39-3.06,1.39a4.57,4.57,0,0,1-3.18-1.18l-.17-.44c-.29-.3-1-1.47-1-4.72a11.36,11.36,0,0,1,.17-2.07l.25-1.66,0-.82c0-.29.65-1.1,1.08-1.1a.86.86,0,0,1,.84.57l.15.76-.1.48.17.48-.3,1.27-.21.55.1,3.52.23.67.11.49a1.88,1.88,0,0,0,1.58.88,4.44,4.44,0,0,0,2.44-1l.68-1.31.29-.29a10.13,10.13,0,0,0,.86-3.14c0-.4,0-.68,0-.93a1.42,1.42,0,0,1,.19-.82l.48-.82c.23-.44.76-.44,1.22-.44a.72.72,0,0,1,.63.76c0,.06,0,.09,0,.15Z" transform="translate(-223.6 -43.27)"/></g><g class="cls-12"><path d="M438.44,533.66l-1.29,1.08s-.08,0-.06,0l1.12,2.4.65.78a.65.65,0,0,1,.13.46c0,.72-.57,1.84-1,1.84-.23,0-.63-.42-.84-.76l-.65-1.07-.17-.67-.49-.53-.15-.42-.59-1.1c0-.1,0-.15-.11-.15a2.86,2.86,0,0,0-.72.34l-.57.06c-.23,0-.38.53-.38.84v.06l.25,2.78,0,.76c0,.32-.63,1.41-1.27,1.41-.38,0-.8-.61-.8-1L431.4,537l-.13-1v-.59l-.11-1.14.11-.46-.13-1.29-.15-.91.06-.4-.06-1.56v-.06a1.93,1.93,0,0,1,1.33-1.69l2.11-.15,1.16-.08.57.29,1.07.4.42.42a5,5,0,0,1,1.73,3.14A2.29,2.29,0,0,1,438.44,533.66Zm-1.5-2.57-.7-.78c-.21-.25-.36-.49-.61-.49h-.08l-.72.15-.84-.11a1.22,1.22,0,0,0-.27,0c-.38,0-.72.11-.74.4l0,.38.36,2.25,0,.74c0,.15.08.42.29.42s1.27-.8,1.27-.8l.55-.11,1.18-.55s.78-.4.78-.65A1.45,1.45,0,0,0,436.94,531.09Z" transform="translate(-223.6 -43.27)"/><path d="M451.85,540.66c-.3,0-.86-.53-.86-.53l-.23-.61.06-.72-.19-.44a5.59,5.59,0,0,1-.44-1.26c-.23-1-.42-1.62-.74-1.62s-1.58.36-2.51.36c-.53,0-.76,0-.84.25l-.27.57-.13.5-.25.46-.17.46-.51.67-.44,1.14a1.51,1.51,0,0,1-1,.76,1.38,1.38,0,0,1-1.08-1.16,4.76,4.76,0,0,1,.76-1.77,8.3,8.3,0,0,1,.34-1.16c.25-.53.7-1.29.7-1.29l.89-1.71.55-1.54.3-.51.69-1.5c.36-.8.67-1.67,1.56-1.67.7,0,1,.32,1.54,1.45l1.35,3.2.13.63.93,2a2.24,2.24,0,0,1,.36.63c.21.59.19,1.12.4,1.56a5.57,5.57,0,0,1,.49,1.37A2.26,2.26,0,0,1,451.85,540.66Zm-3-7.92-.09-.34-.44-.78s-.06-.44-.27-.44-1,1.18-1.1,1.83a2.61,2.61,0,0,0-.08.5c0,.11,0,.17.1.17l1.67-.11c.25,0,.5-.09.5-.19A2.19,2.19,0,0,0,448.83,532.75Z" transform="translate(-223.6 -43.27)"/><path d="M469.27,541.46c-.44,0-.87-.29-1-1l-.3-1.66-.25-.63,0-1.14-.11-.53.11-.91-.27-3.33c0-.21-.06-.36-.17-.36s-.19.08-.34.3l-.87,1.29-1,2.19-.93,1-.65,1c-.23.38-.42.68-1,.68s-.84-.51-1-1l-.46-1.29-.25-.32-.13-.63-.36-.38s-1-2.46-1.58-2.46c-.13,0-.19.29-.19.51s.21.48.21.86a5.08,5.08,0,0,1-.3,1.35l0,.51-.13.76.06,1.46-.17.61-.11,1.35a1.12,1.12,0,0,1-.91,1c-.38,0-1.1-.4-1.1-.93a4.17,4.17,0,0,1,.23-1.16l-.08-.36.21-1.14v-1.6l.19-.63s.08-.78.08-2c0-2.21.82-4,1.54-4a1.52,1.52,0,0,1,1,.69c.36.46,1.26,1.77,1.27,1.79l.36.34.4,1c.06.08.7.86,1.08,1.41.25.32,0,1,.4,1s.57-.51,1.25-1.86,2.42-4.53,2.51-4.68a1.7,1.7,0,0,1,1.35-.74c.46,0,.78.57.93,1.66.06.34.4,1.45.57,2.36a2.78,2.78,0,0,1,0,.38c0,.27-.06.49-.06.74a2.54,2.54,0,0,0,0,.36,4.43,4.43,0,0,0,.25.68l.06,2.44.67,3a5.15,5.15,0,0,1,.11.91A1.22,1.22,0,0,1,469.27,541.46Z" transform="translate(-223.6 -43.27)"/></g><g class="cls-12"><path d="M434.77,622l-1.29,1.08s-.08,0-.06,0l1.12,2.4.65.78a.65.65,0,0,1,.13.46c0,.72-.57,1.84-1,1.84-.23,0-.63-.42-.84-.76l-.65-1.07-.17-.67-.49-.53-.15-.42-.59-1.1c0-.1,0-.15-.11-.15a2.86,2.86,0,0,0-.72.34l-.57.06c-.23,0-.38.53-.38.84v.06l.25,2.78,0,.76c0,.32-.63,1.41-1.27,1.41-.38,0-.8-.61-.8-1l-.08-3.81-.13-1v-.59l-.11-1.14.11-.46-.13-1.29-.15-.91.06-.4-.06-1.56v-.06a1.93,1.93,0,0,1,1.33-1.69l2.11-.15,1.16-.08.57.29,1.07.4.42.42a5,5,0,0,1,1.73,3.14A2.29,2.29,0,0,1,434.77,622Zm-1.5-2.57-.7-.78c-.21-.25-.36-.49-.61-.49h-.08l-.72.15-.84-.11a1.22,1.22,0,0,0-.27,0c-.38,0-.72.11-.74.4l0,.38.36,2.25,0,.74c0,.15.08.42.29.42s1.27-.8,1.27-.8l.55-.11,1.18-.55s.78-.4.78-.65A1.45,1.45,0,0,0,433.26,619.4Z" transform="translate(-223.6 -43.27)"/><path d="M448.3,625l-.15.42-1,1.28a5.29,5.29,0,0,1-3.75,1.54,4.38,4.38,0,0,1-2.64-.87l-.48-.59-.19-.11c-.49-.25-1.07-2-1.07-3.6a6.1,6.1,0,0,1,1.67-4.34l.23-.32.44-.32.46-.48.46-.13.21-.13a9.6,9.6,0,0,1,3.22-.7c1.37,0,3.69,2.15,3.69,4A9.27,9.27,0,0,1,448.3,625Zm-1.81-5.73-.51,0-.76-.34-1-.06h-.11c-1,0-1.64.76-2.28,1.62a3.56,3.56,0,0,0-.78,2.15c0,2.44.57,3.43,2.34,3.43a3.38,3.38,0,0,0,1.83-.55l.32-.55.55-.44.25-.42.21-.19a9.77,9.77,0,0,0,.65-2.76C447.19,619.61,446.49,619.27,446.49,619.27Z" transform="translate(-223.6 -43.27)"/><path d="M465.88,629.77c-.44,0-.87-.29-1-1l-.3-1.66-.25-.63,0-1.14-.11-.53.11-.91-.27-3.33c0-.21-.06-.36-.17-.36s-.19.08-.34.3l-.87,1.29-1,2.19-.93,1-.65,1c-.23.38-.42.68-1,.68s-.84-.51-1-1l-.46-1.29-.25-.32-.13-.63-.36-.38s-1-2.46-1.58-2.46c-.13,0-.19.29-.19.51s.21.48.21.86a5.08,5.08,0,0,1-.3,1.35l0,.51-.13.76L455,626l-.17.61-.11,1.35a1.12,1.12,0,0,1-.91,1c-.38,0-1.1-.4-1.1-.93a4.17,4.17,0,0,1,.23-1.16l-.08-.36.21-1.14v-1.6l.19-.63s.08-.78.08-2c0-2.21.82-4,1.54-4a1.52,1.52,0,0,1,1,.69c.36.46,1.26,1.77,1.27,1.79l.36.34.4,1c.06.08.7.86,1.08,1.41.25.32,0,1,.4,1s.57-.51,1.25-1.86,2.42-4.53,2.51-4.68a1.7,1.7,0,0,1,1.35-.74c.46,0,.78.57.93,1.66.06.34.4,1.45.57,2.36a2.78,2.78,0,0,1,0,.38c0,.27-.06.49-.06.74a2.54,2.54,0,0,0,0,.36,4.43,4.43,0,0,0,.25.68l.06,2.44.67,3a5.15,5.15,0,0,1,.11.91A1.22,1.22,0,0,1,465.88,629.77Z" transform="translate(-223.6 -43.27)"/></g></g><path class="cls-13" d="M319.91,595.18a15.66,15.66,0,0,1,.66,3.9c.2,2.28.26,4.58.3,6.87.12,7.3-.09,14.61-.35,21.9-.14,3.9.08,7.82.1,11.73,0,2.19,0,4.38-.09,6.56a4.28,4.28,0,0,1-.18,1.7c-.2.33-.32.23-.8.2-1-.07-2.08-.11-3.11-.1-5,0-9.91-.18-14.87-.17s-9.87.2-14.8.16-9.8-.14-14.71-.18c-2.45,0-4.9.11-7.35.08-.31,0-1.31.07-1.54-.15s-.06-.48-.07-.62c-.05-.71-.07-1.45-.07-2.17,0-9.08,0-18.19.37-27.27.06-1.48-.15-3,0-4.45a51.51,51.51,0,0,0,0-5.8c-.08-1.79.08-3.59.07-5.38,0-2.11-.09-4.23-.15-6.35,0-1-.32-1.24.71-1.27.81,0,1.62,0,2.43,0,2,0,4,0,6,0,4.93.07,9.85.19,14.78.23,8.73.07,17.45.12,26.17.35,1.09,0,2.18.13,3.27.11a10.8,10.8,0,0,1,3.28.14" transform="translate(-223.6 -43.27)"/><path class="cls-8" d="M306.73,639.86c-1.73.71-7.85.8-18.45.4-.73-.09-10.86.29-11.51-.16-.07-.12,0-.49,0-.66,0-.54,0-1.1,0-1.67,0-2.21.05-4.43.09-6.68,0-3.67,0-7.33-.07-10.92,0-2.81.12-5.56.09-8.36,0-1.89,0-3.82,0-5.75a13.74,13.74,0,0,1,0-2.7H277c.14-.11.42,0,.61,0a20.36,20.36,0,0,1,2.48,0l6.43,0,7.21.16a3.14,3.14,0,0,0,1.12,0c.24,0,.65.11,1,.05a3.39,3.39,0,0,1,.88,0c.33.1.77-.09,1.06,0,1.13.23,2.39-.12,3.3.07a4.27,4.27,0,0,0,.61,0,9.12,9.12,0,0,0,1.9,0l.41,0,3.13-.1,0,0c0,.6,0,2.3,0,2.93,0,1.16,0,2.26,0,3.43s-.09,2.31-.09,3.42c0,4.07-.06,8.15-.06,12.21,0,3.15,0,3.83-.14,6.87-.05,1,0,1.93,0,2.95,0,.72-.07,1.52-.08,2.24a10.1,10.1,0,0,1-.07,2.34" transform="translate(-223.6 -43.27)"/><path class="cls-9" d="M287.4,619.5a6.76,6.76,0,0,1-1,0c-.7,0-.58,0-1-.38a5.47,5.47,0,0,0-1.46-1.29,3.51,3.51,0,0,0-2.29.13c-1,.38-1.34,1.12-2,1.83-.34-.37-.66-.77-1-1.15s-.45-.62-.06-1.17a4.71,4.71,0,0,1,2.48-1.65C283.82,615,287.23,616.35,287.4,619.5Z" transform="translate(-223.6 -43.27)"/><path class="cls-9" d="M305.37,620a7.39,7.39,0,0,1-1,0c-.7,0-.58,0-1-.38a5.42,5.42,0,0,0-1.46-1.29,3.51,3.51,0,0,0-2.29.13c-1,.38-1.34,1.12-2,1.83-.34-.37-.66-.77-1-1.15s-.46-.61-.06-1.17a4.78,4.78,0,0,1,2.63-1.7C301.94,615.5,305.18,616.92,305.37,620Z" transform="translate(-223.6 -43.27)"/><path class="cls-4" d="M289.83,628a1.27,1.27,0,0,1-.48-.78,2.29,2.29,0,0,1,2.11-3c1.34-.12,3,.58,3.31,2a2.62,2.62,0,0,1-1.61,2.63C292,629.29,290.71,628.46,289.83,628Z" transform="translate(-223.6 -43.27)"/><path class="cls-2" d="M272.1,600.1a1.31,1.31,0,0,1,.28.88,2.29,2.29,0,0,1-2.74,2.39c-1.33-.2-2.81-1.27-2.75-2.75a2.61,2.61,0,0,1,2.18-2.18C270.33,598.31,271.33,599.41,272.1,600.1Z" transform="translate(-223.6 -43.27)"/><path class="cls-8" d="M268.61,611.5a1.25,1.25,0,0,1-.78-.38,2.28,2.28,0,0,1,.06-3.59,3.16,3.16,0,0,1,3.6-.42,2.39,2.39,0,0,1,.46,3.27C271.18,611.44,269.69,611.42,268.61,611.5Z" transform="translate(-223.6 -43.27)"/><path class="cls-2" d="M267.53,618.53a1.28,1.28,0,0,1-.48-.78,2.3,2.3,0,0,1,2.1-3c1.34-.12,3,.59,3.31,2a2.62,2.62,0,0,1-1.61,2.63C269.67,619.86,268.44,619,267.53,618.53Z" transform="translate(-223.6 -43.27)"/><path class="cls-8" d="M268.45,623.14a1.28,1.28,0,0,1,.81-.43,2.3,2.3,0,0,1,2.81,2.34c0,1.35-.81,3-2.28,3.14a2.65,2.65,0,0,1-2.49-1.83C267,625.17,267.91,624,268.45,623.14Z" transform="translate(-223.6 -43.27)"/><path class="cls-2" d="M269.36,637.11a1.22,1.22,0,0,1-.85-.2,2.3,2.3,0,0,1-.66-3.58c.86-1.05,2.55-1.72,3.77-.93a2.59,2.59,0,0,1,.73,3C271.8,636.56,270.32,636.83,269.36,637.11Z" transform="translate(-223.6 -43.27)"/><path class="cls-8" d="M267.59,643.86a1.29,1.29,0,0,1-.48-.78,2.29,2.29,0,0,1,2.11-3c1.34-.12,3,.58,3.31,2a2.62,2.62,0,0,1-1.61,2.63C269.72,645.19,268.49,644.36,267.59,643.86Z" transform="translate(-223.6 -43.27)"/><path class="cls-2" d="M280.47,642.1c.32.13.43.31.65.65a2.3,2.3,0,0,1-1.36,3.37,3.05,3.05,0,0,1-3.6-1.06,2.44,2.44,0,0,1,.69-2.9C277.91,641.28,279.39,641.8,280.47,642.1Z" transform="translate(-223.6 -43.27)"/><path class="cls-8" d="M286.21,645.54c-.31-.16-.39-.38-.56-.73a2.3,2.3,0,0,1,1.78-3.17,3.05,3.05,0,0,1,3.43,1.51,2.44,2.44,0,0,1-1.05,2.79C288.64,646.67,287.23,646,286.21,645.54Z" transform="translate(-223.6 -43.27)"/><path class="cls-2" d="M299.07,642.08c.32.13.43.31.65.65a2.29,2.29,0,0,1-1.36,3.37,3,3,0,0,1-3.59-1.06,2.43,2.43,0,0,1,.68-2.9C296.52,641.26,298,641.79,299.07,642.08Z" transform="translate(-223.6 -43.27)"/><path class="cls-8" d="M303.83,645.52c-.31-.16-.4-.39-.56-.73a2.29,2.29,0,0,1,1.78-3.17,3,3,0,0,1,3.43,1.51,2.44,2.44,0,0,1-1.05,2.79C306.26,646.66,304.86,646,303.83,645.52Z" transform="translate(-223.6 -43.27)"/><path class="cls-2" d="M316.7,605.85a1.32,1.32,0,0,1,.28.88,2.3,2.3,0,0,1-2.74,2.39c-1.33-.2-2.81-1.28-2.75-2.75a2.62,2.62,0,0,1,2.18-2.18C314.93,604.06,315.93,605.17,316.7,605.85Z" transform="translate(-223.6 -43.27)"/><path class="cls-8" d="M313,618a1.19,1.19,0,0,1-.78-.38,2.28,2.28,0,0,1,.06-3.59,3.17,3.17,0,0,1,3.61-.42,2.4,2.4,0,0,1,.46,3.27C315.56,618,314.05,617.92,313,618Z" transform="translate(-223.6 -43.27)"/><path class="cls-2" d="M311.7,625.59a1.25,1.25,0,0,1-.48-.78,2.3,2.3,0,0,1,2.11-3c1.34-.12,3,.59,3.31,2A2.61,2.61,0,0,1,315,626.5C313.85,626.91,312.59,626.09,311.7,625.59Z" transform="translate(-223.6 -43.27)"/><path class="cls-8" d="M312.62,630.54a1.28,1.28,0,0,1,.82-.42,2.3,2.3,0,0,1,2.82,2.27c.05,1.36-.78,3-2.22,3.19a2.57,2.57,0,0,1-2.53-1.75C311.16,632.62,312,631.4,312.62,630.54Z" transform="translate(-223.6 -43.27)"/><path class="cls-2" d="M313.53,644.51a1.24,1.24,0,0,1-.89-.22,2.29,2.29,0,0,1-.64-3.53,3,3,0,0,1,3.77-1,2.57,2.57,0,0,1,.76,3.06C316,644,314.49,644.22,313.53,644.51Z" transform="translate(-223.6 -43.27)"/><path class="cls-8" d="M276,599.1a1.26,1.26,0,0,1-.48-.78,2.3,2.3,0,0,1,2.11-3c1.34-.12,3,.59,3.31,2a2.62,2.62,0,0,1-1.61,2.63C278.18,600.42,276.92,599.6,276,599.1Z" transform="translate(-223.6 -43.27)"/><path class="cls-2" d="M288.92,597.33c.33.13.44.32.64.65a2.3,2.3,0,0,1-1.36,3.37,3.05,3.05,0,0,1-3.6-1.06,2.44,2.44,0,0,1,.69-2.9C286.36,596.52,287.85,597,288.92,597.33Z" transform="translate(-223.6 -43.27)"/><path class="cls-8" d="M294.66,600.77c-.31-.17-.39-.38-.56-.73a2.3,2.3,0,0,1,1.78-3.17,3,3,0,0,1,3.43,1.51,2.44,2.44,0,0,1-1.05,2.79C297.09,601.91,295.69,601.2,294.66,600.77Z" transform="translate(-223.6 -43.27)"/><path class="cls-2" d="M307.52,597.31c.33.12.44.32.65.65a2.3,2.3,0,0,1-1.36,3.37,3,3,0,0,1-3.59-1.06,2.44,2.44,0,0,1,.68-2.9C305,596.5,306.46,597,307.52,597.31Z" transform="translate(-223.6 -43.27)"/><path class="cls-8" d="M312.28,600.76c-.31-.17-.39-.38-.56-.73a2.29,2.29,0,0,1,1.78-3.17,3,3,0,0,1,3.43,1.51,2.44,2.44,0,0,1-1.05,2.79C314.71,601.89,313.31,601.19,312.28,600.76Z" transform="translate(-223.6 -43.27)"/><path class="cls-14" d="M390.47,599c5.06-.79,10.31-.71,15.41-.8,10.26-.18,20.53-.12,30.79,0,9.23.08,18.46.32,27.69.28,7.68,0,15.36-.1,23-.1,3.44,0,6.89,0,10.33.08,1.06,0,2.12,0,3.17.11a3.31,3.31,0,0,1,.9.08c.06,0,.2,0,.25,0,.24.24-.1,1.61-.14,1.95-.17,1.83-.07,3.68-.15,5.52s-.21,3.84-.26,5.77c-.1,3.86,0,7.73.13,11.59s.07,7.77-.13,11.7c-.19,3.77-.14,7.59-.14,11.37,0,1,.75,3.89-.21,4.42-.45.25-1.33,0-1.82,0s-1,0-1.51.06c-2.77.08-5.55,0-8.32,0-7.72,0-15.43,0-23.15,0s-15.63-.13-23.44-.2c-1.77,0-3.54-.06-5.31-.09-1.38,0-2.76.16-4.14.09-2.41-.11-4.92-.2-7.33-.11-3.29.13-6.59-.05-9.88,0-3.09.07-6.19,0-9.28,0-3.36-.06-6.72,0-10.08,0l-5.63.07c-.4,0-2.15.26-2.4,0s-.16-1.17-.17-1.55c0-1.33.1-2.65.09-4,0-1.84,0-3.59.16-5.43.33-3.81.21-7.68.28-11.51s.11-7.61.11-11.41c0-2.77.44-5.45.59-8.2.1-1.74,0-3.46.18-5.2.16-1.37-.44-3.38.37-4.57" transform="translate(-223.6 -43.27)"/><path class="cls-7" d="M404,638.86c-.78-2.06-.57-4.72-.59-6.87,0-4,.17-8.09.23-12.13,0-2.61-.09-5.22-.07-7.83,0-.62,0-1.24,0-1.86a2.91,2.91,0,0,1,.11-1.15c.27-.42,1.42-.13,1.92-.12,1.4,0,2.81,0,4.21,0,5.76.12,11.51-.1,17.27,0,2.77.06,5.54.08,8.31.05.66,0,1.33-.09,2-.05s.65,0,.76.55a13.76,13.76,0,0,1,0,2.7c-.05,5.24-.19,10.51-.19,15.74,0,1.95,0,3.91,0,5.86,0,1,0,2.06,0,3.1,0,.35.29,2.13.07,2.35s-.9.06-1.13.07c-5.83.07-11.68-.15-17.52-.17-2.36,0-4.72,0-7.08-.07-1.36-.06-2.71-.08-4.06-.09-.7,0-1.4-.07-2.1-.07a8.23,8.23,0,0,1-2.19-.07" transform="translate(-223.6 -43.27)"/><path class="cls-7" d="M394.87,615.1c-2.51-.36-1.52-4.53,1.12-4.74a2.24,2.24,0,0,1,2,3.56C397.34,614.95,395.91,615.1,394.87,615.1Z" transform="translate(-223.6 -43.27)"/><path class="cls-7" d="M394.72,626.76c1.78-2,4.21,1.56,2.9,3.79a2,2,0,0,1-3.8-.18C393.28,629.12,394.06,627.7,394.72,626.76Z" transform="translate(-223.6 -43.27)"/><path class="cls-7" d="M393.91,647.52c-1.88-1.73,1-4.78,3.4-3.33a2.33,2.33,0,0,1-.15,4.15C396,648.84,394.75,648.09,393.91,647.52Z" transform="translate(-223.6 -43.27)"/><path class="cls-7" d="M433.48,603.41c.3-2.27,3.53-1.84,4.27.38.66,1.95-1,4.58-3.17,3C433.54,606,433.52,604.5,433.48,603.41Z" transform="translate(-223.6 -43.27)"/><path class="cls-7" d="M422.59,603.25c1.75,1.85-1.26,4.69-3.6,3.07a2.33,2.33,0,0,1,.41-4.13C420.54,601.77,421.79,602.61,422.59,603.25Z" transform="translate(-223.6 -43.27)"/><path class="cls-7" d="M403.21,602.38c1.67-2.16,4.34,1.32,3.11,3.64a2.06,2.06,0,0,1-3.83-.06C401.93,604.76,402.64,603.34,403.21,602.38Z" transform="translate(-223.6 -43.27)"/><path class="cls-7" d="M433.14,645c.32-2.49,3.86-1.67,4.35.79.38,1.89-1.34,4.13-3.34,2.54C433.19,647.59,433.18,646.07,433.14,645Z" transform="translate(-223.6 -43.27)"/><path class="cls-7" d="M422.26,644.87c1.75,1.88-1.28,4.69-3.61,3.07a2.33,2.33,0,0,1,.41-4.13C420.21,643.39,421.45,644.24,422.26,644.87Z" transform="translate(-223.6 -43.27)"/><path class="cls-7" d="M402.87,644c1.66-2.15,4.35,1.31,3.11,3.64a2.06,2.06,0,0,1-3.83-.06C401.6,646.39,402.3,645,402.87,644Z" transform="translate(-223.6 -43.27)"/><path class="cls-7" d="M442.2,612.85c1.79-2,4.21,1.56,2.9,3.79a2,2,0,0,1-3.8-.18C440.76,615.22,441.54,613.8,442.2,612.85Z" transform="translate(-223.6 -43.27)"/><path class="cls-7" d="M441.39,636.7c-1.87-1.73,1-4.78,3.4-3.33a2.33,2.33,0,0,1-.15,4.15C443.52,638,442.22,637.27,441.39,636.7Z" transform="translate(-223.6 -43.27)"/><path class="cls-7" d="M452.28,643.66c2.5.36,1.53,4.53-1.12,4.75a2.25,2.25,0,0,1-2-3.57C449.82,643.81,451.24,643.67,452.28,643.66Z" transform="translate(-223.6 -43.27)"/><path class="cls-7" d="M452.43,627c-1.82,2-4.25-1.64-2.87-3.86a2.06,2.06,0,0,1,3.82.35C453.86,624.71,453.05,626.08,452.43,627Z" transform="translate(-223.6 -43.27)"/><path class="cls-7" d="M453.24,602.56c1.86,1.72-1,4.78-3.4,3.33a2.33,2.33,0,0,1,.15-4.15C451.1,601.24,452.4,602,453.24,602.56Z" transform="translate(-223.6 -43.27)"/><path class="cls-7" d="M458.1,612.49c1.75-2,4.21,1.55,2.9,3.79a2,2,0,0,1-3.8-.18C456.66,614.85,457.43,613.44,458.1,612.49Z" transform="translate(-223.6 -43.27)"/><path class="cls-7" d="M457.29,636.34c-1.85-1.7.89-4.72,3.33-3.36a2.3,2.3,0,0,1,.09,4.07C459.54,637.7,458.2,637,457.29,636.34Z" transform="translate(-223.6 -43.27)"/><path class="cls-7" d="M468.18,643.3c2.5.36,1.53,4.52-1.12,4.75a2.24,2.24,0,0,1-2-3.56C465.72,643.45,467.13,643.31,468.18,643.3Z" transform="translate(-223.6 -43.27)"/><path class="cls-7" d="M468.33,626.63c-1.8,2-4.25-1.63-2.87-3.86a2.06,2.06,0,0,1,3.82.35C469.76,624.34,469,625.72,468.33,626.63Z" transform="translate(-223.6 -43.27)"/><path class="cls-7" d="M469.15,602.2c1.87,1.74-1,4.78-3.4,3.33a2.33,2.33,0,0,1,.15-4.15C467,600.88,468.31,601.63,469.15,602.2Z" transform="translate(-223.6 -43.27)"/><path class="cls-7" d="M474.79,612.25c1.78-2,4.26,1.61,2.87,3.86a2.06,2.06,0,0,1-3.81-.35C473.37,614.54,474.16,613.17,474.79,612.25Z" transform="translate(-223.6 -43.27)"/><path class="cls-7" d="M474,636.1c-1.87-1.72,1-4.78,3.4-3.33a2.33,2.33,0,0,1-.15,4.15C476.11,637.42,474.82,636.68,474,636.1Z" transform="translate(-223.6 -43.27)"/><path class="cls-7" d="M484.87,643.06c2.49.36,1.53,4.53-1.12,4.75a2.24,2.24,0,0,1-2-3.56C482.41,643.21,483.82,643.07,484.87,643.06Z" transform="translate(-223.6 -43.27)"/><path class="cls-7" d="M485,626.39c-1.8,2-4.25-1.63-2.87-3.86a2.06,2.06,0,0,1,3.81.35C486.44,624.1,485.65,625.48,485,626.39Z" transform="translate(-223.6 -43.27)"/><path class="cls-7" d="M485.83,602c1.87,1.73-1,4.78-3.4,3.33a2.33,2.33,0,0,1,.15-4.15C483.7,600.64,485,601.39,485.83,602Z" transform="translate(-223.6 -43.27)"/><path class="cls-7" d="M490.69,611.89c1.77-2,4.21,1.55,2.9,3.79a2,2,0,0,1-3.8-.18C489.25,614.25,490,612.84,490.69,611.89Z" transform="translate(-223.6 -43.27)"/><path class="cls-7" d="M489.88,635.74l-.11-.1c-1.7-2,1.34-4.7,3.65-3.18a2.35,2.35,0,0,1-.28,4.1C492,637.06,490.72,636.31,489.88,635.74Z" transform="translate(-223.6 -43.27)"/><path class="cls-2" d="M398.13,603.69c1.44,2.21-2,4.32-4,2.43a2.29,2.29,0,0,1,.8-4C396.25,601.8,397.39,602.87,398.13,603.69Z" transform="translate(-223.6 -43.27)"/><path class="cls-2" d="M393.86,622.15c-1.86-1.71.9-4.72,3.33-3.36a2.3,2.3,0,0,1,.09,4.07C396.11,623.51,394.77,622.77,393.86,622.15Z" transform="translate(-223.6 -43.27)"/><path class="cls-2" d="M395.57,640.75c-2.56.22-2.32-4.1.16-4.89a2.24,2.24,0,0,1,2.64,3.23C397.86,640.13,396.5,640.52,395.57,640.75Z" transform="translate(-223.6 -43.27)"/><path class="cls-2" d="M444.14,606.9c-2.11,1.7-4-2.43-2.19-4.38a2.09,2.09,0,0,1,3.69,1.19C445.84,605,444.88,606.13,444.14,606.9Z" transform="translate(-223.6 -43.27)"/><path class="cls-2" d="M426.9,602.33c1.64-2.12,4.3,1.24,3.13,3.56a2,2,0,0,1-3.8.1C425.61,604.79,426.3,603.32,426.9,602.33Z" transform="translate(-223.6 -43.27)"/><path class="cls-2" d="M409.52,604.16c-.15-2.5,3.42-2.56,4.41-.21.73,1.73-.35,4.13-2.57,3.29C410.16,606.78,409.74,605.23,409.52,604.16Z" transform="translate(-223.6 -43.27)"/><path class="cls-2" d="M443.8,648.52c-2.12,1.7-4-2.43-2.19-4.38a2.09,2.09,0,0,1,3.69,1.19C445.51,646.57,444.54,647.75,443.8,648.52Z" transform="translate(-223.6 -43.27)"/><path class="cls-2" d="M426.56,644c1.67-2.15,4.36,1.31,3.11,3.64a2,2,0,0,1-3.75.08C425.27,646.45,425.94,645,426.56,644Z" transform="translate(-223.6 -43.27)"/><path class="cls-2" d="M409.19,645.78c-.14-2.27,3.05-2.64,4.25-.6,1,1.76-.05,4.71-2.51,3.65C409.79,648.34,409.4,646.84,409.19,645.78Z" transform="translate(-223.6 -43.27)"/><path class="cls-2" d="M443.05,627.33c-2.57.22-2.32-4.1.16-4.89a2.24,2.24,0,0,1,2.64,3.23C445.34,626.71,444,627.1,443.05,627.33Z" transform="translate(-223.6 -43.27)"/><path class="cls-2" d="M452.58,638c-1.66,2.17-4.35-1.31-3.11-3.64a2.05,2.05,0,0,1,3.83.06C453.85,635.64,453.15,637.07,452.58,638Z" transform="translate(-223.6 -43.27)"/><path class="cls-2" d="M450.48,611.89c2.23-1.47,3.76,2.72,1.86,4.51a2.12,2.12,0,0,1-3.65-1.57C448.65,613.6,449.72,612.57,450.48,611.89Z" transform="translate(-223.6 -43.27)"/><path class="cls-2" d="M460,606.54c-2.11,1.69-4-2.43-2.19-4.38a2.09,2.09,0,0,1,3.69,1.19C461.74,604.59,460.78,605.76,460,606.54Z" transform="translate(-223.6 -43.27)"/><path class="cls-2" d="M459.7,648.16c-2.11,1.7-4-2.43-2.19-4.38a2.1,2.1,0,0,1,3.7,1.19C461.41,646.21,460.44,647.39,459.7,648.16Z" transform="translate(-223.6 -43.27)"/><path class="cls-2" d="M458.95,627c-2.56.22-2.32-4.1.16-4.89a2.24,2.24,0,0,1,2.64,3.23C461.24,626.35,459.88,626.73,458.95,627Z" transform="translate(-223.6 -43.27)"/><path class="cls-2" d="M468.48,637.67c-1.66,2.13-4.3-1.25-3.14-3.56a2,2,0,0,1,3.8-.1C469.76,635.21,469.08,636.68,468.48,637.67Z" transform="translate(-223.6 -43.27)"/><path class="cls-2" d="M466.38,611.53c2.22-1.48,3.77,2.71,1.86,4.51a2.12,2.12,0,0,1-3.65-1.57C464.55,613.24,465.61,612.21,466.38,611.53Z" transform="translate(-223.6 -43.27)"/><path class="cls-2" d="M476.72,606.3c-2.11,1.7-4-2.43-2.19-4.38a2.09,2.09,0,0,1,3.69,1.19C478.43,604.35,477.47,605.53,476.72,606.3Z" transform="translate(-223.6 -43.27)"/><path class="cls-2" d="M476.39,647.92c-2.12,1.7-4-2.43-2.19-4.38a2.09,2.09,0,0,1,3.69,1.19C478.1,646,477.13,647.15,476.39,647.92Z" transform="translate(-223.6 -43.27)"/><path class="cls-2" d="M475.64,626.73c-2.57.22-2.32-4.1.16-4.89a2.24,2.24,0,0,1,2.64,3.22C477.93,626.11,476.57,626.5,475.64,626.73Z" transform="translate(-223.6 -43.27)"/><path class="cls-2" d="M485.17,637.43c-1.67,2.16-4.35-1.31-3.11-3.63a2.05,2.05,0,0,1,3.82.06C486.44,635,485.73,636.47,485.17,637.43Z" transform="translate(-223.6 -43.27)"/><path class="cls-2" d="M483.07,611.29c2.22-1.47,3.77,2.71,1.86,4.51a2.12,2.12,0,0,1-3.65-1.58C481.24,613,482.31,612,483.07,611.29Z" transform="translate(-223.6 -43.27)"/><path class="cls-2" d="M492.63,605.94c-2.15,1.7-4-2.45-2.19-4.38a2.09,2.09,0,0,1,3.69,1.19C494.33,604,493.37,605.16,492.63,605.94Z" transform="translate(-223.6 -43.27)"/><path class="cls-2" d="M492.29,647.56c-2.12,1.7-4-2.44-2.19-4.38a2.09,2.09,0,0,1,3.69,1.19C494,645.61,493,646.79,492.29,647.56Z" transform="translate(-223.6 -43.27)"/><path class="cls-2" d="M491.54,626.37c-2.57.22-2.31-4.1.16-4.89a2.24,2.24,0,0,1,2.64,3.23C493.83,625.74,492.46,626.14,491.54,626.37Z" transform="translate(-223.6 -43.27)"/><path class="cls-6" d="M409.28,622.25c-1.86-1.73,1-4.78,3.4-3.33a2.33,2.33,0,0,1-.14,4.15C411.42,623.57,410.12,622.82,409.28,622.25Z" transform="translate(-223.6 -43.27)"/><path class="cls-6" d="M427.36,622.25c-1.87-1.73,1-4.78,3.4-3.33a2.33,2.33,0,0,1-.15,4.15C429.5,623.56,428.19,622.82,427.36,622.25Z" transform="translate(-223.6 -43.27)"/><path class="cls-5" d="M424.56,627.8c-.39-2.13-4.12-1.74-5.54-1.48a2.16,2.16,0,0,0-1.91,2.91c.53,1.86,5.3,2.06,6.64,1a3.5,3.5,0,0,0,.81-2.43" transform="translate(-223.6 -43.27)"/><path class="cls-4" d="M246.16,404.21c5.4-1.1,24.45-1.25,57.48-.62,2.29.15,33.82-.44,35.86.25.23.19-.21,2.75-.19,3.64.07,3.44-.18,6.91-.26,10.41-.12,5.71-.15,25.69-.07,30.06.06,2.95.39,11.76-.13,13.16,0,0-7.21.1-9.85.09-6.68,0-51.11-.24-51.7-.32-1.05-.15-10.74.24-13.56-.07-.45,0-15.61.13-18.87.18l-.1-.07a33.82,33.82,0,0,1-.06-4.57c.13-1.81.44-35.67.93-40.4.17-1.54,0-10.67.54-11.73" transform="translate(-223.6 -43.27)"/><path class="cls-15" d="M248.15,430.67a19.67,19.67,0,0,1,5.74-14.52c3.27-3.21,8.07-7.19,12.83-7.64,4.13-.39,8.53.44,12.54,1.32,5.7,1.24,9.33,4.14,13.3,8.32,3.15,3.32,4.76,9.12,5,13.63.09,1.79.24,3.64.19,5.43-.07,2.78-1.74,5.2-3.07,7.56a22.44,22.44,0,0,1-4.72,6c-1.87,1.66-4.27,2.32-6.67,3-4.57,1.28-9.17,2.38-13.92,1.9-5.33-.55-12.24-3-15.48-7.39a31.34,31.34,0,0,1-3.72-8,36.33,36.33,0,0,1-1.47-5.4c-.19-1.07,0-3.3-.52-4.22" transform="translate(-223.6 -43.27)"/><path class="cls-3" d="M247.81,409.43c-.05-4.12,4.84-2.82,4.37.81-.16,1.23-1.1,2.54-2.5,2.3-1.76-.3-1.9-1.68-1.87-3.11" transform="translate(-223.6 -43.27)"/><path class="cls-3" d="M247.81,453.93c-.05-4.12,4.84-2.82,4.37.81-.16,1.23-1.1,2.54-2.5,2.3-1.76-.3-1.9-1.57-1.87-3.11" transform="translate(-223.6 -43.27)"/><path class="cls-15" d="M311.36,454.87c1.33-6.06,3.94-12.12,5.89-18,1.07-3.24,2.14-6.47,3.32-9.67.2-.55.64-2.57,1.1-2.88s.57-.16,1.28,0c1.7.45,3.52,2.07,4.71,3.29,5.32,5.44,9.4,15.32,4.39,22.28-4.33,6-14.08,8.36-20.69,5" transform="translate(-223.6 -43.27)"/><path class="cls-3" d="M325,439c-.61-3.44-.37-7.39-3.15-10a8.32,8.32,0,0,0-5.82-2.49c-4-.35-8-1.05-12-1.42-4.76-.44-9.56-.55-14.32-.93-1.07-.09-3.47-.68-4.44,0a3.42,3.42,0,0,0-.84,2.1c.06,1.13.78,1.53,1.66,2.33,3.47,3.11,7.1,6,10.68,9s7.15,6,10.69,9.08c1,.83,1.86,1.46,2.68,2.15a7,7,0,0,0,1.87,1.3c6.78,2.91,14.26-4.13,13-11.16" transform="translate(-223.6 -43.27)"/><polygon class="cls-15" points="97.83 365.89 97.83 376.96 112.64 377.03 112.06 365.67 97.83 365.89"/><path class="cls-15" d="M315.1,559.81a14,14,0,0,1-4,.7c-2.36.2-4.74.24-7.1.26-6.17,0-12.34-.41-18.5-.37-4.38,0-8.76.2-13.13.08a21.49,21.49,0,0,1-2.34-.14c-.88-.12-.73-.34-.68-1.17.24-4.18.14-8.41.19-12.59.1-8.51-.14-17,0-25.53.08-4.23.19-8.52,0-12.75a20.62,20.62,0,0,1,0-3c.09-.82.46-.6,1.27-.64,1.64-.09,3.28,0,4.92,0,8.17,0,16.37.23,24.49.35,3.47.05,7-.08,10.44-.06,1,0,2,0,3.06,0,.56,0,1.81-.27,2.05.15s0,1.35,0,1.78c0,.69,0,1.37,0,2.06-.17,8.16-.2,16.32-.25,24.48,0,7.06,0,14.13-.31,21.18-.08,1.68.27,3.58-.17,5.22" transform="translate(-223.6 -43.27)"/><path class="cls-5" d="M307.51,551.46c-.79.33-1.7,0-2.55,0-1.53.13-3.07.16-4.6.17-4,0-8-.27-12-.25-2.83,0-5.67.13-8.51.05a13.62,13.62,0,0,1-1.52-.09c-.57-.08-.47-.22-.44-.77.16-2.76.09-5.57.12-8.33.07-5.63-.09-11.26,0-16.9,0-2.8.12-5.64,0-8.44a13.94,13.94,0,0,1,0-2c.06-.54.3-.4.82-.43,1.06-.06,2.13,0,3.19,0,5.29,0,10.6.15,15.86.23,2.24,0,4.51-.05,6.76,0,.65,0,1.32,0,2,0,.36,0,1.17-.18,1.33.1a3.36,3.36,0,0,1,0,1.18c0,.45,0,.91,0,1.36-.11,5.4-.13,10.8-.16,16.2,0,4.67,0,9.35-.2,14Z" transform="translate(-223.6 -43.27)"/><path class="cls-3" d="M303,525c3.64.4,4.14,5.93,1,7.38C299.4,534.49,297.34,525.47,303,525Z" transform="translate(-223.6 -43.27)"/><path class="cls-3" d="M284.56,531.7a1.85,1.85,0,0,1-1.2.71c-2.6.64-4.33-1.75-3.88-4.2.55-3,4.27-4.84,6.06-1.53C286.49,528.44,285.33,530.29,284.56,531.7Z" transform="translate(-223.6 -43.27)"/><path class="cls-10" d="M288.36,535.55c.85-.06,1.4-.77,1.78-.15a4.87,4.87,0,0,0,1.45,1.66c1.92.91,3.29-.55,4.5-1.82.62.7,1.38,1.24,1.19,2.06-.24,1-1.79,1.66-2.62,1.91C291.8,540.05,288.7,538.66,288.36,535.55Z" transform="translate(-223.6 -43.27)"/><path class="cls-14" d="M511,515.2c-.72-.18-5.23-.26-6.7-.28-4.38-.05-8.77,0-13.15,0-8,0-15.92.14-23.88.1-13.12-.06-26.23-.34-39.35-.36-9.37,0-34,.81-34.16.87-.55.2-.64.76-.68,1.36,0,.86-.18,4.72-.18,5.82,0,2-.83,25.22-.86,29.68,0,2.18-.42,10.21-.46,12.06,0,.71,0,1.43,0,2.14s-.09,1.08.82,1.07c2.25,0,26-.06,29.65-.14,2.09,0,4.17,0,6.26.07,1.61.09,3.23-.08,4.84,0,1.28.06,7.23.14,7.33,0s0-1,0-1.22c0-3.74,0-7.48.1-11.22q0-1.36,0-2.73c0-.65-.23-2,.12-2.52s12.81-.64,13.89-.64c.63,0,1.87-.16,2.14.5s-.07,10.18-.08,12.36q0,1.65,0,3.29,0,.76,0,1.51a3.78,3.78,0,0,0,0,.76c.09.11,5.49,0,7.73.06,4.58,0,30.49.09,38.87.13,1.36,0,2.72,0,4.07-.05.7,0,2.71,0,2.81-.07.3-.22.12-3.18.1-4,0-1.11,0-2.23,0-3.34,0-2.23.33-18,.24-20.21-.17-4.41-.28-8.84-.08-13.25.1-2.19.74-11.55.52-11.68" transform="translate(-223.6 -43.27)"/><polygon class="cls-6" points="170.44 510.38 172.99 510.45 172.46 519.6 170.75 519.57 170.44 510.38"/><polygon class="cls-6" points="176.24 508.98 178.53 508.9 179.14 520.1 176.82 519.94 176.24 508.98"/><polygon class="cls-6" points="182.21 508.82 185.18 508.6 184.68 521.8 182.48 522.11 182.21 508.82"/><polygon class="cls-6" points="188.82 508.71 190.53 508.75 190.91 520.66 188.29 520.59 188.82 508.71"/><polygon class="cls-6" points="194.13 507.84 196.18 507.91 196.98 521.46 194.17 521.61 194.13 507.84"/><polygon class="cls-6" points="199.79 507.42 202.22 507.38 203.39 518.08 200.85 518.24 199.79 507.42"/><polygon class="cls-6" points="206.39 508.86 208.44 508.6 208.78 518.05 206.7 518.08 206.39 508.86"/><polygon class="cls-6" points="212.47 508.6 214.63 508.56 214.59 519.64 212.35 519.6 212.47 508.6"/><polygon class="cls-6" points="282.63 521.16 280.07 521.09 280.6 511.41 282.31 511.45 282.63 521.16"/><polygon class="cls-6" points="277.49 521.22 275.2 521.3 274.59 509.16 276.9 509.33 277.49 521.22"/><polygon class="cls-6" points="270.85 521.45 267.89 521.69 268.38 507.57 270.58 507.25 270.85 521.45"/><polygon class="cls-6" points="263.75 521.33 262.04 521.29 261.66 509.37 264.28 509.44 263.75 521.33"/><polygon class="cls-6" points="258.18 522.36 256.13 522.28 255.33 507.66 258.14 507.5 258.18 522.36"/><polygon class="cls-6" points="251.29 511.81 248.88 512.1 249.14 522.86 251.68 522.67 251.29 511.81"/><polygon class="cls-6" points="244.81 511.52 242.76 511.28 242.66 521.32 244.75 521.31 244.81 511.52"/><polygon class="cls-6" points="238.51 510.18 236.35 510.14 236.39 521.22 238.63 521.19 238.51 510.18"/><path class="cls-7" d="M398.42,523.9l.25,21.8,10.26.3h6.24l.47-18.15s.54-3.72.08-4-7.52.23-7.52.23Z" transform="translate(-223.6 -43.27)"/><path class="cls-7" d="M463.67,525l.25,21.8,10.26.3h6.24l.47-18.15s.54-3.72.08-4-7.52.23-7.52.23Z" transform="translate(-223.6 -43.27)"/><path class="cls-7" d="M487.36,524.66l-.49,21.8,10.24.65,6.24.21,1.08-18.12s.67-3.7.21-4-7.53,0-7.53,0Z" transform="translate(-223.6 -43.27)"/><path class="cls-7" d="M421.07,522.46l1,22.4,10-.23,7-.38-.82-18.51s.38-3.67-.08-3.9-7.36.18-7.36.18Z" transform="translate(-223.6 -43.27)"/><path class="cls-5" d="M446.56,535.06s1.51,3.77,4.6,3.77,5.73-3,6.34-4.15c.83.91,2.49,3.32,2.49,3.32s-.91,2.19-2.11,2.79-2.72,2-5.51,2-5.81-.75-7.09-2.72a11.18,11.18,0,0,1-2-4.75A22.65,22.65,0,0,0,446.56,535.06Z" transform="translate(-223.6 -43.27)"/><path class="cls-6" d="M427.85,530.09c-.06-4.35,5.31-3,4.8.86a2.55,2.55,0,0,1-2.75,2.42c-1.93-.32-2.08-1.77-2.05-3.28" transform="translate(-223.6 -43.27)"/><path class="cls-6" d="M469.72,532.35c-.06-4.35,5.31-3,4.8.86a2.55,2.55,0,0,1-2.75,2.42c-1.93-.32-2.08-1.77-2.05-3.28" transform="translate(-223.6 -43.27)"/></svg>