<svg xmlns="http://www.w3.org/2000/svg" viewBox="0 0 219.97 184.74"><title>poorten-part</title><path d="M29.9,177.3c2.5,0,6.9-.1,10.2-.1,2,0,4.2.3,5.6-.1h1.8a37.92,37.92,0,0,0,4.9-.1c3.5,0,6.9,0,10.3-.1a29.11,29.11,0,0,1,5.1-.3h2.1a21.72,21.72,0,0,1,4.4-.3h2.1c.7-.1,2,.1,3-.1.8-.1,2.1.1,3-.1a13.92,13.92,0,0,1,3.5-.1l.1-.1a12.67,12.67,0,0,1,.4-3.4v-1.1c.3-1.4.3-3.2.6-4.5.4-1.6.1-3.2.6-4.8,0-.8.1-1.6.1-2.4.4-1.8.3-3.9.7-5.8v-1.6c.4-1.8.1-3.9.4-5.9,1-6.2-.3-15.2-1.8-20.4a38.59,38.59,0,0,0-1.7-5.8c-.6-1.6-2.5-3.4-3.5-4.8-.7-1-1.6-1.8-2.1-2.7-.3-.3-.4-.7-.7-1-1-.7-2.3-1.1-3.2-2-1.4-1.1-2.7-2.4-4.1-3.4a34.62,34.62,0,0,0-5.6-2.3c-1.8-.7-3.8-.6-5.8-1s-4.4-.7-6.5-1.1c-.7,0-1.6-.1-2.3-.1a15.62,15.62,0,0,0-6.5-.3c-2.3.6-4.5,1.1-6.6,1.8-.7.3-1.3.1-1.8.6-1.3.6-2.4,1.6-3.7,2.3-1.1.7-2.4,1.1-3.4,1.8a16.73,16.73,0,0,0-3.1,3.4c-.4.6-1.1,1-1.6,1.7a29.08,29.08,0,0,0-4.9,9c-.7,2.3-.3,4.9-.8,7.3-.3,1.3.1,3.1-.1,4.2,0,1.7,0,3.2-.1,4.9a8.27,8.27,0,0,0-.1,2.7c0,.1.1.6.1.8-.3,1.1,0,2.4,0,4.1A56,56,0,0,0,19,152v5.5c0,2.1-.4,4.9.1,7a24.74,24.74,0,0,1,.1,3.8c.3,1.1,0,2.5.3,3.5.3,1.3,0,2.5.3,3.7.1.7-.1,1.3.3,1.6s1.8.1,2.5.1c1.7,0,3.4,0,4.9.1a6.43,6.43,0,0,1,2.4,0" transform="translate(-18.73 -7.46)" fill="#e84e0f"/><path d="M58.8,163.2H46c-.4.1-1.1,0-1.6.1v.4a2,2,0,0,0,.1.8c.1.4.1,1,.4,1.3a14.77,14.77,0,0,0,1.6,2.7c.3.3.4.7.7.8a12.13,12.13,0,0,1,1.4,1,2.15,2.15,0,0,1,.7.4l.3.3h.3a2,2,0,0,1,.8.1c.3,0,.6.1.8.1h.3a1.58,1.58,0,0,0,.7,0c.4-.1,1-.1,1.3-.4.3-.1.4-.3.7-.4a1.56,1.56,0,0,0,.8-.6l.7-.7.6-.6.3-.3c.1-.3.3-.4.6-.7a6.56,6.56,0,0,0,.8-2.1,1.76,1.76,0,0,1,.1-.6,7.89,7.89,0,0,1,.3-1.3c0-.1,0-.3.1-.3h0" transform="translate(-18.73 -7.46)" fill="#95c11f"/><path d="M24.7,191.9a18.1,18.1,0,0,0-.3-2.3V188c-.1-.3,0-.7-.1-1.1v-.4a2,2,0,0,0-.1-.8v-.3a2.25,2.25,0,0,0-.1-.7,22.44,22.44,0,0,0-.3-2.4V182a3.75,3.75,0,0,0-.1-1v-.3a18.1,18.1,0,0,0-.3-2.3v-.8a4.49,4.49,0,0,1-.1-1.1v-.3a1.7,1.7,0,0,0-.1-.7c0-.3-.1-.6-.1-1l.1-.1H28c.3,1.3.4,2.7.7,4.1v.3a3.4,3.4,0,0,1,.1,1,1.08,1.08,0,0,0,.1.6,7.89,7.89,0,0,0,.3,1.3v.3a3.4,3.4,0,0,1,.1,1v.3a9.25,9.25,0,0,0,.4,2.3v5.2a6.55,6.55,0,0,1,0,1.4" transform="translate(-18.73 -7.46)" fill="#e84e0f"/><path d="M83.6,191.6a14.72,14.72,0,0,0-2.1,0h-.9v-.3c-.1-.1,0-.4,0-.6-.1-.4,0-.8-.1-1.3v-1c-.1-.8-.1-1.8-.3-2.7v-1c-.1-.6,0-1.1-.1-1.7v-.7c-.1-.6,0-1.1-.1-1.7s-.1-1.8-.3-2.7v-.7c-.1-.4,0-.8-.1-1.1v-.4a6.55,6.55,0,0,1,0-1.4,9.15,9.15,0,0,0-.1-1.6v-5.1c.4-.1,1.1,0,1.7-.1h.3a2.13,2.13,0,0,1,.8,0h1.1a6.15,6.15,0,0,1,1.4-.1,5.65,5.65,0,0,1,0,1.3c-.1.1,0,.8,0,1.1,0,1-.1,2.1-.1,3.1v18.4h-.1Z" transform="translate(-18.73 -7.46)" fill="#e84e0f"/><path d="M49.8,102.7c-.1,0-.1-.6,0-.8a5.58,5.58,0,0,1,0-1.3V86.3a5.65,5.65,0,0,1,1.3,0h2.6v1.4c.1.6,0,1.1.1,1.7v5a5.58,5.58,0,0,1,0,1.3v4a5.58,5.58,0,0,1,0,1.3v1.3h0a3.75,3.75,0,0,0-1.1.1H49.9Z" transform="translate(-18.73 -7.46)" fill="#e84e0f"/><path d="M30.6,160.8H31a.6.6,0,0,1,.4.1h.1l.1.1v.1l.3.3.1.1.1.3c.1.3.3.4.3.7v1a1.49,1.49,0,0,1-.1.6v.1l-.1.1-.1.3-.3.3-.1.1-.3.3-.1.1h-.1l-.3.1h-.1l-.3.1h-.9a.54.54,0,0,1-.4-.3,1.06,1.06,0,0,1-.7-.6l-.1-.3v-.1c0-.1-.1-.3-.1-.4v-.1a3.54,3.54,0,0,1-.1-.6v-.9c0-.3.1-.4.1-.6l.1-.3.1-.3V161h.1c.1-.1.3-.3.4-.3s.3-.1.4-.1.3-.1.4-.1h.4Z" transform="translate(-18.73 -7.46)" fill="#ffe400"/><path d="M72.1,160h.4a.6.6,0,0,1,.4.1H73l.1.1v.1l.3.3.1.1.1.3c.1.3.3.4.3.7v1a1.49,1.49,0,0,1-.1.6v.1l-.1.1-.1.3-.3.3-.1.1-.3.3-.1.1h-.1l-.3.1h-.1l-.3.1h-.8a.54.54,0,0,1-.4-.3,1.06,1.06,0,0,1-.7-.6l-.1-.3v-.1c0-.1-.1-.3-.1-.4V163a3.54,3.54,0,0,1-.1-.6v-.9c0-.3.1-.4.1-.6l.1-.3.1-.3v.3h.1c.1-.1.3-.3.4-.3s.3-.1.4-.1.3-.1.4-.1h.4Z" transform="translate(-18.73 -7.46)" fill="#ffe400"/><path d="M71.5,106.3a34.62,34.62,0,0,0-5.6-2.3c-1.8-.7-3.8-.6-5.8-1s-4.4-.7-6.5-1.1c-.7,0-1.6-.1-2.3-.1a16.1,16.1,0,0,0-6.6-.3c-2.3.6-4.7,1.1-6.6,1.8-.7.3-1.3.1-1.8.6-1.3.6-2.5,1.6-3.7,2.3s-2.4,1.1-3.4,1.8a16.73,16.73,0,0,0-3.1,3.4" transform="translate(-18.73 -7.46)" fill="#e84e0f"/><path d="M49.8,102.7c-.1,0-.1-.6,0-.8a5.58,5.58,0,0,1,0-1.3V86.3a5.65,5.65,0,0,1,1.3,0h2.6v1.4c.1.6,0,1.1.1,1.7v5a5.58,5.58,0,0,1,0,1.3v4a5.58,5.58,0,0,1,0,1.3v1.3h0a3.75,3.75,0,0,0-1.1.1H49.9Z" transform="translate(-18.73 -7.46)" fill="#e84e0f"/><path d="M174.4,137.4V139c.4,1.8.1,4.1.6,5.9a20.91,20.91,0,0,0,.1,2.5c.3,1.6.1,3.2.4,4.9.3,1.4.3,3.2.6,4.7v1.1a12.67,12.67,0,0,1,.4,3.4l.1.1h.6c0-.1.1-.3.1-.4.4-.4,1.4-.7,1.8-1.1,1.6-1,3.1-1.8,4.7-2.8,3.2-2.1,6.2-4.4,10.2-5.9,1.1-.4,2.5-.6,3.7-1,.6,0,1.3-.1,1.8-.1a20.85,20.85,0,0,1,5.8-.4c.4,0,.7-.1,1.1-.1a10.28,10.28,0,0,1,1.8.1H210c1,.1,2.1.1,3.1.3a109.38,109.38,0,0,1,10.6,2.7,30.06,30.06,0,0,0,3.9.8c.3,0,.6.1.8.1a12.42,12.42,0,0,1,2.3,1.7,51.72,51.72,0,0,1,6.2,5.2,3.92,3.92,0,0,1,.8,1v-.8c.3-1.1,0-2.5.3-3.8.3-1.1,0-2.4.3-3.7.3-1.1-.1-2.7.1-3.9.4-2.1.1-4.9.1-7.2v-5.7a39.89,39.89,0,0,0,.1-6.1c0-1.7.1-3.1,0-4.2,0-.3.1-.7.1-.8a26.21,26.21,0,0,0-.1-2.8c0-1.7,0-3.4-.1-5.1-.3-1.3.1-3-.1-4.4-.6-2.5-.1-5.2-.7-7.5a27.76,27.76,0,0,0-4.5-9.3c-.4-.6-1-1.1-1.4-1.7a19.54,19.54,0,0,0-2.8-3.4c-1-.7-2.1-1.1-3.1-1.8a40.48,40.48,0,0,0-3.4-2.3c-.6-.3-1.1-.3-1.7-.6a54.31,54.31,0,0,0-6.1-1.8c-2-.6-4.4-.1-6.1.3-.7,0-1.4.1-2.1.1-2,.4-4.1.7-5.9,1.1-1.8.6-3.7.4-5.4,1a30.4,30.4,0,0,0-5.2,2.3c-1.4,1-2.5,2.4-3.8,3.4a22.34,22.34,0,0,1-3,2c-.3.3-.4.7-.7,1-.7,1-1.4,1.8-2,2.8-.8,1.4-2.7,3.4-3.2,4.9-.7,2-1,3.8-1.6,5.9-1.4,5.4-2.7,14.7-1.7,21C174.4,133.3,174,135.6,174.4,137.4Z" transform="translate(-18.73 -7.46)" fill="#008d33"/><path d="M183.9,174.4c-.1-.8-.1-1.8-.3-2.8v-1a2,2,0,0,0-.1-.8c-.1-.4,0-1-.1-1.4V168c-.1-.3,0-.7-.1-1.1v-.3a2,2,0,0,0-.1-.8,27.68,27.68,0,0,0-.3-3v-.4c-.1-.4,0-.8-.1-1.1v-.4a26.59,26.59,0,0,0-.3-2.8c-.1-.3,0-.7-.1-1a7.59,7.59,0,0,1-.1-1.6v-.3a2,2,0,0,0-.1-.8,5.28,5.28,0,0,1-.1-1.3l.1-.1a1.72,1.72,0,0,0,.8-.1h1.2a4,4,0,0,1,1.1,0h2c.4,1.7.4,3.5.8,5.1v.3a7.89,7.89,0,0,0,.3,1.3c.1.3,0,.6.1.7a10.1,10.1,0,0,0,.3,1.7v.3a5.28,5.28,0,0,1,.1,1.3v.3a15.44,15.44,0,0,1,.4,3v2.5a4,4,0,0,1,0,1.1v2.8a10.8,10.8,0,0,1,0,1.8" transform="translate(-18.73 -7.46)" fill="#008d33"/><path d="M230.3,177.8a21.75,21.75,0,0,1-2.5-.1h-.7l-.3-.1v-.3c-.1-.1,0-.6,0-.7-.1-.4,0-1.1-.1-1.6v-1.1c-.1-1.1-.1-2.3-.3-3.4-.1-.4,0-.8-.1-1.3a14.77,14.77,0,0,1-.1-2.1v-.8c-.1-.7,0-1.4-.1-2.1a31.62,31.62,0,0,0-.3-3.2v-.8c-.1-.6,0-1-.1-1.4v-.4c-.1-.6,0-1.3-.1-1.7a14.09,14.09,0,0,0-.1-2V153a8.54,8.54,0,0,1,0-1.6v-.8a17.64,17.64,0,0,1,0-2.3c.6-.3,1.4,0,2-.1h.4c.3-.1.7,0,1.1-.1.1,0,.6,0,.7-.1h.4a8.08,8.08,0,0,1,1.6-.1,8.48,8.48,0,0,1,0,1.6,6.48,6.48,0,0,0,0,1.4c0,1.3-.1,2.5-.1,3.9v1.7a9.58,9.58,0,0,0,0,1.7v20h-.1a4.78,4.78,0,0,0-1.2-.4" transform="translate(-18.73 -7.46)" fill="#008d33"/><path d="M207.6,91c-.1,0-.1-.7-.1-1a9.49,9.49,0,0,1,0-1.7V80a8.54,8.54,0,0,1,0-1.6V75.9a5.63,5.63,0,0,1,0-1.3V70.4a6.55,6.55,0,0,1,1.4,0c.1.1.7,0,1,0H212v1.8c.1.7,0,1.6.1,2.1v6.4a9.58,9.58,0,0,1,0,1.7v1.7a5.63,5.63,0,0,1,0,1.3v1.9a8.48,8.48,0,0,1,0,1.6v1.7h0a5.28,5.28,0,0,0-1.3.1,1.7,1.7,0,0,0-.7.1h-.9a1.49,1.49,0,0,0-.6.1h-.3A2.25,2.25,0,0,0,207.6,91Z" transform="translate(-18.73 -7.46)" fill="#008d33"/><path d="M230.7,138.4l-.3-.1-.1-.1-.3-.1-.1-.1-.3-.1-.1-.1a.32.32,0,0,1-.3-.3l-.4-.4-.3-.1-.1-.1a3.11,3.11,0,0,0-.6-.4l-.1-.1-.1-.1h0l-.3-.1-.3-.1c-.3-.1-.4-.3-.7-.4l-.1-.1-.1-.1h-.5l-.3.1-.1.1-.3.1-.1.1h0l-.3.3-.1.1h0l-.1.1-.3.1h-.2c-.1-.1-.6-.4-.7-.7l-.1-.1c-.1-.1-.1-.3-.3-.4h0l.1-.1.1-.3.1-.1.1-.3.1-.3a1.54,1.54,0,0,1,.6-.4l.3-.3c.1-.1.3-.3.4-.3l.3-.3a4.12,4.12,0,0,1,.8-.3c.1-.1.4-.1.6-.1h1.1l.3.1a2.41,2.41,0,0,1,.8.6h0l.1.1.3.1.1.1.1.1.1.1a3.11,3.11,0,0,0,.6.4l.1.1.3.1a3.11,3.11,0,0,0,.6.4l.1.1.3.1.1.1.3.3.1.1.1.1.1.1.4.4v.1l-.1.1-.1.1-.1.1-.1.3-.1.1-.1.1Z" transform="translate(-18.73 -7.46)" fill="#95c11f"/><path d="M182.2,135.9a5.3,5.3,0,0,0-.6-1l-.3-.6.4-.1c.3-.1.6-.3.7-.3l.3-.1.1-.1.3-.1.3-.1.3-.1c.1-.1.3-.1.6-.3l.3-.1.4-.1.1-.1a1.1,1.1,0,0,0,.6-.3h.1l.1-.1.1-.1c.1,0,.3-.1.4-.1s.3-.1.4-.1h.1c.1,0,.4-.1.6-.1h.1a.6.6,0,0,1,.4.1,1.93,1.93,0,0,1,1,.3v.1l.1.1.4.4c.1.1.1.3.3.4a3.11,3.11,0,0,1,.4.6,1.14,1.14,0,0,1,.3.7l.1.3.1.1.3.4v.1l.1.3c.1.1.1.3.3.4h-.1l-.4.3a2.15,2.15,0,0,1-.7.4h-.1l-.3.1h0l-.1-.1c-.1-.1-.1-.4-.3-.6v-.1c-.1-.1-.1-.4-.3-.6l-.3-.4-.1-.1a3.11,3.11,0,0,1-.4-.6l-.4-.4-.1-.1c-.3-.1-.6-.4-1-.4l-.3.1c-.1,0-.4.3-.6.3l-.1.1c-.1,0-.3.1-.4.1h-.1l-.3.1a1.14,1.14,0,0,1-.6.3c-.3,0-.4.3-.8.4-.1.1-.4.1-.6.3a3.78,3.78,0,0,1-.8.5" transform="translate(-18.73 -7.46)" fill="#95c11f"/><path d="M199.1,134.9h8.8a3.35,3.35,0,0,0,1,0h.4c.3.1.7,0,1,.1h1.8c.4.1,1.1,0,1.6.1v.7a2,2,0,0,1-.1.8,4.71,4.71,0,0,1-.4,1.6,18.19,18.19,0,0,1-1.6,3.1c-.3.3-.4.7-.8,1a12.13,12.13,0,0,1-1.4,1,1.06,1.06,0,0,0-.7.6l-.3.3h-.3a2,2,0,0,0-.8.1c-.3,0-.6.1-.8.1h-.3a1.58,1.58,0,0,1-.7,0c-.4-.1-1-.3-1.3-.4s-.4-.4-.7-.6a2.41,2.41,0,0,1-.8-.6l-.8-.8c-.1-.3-.4-.4-.6-.7l-.3-.3a1.55,1.55,0,0,0-.6-.8,9.68,9.68,0,0,1-.8-2.4,1.49,1.49,0,0,0-.1-.6,7,7,0,0,0-.3-1.4v-.6c-.1.4-.1,0-.1-.3" transform="translate(-18.73 -7.46)" fill="#ffe400"/><path d="M159.5,132.4a24.39,24.39,0,0,1-5.6-.8c-1.4-.4-3-.3-4.2-.7-.7,0-1.4-.1-2.1-.1-2.8-.7-6.1-.7-8.9-1.4-1.3-.3-2.5-.1-3.7-.4-4.1-1-8.7-.7-13-1.7-1.1-.1-2.3-.1-3.5-.3-3.5-.8-7.6-.6-11.3-1.4-.8,0-1.8-.1-2.7-.1-2.1-.4-3.9-.3-6.3-.8a10.28,10.28,0,0,1-1.8-.1c-1.4-.3-3.2-.3-4.7-.6h-1a6.52,6.52,0,0,0-1.6-.3c-.1-.1-.1-.1-.1-.4.6-.7.6-1.8,1-2.7.8-1.8,1.6-3.7,2.4-5.6,1.8-4.2,3.7-8.7,5.5-13.1.7-1.6,1-3.1,1.7-4.7,4.5-10.9,8.5-22,13.3-32.7,2.3-5.1,4.7-10.3,6.9-15.4,2.4-5.4,4.9-10.7,7.3-16.1.6-1.4,1.1-2.7,1.7-3.9.3-.6.1-1.1.8-1.1.8.6,2.8.7,3.9,1.1,2.3.7,4.7,1.4,6.9,2.1,1.4.4,2.8.6,4.2,1.1,1.3,2.4,1.3,5.5,2,8a15.16,15.16,0,0,0,.3,2.1c1,3.5,1.1,7,2,10.7.3,1.1.3,2.4.6,3.4.3,1.3.3,2.5.6,3.7.6,2,.3,3.9.7,6.1.8,3.7.7,7.8,1.7,11.4.3,1,.1,2,.4,2.8a8.6,8.6,0,0,0,.1,1.6c.3,1.4.3,3.1.7,4.5a6.6,6.6,0,0,0,.1,1.4c.4,1.7.4,3.8.8,5.5s.1,3.7.7,5.5c.6,2.4.6,5.1,1.1,7.5.3,1.3.1,2.4.4,3.7a23.1,23.1,0,0,1,.7,4.9c.6,1.7.6,3.9,1,5.6,0,.7.1,1.4.1,2.1.3,1.1.1,2.3.4,3.4a38,38,0,0,1,.5,6.2" transform="translate(-18.73 -7.46)" fill="#951b81"/><path d="M131,156c-1-.1-2.1.1-3.1-.1h-.8c-.1,0-.4,0-.4-.1v-.4c-.1-.3,0-.6-.1-.8-.1-.6,0-1.3-.1-1.8v-.4c-.1-.3,0-.7-.1-1a24.52,24.52,0,0,0-.4-3.9c-.1-.4,0-1-.1-1.4a21.3,21.3,0,0,0-.3-2.5v-1c-.1-.7,0-1.6-.1-2.4a24.5,24.5,0,0,0-.4-3.8,3.4,3.4,0,0,0-.1-1c-.1-.6,0-1.1-.1-1.7v-.6c-.1-.7,0-1.4-.1-2s0-1.6-.1-2.3a4,4,0,0,1,0-1.1v-.8a10.8,10.8,0,0,1,0-1.8v-1a12.15,12.15,0,0,1,0-2.7c.7-.3,1.7,0,2.4-.1h.4c.4-.1,1,0,1.3-.1a4.14,4.14,0,0,0,1-.1h.6a13.4,13.4,0,0,1,2-.1,10.8,10.8,0,0,1,0,1.8,9.64,9.64,0,0,0,0,1.7c0,1.6-.1,3-.1,4.5v2a13.34,13.34,0,0,0,0,2v21.6a8.54,8.54,0,0,1,0,1.6h-.1c-.6-.2-1.1-.3-1.2-.2" transform="translate(-18.73 -7.46)" fill="#951b81"/><path d="M134.3,31.4c-.1,0-.1-.8-.1-1.1a12.89,12.89,0,0,1,0-2c-.1-.7,0-2.3-.1-2.8V23.6a5.58,5.58,0,0,1,0-1.3V18.5c-.1-.4,0-1.4-.1-1.8V13.8a8.54,8.54,0,0,1,0-1.6v-.6a4.05,4.05,0,0,1,0-1.1v-3a10.8,10.8,0,0,1,1.8,0,5.35,5.35,0,0,0,1.3,0c1,0,1.8.1,2.7.1V9.7c.1.8,0,1.7.1,2.5a4,4,0,0,1,0,1.1v3.8a5.63,5.63,0,0,1,0,1.3v.8c.1.6,0,1.3.1,1.8v1.9a8.48,8.48,0,0,1,0,1.6v2.7a10.8,10.8,0,0,1,0,1.8v2h0a9.7,9.7,0,0,0-1.7.1,2,2,0,0,0-.8.1h-1.1c-.1,0-.6,0-.7.1h-.4a2,2,0,0,0-.8.1Z" transform="translate(-18.73 -7.46)" fill="#951b81"/><path d="M132.3,116.4v.4l-.1.4-.1.3-.1.3-.1.1c-.1.1-.1.3-.3.4h0c-.1.1-.1.3-.3.3a5.17,5.17,0,0,1-1.3.6,3.4,3.4,0,0,1-1,.1h-1a2.12,2.12,0,0,1-.7-.3l-.3-.1a.54.54,0,0,1-.4-.3c-.1-.1-.3-.1-.4-.3l-.1-.1-.1-.1-.1-.1-.1-.1-.1-.1-.1-.3-.1-.3.1-.1.1-.1.1-.3c.1-.1.3-.3.3-.4l.1-.1.3-.3.1-.1h0a3.11,3.11,0,0,1,.4.6l.3.3.3.3c.1.1.3.3.4.3a.6.6,0,0,0,.4.1c.3,0,.4.1.7.1h1l.1-.1.1-.1c.3-.1.4-.3.6-.6l.1-.1v-.1l.1-.3h1.2Z" transform="translate(-18.73 -7.46)" fill="#95c11f"/><path d="M110.8,107.7h.4c.1,0,.3,0,.3.1h.1l.1.1v.1l.3.3.1.1.1.3c.1.3.3.4.3.7v1a1.49,1.49,0,0,1-.1.6v.1l-.1.1-.1.3-.3.3-.1.1-.1.1-.1.1h-.1l-.3.1h-.1l-.3.1H110a.54.54,0,0,1-.4-.3c-.3-.1-.4-.3-.7-.6l-.1-.3V111l-.1-.4v-.1a.6.6,0,0,0-.1-.4v-.5h0v-.3c0-.1.1-.4.1-.6l.1-.3.1-.3V108h.1c.1-.1.3-.1.4-.3l.4-.1c.1,0,.3-.1.4-.1h.3Z" transform="translate(-18.73 -7.46)" fill="#fdca14"/><path d="M148.1,111.1h.4l.3.1h.1l.1.1v.1l.3.3.1.1.1.3c.1.3.3.4.3.7v1a1.49,1.49,0,0,1-.1.6v.1l-.1.1-.1.3-.3.3-.1.1-.1.1-.1.1h-.1l-.3.1h-.1l-.3.1h-.8a.54.54,0,0,1-.4-.3c-.3-.1-.4-.3-.7-.6l-.1-.3v-.1l-.1-.4v-.1c0-.1-.1-.3-.1-.4v-.9c0-.1.1-.4.1-.6l.1-.3.1-.3v.2h.1c.1-.1.3-.1.4-.3l.4-.1c.1,0,.3-.1.4-.1h.6Z" transform="translate(-18.73 -7.46)" fill="#fdca14"/></svg>