<svg xmlns="http://www.w3.org/2000/svg" viewBox="0 0 250.04 111.48"><title>ram-part</title><path d="M253.93,5.15c-1.48-.4-11-.49-14-.59-9.2-.1-18.4-.1-27.5-.1-16.62,0-33.33.3-50,.2-27.5-.1-54.9-.69-82.39-.79C60.46,3.87,8.93,5.55,8.53,5.61,7.34,6,7.15,7.19,7.15,8.48c-.1,1.78-.4,9.89-.4,12.17C6.75,24.9,5,73.37,5,82.77c0,4.55-.89,21.37-1,25.22,0,1.48,0,3,.1,4.45.1,1.78-.2,2.27,1.68,2.27,4.75-.1,54.4-.1,62-.3,4.35-.1,8.7-.1,13.06.2,3.36.2,6.73-.2,10.09,0,2.67.1,15.13.3,15.33,0a11,11,0,0,0,0-2.57c.1-7.81.1-15.63.2-23.44V82.9c0-1.38-.49-4.15.2-5.24.79-1.29,26.81-1.29,29.08-1.29,1.29,0,4-.3,4.45,1.09.49,1.09-.2,21.27-.2,25.82v10.09a8.38,8.38,0,0,0,0,1.58c.2.2,11.47.1,16.12.1,9.59.1,63.8.2,81.4.3,2.87,0,5.64,0,8.51-.1,1.48-.1,5.64,0,5.84-.2.59-.49.3-6.63.2-8.51,0-2.37,0-4.65.1-7,.1-4.65.69-37.59.49-42.33-.4-9.2-.59-18.5-.2-27.7.59-4.45,2-24,1.48-24.33" transform="translate(-3.97 -3.87)" fill="#95c11f"/><polygon points="5.25 81.7 10.59 81.9 9.51 100.99 5.95 100.89 5.25 81.7" fill="#ffe400"/><polygon points="17.42 78.73 22.17 78.64 23.45 102.08 18.61 101.68 17.42 78.73" fill="#ffe400"/><polygon points="29.88 78.44 36.12 77.94 35.03 105.64 30.48 106.23 29.88 78.44" fill="#ffe400"/><polygon points="43.73 78.24 47.29 78.34 48.08 103.26 42.64 103.07 43.73 78.24" fill="#ffe400"/><polygon points="54.81 76.36 59.16 76.56 60.74 104.85 54.91 105.24 54.81 76.36" fill="#ffe400"/><polygon points="66.68 75.47 71.72 75.47 74.2 97.82 68.86 98.12 66.68 75.47" fill="#ffe400"/><polygon points="80.53 78.54 84.78 77.94 85.47 97.72 81.12 97.82 80.53 78.54" fill="#ffe400"/><polygon points="93.19 77.94 97.74 77.94 97.64 101.09 92.99 100.99 93.19 77.94" fill="#ffe400"/><polygon points="240.07 104.25 234.73 104.15 235.82 83.88 239.38 83.98 240.07 104.25" fill="#ffe400"/><polygon points="229.29 104.35 224.54 104.55 223.26 79.13 228.1 79.53 229.29 104.35" fill="#ffe400"/><polygon points="215.44 104.85 209.21 105.34 210.2 75.86 214.85 75.17 215.44 104.85" fill="#ffe400"/><polygon points="200.51 104.65 196.95 104.55 196.16 79.62 201.59 79.72 200.51 104.65" fill="#ffe400"/><polygon points="188.84 106.83 184.58 106.63 182.9 76.06 188.84 75.67 188.84 106.83" fill="#ffe400"/><polygon points="174.49 84.67 169.45 85.26 169.94 107.81 175.28 107.42 174.49 84.67" fill="#ffe400"/><polygon points="160.94 84.08 156.59 83.58 156.39 104.55 160.75 104.55 160.94 84.08" fill="#ffe400"/><polygon points="147.69 81.31 143.24 81.21 143.24 104.35 147.99 104.35 147.69 81.31" fill="#ffe400"/><path d="M18.42,23.35,18.91,69l21.46.59H53.44l1-38s1.19-7.81.2-8.31-15.73.49-15.73.49Z" transform="translate(-3.97 -3.87)" fill="#008d33"/><path d="M154.92,25.53l.49,45.6,21.46.59h13.06l1-38s1.19-7.81.2-8.31-15.73.49-15.73.49Z" transform="translate(-3.97 -3.87)" fill="#008d33"/><path d="M204.48,24.94l-1,45.6,21.46,1.38,13.06.4,2.27-37.88s1.38-7.72.49-8.31-15.73,0-15.73,0Z" transform="translate(-3.97 -3.87)" fill="#008d33"/><path d="M65.8,20.29l2.08,46.88,20.87-.49,14.64-.79-1.68-38.68s.79-7.72-.2-8.11-15.43.4-15.43.4Z" transform="translate(-3.97 -3.87)" fill="#008d33"/><path d="M119.12,46.7s3.16,7.91,9.59,7.91,12-6.33,13.25-8.7a83.91,83.91,0,0,1,5.24,6.92s-1.88,4.55-4.45,5.84-5.64,4.25-11.57,4.25S119,61.34,116.34,57.28s-4.06-7.62-4.25-10A43.63,43.63,0,0,0,119.12,46.7Z" transform="translate(-3.97 -3.87)" fill="#f39200"/><path d="M80,36.31C79.85,27.21,91,30.08,90,38.09c-.4,2.67-2.57,5.64-5.74,5C80.24,42.4,80,39.43,80,36.27" transform="translate(-3.97 -3.87)" fill="#ffe400"/><path d="M167.58,41.06c-.1-9.1,11.08-6.23,10.09,1.78-.4,2.67-2.57,5.64-5.74,5-4.06-.69-4.35-3.66-4.35-6.82" transform="translate(-3.97 -3.87)" fill="#ffe400"/></svg>