<?xml version="1.0" encoding="utf-8"?>
<!-- Generator: Adobe Illustrator 21.1.0, SVG Export Plug-In . SVG Version: 6.00 Build 0)  -->
<svg version="1.1" id="Layer_1" xmlns="http://www.w3.org/2000/svg" xmlns:xlink="http://www.w3.org/1999/xlink" x="0px" y="0px"
	 viewBox="0 0 260.3 179.8" style="enable-background:new 0 0 260.3 179.8;" xml:space="preserve">
<style type="text/css">
	.st0{fill:#95C11F;}
	.st1{fill:#FFE400;}
	.st2{fill:#008D33;}
	.st3{fill:#F39200;}
</style>
<title>ram</title>
<path class="st0" d="M253.9,65.4c-1.5-0.4-11-0.5-14-0.6c-9.2-0.1-18.4-0.1-27.5-0.1c-16.6,0-33.3,0.3-50,0.2
	c-27.5-0.1-54.9-0.7-82.4-0.8c-19.6,0-71.1,1.7-71.5,1.7c-1.2,0.4-1.4,1.6-1.4,2.9c-0.1,1.8-0.4,9.9-0.4,12.2
	C6.8,85.1,5,133.6,5,143c0,4.6-0.9,21.4-1,25.2c0,1.5,0,3,0.1,4.4c0.1,1.8-0.2,2.3,1.7,2.3c4.7-0.1,54.4-0.1,62-0.3
	c4.3-0.1,8.7-0.1,13.1,0.2c3.4,0.2,6.7-0.2,10.1,0c2.7,0.1,15.1,0.3,15.3,0s0-2.1,0-2.6c0.1-7.8,0.1-15.6,0.2-23.4v-5.7
	c0-1.4-0.5-4.1,0.2-5.2c0.8-1.3,26.8-1.3,29.1-1.3c1.3,0,4-0.3,4.4,1.1c0.5,1.1-0.2,21.3-0.2,25.8v10.1c0,0.5,0,1.1,0,1.6
	c0.2,0.2,11.5,0.1,16.1,0.1c9.6,0.1,63.8,0.2,81.4,0.3c2.9,0,5.6,0,8.5-0.1c1.5-0.1,5.6,0,5.8-0.2c0.6-0.5,0.3-6.6,0.2-8.5
	c0-2.4,0-4.6,0.1-7c0.1-4.6,0.7-37.6,0.5-42.3c-0.4-9.2-0.6-18.5-0.2-27.7C253,85.3,254.4,65.7,253.9,65.4"/>
<polygon class="st1" points="9.2,145.8 14.6,146 13.5,165.1 9.9,165 "/>
<polygon class="st1" points="21.4,142.8 26.1,142.7 27.4,166.2 22.6,165.8 "/>
<polygon class="st1" points="33.8,142.5 40.1,142 39,169.7 34.5,170.3 "/>
<polygon class="st1" points="47.7,142.3 51.3,142.4 52,167.3 46.6,167.1 "/>
<polygon class="st1" points="58.8,140.4 63.1,140.6 64.7,168.9 58.9,169.3 "/>
<polygon class="st1" points="70.7,139.5 75.7,139.5 78.2,161.9 72.8,162.2 "/>
<polygon class="st1" points="84.5,142.6 88.8,142 89.4,161.8 85.1,161.9 "/>
<polygon class="st1" points="97.2,142 101.7,142 101.6,165.2 97,165.1 "/>
<polygon class="st1" points="244,168.3 238.7,168.2 239.8,148 243.4,148.1 "/>
<polygon class="st1" points="233.3,168.4 228.5,168.6 227.2,143.2 232.1,143.6 "/>
<polygon class="st1" points="219.4,168.9 213.2,169.4 214.2,139.9 218.8,139.2 "/>
<polygon class="st1" points="204.5,168.7 200.9,168.6 200.1,143.7 205.6,143.8 "/>
<polygon class="st1" points="192.8,170.9 188.6,170.7 186.9,140.1 192.8,139.7 "/>
<polygon class="st1" points="178.5,148.7 173.4,149.3 173.9,171.9 179.2,171.5 "/>
<polygon class="st1" points="164.9,148.2 160.6,147.7 160.4,168.6 164.7,168.6 "/>
<polygon class="st1" points="151.7,145.4 147.2,145.3 147.2,168.4 152,168.4 "/>
<path class="st2" d="M18.4,83.6l0.5,45.6l21.5,0.6h13.1l1-38c0,0,1.2-7.8,0.2-8.3c-1-0.5-15.7,0.5-15.7,0.5L18.4,83.6z"/>
<path class="st2" d="M154.9,85.7l0.5,45.6l21.5,0.6h13.1l1-38c0,0,1.2-7.8,0.2-8.3c-1-0.5-15.7,0.5-15.7,0.5L154.9,85.7z"/>
<path class="st2" d="M204.5,85.1l-1,45.6l21.5,1.4l13.1,0.4l2.3-37.9c0,0,1.4-7.7,0.5-8.3s-15.7,0-15.7,0L204.5,85.1z"/>
<path class="st2" d="M65.8,80.5l2.1,46.9l20.9-0.5l14.6-0.8l-1.7-38.7c0,0,0.8-7.7-0.2-8.1s-15.4,0.4-15.4,0.4L65.8,80.5z"/>
<path class="st3" d="M112.1,121.8c0.2-2.4,1.6-5.9,4.2-10s8.9-5.6,14.8-5.6s9,3,11.6,4.2s4.4,5.8,4.4,5.8c-1.6,2.4-3.4,4.7-5.2,6.9
	c-1.2-2.4-6.8-8.7-13.2-8.7c-6.4,0-9.6,7.9-9.6,7.9C116.8,122,114.4,121.8,112.1,121.8z"/>
<path class="st3" d="M136.3,34.1c0,0,4.1-0.4,5.7-2c1.6-1.6,4.6-3.1,5.9-7.3c1.1-3.7,1.2-7.9-0.7-10.7c-0.5-1.1-1.5-2.8-2.8-3.6
	c-2-1.2-4.4-3.6-9.3-4.2c-4.9-0.5-10.3,0.1-12.8,2.8c-2.6,2.7-4,5.2-4.4,6.9c2,0.2,3.9,0.6,5.8,1.1c0,0,3.3-5.5,8.6-4.9
	c3.9,0.4,7.2,3.3,9,5.5c0.5,1.1,0.6,2.3,0.3,3.6c-1.3,4.6-7.6,7.2-9.8,7.6c0,0-5.3,2.3-6.5,6.7s-0.7,7-0.7,7l5.5,0
	c0,0-0.2-4.5,1.2-6S136.3,34.1,136.3,34.1z"/>
<path class="st1" d="M79.9,96.5C79.8,87.4,91,90.3,90,98.3c-0.4,2.7-2.6,5.6-5.7,5C80.2,102.6,79.9,99.6,79.9,96.5"/>
<path class="st1" d="M167.6,101.3c-0.1-9.1,11.1-6.2,10.1,1.8c-0.4,2.7-2.6,5.6-5.7,5C167.9,107.4,167.6,104.4,167.6,101.3"/>
<path class="st3" d="M122.4,50.2c0.6-6.7,9.7-3.7,8.3,2.1c-0.5,1.9-2.6,3.9-5.2,3.2C122.2,54.7,122.2,52.5,122.4,50.2"/>
</svg>
