<svg xmlns="http://www.w3.org/2000/svg" viewBox="0 0 260.3 198.6"><title>ram</title><rect width="260.3" height="198.6" fill="#312783"/><path d="M252.73,3.54c-1.48-.4-11-.49-14-.59-9.2-.1-18.4-.1-27.5-.1-16.62,0-33.33.3-50,.2-27.5-.1-54.9-.69-82.39-.79C59.26,2.26,7.73,3.94,7.33,4c-1.19.4-1.38,1.58-1.38,2.87-.1,1.78-.4,9.89-.4,12.17,0,4.25-1.78,52.72-1.78,62.12,0,4.55-.89,21.37-1,25.22,0,1.48,0,3,.1,4.45.1,1.78-.2,2.27,1.68,2.27,4.75-.1,54.4-.1,62-.3,4.35-.1,8.7-.1,13.06.2,3.36.2,6.73-.2,10.09,0,2.67.1,15.13.3,15.33,0s0-2.08,0-2.57c.1-7.81.1-15.63.2-23.44V81.29c0-1.38-.49-4.15.2-5.24.79-1.29,26.81-1.29,29.08-1.29,1.29,0,4-.3,4.45,1.09.49,1.09-.2,21.27-.2,25.82v10.09a8.38,8.38,0,0,0,0,1.58c.2.2,11.47.1,16.12.1,9.59.1,63.8.2,81.4.3,2.87,0,5.64,0,8.51-.1,1.48-.1,5.64,0,5.84-.2.59-.49.3-6.63.2-8.51,0-2.37,0-4.65.1-7,.1-4.65.69-37.59.49-42.33-.4-9.2-.59-18.5-.2-27.7.59-4.45,2-24,1.48-24.33" transform="translate(1.2 5.6)" fill="#95c11f"/><polygon points="9.22 89.56 14.56 89.76 13.48 108.85 9.92 108.75 9.22 89.56" fill="#ffe400"/><polygon points="21.39 86.59 26.14 86.5 27.42 109.94 22.58 109.54 21.39 86.59" fill="#ffe400"/><polygon points="33.85 86.3 40.09 85.8 39 113.5 34.45 114.09 33.85 86.3" fill="#ffe400"/><polygon points="47.7 86.1 51.26 86.2 52.05 111.12 46.61 110.93 47.7 86.1" fill="#ffe400"/><polygon points="58.78 84.22 63.13 84.42 64.71 112.71 58.88 113.1 58.78 84.22" fill="#ffe400"/><polygon points="70.65 83.33 75.69 83.33 78.17 105.68 72.83 105.98 70.65 83.33" fill="#ffe400"/><polygon points="84.5 86.4 88.75 85.8 89.44 105.58 85.09 105.68 84.5 86.4" fill="#ffe400"/><polygon points="97.16 85.8 101.71 85.8 101.61 108.95 96.96 108.85 97.16 85.8" fill="#ffe400"/><polygon points="244.04 112.11 238.7 112.01 239.79 91.74 243.35 91.84 244.04 112.11" fill="#ffe400"/><polygon points="233.26 112.21 228.51 112.41 227.23 86.99 232.07 87.39 233.26 112.21" fill="#ffe400"/><polygon points="219.41 112.71 213.18 113.2 214.17 83.72 218.82 83.03 219.41 112.71" fill="#ffe400"/><polygon points="204.48 112.51 200.92 112.41 200.13 87.48 205.56 87.58 204.48 112.51" fill="#ffe400"/><polygon points="192.81 114.69 188.55 114.49 186.87 83.92 192.81 83.53 192.81 114.69" fill="#ffe400"/><polygon points="178.46 92.53 173.42 93.12 173.91 115.67 179.25 115.28 178.46 92.53" fill="#ffe400"/><polygon points="164.91 91.94 160.56 91.44 160.36 112.41 164.72 112.41 164.91 91.94" fill="#ffe400"/><polygon points="151.66 89.17 147.21 89.07 147.21 112.21 151.96 112.21 151.66 89.17" fill="#ffe400"/><path d="M17.22,21.74l.49,45.6,21.46.59H52.24l1-38s1.19-7.81.2-8.31-15.73.49-15.73.49Z" transform="translate(1.2 5.6)" fill="#008d33"/><path d="M153.72,23.92l.49,45.6,21.46.59h13.06l1-38s1.19-7.81.2-8.31-15.73.49-15.73.49Z" transform="translate(1.2 5.6)" fill="#008d33"/><path d="M203.28,23.33l-1,45.6,21.46,1.38,13.06.4,2.27-37.88s1.38-7.72.49-8.31-15.73,0-15.73,0Z" transform="translate(1.2 5.6)" fill="#008d33"/><path d="M64.6,18.68l2.08,46.88,20.87-.49,14.64-.79L100.51,25.6s.79-7.72-.2-8.11-15.43.4-15.43.4Z" transform="translate(1.2 5.6)" fill="#008d33"/><path d="M117.92,45.09S121.08,53,127.51,53s12-6.33,13.25-8.7A83.91,83.91,0,0,1,146,51.22s-1.88,4.55-4.45,5.84-5.64,4.25-11.57,4.25-12.17-1.58-14.84-5.64-4.06-7.62-4.25-10A43.63,43.63,0,0,0,117.92,45.09Z" transform="translate(1.2 5.6)" fill="#f39200"/><path d="M78.75,34.7c-.1-9.1,11.08-6.23,10.09,1.78-.4,2.67-2.57,5.64-5.74,5-4.06-.69-4.35-3.66-4.35-6.82" transform="translate(1.2 5.6)" fill="#ffe400"/><path d="M166.38,39.45c-.1-9.1,11.08-6.23,10.09,1.78-.4,2.67-2.57,5.64-5.74,5-4.06-.69-4.35-3.66-4.35-6.82" transform="translate(1.2 5.6)" fill="#ffe400"/></svg>