<svg xmlns="http://www.w3.org/2000/svg" viewBox="0 0 240.2 112.26"><title>rom-part</title><path d="M6.14,4.46c10.7-1.7,21.8-1.5,32.6-1.7,21.7-.4,43.4-.3,65.1-.1,19.5.2,39.1.7,58.6.6,16.3-.1,32.5-.2,48.8-.2,7.3,0,14.6,0,21.9.2,2.2,0,4.5.1,6.7.2a5.85,5.85,0,0,1,1.9.2c.1.1.4,0,.5.1.5.5-.2,3.4-.3,4.1-.4,3.9-.2,7.8-.3,11.7-.2,4.1-.4,8.1-.6,12.2-.2,8.2,0,16.3.3,24.5s.2,16.4-.3,24.7c-.4,8-.3,16.1-.3,24.1,0,2,1.6,8.2-.5,9.4-1,.5-2.8.1-3.9.1s-2.1.1-3.2.1c-5.9.2-11.7,0-17.6,0-16.3-.1-32.7,0-49,0-16.5,0-33.1-.3-49.6-.4-3.7,0-7.5-.1-11.2-.2-2.9,0-5.8.3-8.8.2-5.1-.2-10.4-.4-15.5-.2-7,.3-13.9-.1-20.9,0-6.5.1-13.1,0-19.6-.1-7.1-.1-14.2,0-21.3.1-4,0-7.9.1-11.9.1-.8,0-4.6.5-5.1,0s-.3-2.5-.4-3.3c-.1-2.8.2-5.6.2-8.4,0-3.9,0-7.6.3-11.5.7-8.1.4-16.2.6-24.3s.2-16.1.2-24.1c0-5.9.9-11.5,1.3-17.4.2-3.7,0-7.3.4-11,.5-2.9-.8-7.2.9-9.7" transform="translate(-2.22 -2.49)" fill="#95c11f"/><path d="M34.74,88.76c-1.7-4.4-1.2-10-1.2-14.5-.1-8.6.4-17.1.5-25.7.1-5.5-.2-11-.1-16.6,0-1.3,0-2.6.1-3.9a6.35,6.35,0,0,1,.2-2.4c.6-.9,3-.3,4.1-.2,3,.1,5.9,0,8.9.1,12.2.3,24.4-.2,36.5.1,5.9.1,11.7.2,17.6.1,1.4,0,2.8-.2,4.2-.1s1.4,0,1.6,1.2a21.75,21.75,0,0,1,0,5.7c-.1,11.1-.4,22.2-.4,33.3,0,4.1-.1,8.3,0,12.4,0,2.2-.1,4.4,0,6.6,0,.7.6,4.5.2,5s-1.9.1-2.4.1c-12.3.1-24.7-.3-37.1-.4-5,0-10,.1-15-.2-2.9-.1-5.7-.2-8.6-.2-1.5,0-3-.2-4.4-.2a18.54,18.54,0,0,1-4.7-.2" transform="translate(-2.22 -2.49)" fill="#008d33"/><path d="M15.44,38.56c-5.3-.8-3.2-9.6,2.4-10a4.73,4.73,0,0,1,4.3,7.5C20.74,38.26,17.64,38.56,15.44,38.56Z" transform="translate(-2.22 -2.49)" fill="#008d33"/><path d="M15.14,63.16c3.8-4.2,8.9,3.3,6.1,8-2,3.4-6.4,3.5-8-.4C12.14,68.16,13.74,65.16,15.14,63.16Z" transform="translate(-2.22 -2.49)" fill="#008d33"/><path d="M13.44,107.06c-4-3.7,2-10.1,7.2-7,3.3,2,3.5,7.1-.3,8.8C17.94,109.86,15.24,108.26,13.44,107.06Z" transform="translate(-2.22 -2.49)" fill="#008d33"/><path d="M97.14,13.86c.6-4.8,7.5-3.9,9,.8,1.4,4.1-2.1,9.7-6.7,6.3C97.34,19.36,97.24,16.16,97.14,13.86Z" transform="translate(-2.22 -2.49)" fill="#008d33"/><path d="M74.14,13.46c3.7,3.9-2.7,9.9-7.6,6.5-3.1-2.2-3.1-7.3.9-8.7C69.84,10.36,72.44,12.16,74.14,13.46Z" transform="translate(-2.22 -2.49)" fill="#008d33"/><path d="M33.14,11.66c3.5-4.6,9.2,2.8,6.6,7.7-1.9,3.5-6.3,3.7-8.1-.1C30.44,16.66,31.94,13.66,33.14,11.66Z" transform="translate(-2.22 -2.49)" fill="#008d33"/><path d="M96.44,101.86c.7-5.3,8.2-3.5,9.2,1.7.8,4-2.8,8.7-7.1,5.4C96.54,107.26,96.54,104.06,96.44,101.86Z" transform="translate(-2.22 -2.49)" fill="#008d33"/><path d="M73.44,101.46c3.7,4-2.7,9.9-7.6,6.5-3.2-2.2-3.1-7.3.9-8.7C69.14,98.36,71.74,100.16,73.44,101.46Z" transform="translate(-2.22 -2.49)" fill="#008d33"/><path d="M32.44,99.66c3.5-4.6,9.2,2.8,6.6,7.7-1.9,3.6-6.3,3.7-8.1-.1C29.74,104.76,31.24,101.66,32.44,99.66Z" transform="translate(-2.22 -2.49)" fill="#008d33"/><path d="M115.64,33.76c3.8-4.2,8.9,3.3,6.1,8-2,3.4-6.3,3.5-8-.4C112.54,38.76,114.24,35.76,115.64,33.76Z" transform="translate(-2.22 -2.49)" fill="#008d33"/><path d="M113.94,84.26c-4-3.7,2-10.1,7.2-7a5,5,0,0,1-.3,8.8C118.44,87.06,115.64,85.46,113.94,84.26Z" transform="translate(-2.22 -2.49)" fill="#008d33"/><path d="M136.94,99c5.3.8,3.2,9.6-2.4,10a4.74,4.74,0,0,1-4.3-7.5C131.74,99.26,134.74,99,136.94,99Z" transform="translate(-2.22 -2.49)" fill="#008d33"/><path d="M137.24,63.66c-3.8,4.3-9-3.5-6.1-8.2,2.1-3.4,6.6-3.2,8.1.7C140.34,58.86,138.64,61.76,137.24,63.66Z" transform="translate(-2.22 -2.49)" fill="#008d33"/><path d="M139,12.06c3.9,3.6-2,10.1-7.2,7a5,5,0,0,1,.3-8.8C134.44,9.26,137.24,10.76,139,12.06Z" transform="translate(-2.22 -2.49)" fill="#008d33"/><path d="M149.24,33.06c3.7-4.2,8.9,3.3,6.1,8-2,3.4-6.3,3.5-8-.4C146.24,38.06,147.84,35.06,149.24,33.06Z" transform="translate(-2.22 -2.49)" fill="#008d33"/><path d="M147.54,83.46c-3.9-3.6,1.9-10,7-7.1a4.87,4.87,0,0,1,.2,8.6C152.34,86.36,149.44,84.76,147.54,83.46Z" transform="translate(-2.22 -2.49)" fill="#008d33"/><path d="M170.64,98.16c5.3.8,3.2,9.6-2.4,10a4.73,4.73,0,0,1-4.3-7.5C165.44,98.46,168.44,98.16,170.64,98.16Z" transform="translate(-2.22 -2.49)" fill="#008d33"/><path d="M170.94,62.86c-3.8,4.3-9-3.5-6.1-8.2,2.1-3.4,6.6-3.2,8.1.7C173.94,58.06,172.24,61,170.94,62.86Z" transform="translate(-2.22 -2.49)" fill="#008d33"/><path d="M172.64,11.26c4,3.7-2,10.1-7.2,7a5,5,0,0,1,.3-8.8C168.14,8.46,170.84,10.06,172.64,11.26Z" transform="translate(-2.22 -2.49)" fill="#008d33"/><path d="M184.54,32.56c3.8-4.3,9,3.4,6.1,8.2-2.1,3.4-6.5,3.2-8.1-.7C181.54,37.36,183.24,34.46,184.54,32.56Z" transform="translate(-2.22 -2.49)" fill="#008d33"/><path d="M182.84,83c-4-3.6,2-10.1,7.2-7a5,5,0,0,1-.3,8.8C187.44,85.76,184.64,84.16,182.84,83Z" transform="translate(-2.22 -2.49)" fill="#008d33"/><path d="M205.94,97.66c5.3.8,3.2,9.6-2.4,10a4.73,4.73,0,0,1-4.3-7.5C200.74,98,203.74,97.66,205.94,97.66Z" transform="translate(-2.22 -2.49)" fill="#008d33"/><path d="M206.24,62.36c-3.8,4.3-9-3.5-6.1-8.2,2.1-3.4,6.5-3.2,8.1.7C209.24,57.56,207.54,60.46,206.24,62.36Z" transform="translate(-2.22 -2.49)" fill="#008d33"/><path d="M207.94,10.76c3.9,3.7-2,10.1-7.2,7-3.3-2-3.5-7.1.3-8.8C203.44,8,206.14,9.56,207.94,10.76Z" transform="translate(-2.22 -2.49)" fill="#008d33"/><path d="M218.24,31.76c3.7-4.2,8.9,3.3,6.1,8-2,3.4-6.3,3.5-8-.4C215.14,36.76,216.84,33.76,218.24,31.76Z" transform="translate(-2.22 -2.49)" fill="#008d33"/><path d="M216.54,82.16c-.1,0-.2-.2-.2-.2-3.6-4.3,2.8-9.9,7.7-6.7a5,5,0,0,1-.6,8.7C221,85,218.34,83.36,216.54,82.16Z" transform="translate(-2.22 -2.49)" fill="#008d33"/><path d="M22.34,14.36c3,4.7-4.1,9.1-8.4,5.1-2.7-2.5-2.4-7.3,1.7-8.4C18.44,10.36,20.84,12.66,22.34,14.36Z" transform="translate(-2.22 -2.49)" fill="#fff"/><path d="M13.34,53.46c-3.9-3.6,1.9-10,7-7.1a4.87,4.87,0,0,1,.2,8.6C18.14,56.36,15.24,54.76,13.34,53.46Z" transform="translate(-2.22 -2.49)" fill="#fff"/><path d="M16.94,92.76c-5.4.5-4.9-8.7.3-10.3a4.73,4.73,0,0,1,5.6,6.8C21.84,91.46,18.94,92.26,16.94,92.76Z" transform="translate(-2.22 -2.49)" fill="#fff"/><path d="M119.74,21.16c-4.5,3.6-8.4-5.1-4.6-9.3,2.8-3,7.1-1.5,7.8,2.5C123.34,17.06,121.34,19.56,119.74,21.16Z" transform="translate(-2.22 -2.49)" fill="#fff"/><path d="M83.24,11.56c3.5-4.5,9.1,2.6,6.6,7.5-1.8,3.5-6.1,4-8,.2C80.54,16.76,82,13.66,83.24,11.56Z" transform="translate(-2.22 -2.49)" fill="#fff"/><path d="M46.54,15.36c-.3-5.3,7.2-5.4,9.3-.4,1.5,3.7-.7,8.7-5.4,7C47.84,21,46.94,17.66,46.54,15.36Z" transform="translate(-2.22 -2.49)" fill="#fff"/><path d="M119,109.26c-4.5,3.6-8.5-5.1-4.6-9.3,2.8-3,7.1-1.5,7.8,2.5C122.64,105.06,120.54,107.56,119,109.26Z" transform="translate(-2.22 -2.49)" fill="#fff"/><path d="M82.54,99.56c3.5-4.5,9.2,2.8,6.6,7.7-1.8,3.3-6,3.8-7.9.2C79.84,104.86,81.24,101.76,82.54,99.56Z" transform="translate(-2.22 -2.49)" fill="#fff"/><path d="M45.74,103.46c-.3-4.8,6.5-5.6,9-1.3,2.2,3.7-.1,10-5.3,7.7C47,108.86,46.24,105.66,45.74,103.46Z" transform="translate(-2.22 -2.49)" fill="#fff"/><path d="M117.44,64.36c-5.4.5-4.9-8.7.3-10.3a4.73,4.73,0,0,1,5.6,6.8C122.24,63.06,119.34,63.86,117.44,64.36Z" transform="translate(-2.22 -2.49)" fill="#fff"/><path d="M137.54,87.06c-3.5,4.6-9.2-2.8-6.6-7.7,1.9-3.6,6.3-3.7,8.1.1C140.24,82,138.84,85,137.54,87.06Z" transform="translate(-2.22 -2.49)" fill="#fff"/><path d="M133.14,31.76c4.7-3.1,8,5.7,3.9,9.5a4.47,4.47,0,0,1-7.7-3.3C129.24,35.36,131.54,33.16,133.14,31.76Z" transform="translate(-2.22 -2.49)" fill="#fff"/><path d="M153.34,20.46c-4.5,3.6-8.5-5.1-4.6-9.3,2.8-3,7.1-1.5,7.8,2.5C156.94,16.26,154.94,18.76,153.34,20.46Z" transform="translate(-2.22 -2.49)" fill="#fff"/><path d="M152.64,108.46c-4.5,3.6-8.4-5.1-4.6-9.3,2.8-3,7.2-1.5,7.8,2.5C156.24,104.36,154.24,106.86,152.64,108.46Z" transform="translate(-2.22 -2.49)" fill="#fff"/><path d="M151,63.66c-5.4.5-4.9-8.7.3-10.3a4.73,4.73,0,0,1,5.6,6.8C155.94,62.36,153,63.16,151,63.66Z" transform="translate(-2.22 -2.49)" fill="#fff"/><path d="M171.24,86.26c-3.5,4.5-9.1-2.6-6.6-7.5,1.8-3.5,6.1-4,8-.2C173.94,81.06,172.54,84.16,171.24,86.26Z" transform="translate(-2.22 -2.49)" fill="#fff"/><path d="M166.84,31c4.7-3.1,8,5.7,3.9,9.5a4.47,4.47,0,0,1-7.7-3.3C162.94,34.56,165.14,32.46,166.84,31Z" transform="translate(-2.22 -2.49)" fill="#fff"/><path d="M188.64,20c-4.5,3.6-8.4-5.1-4.6-9.3,2.8-3,7.1-1.5,7.8,2.5C192.34,15.76,190.24,18.26,188.64,20Z" transform="translate(-2.22 -2.49)" fill="#fff"/><path d="M187.94,108c-4.5,3.6-8.4-5.1-4.6-9.3,2.8-3,7.1-1.5,7.8,2.5C191.54,103.86,189.54,106.36,187.94,108Z" transform="translate(-2.22 -2.49)" fill="#fff"/><path d="M186.34,63.16c-5.4.5-4.9-8.7.3-10.3a4.73,4.73,0,0,1,5.6,6.8C191.24,61.86,188.34,62.66,186.34,63.16Z" transform="translate(-2.22 -2.49)" fill="#fff"/><path d="M206.54,85.76c-3.5,4.6-9.2-2.8-6.6-7.7,1.9-3.6,6.3-3.7,8.1.1C209.24,80.76,207.74,83.76,206.54,85.76Z" transform="translate(-2.22 -2.49)" fill="#fff"/><path d="M202.14,30.46c4.7-3.1,8,5.7,3.9,9.5a4.47,4.47,0,0,1-7.7-3.3C198.24,34.06,200.54,32,202.14,30.46Z" transform="translate(-2.22 -2.49)" fill="#fff"/><path d="M222.34,19.16c-4.6,3.6-8.4-5.2-4.6-9.3,2.8-3,7.1-1.5,7.8,2.5C225.94,15.06,223.94,17.56,222.34,19.16Z" transform="translate(-2.22 -2.49)" fill="#fff"/><path d="M221.64,107.16c-4.5,3.6-8.4-5.2-4.6-9.3,2.8-3,7.1-1.5,7.8,2.5C225.24,103.06,223.14,105.56,221.64,107.16Z" transform="translate(-2.22 -2.49)" fill="#fff"/><path d="M220,62.36c-5.4.5-4.9-8.7.3-10.3a4.73,4.73,0,0,1,5.6,6.8C224.84,61.06,222,61.86,220,62.36Z" transform="translate(-2.22 -2.49)" fill="#fff"/><path d="M45.94,53.66c-3.9-3.7,2-10.1,7.2-7,3.3,2,3.6,7-.3,8.8C50.54,56.46,47.74,54.86,45.94,53.66Z" transform="translate(-2.22 -2.49)" fill="#ffe400"/><path d="M84.24,53.66c-4-3.7,2-10.1,7.2-7a5,5,0,0,1-.3,8.8C88.74,56.46,86,54.86,84.24,53.66Z" transform="translate(-2.22 -2.49)" fill="#ffe400"/><path d="M62.64,70c-.2-10.2,16.3-6.9,14.8,2a7.38,7.38,0,0,1-8.4,5.7c-6-.8-6.5-4.2-6.4-7.7" transform="translate(-2.22 -2.49)" fill="#f39200"/></svg>