<svg xmlns="http://www.w3.org/2000/svg" viewBox="0 0 260.3 198.6"><title>rom</title><rect width="260.3" height="198.6" fill="#312783"/><path d="M10.4,4.3C21.1,2.6,32.2,2.8,43,2.6c21.7-.4,43.4-.3,65.1-.1,19.5.2,39.1.7,58.6.6,16.3-.1,32.5-.2,48.8-.2,7.3,0,14.6,0,21.9.2,2.2,0,4.5.1,6.7.2a5.85,5.85,0,0,1,1.9.2c.1.1.4,0,.5.1.5.5-.2,3.4-.3,4.1-.4,3.9-.2,7.8-.3,11.7-.2,4.1-.4,8.1-.6,12.2-.2,8.2,0,16.3.3,24.5s.2,16.4-.3,24.7c-.4,8-.3,16.1-.3,24.1,0,2,1.6,8.2-.5,9.4-1,.5-2.8.1-3.9.1s-2.1.1-3.2.1c-5.9.2-11.7,0-17.6,0-16.3-.1-32.7,0-49,0-16.5,0-33.1-.3-49.6-.4-3.7,0-7.5-.1-11.2-.2-2.9,0-5.8.3-8.8.2-5.1-.2-10.4-.4-15.5-.2-7,.3-13.9-.1-20.9,0-6.5.1-13.1,0-19.6-.1-7.1-.1-14.2,0-21.3.1-4,0-7.9.1-11.9.1-.8,0-4.6.5-5.1,0s-.3-2.5-.4-3.3c-.1-2.8.2-5.6.2-8.4,0-3.9,0-7.6.3-11.5.7-8.1.4-16.2.6-24.3s.2-16.1.2-24.1c0-5.9.9-11.5,1.3-17.4.2-3.7,0-7.3.4-11,.5-2.9-.8-7.2.9-9.7" transform="translate(1.2 5.6)" fill="#95c11f"/><path d="M39,88.6c-1.7-4.4-1.2-10-1.2-14.5-.1-8.6.4-17.1.5-25.7.1-5.5-.2-11-.1-16.6,0-1.3,0-2.6.1-3.9a6.35,6.35,0,0,1,.2-2.4c.6-.9,3-.3,4.1-.2,3,.1,5.9,0,8.9.1,12.2.3,24.4-.2,36.5.1,5.9.1,11.7.2,17.6.1,1.4,0,2.8-.2,4.2-.1s1.4,0,1.6,1.2a21.75,21.75,0,0,1,0,5.7c-.1,11.1-.4,22.2-.4,33.3,0,4.1-.1,8.3,0,12.4,0,2.2-.1,4.4,0,6.6,0,.7.6,4.5.2,5s-1.9.1-2.4.1c-12.3.1-24.7-.3-37.1-.4-5,0-10,.1-15-.2-2.9-.1-5.7-.2-8.6-.2-1.5,0-3-.2-4.4-.2a18.54,18.54,0,0,1-4.7-.2" transform="translate(1.2 5.6)" fill="#008d33"/><path d="M19.7,38.4c-5.3-.8-3.2-9.6,2.4-10a4.73,4.73,0,0,1,4.3,7.5C25,38.1,21.9,38.4,19.7,38.4Z" transform="translate(1.2 5.6)" fill="#008d33"/><path d="M19.4,63c3.8-4.2,8.9,3.3,6.1,8-2,3.4-6.4,3.5-8-.4C16.4,68,18,65,19.4,63Z" transform="translate(1.2 5.6)" fill="#008d33"/><path d="M17.7,106.9c-4-3.7,2-10.1,7.2-7,3.3,2,3.5,7.1-.3,8.8C22.2,109.7,19.5,108.1,17.7,106.9Z" transform="translate(1.2 5.6)" fill="#008d33"/><path d="M101.4,13.7c.6-4.8,7.5-3.9,9,.8,1.4,4.1-2.1,9.7-6.7,6.3C101.6,19.2,101.5,16,101.4,13.7Z" transform="translate(1.2 5.6)" fill="#008d33"/><path d="M78.4,13.3c3.7,3.9-2.7,9.9-7.6,6.5-3.1-2.2-3.1-7.3.9-8.7C74.1,10.2,76.7,12,78.4,13.3Z" transform="translate(1.2 5.6)" fill="#008d33"/><path d="M37.4,11.5c3.5-4.6,9.2,2.8,6.6,7.7-1.9,3.5-6.3,3.7-8.1-.1C34.7,16.5,36.2,13.5,37.4,11.5Z" transform="translate(1.2 5.6)" fill="#008d33"/><path d="M100.7,101.7c.7-5.3,8.2-3.5,9.2,1.7.8,4-2.8,8.7-7.1,5.4C100.8,107.1,100.8,103.9,100.7,101.7Z" transform="translate(1.2 5.6)" fill="#008d33"/><path d="M77.7,101.3c3.7,4-2.7,9.9-7.6,6.5-3.2-2.2-3.1-7.3.9-8.7C73.4,98.2,76,100,77.7,101.3Z" transform="translate(1.2 5.6)" fill="#008d33"/><path d="M36.7,99.5c3.5-4.6,9.2,2.8,6.6,7.7-1.9,3.6-6.3,3.7-8.1-.1C34,104.6,35.5,101.5,36.7,99.5Z" transform="translate(1.2 5.6)" fill="#008d33"/><path d="M119.9,33.6c3.8-4.2,8.9,3.3,6.1,8-2,3.4-6.3,3.5-8-.4C116.8,38.6,118.5,35.6,119.9,33.6Z" transform="translate(1.2 5.6)" fill="#008d33"/><path d="M118.2,84.1c-4-3.7,2-10.1,7.2-7a5,5,0,0,1-.3,8.8C122.7,86.9,119.9,85.3,118.2,84.1Z" transform="translate(1.2 5.6)" fill="#008d33"/><path d="M141.2,98.8c5.3.8,3.2,9.6-2.4,10a4.74,4.74,0,0,1-4.3-7.5C136,99.1,139,98.8,141.2,98.8Z" transform="translate(1.2 5.6)" fill="#008d33"/><path d="M141.5,63.5c-3.8,4.3-9-3.5-6.1-8.2,2.1-3.4,6.6-3.2,8.1.7C144.6,58.7,142.9,61.6,141.5,63.5Z" transform="translate(1.2 5.6)" fill="#008d33"/><path d="M143.3,11.9c3.9,3.6-2,10.1-7.2,7a5,5,0,0,1,.3-8.8C138.7,9.1,141.5,10.6,143.3,11.9Z" transform="translate(1.2 5.6)" fill="#008d33"/><path d="M153.5,32.9c3.7-4.2,8.9,3.3,6.1,8-2,3.4-6.3,3.5-8-.4C150.5,37.9,152.1,34.9,153.5,32.9Z" transform="translate(1.2 5.6)" fill="#008d33"/><path d="M151.8,83.3c-3.9-3.6,1.9-10,7-7.1a4.87,4.87,0,0,1,.2,8.6C156.6,86.2,153.7,84.6,151.8,83.3Z" transform="translate(1.2 5.6)" fill="#008d33"/><path d="M174.9,98c5.3.8,3.2,9.6-2.4,10a4.73,4.73,0,0,1-4.3-7.5C169.7,98.3,172.7,98,174.9,98Z" transform="translate(1.2 5.6)" fill="#008d33"/><path d="M175.2,62.7c-3.8,4.3-9-3.5-6.1-8.2,2.1-3.4,6.6-3.2,8.1.7C178.2,57.9,176.5,60.8,175.2,62.7Z" transform="translate(1.2 5.6)" fill="#008d33"/><path d="M176.9,11.1c4,3.7-2,10.1-7.2,7a5,5,0,0,1,.3-8.8C172.4,8.3,175.1,9.9,176.9,11.1Z" transform="translate(1.2 5.6)" fill="#008d33"/><path d="M188.8,32.4c3.8-4.3,9,3.4,6.1,8.2-2.1,3.4-6.5,3.2-8.1-.7C185.8,37.2,187.5,34.3,188.8,32.4Z" transform="translate(1.2 5.6)" fill="#008d33"/><path d="M187.1,82.8c-4-3.6,2-10.1,7.2-7a5,5,0,0,1-.3,8.8C191.7,85.6,188.9,84,187.1,82.8Z" transform="translate(1.2 5.6)" fill="#008d33"/><path d="M210.2,97.5c5.3.8,3.2,9.6-2.4,10a4.73,4.73,0,0,1-4.3-7.5C205,97.8,208,97.5,210.2,97.5Z" transform="translate(1.2 5.6)" fill="#008d33"/><path d="M210.5,62.2c-3.8,4.3-9-3.5-6.1-8.2,2.1-3.4,6.5-3.2,8.1.7C213.5,57.4,211.8,60.3,210.5,62.2Z" transform="translate(1.2 5.6)" fill="#008d33"/><path d="M212.2,10.6c3.9,3.7-2,10.1-7.2,7-3.3-2-3.5-7.1.3-8.8C207.7,7.8,210.4,9.4,212.2,10.6Z" transform="translate(1.2 5.6)" fill="#008d33"/><path d="M222.5,31.6c3.7-4.2,8.9,3.3,6.1,8-2,3.4-6.3,3.5-8-.4C219.4,36.6,221.1,33.6,222.5,31.6Z" transform="translate(1.2 5.6)" fill="#008d33"/><path d="M220.8,82c-.1,0-.2-.2-.2-.2-3.6-4.3,2.8-9.9,7.7-6.7a5,5,0,0,1-.6,8.7C225.3,84.8,222.6,83.2,220.8,82Z" transform="translate(1.2 5.6)" fill="#008d33"/><path d="M26.6,14.2c3,4.7-4.1,9.1-8.4,5.1-2.7-2.5-2.4-7.3,1.7-8.4C22.7,10.2,25.1,12.5,26.6,14.2Z" transform="translate(1.2 5.6)" fill="#fff"/><path d="M17.6,53.3c-3.9-3.6,1.9-10,7-7.1a4.87,4.87,0,0,1,.2,8.6C22.4,56.2,19.5,54.6,17.6,53.3Z" transform="translate(1.2 5.6)" fill="#fff"/><path d="M21.2,92.6c-5.4.5-4.9-8.7.3-10.3a4.73,4.73,0,0,1,5.6,6.8C26.1,91.3,23.2,92.1,21.2,92.6Z" transform="translate(1.2 5.6)" fill="#fff"/><path d="M124,21c-4.5,3.6-8.4-5.1-4.6-9.3,2.8-3,7.1-1.5,7.8,2.5C127.6,16.9,125.6,19.4,124,21Z" transform="translate(1.2 5.6)" fill="#fff"/><path d="M87.5,11.4c3.5-4.5,9.1,2.6,6.6,7.5-1.8,3.5-6.1,4-8,.2C84.8,16.6,86.3,13.5,87.5,11.4Z" transform="translate(1.2 5.6)" fill="#fff"/><path d="M50.8,15.2c-.3-5.3,7.2-5.4,9.3-.4,1.5,3.7-.7,8.7-5.4,7C52.1,20.8,51.2,17.5,50.8,15.2Z" transform="translate(1.2 5.6)" fill="#fff"/><path d="M123.3,109.1c-4.5,3.6-8.5-5.1-4.6-9.3,2.8-3,7.1-1.5,7.8,2.5C126.9,104.9,124.8,107.4,123.3,109.1Z" transform="translate(1.2 5.6)" fill="#fff"/><path d="M86.8,99.4c3.5-4.5,9.2,2.8,6.6,7.7-1.8,3.3-6,3.8-7.9.2C84.1,104.7,85.5,101.6,86.8,99.4Z" transform="translate(1.2 5.6)" fill="#fff"/><path d="M50,103.3c-.3-4.8,6.5-5.6,9-1.3,2.2,3.7-.1,10-5.3,7.7C51.3,108.7,50.5,105.5,50,103.3Z" transform="translate(1.2 5.6)" fill="#fff"/><path d="M121.7,64.2c-5.4.5-4.9-8.7.3-10.3a4.73,4.73,0,0,1,5.6,6.8C126.5,62.9,123.6,63.7,121.7,64.2Z" transform="translate(1.2 5.6)" fill="#fff"/><path d="M141.8,86.9c-3.5,4.6-9.2-2.8-6.6-7.7,1.9-3.6,6.3-3.7,8.1.1C144.5,81.8,143.1,84.8,141.8,86.9Z" transform="translate(1.2 5.6)" fill="#fff"/><path d="M137.4,31.6c4.7-3.1,8,5.7,3.9,9.5a4.47,4.47,0,0,1-7.7-3.3C133.5,35.2,135.8,33,137.4,31.6Z" transform="translate(1.2 5.6)" fill="#fff"/><path d="M157.6,20.3c-4.5,3.6-8.5-5.1-4.6-9.3,2.8-3,7.1-1.5,7.8,2.5C161.2,16.1,159.2,18.6,157.6,20.3Z" transform="translate(1.2 5.6)" fill="#fff"/><path d="M156.9,108.3c-4.5,3.6-8.4-5.1-4.6-9.3,2.8-3,7.2-1.5,7.8,2.5C160.5,104.2,158.5,106.7,156.9,108.3Z" transform="translate(1.2 5.6)" fill="#fff"/><path d="M155.3,63.5c-5.4.5-4.9-8.7.3-10.3a4.73,4.73,0,0,1,5.6,6.8C160.2,62.2,157.3,63,155.3,63.5Z" transform="translate(1.2 5.6)" fill="#fff"/><path d="M175.5,86.1c-3.5,4.5-9.1-2.6-6.6-7.5,1.8-3.5,6.1-4,8-.2C178.2,80.9,176.8,84,175.5,86.1Z" transform="translate(1.2 5.6)" fill="#fff"/><path d="M171.1,30.8c4.7-3.1,8,5.7,3.9,9.5a4.47,4.47,0,0,1-7.7-3.3C167.2,34.4,169.4,32.3,171.1,30.8Z" transform="translate(1.2 5.6)" fill="#fff"/><path d="M192.9,19.8c-4.5,3.6-8.4-5.1-4.6-9.3,2.8-3,7.1-1.5,7.8,2.5C196.6,15.6,194.5,18.1,192.9,19.8Z" transform="translate(1.2 5.6)" fill="#fff"/><path d="M192.2,107.8c-4.5,3.6-8.4-5.1-4.6-9.3,2.8-3,7.1-1.5,7.8,2.5C195.8,103.7,193.8,106.2,192.2,107.8Z" transform="translate(1.2 5.6)" fill="#fff"/><path d="M190.6,63c-5.4.5-4.9-8.7.3-10.3a4.73,4.73,0,0,1,5.6,6.8C195.5,61.7,192.6,62.5,190.6,63Z" transform="translate(1.2 5.6)" fill="#fff"/><path d="M210.8,85.6c-3.5,4.6-9.2-2.8-6.6-7.7,1.9-3.6,6.3-3.7,8.1.1C213.5,80.6,212,83.6,210.8,85.6Z" transform="translate(1.2 5.6)" fill="#fff"/><path d="M206.4,30.3c4.7-3.1,8,5.7,3.9,9.5a4.47,4.47,0,0,1-7.7-3.3C202.5,33.9,204.8,31.8,206.4,30.3Z" transform="translate(1.2 5.6)" fill="#fff"/><path d="M226.6,19c-4.6,3.6-8.4-5.2-4.6-9.3,2.8-3,7.1-1.5,7.8,2.5C230.2,14.9,228.2,17.4,226.6,19Z" transform="translate(1.2 5.6)" fill="#fff"/><path d="M225.9,107c-4.5,3.6-8.4-5.2-4.6-9.3,2.8-3,7.1-1.5,7.8,2.5C229.5,102.9,227.4,105.4,225.9,107Z" transform="translate(1.2 5.6)" fill="#fff"/><path d="M224.3,62.2c-5.4.5-4.9-8.7.3-10.3a4.73,4.73,0,0,1,5.6,6.8C229.1,60.9,226.3,61.7,224.3,62.2Z" transform="translate(1.2 5.6)" fill="#fff"/><path d="M50.2,53.5c-3.9-3.7,2-10.1,7.2-7,3.3,2,3.6,7-.3,8.8C54.8,56.3,52,54.7,50.2,53.5Z" transform="translate(1.2 5.6)" fill="#ffe400"/><path d="M88.5,53.5c-4-3.7,2-10.1,7.2-7a5,5,0,0,1-.3,8.8C93,56.3,90.3,54.7,88.5,53.5Z" transform="translate(1.2 5.6)" fill="#ffe400"/><path d="M66.9,69.8c-.2-10.2,16.3-6.9,14.8,2a7.38,7.38,0,0,1-8.4,5.7c-6-.8-6.5-4.2-6.4-7.7" transform="translate(1.2 5.6)" fill="#f39200"/></svg>