<svg xmlns="http://www.w3.org/2000/svg" viewBox="0 0 62.77 31.2"><defs><style>.a{fill:#9abd36;}.b{fill:#008d33;}</style></defs><title>superkracht-lgroen</title><path class="a" d="M63.41,12h0l-.07-.62v-.15a31.63,31.63,0,0,0,0-3.56c0-.15.07-.31,0-.46s0-.15,0-.15a1.12,1.12,0,0,0-.07-.46V5.8c0-.31.07-.46,0-.62s-.07-.77-.2-1.24a5.29,5.29,0,0,0-1.2-1.55c-.13-.15-.27-.15-.4-.31s-.53-.46-.8-.62a1.38,1.38,0,0,1-.73-.15A2,2,0,0,0,59.07,1,.65.65,0,0,1,58.6.85C58.06.7,57.46.7,56.93.54h-1.2a21.25,21.25,0,0,0-3.14,0H45.44A64.38,64.38,0,0,0,36,.39H6.18c-.4.15-.73.15-1.07.31S4.38.85,4,1s-.53.15-.8.31a5,5,0,0,0-.6.31c-.07,0-.07,0-.13.15l-.4.31a2.44,2.44,0,0,0-.67.62,2.81,2.81,0,0,0-.33.62A4.38,4.38,0,0,0,.7,6s0,.15.07.15H.64L.7,7V8a5.26,5.26,0,0,1,0,1.08c0,.15.07.15,0,.31v.31c0,.15-.07.15,0,.31H.64A9.72,9.72,0,0,0,.7,11.37v.31H.64l.07.62h0a28.94,28.94,0,0,0,0,3.4v1.24a2.93,2.93,0,0,0,0,.77c0,.31-.07.31,0,.46s0,.15,0,.15c0,.15,0,.31.07.31v.62c.07.15-.07.31,0,.46a6.55,6.55,0,0,0,.13.93,2.63,2.63,0,0,0,.87,1.08c.07,0,.2.15.33.15l.6.46a1.07,1.07,0,0,0,.67.15,1.31,1.31,0,0,1,.67.31h.33l1.27.31H17.53c3.87,0,7.61.15,11.49,0C34,23,39,23,44,23c3.07,0,6.14.15,9.21,0h2.27a2.57,2.57,0,0,0,1.07-.15h1.2a2.88,2.88,0,0,0,1.14-.15c.4-.15.73-.15,1.07-.31a8.53,8.53,0,0,0,.8-.46,1,1,0,0,1,.6-.15c.07,0,.07,0,.13-.15l.4-.31a2.44,2.44,0,0,0,.67-.62,3.81,3.81,0,0,0,.33-.77,4.38,4.38,0,0,0,.33-2.48h.07l-.07-.93V15.09c.07-.93.07-2,.07-3.09Z" transform="translate(-0.63 -0.29)"/><path class="b" d="M17.91,9.36l-.19,0-.27-.08-.29,0-.27-.15L16.7,9.1a1.08,1.08,0,0,1-.28-.28,2.11,2.11,0,0,1-.12-.2l-.13-.1a1.88,1.88,0,0,1-.27-1,1.49,1.49,0,0,1,.52-1.37l.64-.42.24-.16.15-.13L18,5.26l.48,0,.26,0h.18a.57.57,0,0,1,.64.57c0,.2-.09.38-.28.38S18.91,6,18.59,6a3.78,3.78,0,0,0-1.12.25l-.08.08-.31.18-.34.34c-.09.08-.1.23-.1.48V7.4a1.16,1.16,0,0,0,.41,1l.28.09.2.13a.73.73,0,0,0,.24,0,1,1,0,0,0,1-.84.64.64,0,0,0,0-.09.24.24,0,0,0,0-.08s0,0,0,0l-.18,0-.36,0h0a.35.35,0,0,1-.33-.32.44.44,0,0,1,.32-.4l.25,0,.14,0a1.85,1.85,0,0,0,.32,0h.34l.16.11.15.08a1.09,1.09,0,0,1,.08.32s0,0,0,0C19.4,8.41,19.09,9.16,17.91,9.36Z" transform="translate(-0.63 -0.29)"/><path class="b" d="M23.74,5.92c-.08,0-.31-.06-.41-.06h-.54l-.12,0h-.59c-.09,0-.1,0-.11.06v.27l-.08.19,0,.39c0,.07,0,.13,0,.17s0,.08.06.08l.34,0h.15l.24-.1.37,0a.48.48,0,0,1,.45.45c0,.2-.28.38-.41.38h0l-.34,0-.75,0-.07,0,0,.07-.08.07,0,.9a2,2,0,0,0-.06.37c0,.06,0,.11,0,.13s.32,0,.46,0l.56,0L23,9.06h.47a.6.6,0,0,1,.5.37c0,.15-.34.36-.41.36h-.08l-.15.08-1,0s-.9.21-1.09.21a.41.41,0,0,1-.41-.43v0l0-.8.08-.21L21,8,21,7.87l0-.6.14-.88,0-.83a.49.49,0,0,1,.47-.5h.21l.15,0,.31.06.21,0h.61l.4,0h.36c.1,0,.27.2.27.38a.25.25,0,0,1,0,.14A.53.53,0,0,1,23.74,5.92Z" transform="translate(-0.63 -0.29)"/><path class="b" d="M29.16,5.62v.15l0,.28-.06.64,0,.12,0,.25,0,.48V8l0,.13v.27l0,.44a1.92,1.92,0,0,1-.19.51,1,1,0,0,1-.27.16c-.34,0-.39,0-.39-.32V8.74l.08-.57s0-.06,0-.09,0-.34-.11-.34a1.18,1.18,0,0,0-.21,0l-.55-.1-.48,0h-.57c-.06,0-.14,0-.14.08s.06.27.06.38c0,.75-.25,1.15-.53,1.15s-.34-.27-.34-.27l0-.24,0-.46,0-.22,0-.22,0-.45,0-.75.08-.23V5.62l.15-.45A.93.93,0,0,1,26,5.08a1,1,0,0,1,.27.12v.18l0,.08a.31.31,0,0,1,0,.08c0,.1,0,.2,0,.3s0,.27,0,.31v.33l0,.12v.25l.08.08h.17l.27,0,.17,0h1.25a.11.11,0,0,0,.12-.12V6.63l.06-.36,0-.78c0-.28.21-.56.41-.56s.38.14.38.3v0Z" transform="translate(-0.63 -0.29)"/><path class="b" d="M33.56,5.92c-.08,0-.31-.06-.41-.06h-.54l-.12,0h-.59c-.09,0-.1,0-.11.06v.27l-.08.19,0,.39c0,.07,0,.13,0,.17s0,.08.06.08l.34,0h.15l.24-.1.37,0a.48.48,0,0,1,.45.45c0,.2-.28.38-.41.38h0l-.34,0-.75,0-.07,0,0,.07-.08.07,0,.9a2,2,0,0,0-.06.37c0,.06,0,.11,0,.13s.32,0,.46,0l.56,0,.31-.11h.47a.6.6,0,0,1,.5.37c0,.15-.34.36-.41.36h-.08l-.15.08-1,0s-.9.21-1.09.21a.41.41,0,0,1-.41-.43v0l0-.8.08-.21,0-.64.06-.12,0-.6L31,6.39l0-.83a.49.49,0,0,1,.47-.5h.21l.15,0,.31.06.21,0H33l.4,0h.36c.1,0,.27.2.27.38a.25.25,0,0,1,0,.14A.53.53,0,0,1,33.56,5.92Z" transform="translate(-0.63 -0.29)"/><path class="b" d="M36.57,6.24l0,.57L36.48,7l0,.39,0,.25s-.17.84-.17,1.06a1.77,1.77,0,0,1-.06.53,1.72,1.72,0,0,1-.08.2v.18c0,.17-.5.3-.5.3l-.11-.22-.1-.1,0-.48.1-.56V8.31l.06-.13.11-.42V7.54l.11-.48,0-.83a.7.7,0,0,1,.1-.39c.11-.18.21-.42.45-.42a.33.33,0,0,1,.34.35A1.36,1.36,0,0,1,36.57,6.24Z" transform="translate(-0.63 -0.29)"/><path class="b" d="M43.11,9.88c-.16,0-.32-.11-.36-.38l-.11-.61-.09-.23V8.24l0-.2,0-.34-.1-1.23c0-.08,0-.13-.06-.13s-.07,0-.13.11l-.32.48-.36.81-.34.37L41,8.49c-.08.14-.15.25-.37.25s-.31-.19-.37-.37l-.17-.48L40,7.77l0-.23-.13-.14s-.38-.9-.58-.9c0,0-.07.1-.07.19s.08.18.08.31a1.86,1.86,0,0,1-.11.5v.19l0,.28,0,.54L39,8.73l0,.5a.41.41,0,0,1-.34.39c-.14,0-.41-.15-.41-.34a1.54,1.54,0,0,1,.08-.43l0-.13.08-.42V7.7l.07-.23s0-.29,0-.73c0-.81.3-1.47.57-1.47a.56.56,0,0,1,.37.25c.13.17.46.65.47.66l.13.13.15.36s.26.31.4.52,0,.37.15.37.21-.19.46-.69.89-1.67.92-1.72a.63.63,0,0,1,.5-.27c.17,0,.29.21.34.61,0,.13.15.53.21.87a.94.94,0,0,1,0,.14c0,.1,0,.18,0,.27a.85.85,0,0,0,0,.13,1.59,1.59,0,0,0,.09.25l0,.9.25,1.12a1.87,1.87,0,0,1,0,.34A.45.45,0,0,1,43.11,9.88Z" transform="translate(-0.63 -0.29)"/><path class="b" d="M47.81,5.92c-.08,0-.32-.06-.41-.06h-.54l-.12,0h-.59c-.09,0-.1,0-.11.06v.27L46,6.3l0,.39c0,.07,0,.13,0,.17s0,.08.06.08l.34,0h.15l.24-.1.37,0a.48.48,0,0,1,.45.45c0,.2-.28.38-.41.38h0l-.34,0-.75,0-.07,0,0,.07-.08.07,0,.9a2.1,2.1,0,0,0-.06.37c0,.06,0,.11,0,.13s.32,0,.46,0l.56,0L47,9.06h.47a.6.6,0,0,1,.5.37c0,.15-.34.36-.41.36h-.08l-.15.08-1,0s-.9.21-1.09.21a.41.41,0,0,1-.41-.43v0l0-.8L45,8.64l0-.64.06-.12,0-.6.14-.88,0-.83a.49.49,0,0,1,.47-.5H46l.15,0,.31.06.21,0h.61l.4,0H48c.1,0,.27.2.27.38a.25.25,0,0,1,0,.14A.53.53,0,0,1,47.81,5.92Z" transform="translate(-0.63 -0.29)"/><path class="b" d="M9.21,14.39l-.2.23s-.46-.47-.77-.47a.73.73,0,0,0-.55.29l0,.17.1.12.45.28.16.17.23.15.1.13.15.17L9,16l.11.29a.71.71,0,0,1,0,.27A1.26,1.26,0,0,1,8,17.64a3.1,3.1,0,0,1-.67-.08L7,17.46l-.12-.1c-.08,0-.34-.22-.34-.46s.14-.45.32-.45a1.58,1.58,0,0,0,1,.33.47.47,0,0,0,.53-.44.44.44,0,0,0,0-.16l-.12-.1-.16-.23-.21-.1a1.69,1.69,0,0,1-.93-1.23,1.12,1.12,0,0,1,.37-.79l.31-.15.17-.09a2.42,2.42,0,0,1,.36,0c.77,0,1.27.32,1.27.74C9.4,14.23,9.28,14.34,9.21,14.39Z" transform="translate(-0.63 -0.29)"/><path class="b" d="M14.46,14.33l-.08.71a4.53,4.53,0,0,1-.51,1.43l-.12.27-.48.43a3.22,3.22,0,0,1-1.13.51A1.68,1.68,0,0,1,11,17.25l-.06-.16c-.1-.11-.36-.54-.36-1.74a4.24,4.24,0,0,1,.06-.76l.09-.61v-.3c0-.11.24-.41.4-.41a.32.32,0,0,1,.31.21l.06.28,0,.17.06.17-.11.47-.08.2,0,1.3.08.25,0,.18a.69.69,0,0,0,.58.32,1.63,1.63,0,0,0,.9-.38l.25-.48.1-.11a3.72,3.72,0,0,0,.31-1.16c0-.15,0-.25,0-.34a.52.52,0,0,1,.07-.3l.17-.3c.08-.16.28-.16.45-.16a.26.26,0,0,1,.23.28s0,0,0,.06Z" transform="translate(-0.63 -0.29)"/><path class="b" d="M17.54,15.9l-.22.13-.46.07-.2.06-.1.18v.3l0,.15,0,.32v.75c0,.13-.2.34-.22.35s-.15.17-.24.17-.29-.24-.31-.3l-.08-.18,0-.2v-.29l.08-.27v-.71l.06-.25v-.31l.08-.41v-.42s0-.13,0-.22a1.65,1.65,0,0,0,0-.39v-.38c0-.61.23-.83.9-.83a3.25,3.25,0,0,1,.39,0l.69.21c.14,0,.82.46.82.83C18.81,15.26,17.7,15.82,17.54,15.9Zm.2-1.79-.39-.06L17.19,14h-.12c-.28,0-.29.13-.32.29l-.07.43,0,.18-.07.23a.15.15,0,0,0,0,.06c0,.08.06.14.08.14.39,0,1.27-.48,1.27-.86A.35.35,0,0,0,17.73,14.11Z" transform="translate(-0.63 -0.29)"/><path class="b" d="M22.79,14.32c-.08,0-.31-.06-.41-.06h-.54l-.12,0h-.59c-.09,0-.1,0-.11.06v.27l-.08.19,0,.38c0,.07,0,.13,0,.17s0,.08.06.08l.34,0h.15l.24-.1.37,0a.48.48,0,0,1,.45.45c0,.2-.28.38-.41.38h0l-.34,0-.75,0-.07,0,0,.07-.08.07,0,.9a2,2,0,0,0-.06.37c0,.06,0,.11,0,.13l.46,0,.56,0,.31-.11h.47a.6.6,0,0,1,.5.37c0,.15-.34.36-.41.36H22.5l-.15.08-1,0s-.9.21-1.09.21a.41.41,0,0,1-.41-.43v0l0-.8L20,17l0-.64.06-.12,0-.59.14-.88,0-.83a.49.49,0,0,1,.47-.5H21l.15,0,.31.06.21,0h.61l.4,0H23c.1,0,.27.2.27.38a.25.25,0,0,1,0,.14A.53.53,0,0,1,22.79,14.32Z" transform="translate(-0.63 -0.29)"/><path class="b" d="M27.31,15.41l-.48.4s0,0,0,0l.41.88.24.29a.24.24,0,0,1,0,.17c0,.27-.21.68-.38.68s-.23-.15-.31-.28l-.24-.39-.06-.25-.18-.2-.06-.15-.22-.41s0-.06,0-.06a1.05,1.05,0,0,0-.27.13l-.21,0c-.08,0-.14.2-.14.31v0l.09,1v.28c0,.12-.23.52-.47.52s-.29-.22-.29-.37l0-1.4,0-.36v-.22l0-.42,0-.17,0-.48-.06-.34,0-.15,0-.57v0a.71.71,0,0,1,.49-.62l.78-.06.43,0,.21.11.39.15.15.15a1.84,1.84,0,0,1,.64,1.16A.84.84,0,0,1,27.31,15.41Zm-.55-.95-.26-.29c-.08-.09-.13-.18-.22-.18h0l-.27.06-.31,0h-.1c-.14,0-.27,0-.27.15v.14l.13.83v.27c0,.06,0,.15.1.15s.47-.29.47-.29l.2,0,.43-.2s.29-.15.29-.24A.53.53,0,0,0,26.75,14.47Z" transform="translate(-0.63 -0.29)"/><path class="b" d="M32.47,14.73l-.13.08-.22,0c-.24,0-.54.17-.54.3a1.87,1.87,0,0,0,.2.57,2.37,2.37,0,0,1,.17.69l.31.85v.23l.07.22a.34.34,0,0,1,0,.08.44.44,0,0,1-.43.39c-.09,0-.32-.21-.39-.35l-.09-.22-.08-.43L31.3,17l-.06-.5-.08-.39-.3-.5-.08-.25-.06,0-.79.28-.09.09V16l0,.35v.41l0,.22,0,.15-.06.32v.57c0,.21-.15.48-.33.48s-.48-.18-.48-.41v0l0-.62.12-.62V16l.09-.43,0-.61.07-.22,0-.8,0-.25v0c0-.35.44-.36.5-.36h0l.08.14.2.07,0,.9,0,.22s0,.09,0,.13a.08.08,0,0,0,0,.06h0a.3.3,0,0,0,.14-.06l.25-.07.14-.07.41-.09,1.28-.55a.37.37,0,0,1,.15,0,.5.5,0,0,1,.48.45C32.85,14.48,32.47,14.73,32.47,14.73Z" transform="translate(-0.63 -0.29)"/><path class="b" d="M36.7,15.41l-.48.4s0,0,0,0l.41.88.24.29a.24.24,0,0,1,0,.17c0,.27-.21.68-.38.68s-.23-.15-.31-.28L36,17.17l-.06-.25-.18-.2-.06-.15-.22-.41s0-.06,0-.06a1.05,1.05,0,0,0-.27.13l-.21,0c-.08,0-.14.2-.14.31v0l.09,1v.28c0,.12-.23.52-.47.52s-.29-.22-.29-.37l0-1.4,0-.36v-.22l0-.42,0-.17L34,15,34,14.65l0-.15,0-.57v0a.71.71,0,0,1,.49-.62l.78-.06.43,0,.21.11.39.15.15.15A1.84,1.84,0,0,1,37,14.77.84.84,0,0,1,36.7,15.41Zm-.55-.95-.26-.29c-.08-.09-.13-.18-.22-.18h0l-.27.06-.31,0H35c-.14,0-.27,0-.27.15v.14l.13.83v.27c0,.06,0,.15.1.15s.47-.29.47-.29l.2,0L36,15s.29-.15.29-.24A.53.53,0,0,0,36.15,14.47Z" transform="translate(-0.63 -0.29)"/><path class="b" d="M41.43,18c-.11,0-.31-.2-.31-.2L41,17.57l0-.27L41,17.14a2.07,2.07,0,0,1-.16-.46c-.08-.36-.15-.59-.27-.59s-.58.13-.92.13-.28,0-.31.09l-.1.21,0,.18-.09.17L39,17l-.19.25-.16.42a.56.56,0,0,1-.39.28.51.51,0,0,1-.4-.43,1.76,1.76,0,0,1,.28-.65,3.15,3.15,0,0,1,.13-.43c.09-.2.26-.48.26-.48l.33-.63.2-.57.11-.19.25-.55c.13-.29.25-.62.57-.62s.38.12.57.53l.5,1.18,0,.23.34.74a.85.85,0,0,1,.13.23c.08.22.07.41.15.57a2,2,0,0,1,.18.5A.83.83,0,0,1,41.43,18Zm-1.11-2.91,0-.13-.16-.29s0-.16-.1-.16-.36.43-.41.67a1,1,0,0,0,0,.18s0,.06,0,.06l.62,0c.09,0,.18,0,.18-.07A.8.8,0,0,0,40.31,15.07Z" transform="translate(-0.63 -0.29)"/><path class="b" d="M45.81,14.26a.28.28,0,0,1-.13,0c-.15,0-.2-.14-.41-.14a1.3,1.3,0,0,0-.76.25l-.06.1-.39.32a2,2,0,0,0-.34.45,1.78,1.78,0,0,0-.22.85,1.18,1.18,0,0,0,.08.32l.19.15.07.13.08.08a2.34,2.34,0,0,0,.71.18.49.49,0,0,0,.18,0l.23-.11.15,0,.22-.12.27.12,0,.13.13.13s-.15.48-.35.48h-.12l-.24.08a2.11,2.11,0,0,1-.55.08,4.73,4.73,0,0,1-.79-.13l-.22,0-.32-.27A1.67,1.67,0,0,1,42.72,16a3.76,3.76,0,0,1,.53-1.44l.34-.5.13-.09.23-.22a2.27,2.27,0,0,1,1.3-.42,1,1,0,0,1,.89.41.34.34,0,0,1,.06.17.36.36,0,0,1,0,.11A.39.39,0,0,1,45.81,14.26Z" transform="translate(-0.63 -0.29)"/><path class="b" d="M51,14v.15l0,.28-.06.64,0,.12,0,.25,0,.48v.49l0,.13v.27l0,.44a1.91,1.91,0,0,1-.19.51,1,1,0,0,1-.27.16c-.34,0-.39,0-.39-.32v-.48l.08-.58s0-.06,0-.09,0-.34-.11-.34a1.19,1.19,0,0,0-.21,0l-.55-.1-.48,0h-.57c-.06,0-.14,0-.14.08s.06.27.06.38c0,.75-.25,1.15-.53,1.15s-.34-.27-.34-.27l0-.24,0-.46,0-.22,0-.22,0-.45,0-.75.08-.23V14l.15-.45a.93.93,0,0,1,.25-.08,1,1,0,0,1,.27.12v.17l0,.08a.31.31,0,0,1,0,.08c0,.1,0,.2,0,.3s0,.27,0,.31v.33l0,.12v.25l.08.08h.17l.27,0,.17,0H50a.11.11,0,0,0,.12-.12V15l.06-.36,0-.78c0-.28.21-.56.41-.56s.38.14.38.3v0Z" transform="translate(-0.63 -0.29)"/><path class="b" d="M55.94,14.3H55.7l-.37,0-.25,0H55a.39.39,0,0,0-.44.38l0,.15,0,.36,0,.41.06.23s0,.39,0,.61,0,.52,0,.52v.3c0,.59-.31,1.13-.46,1.13s-.34-.29-.41-.47a.53.53,0,0,1,0-.17,2,2,0,0,1,.08-.45c0-.08,0-.27.06-.36l-.06-.18,0-.61v-.22c0-.15-.12-.27-.12-.51s.07-.46.07-.6-.07-.27-.2-.27h0l-.9.07H52.7c-.26,0-.36-.14-.36-.43s.18-.31.37-.37l.13,0,.34,0,.13,0h.47l.41-.15h.22l.69,0,.26-.06h.81s0,.27,0,.36S55.94,14.3,55.94,14.3Z" transform="translate(-0.63 -0.29)"/><path class="b" d="M57.61,15.34l0,.15-.15.08a.54.54,0,0,1-.33.16c-.13,0-.33-.29-.33-.29v-.08a.46.46,0,0,1-.13-.25.61.61,0,0,1,.59-.57.53.53,0,0,1,.48.54A.65.65,0,0,1,57.61,15.34Zm-.41,2.25A.83.83,0,0,1,57,17.5l-.17-.07a1.55,1.55,0,0,1-.13-.38.49.49,0,0,1,0-.17l0-.15.13-.1.16-.15.32.06.11.13a.56.56,0,0,1,.24.5C57.7,17.47,57.46,17.59,57.2,17.59Z" transform="translate(-0.63 -0.29)"/><path class="a" d="M31.38,27l-.1-.75.05-.3,0-.52v-.34a9,9,0,0,0,0-1.44,1.46,1.46,0,0,1,0-.69,2,2,0,0,1,.1-.3l0-.24c0-.23,1-.64,1-.64l.31.23.24.08.08.63,0,.76.08.33-.08.2-.11.59,0,.29-.07.67.17,1.07a.67.67,0,0,1-.1.55c-.18.29-.31.64-.82.76s-.77,0-.83-.27A1.4,1.4,0,0,1,31.38,27Z" transform="translate(-0.63 -0.29)"/><path class="a" d="M34.47,26.49l.33.22.46.15-.25.86L34.08,29l-.32.55-.21.2-1,1.46a.67.67,0,0,1-.49.32c-.44,0-.93-.57-1-.65l-.19-.15-.31-.57-.21-.27-.67-1.16L29,27.83a1.32,1.32,0,0,1-.25-.58.79.79,0,0,1,.06-.41c.09-.28.26-.34.36-.35h.05l.11-.05.08,0,.07,0Z" transform="translate(-0.63 -0.29)"/></svg>