<?xml version="1.0" encoding="utf-8"?>
<!-- Generator: Adobe Illustrator 21.1.0, SVG Export Plug-In . SVG Version: 6.00 Build 0)  -->
<svg version="1.1" id="Layer_1" xmlns="http://www.w3.org/2000/svg" xmlns:xlink="http://www.w3.org/1999/xlink" x="0px" y="0px"
	 viewBox="0 0 94.7 67.2" style="enable-background:new 0 0 94.7 67.2;" xml:space="preserve">
<style type="text/css">
	.st0{fill:#E94E1B;}
</style>
<g id="Layer_1_1_">
	<path class="st0" d="M94.3,46.6l-0.1-0.3v-0.1c0.1-0.7,0.1-1.2,0-1.9c0-0.1,0.1-0.2,0-0.2s0-0.1,0-0.1c0-0.1,0-0.1,0-0.2
		c0-1.2,0-2.4-0.1-3.4c0-0.1,0-0.1,0-0.2h0.1l0,0c0-1.2,0-2.3-0.1-3.4c0-0.1,0-0.2,0-0.4c0-0.1,0-0.2,0-0.4c0-1.2,0-2.5,0-3.7
		c0.1-1.7,0-7.4,0-10.4c0-0.3,0-0.7,0-1l0,0l0,0c0-0.8-0.1-2.7,0-2.9L94,10.7c0.2-0.2,0.2-0.6,0.1-0.8h0.1l-0.1-0.5c0,0,0,0,0-0.1
		c0,0,0,0,0-0.1c0-0.2,0-0.3,0-0.6c0.1-0.5,0.1-1.1,0.1-1.7h0.1l-0.1-0.3V6.6c0.1-0.7,0.1-1.2,0-1.9c0-0.1,0.1-0.2,0-0.2
		c-0.1-0.1,0-0.1,0-0.1c0-0.1,0-0.2-0.1-0.2c0-0.2,0-0.2,0-0.4s0.1-0.2,0-0.3S94,2.9,93.8,2.7C93.3,2.3,92.6,2,92,1.8
		c-0.2-0.1-0.4-0.1-0.6-0.2c-0.4-0.1-0.8-0.2-1.2-0.3c-0.3,0-0.7,0-1.1-0.1c-0.4-0.1-0.9-0.2-1.3-0.2c-0.2,0-0.4,0-0.7-0.1
		c-0.8-0.1-1.7-0.1-2.5-0.2c-0.6,0-1.2,0-1.8,0c-1.4-0.1-3.2,0-4.7,0s-3.1,0-4.6,0c-2.1,0-4,0-6.1,0c-6.3-0.2-7.7-0.2-14.2-0.1
		c-8.3,0-16.8,0-25.1,0c-2.3,0-4.8,0-7.1,0s-4.7,0-7.1,0h-1.1c-0.6,0-1.1,0-1.7,0H8.7H8.6C8,0.8,7.5,0.8,7,0.9S5.9,1,5.4,1.1
		C4.9,1.2,4.6,1.2,4.2,1.3C3.8,1.3,3.6,1.3,3.3,1.4c-0.1,0-0.1,0-0.2,0.1L2.5,1.7C2.2,1.8,1.8,1.8,1.5,2C1.3,2.1,1.1,2.3,1,2.3
		c-0.5,0.3-0.9,1-0.6,1.4c0,0,0,0.1,0.1,0.1H0.3l0.1,0.5c0,0,0,0,0,0.1s0,0.2,0,0.3v0.1c0,0,0.1,0.3,0,0.6c0,0.1,0.1,0.1,0,0.2
		c0,0.1,0,0.1,0,0.2s-0.1,0.1,0,0.2H0.3c0,0.2,0,0.5,0.1,0.7v0.2H0.3l0.1,0.3c-0.1,0.6-0.1,1.2,0,1.8c0,0.1,0,0.2,0,0.3v0.3
		c-0.1,0.1,0,0.2,0,0.4s-0.1,0.2,0,0.2c0.1,0.1,0,0.1,0,0.1c0,0.1,0,0.2,0.1,0.2c0,0.2,0,0.2,0,0.3c0,0,0,0.1,0,0.2l0,0
		c0,0.2,0,0.7,0,0.8c0,0.3-0.1,0.7,0,1.1c0,0.1,0,0.2,0,0.2H0.4c0,1.7,0,3.6,0.1,4.8c0,0.3,0,0.7,0,1l0,0l0,0c0,0.8,0,1.7,0.1,2.5
		c0,0.2,0,0.2,0,0.4C0.5,27,0.5,31,0.6,34c0,0.7,0,1.4,0,2v2.5c-0.1,0.6,0,1.8,0,2.6c0,0.7,0,1.2,0,1.6c-0.1,0.2-0.2,0.6,0,0.7l0,0
		v0.1H0.3L0.4,44c0,0,0,0,0,0.1s0,0.2,0,0.3v0.1c0,0,0.1,0.3,0,0.6c0,0.1,0.1,0.1,0,0.2c0,0.1,0,0.1,0,0.2c0,0.1-0.1,0.1,0,0.2H0.3
		c0,0.2,0,0.4,0.1,0.7c0,0.1-0.1,0.2-0.1,0.2l0,0l0,0c0,0.2,0,0.2,0.1,0.3v0.1H0.3l0.1,0.3c0,0.5,0,0.9,0,1.4c0,0,0,0,0,0.1
		s0,0.1,0,0.2c0,0.1-0.1,0.1,0,0.2H0.3c0,0.2,0,0.5,0.1,0.7c0,0.1-0.1,0.2,0,0.2H0.3l0.1,0.3c-0.1,0.3-0.1,0.7-0.1,1
		c-0.1,0.2,0,0.3,0,0.5c0,0.1,0,0.1,0,0.2l0,0l0.1,0.5c0,0,0,0,0,0.1c0,0.1,0,0.2,0,0.2c-0.1,0.1,0,0.2,0,0.4c0,0.2-0.1,0.2,0,0.2
		l0,0v0.1c0,0.1,0,0.1,0,0.2l0,0c0,0.1,0,0.1,0,0.2c0,0.1-0.1,0.1,0,0.2H0.3c0,0.2,0,0.5,0.1,0.7v0.2H0.3l0.1,0.3
		c-0.1,0.6-0.1,1.2,0,1.8c0,0.1,0,0.2,0,0.3v0.3c-0.1,0.1,0,0.2,0,0.4s-0.1,0.2,0,0.2c0.1,0.1,0,0.1,0,0.1c0,0.1,0,0.2,0.1,0.2V59
		c0.1,0.1-0.1,0.2,0,0.2c0.1,0.1,0,0.3,0.2,0.5C1.1,60,1.5,60.2,2,60.3c0.1,0,0.3,0.1,0.5,0.1c0.3,0.1,0.6,0.2,0.9,0.2
		c0.3,0.1,0.7,0.1,1,0.1s0.7,0.1,1,0.2c0.2,0,0.3,0,0.5,0L7.8,61c0.2,0,0.3,0,0.5,0s0.3,0,0.5,0s0.4,0,0.5,0c1.5,0,3.1,0,4.5,0
		c4,0,7.9,0,11.8,0c5.3,0,10.4,0.1,15.7,0c0.1,0.2,0.2,0.2,0.3,0.4l1.1,1.2l1.1,1.6l0.3,0.3l0.5,0.7l0.3,0.2c0.1,0.1,0.9,1,1.6,0.9
		c0.3,0,0.6-0.2,0.8-0.4l1.6-2l0.3-0.2l0.5-0.7l1.5-1.7l0.1-0.3c4.7,0,9.4,0,14.1,0c4.6,0,9.2,0.1,13.8,0c1.2,0,2.3,0,3.4,0
		c0.3,0,1.3,0,1.6-0.1H86c0.6,0,1.1,0,1.7-0.1s1.1-0.1,1.6-0.2c0.5-0.1,0.8-0.2,1.2-0.2c0.4-0.1,0.6-0.1,0.9-0.1
		c0.1,0,0.1,0,0.2-0.1l0.6-0.2c0.3-0.1,0.7-0.2,1-0.3c0.2-0.1,0.3-0.2,0.5-0.4c0.4-0.3,0.8-0.9,0.5-1.3h0.1l-0.1-0.5c0,0,0,0,0-0.1
		c0,0,0,0,0-0.1c0-0.2,0-0.3,0-0.6c0.1-0.5,0.1-1.1,0.1-1.7h0.1l-0.1-0.3v-0.1c0.1-0.7,0.1-1.2,0-1.9c0-0.1,0.1-0.2,0-0.2
		c-0.1-0.1,0-0.1,0-0.1c0-0.1,0-0.2-0.1-0.2c0-0.2,0-0.2,0-0.4c0-0.2,0.1-0.2,0-0.2c0.1-0.4,0.1-0.9,0.1-1.4h0.1l-0.1-0.3v-0.1
		c0.1-0.7,0.1-1.2,0-1.9c0-0.1,0.1-0.2,0-0.2l0,0v-0.1l0,0v-0.1C94.2,47.1,94.2,46.9,94.3,46.6L94.3,46.6z"/>
	<title>knop-cpu-hvr</title>
</g>
</svg>
