<svg xmlns="http://www.w3.org/2000/svg" viewBox="0 0 62.77 31.29"><defs><style>.a{fill:#9abd36;}.b{fill:#008d33;}</style></defs><title>uitdrukking-lgroen</title><path class="a" d="M63.53,12.08h0l-.07-.62v-.15a31.63,31.63,0,0,0,0-3.56c0-.15.07-.31,0-.46s0-.15,0-.15a1.12,1.12,0,0,0-.07-.46V5.89c0-.31.07-.46,0-.62s-.07-.77-.2-1.24A5.29,5.29,0,0,0,62,2.49c-.13-.15-.27-.15-.4-.31s-.53-.46-.8-.62a1.38,1.38,0,0,1-.73-.15,2,2,0,0,0-.87-.31.65.65,0,0,1-.47-.15C58.18.79,57.58.79,57,.63h-1.2a21.25,21.25,0,0,0-3.14,0H45.56A64.38,64.38,0,0,0,36.08.48H6.3c-.4.15-.73.15-1.07.31S4.5.94,4.16,1.1s-.53.15-.8.31a5,5,0,0,0-.6.31c-.07,0-.07,0-.13.15l-.4.31a2.44,2.44,0,0,0-.67.62,2.81,2.81,0,0,0-.33.62A4.38,4.38,0,0,0,.82,6s0,.15.07.15H.76l.07.93v.93a5.26,5.26,0,0,1,0,1.08c0,.15.07.15,0,.31v.31c0,.15-.07.15,0,.31H.76a9.72,9.72,0,0,0,.07,1.39v.31H.76l.07.62h0a28.94,28.94,0,0,0,0,3.4V17a2.93,2.93,0,0,0,0,.77c0,.31-.07.31,0,.46s0,.15,0,.15c0,.15,0,.31.07.31v.62c.07.15-.07.31,0,.46a6.55,6.55,0,0,0,.13.93,2.63,2.63,0,0,0,.87,1.08c.07,0,.2.15.33.15l.6.46a1.07,1.07,0,0,0,.67.15,1.31,1.31,0,0,1,.67.31H4.5l1.27.31H17.65c3.87,0,7.61.15,11.49,0,4.94-.15,9.95-.15,15-.15,3.07,0,6.14.15,9.21,0h2.27a2.57,2.57,0,0,0,1.07-.15h1.2a2.88,2.88,0,0,0,1.14-.15c.4-.15.73-.15,1.07-.31a8.53,8.53,0,0,0,.8-.46,1,1,0,0,1,.6-.15c.07,0,.07,0,.13-.15l.4-.31a2.44,2.44,0,0,0,.67-.62,3.81,3.81,0,0,0,.33-.77,4.38,4.38,0,0,0,.33-2.48h.07l-.07-.93V15.18c.07-.93.07-2,.07-3.09Z" transform="translate(-0.76 -0.38)"/><path class="b" d="M15.71,5.78c-.1,0-.26-.06-.43-.08l-.18,0-.18,0-.27,0h-.3c-.18,0-.39.08-.4.21l0,.73,0,.17v.15l0,.15h0s0,0,0,0h.1l.24,0h.33l.15,0H15c.23,0,.4.33.4.42a.63.63,0,0,1-.63.48h-.13l-.16,0-.2,0h-.32a.27.27,0,0,0-.2.06.17.17,0,0,0,0,.13c0,.06,0,.13,0,.2s0,.38,0,.57a1.54,1.54,0,0,1-.06.34l0,.25-.31,0A.49.49,0,0,1,12.87,9c0-.07.07-.5.09-.58V8.27L13,7.63v-.4l.06-.14V7c.08-.48.18-.92.24-1.22.11-.55.17-.79.57-.79a3.67,3.67,0,0,1,.41,0c.1,0,.21.07.33.07.4,0,.88-.08,1.09-.08a.38.38,0,0,1,.39.38A.48.48,0,0,1,15.71,5.78Z" transform="translate(-0.76 -0.38)"/><path class="b" d="M19.91,9.68c-.11,0-.31-.2-.31-.2l-.08-.22,0-.27-.07-.16a2.08,2.08,0,0,1-.16-.46c-.08-.36-.15-.6-.27-.6s-.58.13-.92.13-.28,0-.31.09l-.1.21,0,.18-.09.17-.06.17L17.3,9l-.16.42a.56.56,0,0,1-.39.28.51.51,0,0,1-.4-.43,1.75,1.75,0,0,1,.28-.65,3,3,0,0,1,.13-.43c.09-.2.26-.48.26-.48l.33-.63.2-.57.11-.19.25-.55c.13-.29.25-.62.57-.62s.38.12.57.53l.5,1.18,0,.23.34.74a.83.83,0,0,1,.13.23c.08.22.07.41.15.57a2,2,0,0,1,.18.5A.83.83,0,0,1,19.91,9.68ZM18.79,6.77l0-.13-.16-.29s0-.16-.1-.16-.36.43-.41.67a1,1,0,0,0,0,.18s0,.06,0,.06l.62,0c.09,0,.18,0,.18-.07A.8.8,0,0,0,18.79,6.77Z" transform="translate(-0.76 -0.38)"/><path class="b" d="M25.18,6.51a1.67,1.67,0,0,0-.35.45l-.22.3-.51.51-.45.6-.12.29-.41.43L23,9.28c-.13.14-.27.3-.41.3A.62.62,0,0,1,22,9.2l-.06-.32-.14-.42,0-.31-.1-.55S21.53,7,21.53,7a1.31,1.31,0,0,0-.18-.34.36.36,0,0,1,0-.19.66.66,0,0,1,0-.21c.11-.21.17-.33.36-.33s.29.06.32.2l.15.48.2.52v.2l.16.84c0,.22.09.29.15.29s.17-.13.26-.25l.2-.29.14-.13.27-.36c.19-.27.36-.41.52-.67.49-.85.81-1.18,1-1.18a.42.42,0,0,1,.43.46C25.54,6.18,25.38,6.35,25.18,6.51Z" transform="translate(-0.76 -0.38)"/><path class="b" d="M29.77,8.21l-.06.15-.39.47a2,2,0,0,1-1.38.57,1.61,1.61,0,0,1-1-.32l-.17-.22-.07,0a2,2,0,0,1-.39-1.32A2.25,2.25,0,0,1,27,5.9L27,5.78l.16-.12.17-.17.17,0,.08,0a3.53,3.53,0,0,1,1.18-.26,1.76,1.76,0,0,1,1.36,1.48A3.41,3.41,0,0,1,29.77,8.21ZM29.1,6.11h-.19L28.63,6l-.36,0h0c-.39,0-.6.28-.84.6a1.31,1.31,0,0,0-.29.79c0,.9.21,1.26.86,1.26a1.24,1.24,0,0,0,.67-.2l.12-.2L29,8,29,7.87l.08-.07a3.6,3.6,0,0,0,.24-1C29.36,6.23,29.1,6.11,29.1,6.11Z" transform="translate(-0.76 -0.38)"/><path class="b" d="M34.3,7.1l-.48.4s0,0,0,0l.41.88.24.29a.24.24,0,0,1,0,.17c0,.27-.21.68-.38.68s-.23-.15-.31-.28l-.24-.39-.06-.25-.18-.2-.06-.15-.22-.41s0-.06,0-.06a1.05,1.05,0,0,0-.27.13l-.21,0c-.08,0-.14.2-.14.31v0l.09,1v.28c0,.12-.23.52-.47.52s-.29-.22-.29-.37l0-1.4,0-.36V7.75l0-.42,0-.17,0-.48-.06-.34,0-.15,0-.57v0A.71.71,0,0,1,32.05,5l.78-.06.43,0,.21.11.39.15L34,5.3a1.84,1.84,0,0,1,.64,1.16A.84.84,0,0,1,34.3,7.1Zm-.55-.95-.26-.29c-.08-.09-.13-.18-.22-.18h0L33,5.74l-.31,0h-.1c-.14,0-.27,0-.27.15V6l.13.83v.27c0,.06,0,.15.1.15s.47-.29.47-.29l.2,0,.43-.2s.29-.15.29-.24A.53.53,0,0,0,33.75,6.16Z" transform="translate(-0.76 -0.38)"/><path class="b" d="M37.29,6.33l0,.57-.06.21,0,.39,0,.25S37,8.6,37,8.82a1.76,1.76,0,0,1-.06.53,1.72,1.72,0,0,1-.08.2v.18c0,.17-.5.3-.5.3l-.11-.22-.1-.1,0-.48.1-.56V8.4l.06-.13.11-.42V7.63l.11-.48,0-.83a.7.7,0,0,1,.11-.39c.11-.18.21-.42.45-.42a.33.33,0,0,1,.34.35A1.36,1.36,0,0,1,37.29,6.33Z" transform="translate(-0.76 -0.38)"/><path class="b" d="M41.91,6C41.83,6,41.59,6,41.5,6H41l-.12,0h-.59c-.09,0-.11,0-.11.06V6.2l-.08.19,0,.39c0,.07,0,.13,0,.17s0,.08.06.08l.34,0h.15l.24-.1.37,0a.48.48,0,0,1,.45.45c0,.2-.28.38-.41.38h0l-.34,0-.75,0-.07,0,0,.07-.08.07,0,.9a2,2,0,0,0-.06.37c0,.06,0,.11,0,.13s.32,0,.46,0l.56,0,.31-.11h.47a.6.6,0,0,1,.5.37c0,.15-.34.36-.41.36h-.08l-.15.08-1,0s-.9.21-1.08.21A.41.41,0,0,1,39,9.76v0l0-.8.08-.21,0-.64L39.21,8l0-.6.14-.88,0-.83a.49.49,0,0,1,.47-.5h.21l.15,0,.31.06.21,0h.61l.4,0h.36c.1,0,.27.2.27.38a.24.24,0,0,1,0,.14A.53.53,0,0,1,41.91,6Z" transform="translate(-0.76 -0.38)"/><path class="b" d="M47,6h-.25l-.37,0-.25,0h-.08a.39.39,0,0,0-.44.39l0,.15,0,.36,0,.41.06.23s0,.39,0,.61,0,.52,0,.52V9c0,.6-.32,1.13-.46,1.13s-.34-.29-.41-.47a.55.55,0,0,1,0-.17A1.9,1.9,0,0,1,45,9c0-.08,0-.27.06-.36l-.06-.18,0-.61V7.63c0-.15-.12-.27-.12-.51s.07-.46.07-.6-.07-.27-.2-.27h0l-.9.07h-.08c-.26,0-.36-.14-.36-.43s.18-.31.37-.37l.13,0,.34,0,.13,0h.47l.41-.15h.22l.69,0,.26-.06h.81s0,.27,0,.36S47,6,47,6Z" transform="translate(-0.76 -0.38)"/><path class="b" d="M51.29,6C51.21,6,51,6,50.88,6h-.54l-.12,0h-.59c-.09,0-.11,0-.11.06V6.2l-.08.19,0,.39c0,.07,0,.13,0,.17s0,.08.06.08l.34,0h.15l.24-.1.37,0a.48.48,0,0,1,.45.45c0,.2-.28.38-.41.38h0l-.34,0-.75,0-.07,0,0,.07-.08.07,0,.9a2,2,0,0,0-.06.37c0,.06,0,.11,0,.13s.32,0,.46,0l.56,0,.31-.11H51a.6.6,0,0,1,.5.37c0,.15-.34.36-.41.36H51l-.15.08-1,0s-.9.21-1.08.21a.41.41,0,0,1-.41-.43v0l0-.8.08-.21,0-.64L48.59,8l0-.6.14-.88,0-.83a.49.49,0,0,1,.47-.5h.21l.15,0,.31.06.21,0h.61l.4,0h.36c.1,0,.27.2.27.38a.24.24,0,0,1,0,.14A.53.53,0,0,1,51.29,6Z" transform="translate(-0.76 -0.38)"/><path class="b" d="M10.64,14.42l-.08.71a4.54,4.54,0,0,1-.51,1.43l-.12.27-.48.43a3.23,3.23,0,0,1-1.13.51,1.68,1.68,0,0,1-1.17-.43l-.06-.16c-.1-.11-.36-.54-.36-1.74a4.23,4.23,0,0,1,.06-.76l.09-.61v-.3c0-.1.24-.41.4-.41a.32.32,0,0,1,.31.21l.06.28,0,.18.06.17-.11.47-.08.2,0,1.3.08.25,0,.18a.69.69,0,0,0,.58.32,1.62,1.62,0,0,0,.9-.38l.25-.48.1-.1a3.73,3.73,0,0,0,.31-1.16c0-.15,0-.25,0-.34a.52.52,0,0,1,.07-.3l.17-.3c.08-.16.28-.16.45-.16a.26.26,0,0,1,.23.28s0,0,0,.06Z" transform="translate(-0.76 -0.38)"/><path class="b" d="M13.06,14.73l0,.57-.06.21,0,.39,0,.25s-.17.84-.17,1.06a1.46,1.46,0,0,1-.13.73v.18c0,.17-.5.3-.5.3L12,18.21l-.1-.1,0-.48.1-.56V16.8l.06-.13.11-.42V16l.11-.48,0-.83a.7.7,0,0,1,.1-.39c.11-.18.21-.42.45-.42a.33.33,0,0,1,.34.35A1.35,1.35,0,0,1,13.06,14.73Z" transform="translate(-0.76 -0.38)"/><path class="b" d="M18.24,14.39H18l-.37,0-.25,0H17.3a.39.39,0,0,0-.44.39l0,.15,0,.36,0,.41.06.23s0,.39,0,.61,0,.52,0,.52v.3c0,.6-.31,1.13-.46,1.13s-.34-.29-.41-.47a.53.53,0,0,1,0-.17,1.93,1.93,0,0,1,.08-.45c0-.08,0-.27.06-.36l-.06-.17,0-.61V16c0-.15-.12-.27-.12-.51s.07-.46.07-.6-.07-.27-.2-.27h0l-.9.07H15c-.26,0-.36-.14-.36-.43s.18-.32.37-.37l.13,0,.34,0,.13,0h.47l.41-.15h.22l.69,0,.26-.06h.81s0,.27,0,.36S18.24,14.39,18.24,14.39Z" transform="translate(-0.76 -0.38)"/><path class="b" d="M21.39,17.55l-.46.15a2.25,2.25,0,0,1-.92.41.58.58,0,0,1-.6-.51c0-.1,0-.19,0-.29a.72.72,0,0,1,0-.11l.11-.52.08-.13.15-1,.06-.16V15l0-.12,0-.48.1-.39L20,14l0-.27.11-.11.09-.17.32,0,.11,0,.12,0a6.91,6.91,0,0,1,1.16.35,2.23,2.23,0,0,1,1.13,1.63A2.52,2.52,0,0,1,21.39,17.55Zm-.65-3.39s-.08.09-.1.15v.16l-.1.45,0,.25-.1.39,0,.15-.15,1c0,.17-.1.35-.1.46s0,.09.08.1a2.82,2.82,0,0,0,.44-.23,5.68,5.68,0,0,0,.72-.34,5.69,5.69,0,0,0,.5-.36l.1-.29.1-.1.06-.19s.15-.16.15-.23A1.48,1.48,0,0,0,20.74,14.16Z" transform="translate(-0.76 -0.38)"/><path class="b" d="M27.18,15.5l-.48.4s0,0,0,0l.41.88.24.29a.24.24,0,0,1,0,.17c0,.27-.21.68-.38.68s-.23-.15-.31-.28l-.24-.39L26.4,17l-.18-.2-.06-.15-.22-.41s0-.06,0-.06a1.05,1.05,0,0,0-.27.13l-.21,0c-.08,0-.14.2-.14.31v0l.09,1V18c0,.12-.23.52-.47.52s-.29-.22-.29-.37l0-1.4,0-.36v-.22l0-.42,0-.17,0-.48-.06-.34,0-.15,0-.57v0a.71.71,0,0,1,.49-.62l.78-.06.43,0,.21.11.39.15.15.15a1.85,1.85,0,0,1,.64,1.16A.84.84,0,0,1,27.18,15.5Zm-.55-.95-.26-.29c-.08-.09-.13-.18-.22-.18h0l-.27.06-.31,0h-.1c-.14,0-.27,0-.27.15v.14l.13.83v.27c0,.06,0,.15.1.15s.47-.29.47-.29l.2,0,.43-.2s.29-.15.29-.24A.54.54,0,0,0,26.63,14.56Z" transform="translate(-0.76 -0.38)"/><path class="b" d="M32.58,14.42l-.08.71A4.55,4.55,0,0,1,32,16.57l-.12.27-.48.43a3.23,3.23,0,0,1-1.13.51,1.68,1.68,0,0,1-1.17-.43L29,17.18c-.1-.11-.36-.54-.36-1.74a4.23,4.23,0,0,1,.06-.76l.09-.61v-.3c0-.1.24-.41.4-.41a.32.32,0,0,1,.31.21l.06.28,0,.18.06.17-.11.47-.08.2,0,1.3.08.25,0,.18a.69.69,0,0,0,.58.32,1.62,1.62,0,0,0,.9-.38l.25-.48.1-.1a3.73,3.73,0,0,0,.31-1.16c0-.15,0-.25,0-.34a.52.52,0,0,1,.07-.3l.17-.3c.08-.16.28-.16.45-.16a.27.27,0,0,1,.23.28s0,0,0,.06Z" transform="translate(-0.76 -0.38)"/><path class="b" d="M37.18,14.82l-.13.08-.22,0c-.24,0-.54.17-.54.3a1.87,1.87,0,0,0,.2.58,2.36,2.36,0,0,1,.17.69l.31.85v.23l.07.22a.35.35,0,0,1,0,.08.44.44,0,0,1-.43.38c-.09,0-.32-.21-.38-.35l-.09-.22-.08-.43L36,17.1l-.06-.5-.08-.38-.3-.5-.08-.25-.06,0-.79.28-.09.09v.32l0,.35v.41l0,.22,0,.15-.06.32v.57c0,.21-.15.48-.33.48s-.48-.18-.48-.41v0l0-.62.12-.62V16l.09-.43,0-.61.07-.22,0-.8,0-.25v0c0-.35.44-.36.5-.36h0l.08.14.2.07,0,.9,0,.22s0,.09,0,.13a.09.09,0,0,0,0,.06h0a.3.3,0,0,0,.14-.06l.25-.07.14-.07.41-.09L36.94,14a.38.38,0,0,1,.15,0,.5.5,0,0,1,.48.45C37.56,14.57,37.18,14.82,37.18,14.82Z" transform="translate(-0.76 -0.38)"/><path class="b" d="M42.09,14.82,42,14.9l-.22,0c-.24,0-.54.17-.54.3a1.9,1.9,0,0,0,.2.58,2.36,2.36,0,0,1,.17.69l.32.85v.23l.07.22a.35.35,0,0,1,0,.08.44.44,0,0,1-.43.38c-.09,0-.32-.21-.39-.35l-.09-.22L41,17.29l-.08-.19-.06-.5-.08-.38-.3-.5-.08-.25-.06,0-.79.28-.09.09v.32l0,.35v.41l0,.22,0,.15-.06.32v.57c0,.21-.15.48-.33.48s-.48-.18-.48-.41v0l0-.62L38.7,17V16l.09-.43,0-.61.07-.22,0-.8,0-.25v0c0-.35.44-.36.5-.36h0l.08.14.2.07,0,.9,0,.22a1.19,1.19,0,0,0,0,.13.09.09,0,0,0,0,.06h0a.3.3,0,0,0,.14-.06l.25-.07.14-.07.41-.09L41.85,14A.38.38,0,0,1,42,14a.5.5,0,0,1,.48.45C42.47,14.57,42.09,14.82,42.09,14.82Z" transform="translate(-0.76 -0.38)"/><path class="b" d="M44.81,14.73l0,.57-.06.21,0,.39,0,.25s-.17.84-.17,1.06a1.46,1.46,0,0,1-.13.73v.18c0,.17-.5.3-.5.3l-.11-.22-.1-.1,0-.48.1-.56V16.8l.06-.13.11-.42V16l.11-.48,0-.83a.7.7,0,0,1,.11-.39c.11-.18.21-.42.45-.42a.33.33,0,0,1,.34.35A1.36,1.36,0,0,1,44.81,14.73Z" transform="translate(-0.76 -0.38)"/><path class="b" d="M50.77,15.4v.17l-.17.45-.09.44-.29.54-.07.29-.1.15-.15.3c-.11.19-.3.41-.41.41s-.29-.18-.41-.33L48.42,17l-.29-.26-.22-.36-.21-.24,0-.15-.07-.09-.07,0h0a.12.12,0,0,0-.11.13v.29l0,.47-.16.71-.2.46a1,1,0,0,1-.28.08c-.13,0-.27-.26-.27-.26V17.5l.09-.23v-.11s.19-1,.21-1.34V15.4c0-.18.12-.29.13-.39s0-.5,0-.5.2-.32.39-.32a1,1,0,0,1,.32.12l.13.48.64,1a6.82,6.82,0,0,0,.65.77c.13.15.18.45.39.45,0,0,.08-.08.08-.15s.08-.18.15-.33a9.87,9.87,0,0,0,.4-1.11l.06-.31.07-.15,0-.24.11-.34a.42.42,0,0,1,.44-.41c.2,0,.32.25.32.5a.65.65,0,0,1,0,.24Z" transform="translate(-0.76 -0.38)"/><path class="b" d="M54,17.85l-.19,0-.27-.08-.29,0L53,17.64l-.19-.06a1.08,1.08,0,0,1-.28-.28,2,2,0,0,1-.12-.2l-.13-.1A1.89,1.89,0,0,1,52,16a1.49,1.49,0,0,1,.52-1.37l.64-.42.24-.16.15-.13.55-.13.48,0,.26,0H55a.57.57,0,0,1,.64.57c0,.2-.09.39-.28.39s-.37-.22-.69-.22a3.8,3.8,0,0,0-1.12.25l-.08.08-.31.18-.34.34c-.09.08-.1.23-.1.48v.11a1.16,1.16,0,0,0,.41,1l.28.09.2.13a.73.73,0,0,0,.24,0,1,1,0,0,0,1-.84.56.56,0,0,0,0-.09.24.24,0,0,0,0-.08s0,0,0,0l-.18,0-.36,0h0a.35.35,0,0,1-.33-.32.44.44,0,0,1,.32-.4l.25,0,.14,0a1.86,1.86,0,0,0,.32,0h.34l.16.11.15.08a1.08,1.08,0,0,1,.08.32s0,0,0,0C55.49,16.9,55.18,17.65,54,17.85Z" transform="translate(-0.76 -0.38)"/><path class="b" d="M57.62,15.43l0,.15-.15.08a.54.54,0,0,1-.33.16c-.13,0-.33-.29-.33-.29v-.08a.46.46,0,0,1-.13-.25.61.61,0,0,1,.59-.57.53.53,0,0,1,.48.54A.66.66,0,0,1,57.62,15.43Zm-.41,2.25a.84.84,0,0,1-.24-.09l-.17-.07a1.55,1.55,0,0,1-.13-.38.48.48,0,0,1,0-.17l0-.15.13-.11.16-.15.32.06.11.13a.57.57,0,0,1,.24.5C57.72,17.56,57.48,17.68,57.21,17.68Z" transform="translate(-0.76 -0.38)"/><path class="a" d="M31.5,27.16l-.1-.75.05-.3,0-.52v-.34a9,9,0,0,0,0-1.44,1.46,1.46,0,0,1,0-.69,2,2,0,0,1,.1-.3l0-.24c0-.23,1-.64,1-.64l.31.23.24.08.08.63,0,.76.08.33-.08.2-.11.59,0,.29-.07.67L33,26.8a.67.67,0,0,1-.1.55c-.18.29-.31.64-.82.76s-.77,0-.83-.27A1.4,1.4,0,0,1,31.5,27.16Z" transform="translate(-0.76 -0.38)"/><path class="a" d="M34.59,26.66l.33.22.46.15-.25.86-.94,1.24-.32.55-.21.2-1,1.46a.67.67,0,0,1-.49.32c-.44,0-.93-.57-1-.65L31,30.85l-.31-.57L30.49,30l-.67-1.16L29.15,28a1.32,1.32,0,0,1-.25-.58A.79.79,0,0,1,29,27c.09-.28.26-.34.36-.35h.05l.11-.05.08,0,.07,0Z" transform="translate(-0.76 -0.38)"/></svg>